<svg width="1482" height="690" viewBox="0 0 1482 690" fill="none" xmlns="http://www.w3.org/2000/svg">
<rect width="1482" height="690" fill="white"/>
<path d="M96 299C96 297.343 97.3431 296 99 296H222C223.657 296 225 297.343 225 299V345C225 346.657 223.657 348 222 348H99C97.3431 348 96 346.657 96 345V299Z" fill="#D2EFFF"/>
<path d="M133.501 331.04V327.12C133.901 327.712 134.749 328.192 135.869 328.192C138.109 328.192 139.533 326.432 139.533 324.096C139.533 321.792 138.237 320.032 135.933 320.032C134.733 320.032 133.837 320.592 133.453 321.264V320.208H131.661V331.04H133.501ZM137.677 324.096C137.677 325.584 136.813 326.544 135.581 326.544C134.365 326.544 133.485 325.584 133.485 324.096C133.485 322.64 134.365 321.68 135.581 321.68C136.829 321.68 137.677 322.64 137.677 324.096ZM142.613 323.248C142.677 322.416 143.349 321.52 144.517 321.52C145.797 321.52 146.405 322.336 146.437 323.248H142.613ZM146.645 325.28C146.389 326.048 145.813 326.64 144.693 326.64C143.541 326.64 142.613 325.792 142.565 324.608H148.261C148.277 324.576 148.309 324.32 148.309 324.016C148.309 321.552 146.901 319.968 144.501 319.968C142.533 319.968 140.709 321.6 140.709 324.064C140.709 326.704 142.581 328.24 144.693 328.24C146.565 328.24 147.797 327.136 148.213 325.776L146.645 325.28ZM151.939 323.504C151.939 322.48 152.499 321.664 153.555 321.664C154.723 321.664 155.155 322.432 155.155 323.392V328H157.011V323.072C157.011 321.36 156.099 319.984 154.195 319.984C153.331 319.984 152.403 320.352 151.891 321.248V320.208H150.083V328H151.939V323.504ZM160.518 324.08C160.518 322.592 161.414 321.648 162.63 321.648C163.846 321.648 164.678 322.576 164.678 324.064C164.678 325.552 163.83 326.56 162.614 326.56C161.35 326.56 160.518 325.568 160.518 324.08ZM166.47 316.416H164.662V321.12C164.422 320.624 163.734 320 162.374 320C160.182 320 158.662 321.84 158.662 324.08C158.662 326.432 160.166 328.192 162.406 328.192C163.51 328.192 164.326 327.648 164.694 326.992C164.694 327.312 164.742 327.824 164.774 328H166.55C166.534 327.872 166.47 327.28 166.47 326.576V316.416ZM170.735 328V320.208H168.895V328H170.735ZM168.607 317.472C168.607 318.144 169.151 318.672 169.807 318.672C170.479 318.672 171.023 318.144 171.023 317.472C171.023 316.8 170.479 316.256 169.807 316.256C169.151 316.256 168.607 316.8 168.607 317.472ZM174.986 323.504C174.986 322.48 175.546 321.664 176.602 321.664C177.77 321.664 178.202 322.432 178.202 323.392V328H180.058V323.072C180.058 321.36 179.146 319.984 177.242 319.984C176.378 319.984 175.45 320.352 174.938 321.248V320.208H173.13V328H174.986V323.504ZM181.757 328.432C181.965 330 183.405 331.28 185.469 331.28C188.397 331.28 189.469 329.344 189.469 327.264V320.208H187.677V321.2C187.341 320.56 186.589 320.064 185.373 320.064C183.229 320.064 181.773 321.776 181.773 323.856C181.773 326.048 183.293 327.648 185.373 327.648C186.509 327.648 187.293 327.12 187.629 326.512V327.328C187.629 328.912 186.893 329.664 185.421 329.664C184.349 329.664 183.597 328.944 183.469 327.984L181.757 328.432ZM185.677 326.064C184.461 326.064 183.645 325.216 183.645 323.856C183.645 322.528 184.493 321.664 185.677 321.664C186.829 321.664 187.677 322.528 187.677 323.856C187.677 325.2 186.861 326.064 185.677 326.064Z" fill="black"/>
<path d="M99 297H222V295H99V297ZM224 299V345H226V299H224ZM222 347H99V349H222V347ZM97 345V299H95V345H97ZM99 347C97.8954 347 97 346.105 97 345H95C95 347.209 96.7909 349 99 349V347ZM224 345C224 346.105 223.105 347 222 347V349C224.209 349 226 347.209 226 345H224ZM222 297C223.105 297 224 297.895 224 299H226C226 296.791 224.209 295 222 295V297ZM99 295C96.7909 295 95 296.791 95 299H97C97 297.895 97.8954 297 99 297V295Z" fill="#8E8E8E"/>
<path d="M275 43C275 41.3431 276.343 40 278 40H399C400.657 40 402 41.3431 402 43V89C402 90.6569 400.657 92 399 92H278C276.343 92 275 90.6569 275 89V43Z" fill="#F2F2F2"/>
<path d="M312.235 72V70.96C312.683 71.712 313.531 72.192 314.635 72.192C316.907 72.192 318.299 70.416 318.299 68.064C318.299 65.776 317.035 64 314.699 64C313.499 64 312.603 64.56 312.251 65.168V60.416H310.427V72H312.235ZM316.427 68.08C316.427 69.616 315.547 70.544 314.331 70.544C313.147 70.544 312.235 69.616 312.235 68.08C312.235 66.528 313.147 65.648 314.331 65.648C315.563 65.648 316.427 66.528 316.427 68.08ZM321.939 72V60.416H320.083V72H321.939ZM327.757 70.576C326.621 70.576 325.581 69.712 325.581 68.096C325.581 66.48 326.621 65.648 327.757 65.648C328.909 65.648 329.933 66.48 329.933 68.096C329.933 69.728 328.909 70.576 327.757 70.576ZM327.757 63.968C325.437 63.968 323.725 65.712 323.725 68.096C323.725 70.496 325.437 72.24 327.757 72.24C330.093 72.24 331.805 70.496 331.805 68.096C331.805 65.712 330.093 63.968 327.757 63.968ZM336.99 65.68C338.174 65.68 338.702 66.448 338.878 67.136L340.542 66.528C340.222 65.28 339.07 63.968 336.974 63.968C334.734 63.968 332.99 65.696 332.99 68.096C332.99 70.464 334.734 72.24 337.022 72.24C339.07 72.24 340.238 70.912 340.606 69.696L338.974 69.104C338.798 69.696 338.238 70.544 337.022 70.544C335.854 70.544 334.846 69.664 334.846 68.096C334.846 66.528 335.854 65.68 336.99 65.68ZM349.551 64.208H347.087L344.095 67.36V60.416H342.255V72H344.095V69.824L345.055 68.816L347.343 72H349.615L346.351 67.504L349.551 64.208ZM351.879 67.248C351.943 66.416 352.615 65.52 353.783 65.52C355.063 65.52 355.671 66.336 355.703 67.248H351.879ZM355.911 69.28C355.655 70.048 355.079 70.64 353.959 70.64C352.807 70.64 351.879 69.792 351.831 68.608H357.527C357.543 68.576 357.575 68.32 357.575 68.016C357.575 65.552 356.167 63.968 353.767 63.968C351.799 63.968 349.975 65.6 349.975 68.064C349.975 70.704 351.847 72.24 353.959 72.24C355.831 72.24 357.063 71.136 357.479 69.776L355.911 69.28ZM360.596 68.08C360.596 66.592 361.492 65.648 362.708 65.648C363.924 65.648 364.756 66.576 364.756 68.064C364.756 69.552 363.908 70.56 362.692 70.56C361.428 70.56 360.596 69.568 360.596 68.08ZM366.548 60.416H364.74V65.12C364.5 64.624 363.812 64 362.452 64C360.26 64 358.74 65.84 358.74 68.08C358.74 70.432 360.244 72.192 362.484 72.192C363.588 72.192 364.404 71.648 364.772 70.992C364.772 71.312 364.82 71.824 364.852 72H366.628C366.612 71.872 366.548 71.28 366.548 70.576V60.416Z" fill="black"/>
<path d="M278 41H399V39H278V41ZM401 43V89H403V43H401ZM399 91H278V93H399V91ZM276 89V43H274V89H276ZM278 91C276.895 91 276 90.1046 276 89H274C274 91.2091 275.791 93 278 93V91ZM401 89C401 90.1046 400.105 91 399 91V93C401.209 93 403 91.2091 403 89H401ZM399 41C400.105 41 401 41.8954 401 43H403C403 40.7909 401.209 39 399 39V41ZM278 39C275.791 39 274 40.7909 274 43H276C276 41.8954 276.895 41 278 41V39Z" fill="#8E8E8E"/>
<path d="M452 197C452 195.343 453.343 194 455 194H594C595.657 194 597 195.343 597 197V243C597 244.657 595.657 246 594 246H455C453.343 246 452 244.657 452 243V197Z" fill="#F2F2F2"/>
<path d="M492.288 225.136C492.288 225.456 492.32 225.824 492.352 226H494.128C494.096 225.712 494.048 225.216 494.048 224.576V218.208H492.192V222.816C492.192 223.84 491.632 224.56 490.56 224.56C489.44 224.56 488.992 223.744 488.992 222.784V218.208H487.136V223.12C487.136 224.848 488.224 226.224 490.08 226.224C490.992 226.224 491.904 225.84 492.288 225.136ZM498.306 221.504C498.306 220.48 498.866 219.664 499.922 219.664C501.09 219.664 501.522 220.432 501.522 221.392V226H503.378V221.072C503.378 219.36 502.466 217.984 500.562 217.984C499.698 217.984 498.77 218.352 498.258 219.248V218.208H496.45V226H498.306V221.504ZM507.446 226V224.96C507.894 225.712 508.742 226.192 509.846 226.192C512.118 226.192 513.51 224.416 513.51 222.064C513.51 219.776 512.246 218 509.91 218C508.71 218 507.814 218.56 507.462 219.168V214.416H505.638V226H507.446ZM511.638 222.08C511.638 223.616 510.758 224.544 509.542 224.544C508.358 224.544 507.446 223.616 507.446 222.08C507.446 220.528 508.358 219.648 509.542 219.648C510.774 219.648 511.638 220.528 511.638 222.08ZM517.15 226V214.416H515.294V226H517.15ZM522.968 224.576C521.832 224.576 520.792 223.712 520.792 222.096C520.792 220.48 521.832 219.648 522.968 219.648C524.12 219.648 525.144 220.48 525.144 222.096C525.144 223.728 524.12 224.576 522.968 224.576ZM522.968 217.968C520.648 217.968 518.936 219.712 518.936 222.096C518.936 224.496 520.648 226.24 522.968 226.24C525.304 226.24 527.016 224.496 527.016 222.096C527.016 219.712 525.304 217.968 522.968 217.968ZM532.201 219.68C533.385 219.68 533.913 220.448 534.089 221.136L535.753 220.528C535.433 219.28 534.281 217.968 532.185 217.968C529.945 217.968 528.201 219.696 528.201 222.096C528.201 224.464 529.945 226.24 532.233 226.24C534.281 226.24 535.449 224.912 535.817 223.696L534.185 223.104C534.009 223.696 533.449 224.544 532.233 224.544C531.065 224.544 530.057 223.664 530.057 222.096C530.057 220.528 531.065 219.68 532.201 219.68ZM544.762 218.208H542.298L539.306 221.36V214.416H537.466V226H539.306V223.824L540.266 222.816L542.554 226H544.826L541.562 221.504L544.762 218.208ZM547.09 221.248C547.154 220.416 547.826 219.52 548.994 219.52C550.274 219.52 550.882 220.336 550.914 221.248H547.09ZM551.122 223.28C550.866 224.048 550.29 224.64 549.17 224.64C548.018 224.64 547.09 223.792 547.042 222.608H552.738C552.754 222.576 552.786 222.32 552.786 222.016C552.786 219.552 551.378 217.968 548.978 217.968C547.01 217.968 545.186 219.6 545.186 222.064C545.186 224.704 547.058 226.24 549.17 226.24C551.042 226.24 552.274 225.136 552.69 223.776L551.122 223.28ZM555.807 222.08C555.807 220.592 556.703 219.648 557.919 219.648C559.135 219.648 559.967 220.576 559.967 222.064C559.967 223.552 559.119 224.56 557.903 224.56C556.639 224.56 555.807 223.568 555.807 222.08ZM561.759 214.416H559.951V219.12C559.711 218.624 559.023 218 557.663 218C555.471 218 553.951 219.84 553.951 222.08C553.951 224.432 555.455 226.192 557.695 226.192C558.799 226.192 559.615 225.648 559.983 224.992C559.983 225.312 560.031 225.824 560.063 226H561.839C561.823 225.872 561.759 225.28 561.759 224.576V214.416Z" fill="black"/>
<path d="M455 195H594V193H455V195ZM596 197V243H598V197H596ZM594 245H455V247H594V245ZM453 243V197H451V243H453ZM455 245C453.895 245 453 244.105 453 243H451C451 245.209 452.791 247 455 247V245ZM596 243C596 244.105 595.105 245 594 245V247C596.209 247 598 245.209 598 243H596ZM594 195C595.105 195 596 195.895 596 197H598C598 194.791 596.209 193 594 193V195ZM455 193C452.791 193 451 194.791 451 197H453C453 195.895 453.895 195 455 195V193Z" fill="#8E8E8E"/>
<path d="M452 43C452 41.3431 453.343 40 455 40H625C626.657 40 628 41.3431 628 43V89C628 90.6569 626.657 92 625 92H455C453.343 92 452 90.6569 452 89V43Z" fill="#F2F2F2"/>
<path d="M489.149 72V70.96C489.597 71.712 490.445 72.192 491.549 72.192C493.821 72.192 495.213 70.416 495.213 68.064C495.213 65.776 493.949 64 491.613 64C490.413 64 489.517 64.56 489.165 65.168V60.416H487.341V72H489.149ZM493.341 68.08C493.341 69.616 492.461 70.544 491.245 70.544C490.061 70.544 489.149 69.616 489.149 68.08C489.149 66.528 490.061 65.648 491.245 65.648C492.477 65.648 493.341 66.528 493.341 68.08ZM498.853 72V60.416H496.997V72H498.853ZM504.671 70.576C503.535 70.576 502.495 69.712 502.495 68.096C502.495 66.48 503.535 65.648 504.671 65.648C505.823 65.648 506.847 66.48 506.847 68.096C506.847 69.728 505.823 70.576 504.671 70.576ZM504.671 63.968C502.351 63.968 500.639 65.712 500.639 68.096C500.639 70.496 502.351 72.24 504.671 72.24C507.007 72.24 508.719 70.496 508.719 68.096C508.719 65.712 507.007 63.968 504.671 63.968ZM513.905 65.68C515.089 65.68 515.617 66.448 515.793 67.136L517.457 66.528C517.137 65.28 515.985 63.968 513.889 63.968C511.649 63.968 509.905 65.696 509.905 68.096C509.905 70.464 511.649 72.24 513.937 72.24C515.985 72.24 517.153 70.912 517.521 69.696L515.889 69.104C515.713 69.696 515.153 70.544 513.937 70.544C512.769 70.544 511.761 69.664 511.761 68.096C511.761 66.528 512.769 65.68 513.905 65.68ZM526.465 64.208H524.001L521.009 67.36V60.416H519.169V72H521.009V69.824L521.969 68.816L524.257 72H526.529L523.265 67.504L526.465 64.208ZM528.793 67.248C528.857 66.416 529.529 65.52 530.697 65.52C531.977 65.52 532.585 66.336 532.617 67.248H528.793ZM532.825 69.28C532.569 70.048 531.993 70.64 530.873 70.64C529.721 70.64 528.793 69.792 528.745 68.608H534.441C534.457 68.576 534.489 68.32 534.489 68.016C534.489 65.552 533.081 63.968 530.681 63.968C528.713 63.968 526.889 65.6 526.889 68.064C526.889 70.704 528.761 72.24 530.873 72.24C532.745 72.24 533.977 71.136 534.393 69.776L532.825 69.28ZM537.511 68.08C537.511 66.592 538.407 65.648 539.623 65.648C540.839 65.648 541.671 66.576 541.671 68.064C541.671 69.552 540.823 70.56 539.607 70.56C538.343 70.56 537.511 69.568 537.511 68.08ZM543.463 60.416H541.655V65.12C541.415 64.624 540.727 64 539.367 64C537.174 64 535.655 65.84 535.655 68.08C535.655 70.432 537.159 72.192 539.399 72.192C540.503 72.192 541.319 71.648 541.687 70.992C541.687 71.312 541.735 71.824 541.767 72H543.543C543.527 71.872 543.463 71.28 543.463 70.576V60.416ZM553.024 73.536V72H544.848V73.536H553.024ZM557.687 62C558.039 62 558.247 62.048 558.359 62.08V60.496C558.231 60.432 557.847 60.336 557.383 60.336C555.783 60.336 554.663 61.392 554.663 63.136V64.208H553.303V65.824H554.663V72H556.535V65.824H558.343V64.208H556.535V63.184C556.535 62.224 557.191 62 557.687 62ZM559.189 69.888C559.189 71.12 560.197 72.24 561.829 72.24C563.093 72.24 563.861 71.6 564.229 71.008C564.229 71.632 564.293 71.952 564.309 72H566.037C566.021 71.92 565.941 71.456 565.941 70.752V66.88C565.941 65.328 565.029 63.968 562.629 63.968C560.709 63.968 559.493 65.168 559.349 66.512L561.045 66.896C561.125 66.112 561.669 65.488 562.645 65.488C563.669 65.488 564.117 66.016 564.117 66.672C564.117 66.944 563.989 67.168 563.541 67.232L561.541 67.536C560.213 67.728 559.189 68.496 559.189 69.888ZM562.181 70.784C561.445 70.784 561.045 70.304 561.045 69.776C561.045 69.136 561.509 68.816 562.085 68.72L564.117 68.416V68.768C564.117 70.288 563.221 70.784 562.181 70.784ZM570.024 72V64.208H568.184V72H570.024ZM567.896 61.472C567.896 62.144 568.44 62.672 569.096 62.672C569.768 62.672 570.312 62.144 570.312 61.472C570.312 60.8 569.768 60.256 569.096 60.256C568.44 60.256 567.896 60.8 567.896 61.472ZM574.275 72V60.416H572.419V72H574.275ZM577.965 67.248C578.029 66.416 578.701 65.52 579.869 65.52C581.149 65.52 581.757 66.336 581.789 67.248H577.965ZM581.997 69.28C581.741 70.048 581.165 70.64 580.045 70.64C578.893 70.64 577.965 69.792 577.917 68.608H583.613C583.629 68.576 583.661 68.32 583.661 68.016C583.661 65.552 582.253 63.968 579.853 63.968C577.885 63.968 576.061 65.6 576.061 68.064C576.061 70.704 577.933 72.24 580.045 72.24C581.917 72.24 583.149 71.136 583.565 69.776L581.997 69.28ZM586.682 68.08C586.682 66.592 587.578 65.648 588.794 65.648C590.01 65.648 590.842 66.576 590.842 68.064C590.842 69.552 589.994 70.56 588.778 70.56C587.514 70.56 586.682 69.568 586.682 68.08ZM592.634 60.416H590.826V65.12C590.586 64.624 589.898 64 588.538 64C586.346 64 584.826 65.84 584.826 68.08C584.826 70.432 586.33 72.192 588.57 72.192C589.674 72.192 590.49 71.648 590.858 70.992C590.858 71.312 590.906 71.824 590.938 72H592.714C592.698 71.872 592.634 71.28 592.634 70.576V60.416Z" fill="black"/>
<path d="M455 41H625V39H455V41ZM627 43V89H629V43H627ZM625 91H455V93H625V91ZM453 89V43H451V89H453ZM455 91C453.895 91 453 90.1046 453 89H451C451 91.2091 452.791 93 455 93V91ZM627 89C627 90.1046 626.105 91 625 91V93C627.209 93 629 91.2091 629 89H627ZM625 41C626.105 41 627 41.8954 627 43H629C629 40.7909 627.209 39 625 39V41ZM455 39C452.791 39 451 40.7909 451 43H453C453 41.8954 453.895 41 455 41V39Z" fill="#8E8E8E"/>
<path d="M452 105C452 103.343 453.343 102 455 102H644C645.657 102 647 103.343 647 105V151C647 152.657 645.657 154 644 154H455C453.343 154 452 152.657 452 151V105Z" fill="#F2F2F2"/>
<path d="M492.702 133.136C492.702 133.456 492.734 133.824 492.766 134H494.542C494.51 133.712 494.462 133.216 494.462 132.576V126.208H492.606V130.816C492.606 131.84 492.046 132.56 490.974 132.56C489.854 132.56 489.406 131.744 489.406 130.784V126.208H487.55V131.12C487.55 132.848 488.638 134.224 490.494 134.224C491.406 134.224 492.318 133.84 492.702 133.136ZM498.72 129.504C498.72 128.48 499.28 127.664 500.336 127.664C501.504 127.664 501.936 128.432 501.936 129.392V134H503.792V129.072C503.792 127.36 502.88 125.984 500.976 125.984C500.112 125.984 499.184 126.352 498.672 127.248V126.208H496.864V134H498.72V129.504ZM507.86 134V132.96C508.308 133.712 509.156 134.192 510.26 134.192C512.532 134.192 513.924 132.416 513.924 130.064C513.924 127.776 512.66 126 510.324 126C509.124 126 508.228 126.56 507.876 127.168V122.416H506.052V134H507.86ZM512.052 130.08C512.052 131.616 511.172 132.544 509.956 132.544C508.772 132.544 507.86 131.616 507.86 130.08C507.86 128.528 508.772 127.648 509.956 127.648C511.188 127.648 512.052 128.528 512.052 130.08ZM517.564 134V122.416H515.708V134H517.564ZM523.382 132.576C522.246 132.576 521.206 131.712 521.206 130.096C521.206 128.48 522.246 127.648 523.382 127.648C524.534 127.648 525.558 128.48 525.558 130.096C525.558 131.728 524.534 132.576 523.382 132.576ZM523.382 125.968C521.062 125.968 519.35 127.712 519.35 130.096C519.35 132.496 521.062 134.24 523.382 134.24C525.718 134.24 527.43 132.496 527.43 130.096C527.43 127.712 525.718 125.968 523.382 125.968ZM532.615 127.68C533.799 127.68 534.327 128.448 534.503 129.136L536.167 128.528C535.847 127.28 534.695 125.968 532.599 125.968C530.359 125.968 528.615 127.696 528.615 130.096C528.615 132.464 530.359 134.24 532.647 134.24C534.695 134.24 535.863 132.912 536.231 131.696L534.599 131.104C534.423 131.696 533.863 132.544 532.647 132.544C531.479 132.544 530.471 131.664 530.471 130.096C530.471 128.528 531.479 127.68 532.615 127.68ZM545.176 126.208H542.712L539.72 129.36V122.416H537.88V134H539.72V131.824L540.68 130.816L542.968 134H545.24L541.976 129.504L545.176 126.208ZM547.504 129.248C547.568 128.416 548.24 127.52 549.408 127.52C550.688 127.52 551.296 128.336 551.328 129.248H547.504ZM551.536 131.28C551.28 132.048 550.704 132.64 549.584 132.64C548.432 132.64 547.504 131.792 547.456 130.608H553.152C553.168 130.576 553.2 130.32 553.2 130.016C553.2 127.552 551.792 125.968 549.392 125.968C547.424 125.968 545.6 127.6 545.6 130.064C545.6 132.704 547.472 134.24 549.584 134.24C551.456 134.24 552.688 133.136 553.104 131.776L551.536 131.28ZM556.221 130.08C556.221 128.592 557.117 127.648 558.333 127.648C559.549 127.648 560.381 128.576 560.381 130.064C560.381 131.552 559.533 132.56 558.317 132.56C557.053 132.56 556.221 131.568 556.221 130.08ZM562.173 122.416H560.365V127.12C560.125 126.624 559.437 126 558.077 126C555.885 126 554.365 127.84 554.365 130.08C554.365 132.432 555.869 134.192 558.109 134.192C559.213 134.192 560.029 133.648 560.397 132.992C560.397 133.312 560.445 133.824 560.477 134H562.253C562.237 133.872 562.173 133.28 562.173 132.576V122.416ZM571.734 135.536V134H563.558V135.536H571.734ZM576.398 124C576.75 124 576.958 124.048 577.07 124.08V122.496C576.942 122.432 576.558 122.336 576.094 122.336C574.494 122.336 573.374 123.392 573.374 125.136V126.208H572.014V127.824H573.374V134H575.246V127.824H577.054V126.208H575.246V125.184C575.246 124.224 575.902 124 576.398 124ZM577.9 131.888C577.9 133.12 578.908 134.24 580.54 134.24C581.804 134.24 582.572 133.6 582.94 133.008C582.94 133.632 583.004 133.952 583.02 134H584.748C584.732 133.92 584.652 133.456 584.652 132.752V128.88C584.652 127.328 583.74 125.968 581.34 125.968C579.42 125.968 578.204 127.168 578.06 128.512L579.756 128.896C579.836 128.112 580.38 127.488 581.356 127.488C582.38 127.488 582.828 128.016 582.828 128.672C582.828 128.944 582.7 129.168 582.252 129.232L580.252 129.536C578.924 129.728 577.9 130.496 577.9 131.888ZM580.892 132.784C580.156 132.784 579.756 132.304 579.756 131.776C579.756 131.136 580.22 130.816 580.796 130.72L582.828 130.416V130.768C582.828 132.288 581.932 132.784 580.892 132.784ZM588.735 134V126.208H586.895V134H588.735ZM586.607 123.472C586.607 124.144 587.151 124.672 587.807 124.672C588.479 124.672 589.023 124.144 589.023 123.472C589.023 122.8 588.479 122.256 587.807 122.256C587.151 122.256 586.607 122.8 586.607 123.472ZM592.986 134V122.416H591.13V134H592.986ZM596.676 129.248C596.74 128.416 597.412 127.52 598.58 127.52C599.86 127.52 600.468 128.336 600.5 129.248H596.676ZM600.708 131.28C600.452 132.048 599.876 132.64 598.756 132.64C597.604 132.64 596.676 131.792 596.628 130.608H602.324C602.34 130.576 602.372 130.32 602.372 130.016C602.372 127.552 600.964 125.968 598.564 125.968C596.596 125.968 594.772 127.6 594.772 130.064C594.772 132.704 596.644 134.24 598.756 134.24C600.628 134.24 601.86 133.136 602.276 131.776L600.708 131.28ZM605.393 130.08C605.393 128.592 606.289 127.648 607.505 127.648C608.721 127.648 609.553 128.576 609.553 130.064C609.553 131.552 608.705 132.56 607.489 132.56C606.225 132.56 605.393 131.568 605.393 130.08ZM611.345 122.416H609.537V127.12C609.297 126.624 608.609 126 607.249 126C605.057 126 603.537 127.84 603.537 130.08C603.537 132.432 605.041 134.192 607.281 134.192C608.385 134.192 609.201 133.648 609.569 132.992C609.569 133.312 609.617 133.824 609.649 134H611.425C611.409 133.872 611.345 133.28 611.345 132.576V122.416Z" fill="black"/>
<path d="M455 103H644V101H455V103ZM646 105V151H648V105H646ZM644 153H455V155H644V153ZM453 151V105H451V151H453ZM455 153C453.895 153 453 152.105 453 151H451C451 153.209 452.791 155 455 155V153ZM646 151C646 152.105 645.105 153 644 153V155C646.209 155 648 153.209 648 151H646ZM644 103C645.105 103 646 103.895 646 105H648C648 102.791 646.209 101 644 101V103ZM455 101C452.791 101 451 102.791 451 105H453C453 103.895 453.895 103 455 103V101Z" fill="#8E8E8E"/>
<path d="M275 371C275 369.343 276.343 368 278 368H396C397.657 368 399 369.343 399 371V417C399 418.657 397.657 420 396 420H278C276.343 420 275 418.657 275 417V371Z" fill="#F2F2F2"/>
<path d="M312.353 400V388.416H310.497V400H312.353ZM316.587 400V392.208H314.747V400H316.587ZM314.459 389.472C314.459 390.144 315.003 390.672 315.659 390.672C316.331 390.672 316.875 390.144 316.875 389.472C316.875 388.8 316.331 388.256 315.659 388.256C315.003 388.256 314.459 388.8 314.459 389.472ZM320.821 400V395.376C320.821 394.384 321.445 393.648 322.437 393.648C323.493 393.648 323.941 394.352 323.941 395.248V400H325.765V395.376C325.765 394.416 326.405 393.648 327.381 393.648C328.421 393.648 328.885 394.336 328.885 395.248V400H330.677V394.944C330.677 392.88 329.333 391.984 327.925 391.984C326.917 391.984 326.005 392.336 325.397 393.36C324.981 392.448 324.085 391.984 323.061 391.984C322.181 391.984 321.205 392.4 320.757 393.2V392.208H318.981V400H320.821ZM334.79 400V392.208H332.95V400H334.79ZM332.662 389.472C332.662 390.144 333.206 390.672 333.862 390.672C334.534 390.672 335.078 390.144 335.078 389.472C335.078 388.8 334.534 388.256 333.862 388.256C333.206 388.256 332.662 388.8 332.662 389.472ZM339.536 389.824H337.856V390.992C337.856 391.68 337.488 392.208 336.656 392.208H336.256V393.856H337.696V397.776C337.696 399.232 338.592 400.096 340.032 400.096C340.704 400.096 341.056 399.968 341.168 399.92V398.384C341.088 398.4 340.784 398.448 340.528 398.448C339.84 398.448 339.536 398.16 339.536 397.472V393.856H341.152V392.208H339.536V389.824ZM344.899 400V392.208H343.059V400H344.899ZM342.771 389.472C342.771 390.144 343.315 390.672 343.971 390.672C344.643 390.672 345.187 390.144 345.187 389.472C345.187 388.8 344.643 388.256 343.971 388.256C343.315 388.256 342.771 388.8 342.771 389.472ZM349.15 395.504C349.15 394.48 349.71 393.664 350.766 393.664C351.934 393.664 352.366 394.432 352.366 395.392V400H354.222V395.072C354.222 393.36 353.31 391.984 351.406 391.984C350.542 391.984 349.614 392.352 349.102 393.248V392.208H347.294V400H349.15V395.504ZM355.921 400.432C356.129 402 357.569 403.28 359.633 403.28C362.561 403.28 363.633 401.344 363.633 399.264V392.208H361.841V393.2C361.505 392.56 360.753 392.064 359.537 392.064C357.393 392.064 355.937 393.776 355.937 395.856C355.937 398.048 357.457 399.648 359.537 399.648C360.673 399.648 361.457 399.12 361.793 398.512V399.328C361.793 400.912 361.057 401.664 359.585 401.664C358.513 401.664 357.761 400.944 357.633 399.984L355.921 400.432ZM359.841 398.064C358.625 398.064 357.809 397.216 357.809 395.856C357.809 394.528 358.657 393.664 359.841 393.664C360.993 393.664 361.841 394.528 361.841 395.856C361.841 397.2 361.025 398.064 359.841 398.064Z" fill="black"/>
<path d="M278 369H396V367H278V369ZM398 371V417H400V371H398ZM396 419H278V421H396V419ZM276 417V371H274V417H276ZM278 419C276.895 419 276 418.105 276 417H274C274 419.209 275.791 421 278 421V419ZM398 417C398 418.105 397.105 419 396 419V421C398.209 421 400 419.209 400 417H398ZM396 369C397.105 369 398 369.895 398 371H400C400 368.791 398.209 367 396 367V369ZM278 367C275.791 367 274 368.791 274 371H276C276 369.895 276.895 369 278 369V367Z" fill="#8E8E8E"/>
<path d="M315 443C315 441.343 316.343 440 318 440H431C432.657 440 434 441.343 434 443V489C434 490.657 432.657 492 431 492H318C316.343 492 315 490.657 315 489V443Z" fill="#F2F2F2"/>
<path d="M352.119 472V460.416H350.263V472H352.119ZM356.353 472V464.208H354.513V472H356.353ZM354.225 461.472C354.225 462.144 354.769 462.672 355.424 462.672C356.097 462.672 356.641 462.144 356.641 461.472C356.641 460.8 356.097 460.256 355.424 460.256C354.769 460.256 354.225 460.8 354.225 461.472ZM360.587 472V467.376C360.587 466.384 361.211 465.648 362.203 465.648C363.259 465.648 363.707 466.352 363.707 467.248V472H365.531V467.376C365.531 466.416 366.171 465.648 367.147 465.648C368.187 465.648 368.651 466.336 368.651 467.248V472H370.443V466.944C370.443 464.88 369.099 463.984 367.691 463.984C366.683 463.984 365.771 464.336 365.163 465.36C364.747 464.448 363.851 463.984 362.827 463.984C361.947 463.984 360.971 464.4 360.523 465.2V464.208H358.747V472H360.587ZM374.556 472V464.208H372.716V472H374.556ZM372.428 461.472C372.428 462.144 372.972 462.672 373.628 462.672C374.3 462.672 374.844 462.144 374.844 461.472C374.844 460.8 374.3 460.256 373.628 460.256C372.972 460.256 372.428 460.8 372.428 461.472ZM379.302 461.824H377.622V462.992C377.622 463.68 377.254 464.208 376.422 464.208H376.022V465.856H377.462V469.776C377.462 471.232 378.358 472.096 379.798 472.096C380.47 472.096 380.822 471.968 380.934 471.92V470.384C380.854 470.4 380.55 470.448 380.294 470.448C379.606 470.448 379.302 470.16 379.302 469.472V465.856H380.918V464.208H379.302V461.824ZM384.043 467.248C384.107 466.416 384.779 465.52 385.947 465.52C387.227 465.52 387.835 466.336 387.867 467.248H384.043ZM388.075 469.28C387.819 470.048 387.243 470.64 386.123 470.64C384.971 470.64 384.043 469.792 383.995 468.608H389.691C389.707 468.576 389.739 468.32 389.739 468.016C389.739 465.552 388.331 463.968 385.931 463.968C383.963 463.968 382.139 465.6 382.139 468.064C382.139 470.704 384.011 472.24 386.123 472.24C387.995 472.24 389.227 471.136 389.643 469.776L388.075 469.28ZM392.761 468.08C392.761 466.592 393.657 465.648 394.873 465.648C396.089 465.648 396.921 466.576 396.921 468.064C396.921 469.552 396.073 470.56 394.857 470.56C393.593 470.56 392.761 469.568 392.761 468.08ZM398.713 460.416H396.905V465.12C396.665 464.624 395.977 464 394.617 464C392.424 464 390.905 465.84 390.905 468.08C390.905 470.432 392.409 472.192 394.649 472.192C395.753 472.192 396.569 471.648 396.937 470.992C396.937 471.312 396.985 471.824 397.017 472H398.793C398.777 471.872 398.713 471.28 398.713 470.576V460.416Z" fill="black"/>
<path d="M318 441H431V439H318V441ZM433 443V489H435V443H433ZM431 491H318V493H431V491ZM316 489V443H314V489H316ZM318 491C316.895 491 316 490.105 316 489H314C314 491.209 315.791 493 318 493V491ZM433 489C433 490.105 432.105 491 431 491V493C433.209 493 435 491.209 435 489H433ZM431 441C432.105 441 433 441.895 433 443H435C435 440.791 433.209 439 431 439V441ZM318 439C315.791 439 314 440.791 314 443H316C316 441.895 316.895 441 318 441V439Z" fill="#8E8E8E"/>
<path d="M315 607C315 605.343 316.343 604 318 604H484C485.657 604 487 605.343 487 607V653C487 654.657 485.657 656 484 656H318C316.343 656 315 654.657 315 653V607Z" fill="#F2F2F2"/>
<path d="M354.804 628.208L352.964 633.6L351.38 628.208H349.396L351.924 636H353.828L355.716 630.4L357.652 636H359.508L362.004 628.208H360.116L358.564 633.6L356.724 628.208H354.804ZM362.892 633.888C362.892 635.12 363.9 636.24 365.532 636.24C366.796 636.24 367.564 635.6 367.932 635.008C367.932 635.632 367.996 635.952 368.012 636H369.74C369.724 635.92 369.644 635.456 369.644 634.752V630.88C369.644 629.328 368.732 627.968 366.332 627.968C364.412 627.968 363.196 629.168 363.052 630.512L364.748 630.896C364.828 630.112 365.372 629.488 366.348 629.488C367.372 629.488 367.82 630.016 367.82 630.672C367.82 630.944 367.692 631.168 367.244 631.232L365.244 631.536C363.916 631.728 362.892 632.496 362.892 633.888ZM365.884 634.784C365.148 634.784 364.748 634.304 364.748 633.776C364.748 633.136 365.212 632.816 365.788 632.72L367.82 632.416V632.768C367.82 634.288 366.924 634.784 365.884 634.784ZM373.728 636V628.208H371.888V636H373.728ZM371.6 625.472C371.6 626.144 372.144 626.672 372.799 626.672C373.472 626.672 374.016 626.144 374.016 625.472C374.016 624.8 373.472 624.256 372.799 624.256C372.144 624.256 371.6 624.8 371.6 625.472ZM378.474 625.824H376.794V626.992C376.794 627.68 376.426 628.208 375.594 628.208H375.194V629.856H376.634V633.776C376.634 635.232 377.53 636.096 378.97 636.096C379.642 636.096 379.994 635.968 380.106 635.92V634.384C380.026 634.4 379.722 634.448 379.466 634.448C378.778 634.448 378.474 634.16 378.474 633.472V629.856H380.09V628.208H378.474V625.824ZM383.837 636V628.208H381.997V636H383.837ZM381.709 625.472C381.709 626.144 382.253 626.672 382.909 626.672C383.581 626.672 384.125 626.144 384.125 625.472C384.125 624.8 383.581 624.256 382.909 624.256C382.253 624.256 381.709 624.8 381.709 625.472ZM388.087 631.504C388.087 630.48 388.647 629.664 389.703 629.664C390.871 629.664 391.303 630.432 391.303 631.392V636H393.159V631.072C393.159 629.36 392.247 627.984 390.343 627.984C389.479 627.984 388.551 628.352 388.039 629.248V628.208H386.231V636H388.087V631.504ZM394.859 636.432C395.067 638 396.507 639.28 398.571 639.28C401.499 639.28 402.571 637.344 402.571 635.264V628.208H400.779V629.2C400.443 628.56 399.691 628.064 398.475 628.064C396.331 628.064 394.875 629.776 394.875 631.856C394.875 634.048 396.395 635.648 398.475 635.648C399.611 635.648 400.395 635.12 400.731 634.512V635.328C400.731 636.912 399.995 637.664 398.523 637.664C397.451 637.664 396.699 636.944 396.571 635.984L394.859 636.432ZM398.779 634.064C397.563 634.064 396.747 633.216 396.747 631.856C396.747 630.528 397.595 629.664 398.779 629.664C399.931 629.664 400.779 630.528 400.779 631.856C400.779 633.2 399.963 634.064 398.779 634.064ZM411.977 637.536V636H403.801V637.536H411.977ZM416.64 626C416.992 626 417.2 626.048 417.312 626.08V624.496C417.184 624.432 416.8 624.336 416.336 624.336C414.736 624.336 413.616 625.392 413.616 627.136V628.208H412.256V629.824H413.616V636H415.488V629.824H417.296V628.208H415.488V627.184C415.488 626.224 416.144 626 416.64 626ZM418.142 633.888C418.142 635.12 419.15 636.24 420.782 636.24C422.046 636.24 422.814 635.6 423.182 635.008C423.182 635.632 423.246 635.952 423.262 636H424.99C424.974 635.92 424.894 635.456 424.894 634.752V630.88C424.894 629.328 423.982 627.968 421.582 627.968C419.662 627.968 418.446 629.168 418.302 630.512L419.998 630.896C420.078 630.112 420.622 629.488 421.598 629.488C422.622 629.488 423.07 630.016 423.07 630.672C423.07 630.944 422.942 631.168 422.494 631.232L420.494 631.536C419.166 631.728 418.142 632.496 418.142 633.888ZM421.134 634.784C420.398 634.784 419.998 634.304 419.998 633.776C419.998 633.136 420.462 632.816 421.038 632.72L423.07 632.416V632.768C423.07 634.288 422.174 634.784 421.134 634.784ZM428.978 636V628.208H427.138V636H428.978ZM426.85 625.472C426.85 626.144 427.394 626.672 428.049 626.672C428.722 626.672 429.266 626.144 429.266 625.472C429.266 624.8 428.722 624.256 428.049 624.256C427.394 624.256 426.85 624.8 426.85 625.472ZM433.228 636V624.416H431.372V636H433.228ZM436.918 631.248C436.982 630.416 437.654 629.52 438.822 629.52C440.102 629.52 440.71 630.336 440.742 631.248H436.918ZM440.95 633.28C440.694 634.048 440.118 634.64 438.998 634.64C437.846 634.64 436.918 633.792 436.87 632.608H442.566C442.582 632.576 442.614 632.32 442.614 632.016C442.614 629.552 441.206 627.968 438.806 627.968C436.838 627.968 435.014 629.6 435.014 632.064C435.014 634.704 436.886 636.24 438.998 636.24C440.87 636.24 442.102 635.136 442.518 633.776L440.95 633.28ZM445.636 632.08C445.636 630.592 446.532 629.648 447.748 629.648C448.964 629.648 449.796 630.576 449.796 632.064C449.796 633.552 448.948 634.56 447.732 634.56C446.468 634.56 445.636 633.568 445.636 632.08ZM451.588 624.416H449.78V629.12C449.54 628.624 448.852 628 447.492 628C445.299 628 443.78 629.84 443.78 632.08C443.78 634.432 445.284 636.192 447.524 636.192C448.628 636.192 449.444 635.648 449.812 634.992C449.812 635.312 449.86 635.824 449.892 636H451.668C451.652 635.872 451.588 635.28 451.588 634.576V624.416Z" fill="black"/>
<path d="M318 605H484V603H318V605ZM486 607V653H488V607H486ZM484 655H318V657H484V655ZM316 653V607H314V653H316ZM318 655C316.895 655 316 654.105 316 653H314C314 655.209 315.791 657 318 657V655ZM486 653C486 654.105 485.105 655 484 655V657C486.209 657 488 655.209 488 653H486ZM484 605C485.105 605 486 605.895 486 607H488C488 604.791 486.209 603 484 603V605ZM318 603C315.791 603 314 604.791 314 607H316C316 605.895 316.895 605 318 605V603Z" fill="#8E8E8E"/>
<path d="M1228 469C1228 467.343 1229.34 466 1231 466H1360C1361.66 466 1363 467.343 1363 469V515C1363 516.657 1361.66 518 1360 518H1231C1229.34 518 1228 516.657 1228 515V469Z" fill="#F2F2F2"/>
<path d="M1266.94 491.68C1268.13 491.68 1268.66 492.448 1268.83 493.136L1270.5 492.528C1270.18 491.28 1269.02 489.968 1266.93 489.968C1264.69 489.968 1262.94 491.696 1262.94 494.096C1262.94 496.464 1264.69 498.24 1266.98 498.24C1269.02 498.24 1270.19 496.912 1270.56 495.696L1268.93 495.104C1268.75 495.696 1268.19 496.544 1266.98 496.544C1265.81 496.544 1264.8 495.664 1264.8 494.096C1264.8 492.528 1265.81 491.68 1266.94 491.68ZM1271.68 495.888C1271.68 497.12 1272.69 498.24 1274.32 498.24C1275.58 498.24 1276.35 497.6 1276.72 497.008C1276.72 497.632 1276.78 497.952 1276.8 498H1278.53C1278.51 497.92 1278.43 497.456 1278.43 496.752V492.88C1278.43 491.328 1277.52 489.968 1275.12 489.968C1273.2 489.968 1271.98 491.168 1271.84 492.512L1273.54 492.896C1273.62 492.112 1274.16 491.488 1275.14 491.488C1276.16 491.488 1276.61 492.016 1276.61 492.672C1276.61 492.944 1276.48 493.168 1276.03 493.232L1274.03 493.536C1272.7 493.728 1271.68 494.496 1271.68 495.888ZM1274.67 496.784C1273.94 496.784 1273.54 496.304 1273.54 495.776C1273.54 495.136 1274 494.816 1274.58 494.72L1276.61 494.416V494.768C1276.61 496.288 1275.71 496.784 1274.67 496.784ZM1282.53 493.504C1282.53 492.48 1283.09 491.664 1284.15 491.664C1285.32 491.664 1285.75 492.432 1285.75 493.392V498H1287.6V493.072C1287.6 491.36 1286.69 489.984 1284.79 489.984C1283.92 489.984 1283 490.352 1282.48 491.248V490.208H1280.68V498H1282.53V493.504ZM1293.26 491.68C1294.44 491.68 1294.97 492.448 1295.14 493.136L1296.81 492.528C1296.49 491.28 1295.34 489.968 1293.24 489.968C1291 489.968 1289.26 491.696 1289.26 494.096C1289.26 496.464 1291 498.24 1293.29 498.24C1295.34 498.24 1296.5 496.912 1296.87 495.696L1295.24 495.104C1295.06 495.696 1294.5 496.544 1293.29 496.544C1292.12 496.544 1291.11 495.664 1291.11 494.096C1291.11 492.528 1292.12 491.68 1293.26 491.68ZM1299.74 493.248C1299.8 492.416 1300.47 491.52 1301.64 491.52C1302.92 491.52 1303.53 492.336 1303.56 493.248H1299.74ZM1303.77 495.28C1303.51 496.048 1302.94 496.64 1301.82 496.64C1300.67 496.64 1299.74 495.792 1299.69 494.608H1305.39C1305.4 494.576 1305.43 494.32 1305.43 494.016C1305.43 491.552 1304.03 489.968 1301.63 489.968C1299.66 489.968 1297.83 491.6 1297.83 494.064C1297.83 496.704 1299.71 498.24 1301.82 498.24C1303.69 498.24 1304.92 497.136 1305.34 495.776L1303.77 495.28ZM1309.06 498V486.416H1307.21V498H1309.06ZM1312.75 493.248C1312.82 492.416 1313.49 491.52 1314.66 491.52C1315.94 491.52 1316.55 492.336 1316.58 493.248H1312.75ZM1316.79 495.28C1316.53 496.048 1315.95 496.64 1314.83 496.64C1313.68 496.64 1312.75 495.792 1312.71 494.608H1318.4C1318.42 494.576 1318.45 494.32 1318.45 494.016C1318.45 491.552 1317.04 489.968 1314.64 489.968C1312.67 489.968 1310.85 491.6 1310.85 494.064C1310.85 496.704 1312.72 498.24 1314.83 498.24C1316.71 498.24 1317.94 497.136 1318.35 495.776L1316.79 495.28ZM1321.47 494.08C1321.47 492.592 1322.37 491.648 1323.58 491.648C1324.8 491.648 1325.63 492.576 1325.63 494.064C1325.63 495.552 1324.78 496.56 1323.57 496.56C1322.3 496.56 1321.47 495.568 1321.47 494.08ZM1327.42 486.416H1325.62V491.12C1325.38 490.624 1324.69 490 1323.33 490C1321.14 490 1319.62 491.84 1319.62 494.08C1319.62 496.432 1321.12 498.192 1323.36 498.192C1324.46 498.192 1325.28 497.648 1325.65 496.992C1325.65 497.312 1325.7 497.824 1325.73 498H1327.5C1327.49 497.872 1327.42 497.28 1327.42 496.576V486.416Z" fill="black"/>
<path d="M1231 467H1360V465H1231V467ZM1362 469V515H1364V469H1362ZM1360 517H1231V519H1360V517ZM1229 515V469H1227V515H1229ZM1231 517C1229.9 517 1229 516.105 1229 515H1227C1227 517.209 1228.79 519 1231 519V517ZM1362 515C1362 516.105 1361.1 517 1360 517V519C1362.21 519 1364 517.209 1364 515H1362ZM1360 467C1361.1 467 1362 467.895 1362 469H1364C1364 466.791 1362.21 465 1360 465V467ZM1231 465C1228.79 465 1227 466.791 1227 469H1229C1229 467.895 1229.9 467 1231 467V465Z" fill="#8E8E8E"/>
<path d="M449 299C449 297.343 450.343 296 452 296H590C591.657 296 593 297.343 593 299V345C593 346.657 591.657 348 590 348H452C450.343 348 449 346.657 449 345V299Z" fill="#D2EFFF"/>
<path d="M483.848 325.888C483.944 326.768 484.808 328.24 487.064 328.24C489.048 328.24 490.008 326.928 490.008 325.744C490.008 324.592 489.24 323.696 487.768 323.376L486.584 323.136C486.104 323.04 485.8 322.736 485.8 322.32C485.8 321.84 486.264 321.424 486.92 321.424C487.96 321.424 488.296 322.144 488.36 322.592L489.928 322.144C489.8 321.376 489.096 319.968 486.92 319.968C485.304 319.968 484.056 321.12 484.056 322.48C484.056 323.552 484.776 324.448 486.152 324.752L487.304 325.008C487.928 325.136 488.216 325.456 488.216 325.872C488.216 326.352 487.816 326.768 487.048 326.768C486.056 326.768 485.528 326.144 485.464 325.44L483.848 325.888ZM495.194 321.68C496.378 321.68 496.906 322.448 497.082 323.136L498.746 322.528C498.426 321.28 497.274 319.968 495.178 319.968C492.938 319.968 491.194 321.696 491.194 324.096C491.194 326.464 492.938 328.24 495.226 328.24C497.274 328.24 498.442 326.912 498.81 325.696L497.178 325.104C497.002 325.696 496.442 326.544 495.226 326.544C494.058 326.544 493.05 325.664 493.05 324.096C493.05 322.528 494.058 321.68 495.194 321.68ZM502.314 323.424C502.346 322.432 502.906 321.664 503.93 321.664C505.098 321.664 505.53 322.432 505.53 323.392V328H507.386V323.072C507.386 321.36 506.458 319.984 504.538 319.984C503.722 319.984 502.842 320.272 502.314 320.96V316.416H500.458V328H502.314V323.424ZM510.941 323.248C511.005 322.416 511.677 321.52 512.845 321.52C514.125 321.52 514.733 322.336 514.765 323.248H510.941ZM514.973 325.28C514.717 326.048 514.141 326.64 513.021 326.64C511.869 326.64 510.941 325.792 510.893 324.608H516.589C516.605 324.576 516.637 324.32 516.637 324.016C516.637 321.552 515.229 319.968 512.829 319.968C510.861 319.968 509.037 321.6 509.037 324.064C509.037 326.704 510.909 328.24 513.021 328.24C514.893 328.24 516.125 327.136 516.541 325.776L514.973 325.28ZM519.659 324.08C519.659 322.592 520.555 321.648 521.771 321.648C522.987 321.648 523.819 322.576 523.819 324.064C523.819 325.552 522.971 326.56 521.755 326.56C520.491 326.56 519.659 325.568 519.659 324.08ZM525.611 316.416H523.803V321.12C523.563 320.624 522.875 320 521.515 320C519.323 320 517.803 321.84 517.803 324.08C517.803 326.432 519.307 328.192 521.547 328.192C522.651 328.192 523.467 327.648 523.835 326.992C523.835 327.312 523.883 327.824 523.915 328H525.691C525.675 327.872 525.611 327.28 525.611 326.576V316.416ZM533.061 327.136C533.061 327.456 533.093 327.824 533.125 328H534.901C534.869 327.712 534.821 327.216 534.821 326.576V320.208H532.965V324.816C532.965 325.84 532.405 326.56 531.333 326.56C530.213 326.56 529.765 325.744 529.765 324.784V320.208H527.909V325.12C527.909 326.848 528.997 328.224 530.853 328.224C531.765 328.224 532.677 327.84 533.061 327.136ZM539.079 328V316.416H537.223V328H539.079ZM542.769 323.248C542.833 322.416 543.505 321.52 544.673 321.52C545.953 321.52 546.561 322.336 546.593 323.248H542.769ZM546.801 325.28C546.545 326.048 545.969 326.64 544.849 326.64C543.697 326.64 542.769 325.792 542.721 324.608H548.417C548.433 324.576 548.465 324.32 548.465 324.016C548.465 321.552 547.057 319.968 544.657 319.968C542.689 319.968 540.865 321.6 540.865 324.064C540.865 326.704 542.737 328.24 544.849 328.24C546.721 328.24 547.953 327.136 548.369 325.776L546.801 325.28ZM551.487 324.08C551.487 322.592 552.383 321.648 553.599 321.648C554.815 321.648 555.647 322.576 555.647 324.064C555.647 325.552 554.799 326.56 553.583 326.56C552.319 326.56 551.487 325.568 551.487 324.08ZM557.439 316.416H555.631V321.12C555.391 320.624 554.703 320 553.343 320C551.151 320 549.631 321.84 549.631 324.08C549.631 326.432 551.135 328.192 553.375 328.192C554.479 328.192 555.295 327.648 555.663 326.992C555.663 327.312 555.711 327.824 555.743 328H557.519C557.503 327.872 557.439 327.28 557.439 326.576V316.416Z" fill="black"/>
<path d="M452 297H590V295H452V297ZM592 299V345H594V299H592ZM590 347H452V349H590V347ZM450 345V299H448V345H450ZM452 347C450.895 347 450 346.105 450 345H448C448 347.209 449.791 349 452 349V347ZM592 345C592 346.105 591.105 347 590 347V349C592.209 349 594 347.209 594 345H592ZM590 297C591.105 297 592 297.895 592 299H594C594 296.791 592.209 295 590 295V297ZM452 295C449.791 295 448 296.791 448 299H450C450 297.895 450.895 297 452 297V295Z" fill="#8E8E8E"/>
<path d="M643 299C643 297.343 644.343 296 646 296H773C774.657 296 776 297.343 776 299V345C776 346.657 774.657 348 773 348H646C644.343 348 643 346.657 643 345V299Z" fill="#D2EFFF"/>
<path d="M678.033 325.888C678.033 327.12 679.041 328.24 680.673 328.24C681.937 328.24 682.705 327.6 683.073 327.008C683.073 327.632 683.137 327.952 683.153 328H684.881C684.865 327.92 684.785 327.456 684.785 326.752V322.88C684.785 321.328 683.873 319.968 681.473 319.968C679.553 319.968 678.337 321.168 678.193 322.512L679.889 322.896C679.969 322.112 680.513 321.488 681.489 321.488C682.513 321.488 682.961 322.016 682.961 322.672C682.961 322.944 682.833 323.168 682.385 323.232L680.385 323.536C679.057 323.728 678.033 324.496 678.033 325.888ZM681.025 326.784C680.289 326.784 679.889 326.304 679.889 325.776C679.889 325.136 680.353 324.816 680.929 324.72L682.961 324.416V324.768C682.961 326.288 682.065 326.784 681.025 326.784ZM686.34 325.888C686.436 326.768 687.3 328.24 689.556 328.24C691.54 328.24 692.5 326.928 692.5 325.744C692.5 324.592 691.732 323.696 690.26 323.376L689.076 323.136C688.596 323.04 688.292 322.736 688.292 322.32C688.292 321.84 688.756 321.424 689.412 321.424C690.452 321.424 690.788 322.144 690.852 322.592L692.42 322.144C692.292 321.376 691.588 319.968 689.412 319.968C687.796 319.968 686.548 321.12 686.548 322.48C686.548 323.552 687.268 324.448 688.644 324.752L689.796 325.008C690.42 325.136 690.708 325.456 690.708 325.872C690.708 326.352 690.308 326.768 689.54 326.768C688.548 326.768 688.02 326.144 687.956 325.44L686.34 325.888ZM693.653 325.888C693.749 326.768 694.613 328.24 696.869 328.24C698.853 328.24 699.813 326.928 699.813 325.744C699.813 324.592 699.045 323.696 697.573 323.376L696.389 323.136C695.909 323.04 695.605 322.736 695.605 322.32C695.605 321.84 696.069 321.424 696.725 321.424C697.765 321.424 698.101 322.144 698.165 322.592L699.733 322.144C699.605 321.376 698.901 319.968 696.725 319.968C695.109 319.968 693.861 321.12 693.861 322.48C693.861 323.552 694.581 324.448 695.957 324.752L697.109 325.008C697.733 325.136 698.021 325.456 698.021 325.872C698.021 326.352 697.621 326.768 696.853 326.768C695.861 326.768 695.333 326.144 695.269 325.44L693.653 325.888ZM703.493 328V320.208H701.653V328H703.493ZM701.365 317.472C701.365 318.144 701.909 318.672 702.565 318.672C703.237 318.672 703.781 318.144 703.781 317.472C703.781 316.8 703.237 316.256 702.565 316.256C701.909 316.256 701.365 316.8 701.365 317.472ZM705.328 328.432C705.536 330 706.976 331.28 709.04 331.28C711.968 331.28 713.04 329.344 713.04 327.264V320.208H711.248V321.2C710.912 320.56 710.16 320.064 708.944 320.064C706.799 320.064 705.344 321.776 705.344 323.856C705.344 326.048 706.864 327.648 708.944 327.648C710.08 327.648 710.864 327.12 711.2 326.512V327.328C711.2 328.912 710.464 329.664 708.992 329.664C707.92 329.664 707.168 328.944 707.039 327.984L705.328 328.432ZM709.248 326.064C708.032 326.064 707.216 325.216 707.216 323.856C707.216 322.528 708.064 321.664 709.248 321.664C710.4 321.664 711.248 322.528 711.248 323.856C711.248 325.2 710.432 326.064 709.248 326.064ZM717.165 323.504C717.165 322.48 717.725 321.664 718.781 321.664C719.949 321.664 720.381 322.432 720.381 323.392V328H722.237V323.072C722.237 321.36 721.325 319.984 719.421 319.984C718.557 319.984 717.629 320.352 717.117 321.248V320.208H715.309V328H717.165V323.504ZM725.793 323.248C725.857 322.416 726.529 321.52 727.697 321.52C728.977 321.52 729.585 322.336 729.617 323.248H725.793ZM729.825 325.28C729.569 326.048 728.993 326.64 727.873 326.64C726.721 326.64 725.793 325.792 725.745 324.608H731.441C731.457 324.576 731.489 324.32 731.489 324.016C731.489 321.552 730.081 319.968 727.681 319.968C725.713 319.968 723.889 321.6 723.889 324.064C723.889 326.704 725.761 328.24 727.873 328.24C729.745 328.24 730.977 327.136 731.393 325.776L729.825 325.28ZM734.511 324.08C734.511 322.592 735.407 321.648 736.623 321.648C737.839 321.648 738.671 322.576 738.671 324.064C738.671 325.552 737.823 326.56 736.607 326.56C735.343 326.56 734.511 325.568 734.511 324.08ZM740.463 316.416H738.655V321.12C738.415 320.624 737.727 320 736.367 320C734.174 320 732.655 321.84 732.655 324.08C732.655 326.432 734.159 328.192 736.399 328.192C737.503 328.192 738.319 327.648 738.687 326.992C738.687 327.312 738.735 327.824 738.767 328H740.543C740.527 327.872 740.463 327.28 740.463 326.576V316.416Z" fill="black"/>
<path d="M646 297H773V295H646V297ZM775 299V345H777V299H775ZM773 347H646V349H773V347ZM644 345V299H642V345H644ZM646 347C644.895 347 644 346.105 644 345H642C642 347.209 643.791 349 646 349V347ZM775 345C775 346.105 774.105 347 773 347V349C775.209 349 777 347.209 777 345H775ZM773 297C774.105 297 775 297.895 775 299H777C777 296.791 775.209 295 773 295V297ZM646 295C643.791 295 642 296.791 642 299H644C644 297.895 644.895 297 646 297V295Z" fill="#8E8E8E"/>
<path d="M826 299C826 297.343 827.343 296 829 296H960C961.657 296 963 297.343 963 299V345C963 346.657 961.657 348 960 348H829C827.343 348 826 346.657 826 345V299Z" fill="#D2EFFF"/>
<path d="M861.111 325.888C861.111 327.12 862.119 328.24 863.751 328.24C865.015 328.24 865.783 327.6 866.151 327.008C866.151 327.632 866.215 327.952 866.231 328H867.959C867.943 327.92 867.863 327.456 867.863 326.752V322.88C867.863 321.328 866.951 319.968 864.551 319.968C862.631 319.968 861.415 321.168 861.271 322.512L862.967 322.896C863.047 322.112 863.591 321.488 864.567 321.488C865.591 321.488 866.039 322.016 866.039 322.672C866.039 322.944 865.911 323.168 865.463 323.232L863.463 323.536C862.135 323.728 861.111 324.496 861.111 325.888ZM864.103 326.784C863.367 326.784 862.967 326.304 862.967 325.776C862.967 325.136 863.431 324.816 864.007 324.72L866.039 324.416V324.768C866.039 326.288 865.143 326.784 864.103 326.784ZM873.483 321.68C874.667 321.68 875.195 322.448 875.371 323.136L877.035 322.528C876.715 321.28 875.563 319.968 873.467 319.968C871.227 319.968 869.483 321.696 869.483 324.096C869.483 326.464 871.227 328.24 873.515 328.24C875.563 328.24 876.731 326.912 877.099 325.696L875.467 325.104C875.291 325.696 874.731 326.544 873.515 326.544C872.347 326.544 871.339 325.664 871.339 324.096C871.339 322.528 872.347 321.68 873.483 321.68ZM882.061 321.68C883.245 321.68 883.773 322.448 883.949 323.136L885.613 322.528C885.293 321.28 884.141 319.968 882.045 319.968C879.805 319.968 878.061 321.696 878.061 324.096C878.061 326.464 879.805 328.24 882.093 328.24C884.141 328.24 885.309 326.912 885.677 325.696L884.045 325.104C883.869 325.696 883.309 326.544 882.093 326.544C880.925 326.544 879.917 325.664 879.917 324.096C879.917 322.528 880.925 321.68 882.061 321.68ZM888.543 323.248C888.607 322.416 889.279 321.52 890.447 321.52C891.727 321.52 892.335 322.336 892.367 323.248H888.543ZM892.575 325.28C892.319 326.048 891.743 326.64 890.623 326.64C889.471 326.64 888.543 325.792 888.495 324.608H894.191C894.207 324.576 894.239 324.32 894.239 324.016C894.239 321.552 892.831 319.968 890.431 319.968C888.463 319.968 886.639 321.6 886.639 324.064C886.639 326.704 888.511 328.24 890.623 328.24C892.495 328.24 893.727 327.136 894.143 325.776L892.575 325.28ZM897.853 331.04V327.12C898.253 327.712 899.101 328.192 900.221 328.192C902.461 328.192 903.885 326.432 903.885 324.096C903.885 321.792 902.589 320.032 900.285 320.032C899.085 320.032 898.189 320.592 897.805 321.264V320.208H896.013V331.04H897.853ZM902.029 324.096C902.029 325.584 901.165 326.544 899.933 326.544C898.717 326.544 897.837 325.584 897.837 324.096C897.837 322.64 898.717 321.68 899.933 321.68C901.181 321.68 902.029 322.64 902.029 324.096ZM907.974 317.824H906.294V318.992C906.294 319.68 905.926 320.208 905.094 320.208H904.694V321.856H906.134V325.776C906.134 327.232 907.03 328.096 908.47 328.096C909.142 328.096 909.494 327.968 909.606 327.92V326.384C909.526 326.4 909.222 326.448 908.966 326.448C908.278 326.448 907.974 326.16 907.974 325.472V321.856H909.59V320.208H907.974V317.824ZM912.715 323.248C912.779 322.416 913.451 321.52 914.619 321.52C915.899 321.52 916.507 322.336 916.539 323.248H912.715ZM916.747 325.28C916.491 326.048 915.915 326.64 914.795 326.64C913.643 326.64 912.715 325.792 912.667 324.608H918.363C918.379 324.576 918.411 324.32 918.411 324.016C918.411 321.552 917.003 319.968 914.603 319.968C912.635 319.968 910.811 321.6 910.811 324.064C910.811 326.704 912.683 328.24 914.795 328.24C916.667 328.24 917.899 327.136 918.315 325.776L916.747 325.28ZM921.432 324.08C921.432 322.592 922.328 321.648 923.544 321.648C924.76 321.648 925.592 322.576 925.592 324.064C925.592 325.552 924.744 326.56 923.528 326.56C922.264 326.56 921.432 325.568 921.432 324.08ZM927.384 316.416H925.576V321.12C925.336 320.624 924.648 320 923.288 320C921.096 320 919.576 321.84 919.576 324.08C919.576 326.432 921.08 328.192 923.32 328.192C924.424 328.192 925.24 327.648 925.608 326.992C925.608 327.312 925.656 327.824 925.688 328H927.464C927.448 327.872 927.384 327.28 927.384 326.576V316.416Z" fill="black"/>
<path d="M829 297H960V295H829V297ZM962 299V345H964V299H962ZM960 347H829V349H960V347ZM827 345V299H825V345H827ZM829 347C827.895 347 827 346.105 827 345H825C825 347.209 826.791 349 829 349V347ZM962 345C962 346.105 961.105 347 960 347V349C962.209 349 964 347.209 964 345H962ZM960 297C961.105 297 962 297.895 962 299H964C964 296.791 962.209 295 960 295V297ZM829 295C826.791 295 825 296.791 825 299H827C827 297.895 827.895 297 829 297V295Z" fill="#8E8E8E"/>
<path d="M1013 299C1013 297.343 1014.34 296 1016 296H1135C1136.66 296 1138 297.343 1138 299V345C1138 346.657 1136.66 348 1135 348H1016C1014.34 348 1013 346.657 1013 345V299Z" fill="#D2EFFF"/>
<path d="M1052.97 320.16C1052.89 320.144 1052.7 320.112 1052.47 320.112C1051.45 320.112 1050.59 320.608 1050.22 321.456V320.208H1048.41V328H1050.27V324.288C1050.27 322.832 1050.92 322 1052.36 322C1052.55 322 1052.76 322.016 1052.97 322.048V320.16ZM1059.61 327.136C1059.61 327.456 1059.64 327.824 1059.67 328H1061.45C1061.42 327.712 1061.37 327.216 1061.37 326.576V320.208H1059.51V324.816C1059.51 325.84 1058.95 326.56 1057.88 326.56C1056.76 326.56 1056.31 325.744 1056.31 324.784V320.208H1054.46V325.12C1054.46 326.848 1055.54 328.224 1057.4 328.224C1058.31 328.224 1059.22 327.84 1059.61 327.136ZM1065.63 323.504C1065.63 322.48 1066.19 321.664 1067.24 321.664C1068.41 321.664 1068.84 322.432 1068.84 323.392V328H1070.7V323.072C1070.7 321.36 1069.79 319.984 1067.88 319.984C1067.02 319.984 1066.09 320.352 1065.58 321.248V320.208H1063.77V328H1065.63V323.504ZM1074.81 323.504C1074.81 322.48 1075.37 321.664 1076.43 321.664C1077.6 321.664 1078.03 322.432 1078.03 323.392V328H1079.89V323.072C1079.89 321.36 1078.97 319.984 1077.07 319.984C1076.21 319.984 1075.28 320.352 1074.77 321.248V320.208H1072.96V328H1074.81V323.504ZM1083.99 328V320.208H1082.15V328H1083.99ZM1081.86 317.472C1081.86 318.144 1082.4 318.672 1083.06 318.672C1083.73 318.672 1084.27 318.144 1084.27 317.472C1084.27 316.8 1083.73 316.256 1083.06 316.256C1082.4 316.256 1081.86 316.8 1081.86 317.472ZM1088.24 323.504C1088.24 322.48 1088.8 321.664 1089.85 321.664C1091.02 321.664 1091.45 322.432 1091.45 323.392V328H1093.31V323.072C1093.31 321.36 1092.4 319.984 1090.49 319.984C1089.63 319.984 1088.7 320.352 1088.19 321.248V320.208H1086.38V328H1088.24V323.504ZM1095.01 328.432C1095.22 330 1096.66 331.28 1098.72 331.28C1101.65 331.28 1102.72 329.344 1102.72 327.264V320.208H1100.93V321.2C1100.59 320.56 1099.84 320.064 1098.62 320.064C1096.48 320.064 1095.02 321.776 1095.02 323.856C1095.02 326.048 1096.54 327.648 1098.62 327.648C1099.76 327.648 1100.54 327.12 1100.88 326.512V327.328C1100.88 328.912 1100.14 329.664 1098.67 329.664C1097.6 329.664 1096.85 328.944 1096.72 327.984L1095.01 328.432ZM1098.93 326.064C1097.71 326.064 1096.9 325.216 1096.9 323.856C1096.9 322.528 1097.74 321.664 1098.93 321.664C1100.08 321.664 1100.93 322.528 1100.93 323.856C1100.93 325.2 1100.11 326.064 1098.93 326.064Z" fill="black"/>
<path d="M1016 297H1135V295H1016V297ZM1137 299V345H1139V299H1137ZM1135 347H1016V349H1135V347ZM1014 345V299H1012V345H1014ZM1016 347C1014.9 347 1014 346.105 1014 345H1012C1012 347.209 1013.79 349 1016 349V347ZM1137 345C1137 346.105 1136.1 347 1135 347V349C1137.21 349 1139 347.209 1139 345H1137ZM1135 297C1136.1 297 1137 297.895 1137 299H1139C1139 296.791 1137.21 295 1135 295V297ZM1016 295C1013.79 295 1012 296.791 1012 299H1014C1014 297.895 1014.9 297 1016 297V295Z" fill="#8E8E8E"/>
<path d="M1188 393C1188 391.343 1189.34 390 1191 390H1324C1325.66 390 1327 391.343 1327 393V439C1327 440.657 1325.66 442 1324 442H1191C1189.34 442 1188 440.657 1188 439V393Z" fill="#F2F2F2"/>
<path d="M1226.72 415.68C1227.9 415.68 1228.43 416.448 1228.61 417.136L1230.27 416.528C1229.95 415.28 1228.8 413.968 1226.7 413.968C1224.46 413.968 1222.72 415.696 1222.72 418.096C1222.72 420.464 1224.46 422.24 1226.75 422.24C1228.8 422.24 1229.97 420.912 1230.33 419.696L1228.7 419.104C1228.53 419.696 1227.97 420.544 1226.75 420.544C1225.58 420.544 1224.57 419.664 1224.57 418.096C1224.57 416.528 1225.58 415.68 1226.72 415.68ZM1231.45 419.888C1231.45 421.12 1232.46 422.24 1234.09 422.24C1235.36 422.24 1236.13 421.6 1236.49 421.008C1236.49 421.632 1236.56 421.952 1236.57 422H1238.3C1238.29 421.92 1238.21 421.456 1238.21 420.752V416.88C1238.21 415.328 1237.29 413.968 1234.89 413.968C1232.97 413.968 1231.76 415.168 1231.61 416.512L1233.31 416.896C1233.39 416.112 1233.93 415.488 1234.91 415.488C1235.93 415.488 1236.38 416.016 1236.38 416.672C1236.38 416.944 1236.25 417.168 1235.81 417.232L1233.81 417.536C1232.48 417.728 1231.45 418.496 1231.45 419.888ZM1234.45 420.784C1233.71 420.784 1233.31 420.304 1233.31 419.776C1233.31 419.136 1233.77 418.816 1234.35 418.72L1236.38 418.416V418.768C1236.38 420.288 1235.49 420.784 1234.45 420.784ZM1242.31 417.504C1242.31 416.48 1242.87 415.664 1243.92 415.664C1245.09 415.664 1245.52 416.432 1245.52 417.392V422H1247.38V417.072C1247.38 415.36 1246.47 413.984 1244.56 413.984C1243.7 413.984 1242.77 414.352 1242.26 415.248V414.208H1240.45V422H1242.31V417.504ZM1253.03 415.68C1254.21 415.68 1254.74 416.448 1254.92 417.136L1256.58 416.528C1256.26 415.28 1255.11 413.968 1253.01 413.968C1250.77 413.968 1249.03 415.696 1249.03 418.096C1249.03 420.464 1250.77 422.24 1253.06 422.24C1255.11 422.24 1256.28 420.912 1256.65 419.696L1255.01 419.104C1254.84 419.696 1254.28 420.544 1253.06 420.544C1251.89 420.544 1250.89 419.664 1250.89 418.096C1250.89 416.528 1251.89 415.68 1253.03 415.68ZM1259.51 417.248C1259.58 416.416 1260.25 415.52 1261.42 415.52C1262.7 415.52 1263.3 416.336 1263.34 417.248H1259.51ZM1263.54 419.28C1263.29 420.048 1262.71 420.64 1261.59 420.64C1260.44 420.64 1259.51 419.792 1259.46 418.608H1265.16C1265.18 418.576 1265.21 418.32 1265.21 418.016C1265.21 415.552 1263.8 413.968 1261.4 413.968C1259.43 413.968 1257.61 415.6 1257.61 418.064C1257.61 420.704 1259.48 422.24 1261.59 422.24C1263.46 422.24 1264.7 421.136 1265.11 419.776L1263.54 419.28ZM1268.84 422V410.416H1266.98V422H1268.84ZM1273.07 422V414.208H1271.23V422H1273.07ZM1270.94 411.472C1270.94 412.144 1271.49 412.672 1272.14 412.672C1272.82 412.672 1273.36 412.144 1273.36 411.472C1273.36 410.8 1272.82 410.256 1272.14 410.256C1271.49 410.256 1270.94 410.8 1270.94 411.472ZM1277.32 417.504C1277.32 416.48 1277.88 415.664 1278.94 415.664C1280.11 415.664 1280.54 416.432 1280.54 417.392V422H1282.39V417.072C1282.39 415.36 1281.48 413.984 1279.58 413.984C1278.71 413.984 1277.79 414.352 1277.27 415.248V414.208H1275.47V422H1277.32V417.504ZM1284.09 422.432C1284.3 424 1285.74 425.28 1287.81 425.28C1290.73 425.28 1291.81 423.344 1291.81 421.264V414.208H1290.01V415.2C1289.68 414.56 1288.93 414.064 1287.71 414.064C1285.57 414.064 1284.11 415.776 1284.11 417.856C1284.11 420.048 1285.63 421.648 1287.71 421.648C1288.85 421.648 1289.63 421.12 1289.97 420.512V421.328C1289.97 422.912 1289.23 423.664 1287.76 423.664C1286.69 423.664 1285.93 422.944 1285.81 421.984L1284.09 422.432ZM1288.01 420.064C1286.8 420.064 1285.98 419.216 1285.98 417.856C1285.98 416.528 1286.83 415.664 1288.01 415.664C1289.17 415.664 1290.01 416.528 1290.01 417.856C1290.01 419.2 1289.2 420.064 1288.01 420.064Z" fill="black"/>
<path d="M1191 391H1324V389H1191V391ZM1326 393V439H1328V393H1326ZM1324 441H1191V443H1324V441ZM1189 439V393H1187V439H1189ZM1191 441C1189.9 441 1189 440.105 1189 439H1187C1187 441.209 1188.79 443 1191 443V441ZM1326 439C1326 440.105 1325.1 441 1324 441V443C1326.21 443 1328 441.209 1328 439H1326ZM1324 391C1325.1 391 1326 391.895 1326 393H1328C1328 390.791 1326.21 389 1324 389V391ZM1191 389C1188.79 389 1187 390.791 1187 393H1189C1189 391.895 1189.9 391 1191 391V389Z" fill="#8E8E8E"/>
<path d="M1188 114C1188 112.343 1189.34 111 1191 111H1333C1334.66 111 1336 112.343 1336 114V160C1336 161.657 1334.66 163 1333 163H1191C1189.34 163 1188 161.657 1188 160V114Z" fill="#F2F2F2"/>
<path d="M1225.88 132.824H1224.2V133.992C1224.2 134.68 1223.83 135.208 1223 135.208H1222.6V136.856H1224.04V140.776C1224.04 142.232 1224.94 143.096 1226.38 143.096C1227.05 143.096 1227.4 142.968 1227.51 142.92V141.384C1227.43 141.4 1227.13 141.448 1226.87 141.448C1226.18 141.448 1225.88 141.16 1225.88 140.472V136.856H1227.5V135.208H1225.88V132.824ZM1231.24 143V135.208H1229.4V143H1231.24ZM1229.12 132.472C1229.12 133.144 1229.66 133.672 1230.32 133.672C1230.99 133.672 1231.53 133.144 1231.53 132.472C1231.53 131.8 1230.99 131.256 1230.32 131.256C1229.66 131.256 1229.12 131.8 1229.12 132.472ZM1235.48 143V138.376C1235.48 137.384 1236.1 136.648 1237.09 136.648C1238.15 136.648 1238.6 137.352 1238.6 138.248V143H1240.42V138.376C1240.42 137.416 1241.06 136.648 1242.04 136.648C1243.08 136.648 1243.54 137.336 1243.54 138.248V143H1245.33V137.944C1245.33 135.88 1243.99 134.984 1242.58 134.984C1241.57 134.984 1240.66 135.336 1240.05 136.36C1239.64 135.448 1238.74 134.984 1237.72 134.984C1236.84 134.984 1235.86 135.4 1235.41 136.2V135.208H1233.64V143H1235.48ZM1249.45 143V135.208H1247.61V143H1249.45ZM1247.32 132.472C1247.32 133.144 1247.86 133.672 1248.52 133.672C1249.19 133.672 1249.73 133.144 1249.73 132.472C1249.73 131.8 1249.19 131.256 1248.52 131.256C1247.86 131.256 1247.32 131.8 1247.32 132.472ZM1253.7 138.504C1253.7 137.48 1254.26 136.664 1255.31 136.664C1256.48 136.664 1256.91 137.432 1256.91 138.392V143H1258.77V138.072C1258.77 136.36 1257.86 134.984 1255.95 134.984C1255.09 134.984 1254.16 135.352 1253.65 136.248V135.208H1251.84V143H1253.7V138.504ZM1260.47 143.432C1260.68 145 1262.12 146.28 1264.18 146.28C1267.11 146.28 1268.18 144.344 1268.18 142.264V135.208H1266.39V136.2C1266.05 135.56 1265.3 135.064 1264.08 135.064C1261.94 135.064 1260.48 136.776 1260.48 138.856C1260.48 141.048 1262 142.648 1264.08 142.648C1265.22 142.648 1266 142.12 1266.34 141.512V142.328C1266.34 143.912 1265.6 144.664 1264.13 144.664C1263.06 144.664 1262.31 143.944 1262.18 142.984L1260.47 143.432ZM1264.39 141.064C1263.17 141.064 1262.36 140.216 1262.36 138.856C1262.36 137.528 1263.2 136.664 1264.39 136.664C1265.54 136.664 1266.39 137.528 1266.39 138.856C1266.39 140.2 1265.57 141.064 1264.39 141.064ZM1277.59 144.536V143H1269.41V144.536H1277.59ZM1282 141.576C1280.86 141.576 1279.82 140.712 1279.82 139.096C1279.82 137.48 1280.86 136.648 1282 136.648C1283.15 136.648 1284.18 137.48 1284.18 139.096C1284.18 140.728 1283.15 141.576 1282 141.576ZM1282 134.968C1279.68 134.968 1277.97 136.712 1277.97 139.096C1277.97 141.496 1279.68 143.24 1282 143.24C1284.34 143.24 1286.05 141.496 1286.05 139.096C1286.05 136.712 1284.34 134.968 1282 134.968ZM1292.87 142.136C1292.87 142.456 1292.9 142.824 1292.93 143H1294.71C1294.67 142.712 1294.63 142.216 1294.63 141.576V135.208H1292.77V139.816C1292.77 140.84 1292.21 141.56 1291.14 141.56C1290.02 141.56 1289.57 140.744 1289.57 139.784V135.208H1287.71V140.12C1287.71 141.848 1288.8 143.224 1290.66 143.224C1291.57 143.224 1292.48 142.84 1292.87 142.136ZM1299.38 132.824H1297.7V133.992C1297.7 134.68 1297.33 135.208 1296.5 135.208H1296.1V136.856H1297.54V140.776C1297.54 142.232 1298.44 143.096 1299.88 143.096C1300.55 143.096 1300.9 142.968 1301.01 142.92V141.384C1300.93 141.4 1300.63 141.448 1300.37 141.448C1299.68 141.448 1299.38 141.16 1299.38 140.472V136.856H1301V135.208H1299.38V132.824Z" fill="black"/>
<path d="M1191 112H1333V110H1191V112ZM1335 114V160H1337V114H1335ZM1333 162H1191V164H1333V162ZM1189 160V114H1187V160H1189ZM1191 162C1189.9 162 1189 161.105 1189 160H1187C1187 162.209 1188.79 164 1191 164V162ZM1335 160C1335 161.105 1334.1 162 1333 162V164C1335.21 164 1337 162.209 1337 160H1335ZM1333 112C1334.1 112 1335 112.895 1335 114H1337C1337 111.791 1335.21 110 1333 110V112ZM1191 110C1188.79 110 1187 111.791 1187 114H1189C1189 112.895 1189.9 112 1191 112V110Z" fill="#8E8E8E"/>
<path d="M1230 186C1230 184.343 1231.34 183 1233 183H1370C1371.66 183 1373 184.343 1373 186V232C1373 233.657 1371.66 235 1370 235H1233C1231.34 235 1230 233.657 1230 232V186Z" fill="#F2F2F2"/>
<path d="M1267.61 204.824H1265.93V205.992C1265.93 206.68 1265.56 207.208 1264.73 207.208H1264.33V208.856H1265.77V212.776C1265.77 214.232 1266.66 215.096 1268.1 215.096C1268.77 215.096 1269.13 214.968 1269.24 214.92V213.384C1269.16 213.4 1268.85 213.448 1268.6 213.448C1267.91 213.448 1267.61 213.16 1267.61 212.472V208.856H1269.22V207.208H1267.61V204.824ZM1272.97 215V207.208H1271.13V215H1272.97ZM1270.84 204.472C1270.84 205.144 1271.39 205.672 1272.04 205.672C1272.71 205.672 1273.26 205.144 1273.26 204.472C1273.26 203.8 1272.71 203.256 1272.04 203.256C1271.39 203.256 1270.84 203.8 1270.84 204.472ZM1277.2 215V210.376C1277.2 209.384 1277.83 208.648 1278.82 208.648C1279.88 208.648 1280.32 209.352 1280.32 210.248V215H1282.15V210.376C1282.15 209.416 1282.79 208.648 1283.76 208.648C1284.8 208.648 1285.27 209.336 1285.27 210.248V215H1287.06V209.944C1287.06 207.88 1285.72 206.984 1284.31 206.984C1283.3 206.984 1282.39 207.336 1281.78 208.36C1281.36 207.448 1280.47 206.984 1279.44 206.984C1278.56 206.984 1277.59 207.4 1277.14 208.2V207.208H1275.36V215H1277.2ZM1290.63 210.248C1290.69 209.416 1291.36 208.52 1292.53 208.52C1293.81 208.52 1294.42 209.336 1294.45 210.248H1290.63ZM1294.66 212.28C1294.4 213.048 1293.83 213.64 1292.71 213.64C1291.56 213.64 1290.63 212.792 1290.58 211.608H1296.28C1296.29 211.576 1296.32 211.32 1296.32 211.016C1296.32 208.552 1294.92 206.968 1292.52 206.968C1290.55 206.968 1288.72 208.6 1288.72 211.064C1288.72 213.704 1290.6 215.24 1292.71 215.24C1294.58 215.24 1295.81 214.136 1296.23 212.776L1294.66 212.28ZM1299.35 211.08C1299.35 209.592 1300.24 208.648 1301.46 208.648C1302.67 208.648 1303.51 209.576 1303.51 211.064C1303.51 212.552 1302.66 213.56 1301.44 213.56C1300.18 213.56 1299.35 212.568 1299.35 211.08ZM1305.3 203.416H1303.49V208.12C1303.25 207.624 1302.56 207 1301.2 207C1299.01 207 1297.49 208.84 1297.49 211.08C1297.49 213.432 1298.99 215.192 1301.23 215.192C1302.34 215.192 1303.15 214.648 1303.52 213.992C1303.52 214.312 1303.57 214.824 1303.6 215H1305.38C1305.36 214.872 1305.3 214.28 1305.3 213.576V203.416ZM1314.86 216.536V215H1306.68V216.536H1314.86ZM1319.27 213.576C1318.14 213.576 1317.1 212.712 1317.1 211.096C1317.1 209.48 1318.14 208.648 1319.27 208.648C1320.42 208.648 1321.45 209.48 1321.45 211.096C1321.45 212.728 1320.42 213.576 1319.27 213.576ZM1319.27 206.968C1316.95 206.968 1315.24 208.712 1315.24 211.096C1315.24 213.496 1316.95 215.24 1319.27 215.24C1321.61 215.24 1323.32 213.496 1323.32 211.096C1323.32 208.712 1321.61 206.968 1319.27 206.968ZM1330.14 214.136C1330.14 214.456 1330.17 214.824 1330.2 215H1331.98C1331.95 214.712 1331.9 214.216 1331.9 213.576V207.208H1330.04V211.816C1330.04 212.84 1329.48 213.56 1328.41 213.56C1327.29 213.56 1326.84 212.744 1326.84 211.784V207.208H1324.99V212.12C1324.99 213.848 1326.08 215.224 1327.93 215.224C1328.84 215.224 1329.76 214.84 1330.14 214.136ZM1336.65 204.824H1334.97V205.992C1334.97 206.68 1334.61 207.208 1333.77 207.208H1333.37V208.856H1334.81V212.776C1334.81 214.232 1335.71 215.096 1337.15 215.096C1337.82 215.096 1338.17 214.968 1338.29 214.92V213.384C1338.21 213.4 1337.9 213.448 1337.65 213.448C1336.96 213.448 1336.65 213.16 1336.65 212.472V208.856H1338.27V207.208H1336.65V204.824Z" fill="black"/>
<path d="M1233 184H1370V182H1233V184ZM1372 186V232H1374V186H1372ZM1370 234H1233V236H1370V234ZM1231 232V186H1229V232H1231ZM1233 234C1231.9 234 1231 233.105 1231 232H1229C1229 234.209 1230.79 236 1233 236V234ZM1372 232C1372 233.105 1371.1 234 1370 234V236C1372.21 236 1374 234.209 1374 232H1372ZM1370 184C1371.1 184 1372 184.895 1372 186H1374C1374 183.791 1372.21 182 1370 182V184ZM1233 182C1230.79 182 1229 183.791 1229 186H1231C1231 184.895 1231.9 184 1233 184V182Z" fill="#8E8E8E"/>
<path d="M1294 299C1294 297.343 1295.34 296 1297 296H1418C1419.66 296 1421 297.343 1421 299V345C1421 346.657 1419.66 348 1418 348H1297C1295.34 348 1294 346.657 1294 345V299Z" fill="#D2EFFF"/>
<path d="M1332.74 316.336C1331.14 316.336 1330.02 317.392 1330.02 319.136V320.208H1328.66V321.824H1330.02V328H1331.89V321.824H1335.25V328H1337.08V320.208H1331.89V319.184C1331.89 318.224 1332.57 318 1333.05 318C1333.4 318 1333.61 318.048 1333.72 318.08V316.496C1333.59 316.432 1333.21 316.336 1332.74 316.336ZM1334.97 317.456C1334.97 318.112 1335.49 318.656 1336.17 318.656C1336.84 318.656 1337.38 318.112 1337.38 317.456C1337.38 316.784 1336.84 316.24 1336.17 316.24C1335.49 316.24 1334.97 316.784 1334.97 317.456ZM1341.35 323.504C1341.35 322.48 1341.91 321.664 1342.97 321.664C1344.14 321.664 1344.57 322.432 1344.57 323.392V328H1346.42V323.072C1346.42 321.36 1345.51 319.984 1343.61 319.984C1342.74 319.984 1341.82 320.352 1341.3 321.248V320.208H1339.5V328H1341.35V323.504ZM1350.52 328V320.208H1348.68V328H1350.52ZM1348.4 317.472C1348.4 318.144 1348.94 318.672 1349.6 318.672C1350.27 318.672 1350.81 318.144 1350.81 317.472C1350.81 316.8 1350.27 316.256 1349.6 316.256C1348.94 316.256 1348.4 316.8 1348.4 317.472ZM1352.23 325.888C1352.33 326.768 1353.19 328.24 1355.45 328.24C1357.43 328.24 1358.39 326.928 1358.39 325.744C1358.39 324.592 1357.62 323.696 1356.15 323.376L1354.97 323.136C1354.49 323.04 1354.18 322.736 1354.18 322.32C1354.18 321.84 1354.65 321.424 1355.3 321.424C1356.34 321.424 1356.68 322.144 1356.74 322.592L1358.31 322.144C1358.18 321.376 1357.48 319.968 1355.3 319.968C1353.69 319.968 1352.44 321.12 1352.44 322.48C1352.44 323.552 1353.16 324.448 1354.53 324.752L1355.69 325.008C1356.31 325.136 1356.6 325.456 1356.6 325.872C1356.6 326.352 1356.2 326.768 1355.43 326.768C1354.44 326.768 1353.91 326.144 1353.85 325.44L1352.23 325.888ZM1362.09 323.424C1362.12 322.432 1362.68 321.664 1363.7 321.664C1364.87 321.664 1365.3 322.432 1365.3 323.392V328H1367.16V323.072C1367.16 321.36 1366.23 319.984 1364.31 319.984C1363.5 319.984 1362.62 320.272 1362.09 320.96V316.416H1360.23V328H1362.09V323.424ZM1370.71 323.248C1370.78 322.416 1371.45 321.52 1372.62 321.52C1373.9 321.52 1374.51 322.336 1374.54 323.248H1370.71ZM1374.75 325.28C1374.49 326.048 1373.91 326.64 1372.79 326.64C1371.64 326.64 1370.71 325.792 1370.67 324.608H1376.36C1376.38 324.576 1376.41 324.32 1376.41 324.016C1376.41 321.552 1375 319.968 1372.6 319.968C1370.63 319.968 1368.81 321.6 1368.81 324.064C1368.81 326.704 1370.68 328.24 1372.79 328.24C1374.67 328.24 1375.9 327.136 1376.31 325.776L1374.75 325.28ZM1379.43 324.08C1379.43 322.592 1380.33 321.648 1381.54 321.648C1382.76 321.648 1383.59 322.576 1383.59 324.064C1383.59 325.552 1382.74 326.56 1381.53 326.56C1380.26 326.56 1379.43 325.568 1379.43 324.08ZM1385.38 316.416H1383.58V321.12C1383.34 320.624 1382.65 320 1381.29 320C1379.1 320 1377.58 321.84 1377.58 324.08C1377.58 326.432 1379.08 328.192 1381.32 328.192C1382.42 328.192 1383.24 327.648 1383.61 326.992C1383.61 327.312 1383.66 327.824 1383.69 328H1385.46C1385.45 327.872 1385.38 327.28 1385.38 326.576V316.416Z" fill="black"/>
<path d="M1297 297H1418V295H1297V297ZM1420 299V345H1422V299H1420ZM1418 347H1297V349H1418V347ZM1295 345V299H1293V345H1295ZM1297 347C1295.9 347 1295 346.105 1295 345H1293C1293 347.209 1294.79 349 1297 349V347ZM1420 345C1420 346.105 1419.1 347 1418 347V349C1420.21 349 1422 347.209 1422 345H1420ZM1418 297C1419.1 297 1420 297.895 1420 299H1422C1422 296.791 1420.21 295 1418 295V297ZM1297 295C1294.79 295 1293 296.791 1293 299H1295C1295 297.895 1295.9 297 1297 297V295Z" fill="#8E8E8E"/>
<path d="M826 391C826 389.343 827.343 388 829 388H949C950.657 388 952 389.343 952 391V437C952 438.657 950.657 440 949 440H829C827.343 440 826 438.657 826 437V391Z" fill="#F2F2F2"/>
<path d="M860.535 417.888C860.631 418.768 861.495 420.24 863.751 420.24C865.735 420.24 866.695 418.928 866.695 417.744C866.695 416.592 865.927 415.696 864.455 415.376L863.271 415.136C862.791 415.04 862.487 414.736 862.487 414.32C862.487 413.84 862.951 413.424 863.607 413.424C864.647 413.424 864.983 414.144 865.047 414.592L866.615 414.144C866.487 413.376 865.783 411.968 863.607 411.968C861.991 411.968 860.743 413.12 860.743 414.48C860.743 415.552 861.463 416.448 862.839 416.752L863.991 417.008C864.615 417.136 864.903 417.456 864.903 417.872C864.903 418.352 864.503 418.768 863.735 418.768C862.743 418.768 862.215 418.144 862.151 417.44L860.535 417.888ZM875.832 412.208H873.368L870.376 415.36V408.416H868.536V420H870.376V417.824L871.336 416.816L873.624 420H875.896L872.632 415.504L875.832 412.208ZM879.079 420V412.208H877.239V420H879.079ZM876.951 409.472C876.951 410.144 877.495 410.672 878.151 410.672C878.823 410.672 879.367 410.144 879.367 409.472C879.367 408.8 878.823 408.256 878.151 408.256C877.495 408.256 876.951 408.8 876.951 409.472ZM883.313 423.04V419.12C883.713 419.712 884.561 420.192 885.681 420.192C887.921 420.192 889.345 418.432 889.345 416.096C889.345 413.792 888.049 412.032 885.745 412.032C884.545 412.032 883.649 412.592 883.265 413.264V412.208H881.473V423.04H883.313ZM887.489 416.096C887.489 417.584 886.625 418.544 885.393 418.544C884.177 418.544 883.297 417.584 883.297 416.096C883.297 414.64 884.177 413.68 885.393 413.68C886.641 413.68 887.489 414.64 887.489 416.096ZM892.97 423.04V419.12C893.37 419.712 894.218 420.192 895.338 420.192C897.578 420.192 899.002 418.432 899.002 416.096C899.002 413.792 897.706 412.032 895.402 412.032C894.202 412.032 893.306 412.592 892.922 413.264V412.208H891.13V423.04H892.97ZM897.146 416.096C897.146 417.584 896.282 418.544 895.05 418.544C893.834 418.544 892.954 417.584 892.954 416.096C892.954 414.64 893.834 413.68 895.05 413.68C896.298 413.68 897.146 414.64 897.146 416.096ZM902.082 415.248C902.146 414.416 902.818 413.52 903.986 413.52C905.266 413.52 905.874 414.336 905.906 415.248H902.082ZM906.114 417.28C905.858 418.048 905.282 418.64 904.162 418.64C903.01 418.64 902.082 417.792 902.034 416.608H907.73C907.746 416.576 907.778 416.32 907.778 416.016C907.778 413.552 906.37 411.968 903.97 411.968C902.002 411.968 900.178 413.6 900.178 416.064C900.178 418.704 902.05 420.24 904.162 420.24C906.034 420.24 907.266 419.136 907.682 417.776L906.114 417.28ZM910.8 416.08C910.8 414.592 911.696 413.648 912.912 413.648C914.128 413.648 914.96 414.576 914.96 416.064C914.96 417.552 914.112 418.56 912.896 418.56C911.632 418.56 910.8 417.568 910.8 416.08ZM916.752 408.416H914.944V413.12C914.704 412.624 914.016 412 912.656 412C910.464 412 908.944 413.84 908.944 416.08C908.944 418.432 910.448 420.192 912.688 420.192C913.792 420.192 914.608 419.648 914.976 418.992C914.976 419.312 915.024 419.824 915.056 420H916.832C916.816 419.872 916.752 419.28 916.752 418.576V408.416Z" fill="black"/>
<path d="M829 389H949V387H829V389ZM951 391V437H953V391H951ZM949 439H829V441H949V439ZM827 437V391H825V437H827ZM829 439C827.895 439 827 438.105 827 437H825C825 439.209 826.791 441 829 441V439ZM951 437C951 438.105 950.105 439 949 439V441C951.209 441 953 439.209 953 437H951ZM949 389C950.105 389 951 389.895 951 391H953C953 388.791 951.209 387 949 387V389ZM829 387C826.791 387 825 388.791 825 391H827C827 389.895 827.895 389 829 389V387Z" fill="#8E8E8E"/>
<path d="M275 161C275 159.343 276.343 158 278 158H392C393.657 158 395 159.343 395 161V207C395 208.657 393.657 210 392 210H278C276.343 210 275 208.657 275 207V161Z" fill="#F2F2F2"/>
<path d="M312.391 190V188.96C312.839 189.712 313.687 190.192 314.791 190.192C317.063 190.192 318.455 188.416 318.455 186.064C318.455 183.776 317.191 182 314.855 182C313.655 182 312.759 182.56 312.407 183.168V178.416H310.583V190H312.391ZM316.583 186.08C316.583 187.616 315.703 188.544 314.487 188.544C313.303 188.544 312.391 187.616 312.391 186.08C312.391 184.528 313.303 183.648 314.487 183.648C315.719 183.648 316.583 184.528 316.583 186.08ZM324.799 182.16C324.719 182.144 324.527 182.112 324.303 182.112C323.279 182.112 322.415 182.608 322.047 183.456V182.208H320.239V190H322.095V186.288C322.095 184.832 322.751 184 324.191 184C324.383 184 324.591 184.016 324.799 184.048V182.16ZM329.694 188.576C328.558 188.576 327.518 187.712 327.518 186.096C327.518 184.48 328.558 183.648 329.694 183.648C330.846 183.648 331.87 184.48 331.87 186.096C331.87 187.728 330.846 188.576 329.694 188.576ZM329.694 181.968C327.374 181.968 325.662 183.712 325.662 186.096C325.662 188.496 327.374 190.24 329.694 190.24C332.03 190.24 333.742 188.496 333.742 186.096C333.742 183.712 332.03 181.968 329.694 181.968ZM342.832 182.208H340.368L337.376 185.36V178.416H335.536V190H337.376V187.824L338.336 186.816L340.624 190H342.896L339.632 185.504L342.832 182.208ZM345.16 185.248C345.224 184.416 345.896 183.52 347.064 183.52C348.344 183.52 348.952 184.336 348.984 185.248H345.16ZM349.192 187.28C348.936 188.048 348.36 188.64 347.24 188.64C346.088 188.64 345.16 187.792 345.112 186.608H350.808C350.824 186.576 350.856 186.32 350.856 186.016C350.856 183.552 349.448 181.968 347.048 181.968C345.08 181.968 343.256 183.6 343.256 186.064C343.256 188.704 345.128 190.24 347.24 190.24C349.112 190.24 350.344 189.136 350.76 187.776L349.192 187.28ZM354.486 185.504C354.486 184.48 355.046 183.664 356.102 183.664C357.27 183.664 357.702 184.432 357.702 185.392V190H359.558V185.072C359.558 183.36 358.646 181.984 356.742 181.984C355.878 181.984 354.95 182.352 354.438 183.248V182.208H352.63V190H354.486V185.504Z" fill="black"/>
<path d="M278 159H392V157H278V159ZM394 161V207H396V161H394ZM392 209H278V211H392V209ZM276 207V161H274V207H276ZM278 209C276.895 209 276 208.105 276 207H274C274 209.209 275.791 211 278 211V209ZM394 207C394 208.105 393.105 209 392 209V211C394.209 211 396 209.209 396 207H394ZM392 159C393.105 159 394 159.895 394 161H396C396 158.791 394.209 157 392 157V159ZM278 157C275.791 157 274 158.791 274 161H276C276 159.895 276.895 159 278 159V157Z" fill="#8E8E8E"/>
<path d="M275 535C275 533.343 276.343 532 278 532H395C396.657 532 398 533.343 398 535V581C398 582.657 396.657 584 395 584H278C276.343 584 275 582.657 275 581V535Z" fill="#F2F2F2"/>
<path d="M314.889 556.208L313.049 561.6L311.465 556.208H309.481L312.009 564H313.913L315.801 558.4L317.737 564H319.593L322.089 556.208H320.201L318.649 561.6L316.809 556.208H314.889ZM322.978 561.888C322.978 563.12 323.986 564.24 325.618 564.24C326.882 564.24 327.65 563.6 328.018 563.008C328.018 563.632 328.082 563.952 328.098 564H329.826C329.81 563.92 329.73 563.456 329.73 562.752V558.88C329.73 557.328 328.818 555.968 326.418 555.968C324.498 555.968 323.282 557.168 323.138 558.512L324.834 558.896C324.914 558.112 325.458 557.488 326.434 557.488C327.458 557.488 327.906 558.016 327.906 558.672C327.906 558.944 327.778 559.168 327.33 559.232L325.33 559.536C324.002 559.728 322.978 560.496 322.978 561.888ZM325.97 562.784C325.234 562.784 324.834 562.304 324.834 561.776C324.834 561.136 325.298 560.816 325.874 560.72L327.906 560.416V560.768C327.906 562.288 327.01 562.784 325.97 562.784ZM333.813 564V556.208H331.973V564H333.813ZM331.685 553.472C331.685 554.144 332.229 554.672 332.885 554.672C333.557 554.672 334.101 554.144 334.101 553.472C334.101 552.8 333.557 552.256 332.885 552.256C332.229 552.256 331.685 552.8 331.685 553.472ZM338.56 553.824H336.88V554.992C336.88 555.68 336.512 556.208 335.68 556.208H335.28V557.856H336.72V561.776C336.72 563.232 337.616 564.096 339.056 564.096C339.728 564.096 340.08 563.968 340.192 563.92V562.384C340.112 562.4 339.808 562.448 339.552 562.448C338.864 562.448 338.56 562.16 338.56 561.472V557.856H340.176V556.208H338.56V553.824ZM343.923 564V556.208H342.083V564H343.923ZM341.795 553.472C341.795 554.144 342.339 554.672 342.995 554.672C343.667 554.672 344.211 554.144 344.211 553.472C344.211 552.8 343.667 552.256 342.995 552.256C342.339 552.256 341.795 552.8 341.795 553.472ZM348.173 559.504C348.173 558.48 348.733 557.664 349.789 557.664C350.957 557.664 351.389 558.432 351.389 559.392V564H353.245V559.072C353.245 557.36 352.333 555.984 350.429 555.984C349.565 555.984 348.637 556.352 348.125 557.248V556.208H346.317V564H348.173V559.504ZM354.945 564.432C355.153 566 356.593 567.28 358.657 567.28C361.585 567.28 362.657 565.344 362.657 563.264V556.208H360.865V557.2C360.529 556.56 359.777 556.064 358.561 556.064C356.417 556.064 354.961 557.776 354.961 559.856C354.961 562.048 356.481 563.648 358.561 563.648C359.697 563.648 360.481 563.12 360.817 562.512V563.328C360.817 564.912 360.081 565.664 358.609 565.664C357.537 565.664 356.785 564.944 356.657 563.984L354.945 564.432ZM358.865 562.064C357.649 562.064 356.833 561.216 356.833 559.856C356.833 558.528 357.681 557.664 358.865 557.664C360.017 557.664 360.865 558.528 360.865 559.856C360.865 561.2 360.049 562.064 358.865 562.064Z" fill="black"/>
<path d="M278 533H395V531H278V533ZM397 535V581H399V535H397ZM395 583H278V585H395V583ZM276 581V535H274V581H276ZM278 583C276.895 583 276 582.105 276 581H274C274 583.209 275.791 585 278 585V583ZM397 581C397 582.105 396.105 583 395 583V585C397.209 585 399 583.209 399 581H397ZM395 533C396.105 533 397 533.895 397 535H399C399 532.791 397.209 531 395 531V533ZM278 531C275.791 531 274 532.791 274 535H276C276 533.895 276.895 533 278 533V531Z" fill="#8E8E8E"/>
<path d="M274 558L264 552.226L264 563.774L274 558ZM240 559L265 559L265 557L240 557L240 559Z" fill="#4F4F4F"/>
<path d="M274 64L264 58.2265L264 69.7735L274 64ZM242 65L265 65L265 63L242 63L242 65Z" fill="#4F4F4F"/>
<path d="M273 185L263 179.226L263 190.774L273 185ZM250 186L264 186L264 184L250 184L250 186Z" fill="#4F4F4F"/>
<path d="M1186 137L1176 131.226L1176 142.774L1186 137ZM1163 138L1177 138L1177 136L1163 136L1163 138Z" fill="#4F4F4F"/>
<path d="M824 406L814 400.226L814 411.774L824 406ZM801 407L815 407L815 405L801 405L801 407Z" fill="#4F4F4F"/>
<path d="M313 466L303 460.226L303 471.774L313 466ZM283 467L304 467L304 465L283 465L283 467Z" fill="#4F4F4F"/>
<path d="M313 630L303 624.226L303 635.774L313 630ZM283 631L304 631L304 629L283 629L283 631Z" fill="#4F4F4F"/>
<path d="M1228 209L1218 203.226L1218 214.774L1228 209ZM1198 210L1219 210L1219 208L1198 208L1198 210Z" fill="#4F4F4F"/>
<path d="M1226 474L1216 468.226L1216 479.774L1226 474ZM1196 475L1217 475L1217 473L1196 473L1196 475Z" fill="#4F4F4F"/>
<path d="M1226 510L1216 504.227L1216 515.774L1226 510ZM413.5 511L1217 511L1217 509L413.5 509L413.5 511Z" fill="#4F4F4F"/>
<path d="M1226 498L1216 492.227L1216 503.774L1226 498ZM610 499L1217 499L1217 497L610 497L610 499Z" fill="#4F4F4F"/>
<path d="M1186 401L1176 395.226L1176 406.774L1186 401ZM1163 402L1177 402L1177 400L1163 400L1163 402Z" fill="#4F4F4F"/>
<path d="M1186 415L1176 409.226L1176 420.774L1186 415ZM1149 416L1177 416L1177 414L1149 414L1149 416Z" fill="#4F4F4F"/>
<path d="M1226 486L1216 480.226L1216 491.773L1226 486ZM1135 487L1217 487L1217 485L1135 485L1135 487Z" fill="#4F4F4F"/>
<path d="M450 56L440 50.2265L440 61.7735L450 56ZM404 57L441 57L441 55L404 55L404 57Z" fill="#4F4F4F"/>
<path d="M525 294L530.774 284L519.226 284L525 294ZM524 248L524 285L526 285L526 248L524 248Z" fill="#4F4F4F"/>
<path d="M525 156L519.226 166L530.774 166L525 156ZM526 192L526 165L524 165L524 192L526 192Z" fill="#4F4F4F"/>
<path d="M525 350L519.227 360L530.774 360L525 350ZM526 468L526 359L524 359L524 468L526 468Z" fill="#4F4F4F"/>
<path d="M94 323.5L84 317.726V329.274L94 323.5ZM48 324.5H85V322.5H48V324.5Z" fill="#4F4F4F"/>
<path d="M273 394L263 388.226L263 399.774L273 394ZM252 395L264 395L264 393L252 393L252 395Z" fill="#4F4F4F"/>
<path d="M447 340L437 334.226V345.774L447 340ZM414 341H438V339H414V341Z" fill="#4F4F4F"/>
<path d="M824 420L814 414.227L814 425.774L824 420ZM618 421L815 421L815 419L618 419L618 421Z" fill="#4F4F4F"/>
<path d="M449 220L439 214.226L439 225.774L449 220ZM418 221L440 221L440 219L418 219L418 221Z" fill="#4F4F4F"/>
<path d="M641 323.5L631 317.726V329.274L641 323.5ZM595 324.5H632V322.5H595V324.5Z" fill="#4F4F4F"/>
<path d="M824 323.5L814 317.726V329.274L824 323.5ZM778 324.5H815V322.5H778V324.5Z" fill="#4F4F4F"/>
<path d="M1011 323.5L1001 317.726V329.274L1011 323.5ZM965 324.5H1002V322.5H965V324.5Z" fill="#4F4F4F"/>
<path d="M1289 324L1279 318.226V329.774L1289 324ZM1140 325H1280V323H1140V325Z" fill="#4F4F4F"/>
<line x1="241" y1="558" x2="241" y2="342" stroke="#4F4F4F" stroke-width="2"/>
<line x1="241" y1="304" x2="241" y2="63" stroke="#4F4F4F" stroke-width="2"/>
<line x1="251" y1="314" x2="251" y2="184" stroke="#4F4F4F" stroke-width="2"/>
<line x1="251" y1="395" x2="251" y2="332" stroke="#4F4F4F" stroke-width="2"/>
<line x1="1164" y1="316" x2="1164" y2="137" stroke="#4F4F4F" stroke-width="2"/>
<line x1="419" y1="220" x2="419" y2="76" stroke="#4F4F4F" stroke-width="2"/>
<line x1="525" y1="467" x2="436" y2="467" stroke="#4F4F4F" stroke-width="2"/>
<line x1="1137" y1="377" x2="812" y2="377" stroke="#4F4F4F" stroke-width="2"/>
<line x1="1150" y1="363" x2="990" y2="363" stroke="#4F4F4F" stroke-width="2"/>
<line x1="420" y1="77" x2="404" y2="77" stroke="#4F4F4F" stroke-width="2"/>
<path d="M447 322L437 316.226V327.774L447 322ZM438 321H227V323H438V321Z" fill="#4F4F4F"/>
<line x1="242" y1="303" x2="227" y2="303" stroke="#4F4F4F" stroke-width="2"/>
<line x1="284" y1="466" x2="284" y2="422" stroke="#4F4F4F" stroke-width="2"/>
<line x1="415" y1="396" x2="415" y2="341" stroke="#4F4F4F" stroke-width="2"/>
<line x1="414" y1="559" x2="414" y2="509" stroke="#4F4F4F" stroke-width="2"/>
<line x1="619" y1="420" x2="619" y2="332" stroke="#4F4F4F" stroke-width="2"/>
<line x1="611" y1="498" x2="611" y2="340" stroke="#4F4F4F" stroke-width="2"/>
<line x1="812" y1="378" x2="812" y2="333" stroke="#4F4F4F" stroke-width="2"/>
<line x1="802" y1="406" x2="802" y2="343" stroke="#4F4F4F" stroke-width="2"/>
<line x1="991" y1="364" x2="991" y2="333" stroke="#4F4F4F" stroke-width="2"/>
<line x1="1164" y1="402" x2="1164" y2="333" stroke="#4F4F4F" stroke-width="2"/>
<line x1="1150" y1="416" x2="1150" y2="362" stroke="#4F4F4F" stroke-width="2"/>
<line x1="1136" y1="486" x2="1136" y2="376" stroke="#4F4F4F" stroke-width="2"/>
<line x1="284" y1="630" x2="284" y2="586" stroke="#4F4F4F" stroke-width="2"/>
<line x1="1199" y1="209" x2="1199" y2="165" stroke="#4F4F4F" stroke-width="2"/>
<line x1="1197" y1="474" x2="1197" y2="444" stroke="#4F4F4F" stroke-width="2"/>
<line x1="242" y1="343" x2="227" y2="343" stroke="#4F4F4F" stroke-width="2"/>
<line x1="416" y1="395" x2="401" y2="395" stroke="#4F4F4F" stroke-width="2"/>
<line x1="415" y1="558" x2="400" y2="558" stroke="#4F4F4F" stroke-width="2"/>
<line x1="620" y1="332" x2="595" y2="332" stroke="#4F4F4F" stroke-width="2"/>
<line x1="612" y1="341" x2="595" y2="341" stroke="#4F4F4F" stroke-width="2"/>
<line x1="813" y1="334" x2="778" y2="334" stroke="#4F4F4F" stroke-width="2"/>
<line x1="803" y1="344" x2="778" y2="344" stroke="#4F4F4F" stroke-width="2"/>
<line x1="992" y1="334" x2="965" y2="334" stroke="#4F4F4F" stroke-width="2"/>
<line x1="1165" y1="334" x2="1140" y2="334" stroke="#4F4F4F" stroke-width="2"/>
<line x1="252" y1="313" x2="227" y2="313" stroke="#4F4F4F" stroke-width="2"/>
<line x1="252" y1="333" x2="227" y2="333" stroke="#4F4F4F" stroke-width="2"/>
<line x1="1165" y1="315" x2="1140" y2="315" stroke="#4F4F4F" stroke-width="2"/>
<path d="M833.714 111.744C833.714 115.128 836.042 117.36 839.402 117.36C842.786 117.36 845.162 114.768 845.162 111.672V99.984H841.37V111.576C841.37 112.848 840.626 113.76 839.378 113.76C838.274 113.76 837.314 113.064 837.314 111.552V109.992L833.714 110.616V111.744ZM853.838 114C852.47 114 851.15 113.016 851.15 111.024C851.15 109.008 852.47 108.072 853.838 108.072C855.23 108.072 856.526 109.008 856.526 111.024C856.526 113.04 855.23 114 853.838 114ZM853.838 104.712C850.286 104.712 847.502 107.328 847.502 111.024C847.502 114.72 850.286 117.36 853.838 117.36C857.414 117.36 860.174 114.72 860.174 111.024C860.174 107.328 857.414 104.712 853.838 104.712ZM866.05 117V115.656C866.602 116.568 867.826 117.264 869.41 117.264C872.746 117.264 875.098 114.648 875.098 111C875.098 107.424 873.01 104.784 869.554 104.784C867.922 104.784 866.602 105.456 866.098 106.2V99.624H862.522V117H866.05ZM871.45 111.024C871.45 113.016 870.178 114 868.762 114C867.346 114 866.05 112.992 866.05 111.024C866.05 109.008 867.346 108.072 868.762 108.072C870.178 108.072 871.45 109.008 871.45 111.024ZM895.31 104.16C894.95 102.168 893.342 99.624 889.094 99.624C885.83 99.624 882.998 101.88 882.998 105.096C882.998 107.616 884.75 109.536 887.63 110.088L889.958 110.52C891.086 110.736 891.782 111.36 891.782 112.224C891.782 113.28 890.87 114 889.382 114C887.054 114 885.998 112.632 885.854 111.072L882.374 111.912C882.614 114.312 884.63 117.36 889.334 117.36C893.39 117.36 895.622 114.648 895.622 111.984C895.622 109.56 893.942 107.472 890.702 106.872L888.422 106.44C887.246 106.224 886.742 105.624 886.742 104.808C886.742 103.872 887.654 102.984 889.07 102.984C891.134 102.984 891.782 104.328 891.902 105.12L895.31 104.16ZM902.656 101.592H899.392V103.128C899.392 104.232 898.792 105.072 897.544 105.072H896.944V108.264H899.056V113.376C899.056 115.752 900.568 117.216 903.04 117.216C904.192 117.216 904.792 116.952 904.936 116.88V113.856C904.72 113.904 904.36 113.976 903.976 113.976C903.184 113.976 902.656 113.712 902.656 112.728V108.264H904.984V105.072H902.656V101.592ZM906.943 113.712C906.943 115.608 908.455 117.336 911.071 117.336C912.655 117.336 913.807 116.664 914.431 115.656C914.431 116.472 914.527 116.904 914.551 117H917.839C917.815 116.88 917.695 116.088 917.695 115.152V109.32C917.695 106.872 916.279 104.712 912.415 104.712C908.911 104.712 907.327 106.968 907.183 108.672L910.351 109.32C910.423 108.432 911.119 107.568 912.391 107.568C913.543 107.568 914.143 108.168 914.143 108.864C914.143 109.272 913.927 109.584 913.279 109.68L910.471 110.112C908.503 110.4 906.943 111.6 906.943 113.712ZM911.959 114.696C910.951 114.696 910.543 114.096 910.543 113.472C910.543 112.632 911.119 112.272 911.887 112.152L914.143 111.792V112.32C914.143 114.168 913.039 114.696 911.959 114.696ZM925.015 101.592H921.751V103.128C921.751 104.232 921.151 105.072 919.903 105.072H919.303V108.264H921.415V113.376C921.415 115.752 922.927 117.216 925.399 117.216C926.551 117.216 927.151 116.952 927.295 116.88V113.856C927.079 113.904 926.719 113.976 926.335 113.976C925.543 113.976 925.015 113.712 925.015 112.728V108.264H927.343V105.072H925.015V101.592ZM932.548 109.608C932.62 108.72 933.388 107.592 934.924 107.592C936.652 107.592 937.276 108.696 937.324 109.608H932.548ZM937.588 112.704C937.252 113.64 936.508 114.264 935.188 114.264C933.772 114.264 932.548 113.304 932.476 111.96H940.78C940.804 111.888 940.852 111.336 940.852 110.832C940.852 106.992 938.572 104.712 934.876 104.712C931.78 104.712 928.924 107.16 928.924 111C928.924 115.008 931.852 117.36 935.14 117.36C938.164 117.36 940.06 115.632 940.636 113.568L937.588 112.704ZM942.21 113.616C942.306 114.936 943.506 117.36 947.25 117.36C950.442 117.36 952.002 115.368 952.002 113.328C952.002 111.576 950.802 110.088 948.33 109.584L946.746 109.272C946.218 109.176 945.81 108.888 945.81 108.384C945.81 107.76 946.41 107.352 947.106 107.352C948.21 107.352 948.714 108.024 948.81 108.816L951.834 108.264C951.714 106.872 950.514 104.712 947.058 104.712C944.394 104.712 942.474 106.488 942.474 108.672C942.474 110.352 943.482 111.792 946.026 112.344L947.394 112.656C948.282 112.848 948.57 113.208 948.57 113.64C948.57 114.168 948.114 114.672 947.178 114.672C945.93 114.672 945.354 113.88 945.306 113.064L942.21 113.616Z" fill="black"/>
</svg>