<svg xmlns="http://www.w3.org/2000/svg" width="48" height="48" fill="none" viewBox="0 0 48 48"><rect width="48" height="48" fill="#FFEAF1" rx="4"/><path stroke="#F83F23" stroke-linecap="round" stroke-linejoin="round" stroke-width="1.5" d="M33.75 18.75C33.75 19.3734 33.6206 19.9899 33.3698 20.5606C33.1191 21.1313 32.7525 21.6437 32.2933 22.0653C31.8342 22.4868 31.2924 22.8084 30.7024 23.0096C30.1124 23.2108 29.4871 23.2872 28.866 23.234C27.79 23.143 26.602 23.305 25.916 24.138L18.764 32.822C18.5384 33.097 18.2577 33.3217 17.94 33.4817C17.6223 33.6417 17.2746 33.7334 16.9193 33.7509C16.564 33.7684 16.209 33.7113 15.8772 33.5833C15.5453 33.4553 15.2439 33.2592 14.9924 33.0077C14.7408 32.7561 14.5448 32.4547 14.4168 32.1228C14.2888 31.791 14.2317 31.436 14.2491 31.0807C14.2666 30.7254 14.3583 30.3777 14.5183 30.06C14.6783 29.7423 14.903 29.4616 15.178 29.236L23.862 22.084C24.695 21.398 24.857 20.21 24.766 19.134C24.6989 18.3522 24.8373 17.5664 25.1677 16.8546C25.498 16.1428 26.0088 15.5298 26.6492 15.0764C27.2896 14.6229 28.0375 14.3448 28.8186 14.2697C29.5997 14.1946 30.3869 14.325 31.102 14.648L27.826 17.924C27.9527 18.4721 28.2308 18.9736 28.6286 19.3714C29.0264 19.7692 29.5279 20.0473 30.076 20.174L33.352 16.898C33.608 17.463 33.75 18.09 33.75 18.75Z"/><path stroke="#F83F23" stroke-linecap="round" stroke-linejoin="round" stroke-width="1.5" d="M16.867 31.125H16.875V31.133H16.867V31.125Z"/></svg>