<svg xmlns="http://www.w3.org/2000/svg" width="48" height="48" fill="none" viewBox="0 0 48 48"><rect width="48" height="48" fill="#FFF6BA" rx="4"/><path stroke="#AE9600" stroke-linecap="round" stroke-linejoin="round" stroke-width="1.5" d="M19.864 16.243C20.9944 15.4958 22.3062 15.0687 23.6598 15.0072C25.0135 14.9458 26.3586 15.2522 27.552 15.894C28.7455 16.5357 29.7428 17.4888 30.4379 18.652C31.1331 19.8152 31.5001 21.145 31.5 22.5C31.5 25.42 30.944 28.209 29.932 30.768M17.742 18.364C16.9296 19.5902 16.4975 21.0291 16.5 22.5C16.5024 23.9131 16.1036 25.2977 15.35 26.493M17.339 30.052C19.2161 27.9851 20.2541 25.2921 20.25 22.5C20.25 21.5055 20.6451 20.5516 21.3484 19.8484C22.0516 19.1451 23.0055 18.75 24 18.75C24.9946 18.75 25.9484 19.1451 26.6517 19.8484C27.3549 20.5516 27.75 21.5055 27.75 22.5C27.75 23.027 27.729 23.549 27.686 24.065M24 22.5C24.0056 26.0761 22.7283 29.5356 20.4 32.25M27.033 27.654C26.4915 29.5508 25.6528 31.3498 24.548 32.984"/></svg>