<svg xmlns="http://www.w3.org/2000/svg" width="48" height="48" fill="none" viewBox="0 0 48 48"><rect width="48" height="48" fill="#D6F3FF" rx="4"/><path stroke="#0A568D" stroke-linecap="round" stroke-linejoin="round" stroke-width="1.5" d="M20.25 18.75H32.25M20.25 24H32.25M20.25 29.25H32.25M15.75 18.75H15.757V18.758H15.75V18.75ZM16.125 18.75C16.125 18.8495 16.0855 18.9448 16.0152 19.0152C15.9448 19.0855 15.8495 19.125 15.75 19.125C15.6505 19.125 15.5552 19.0855 15.4848 19.0152C15.4145 18.9448 15.375 18.8495 15.375 18.75C15.375 18.6505 15.4145 18.5552 15.4848 18.4848C15.5552 18.4145 15.6505 18.375 15.75 18.375C15.8495 18.375 15.9448 18.4145 16.0152 18.4848C16.0855 18.5552 16.125 18.6505 16.125 18.75ZM15.75 24H15.757V24.008H15.75V24ZM16.125 24C16.125 24.0995 16.0855 24.1948 16.0152 24.2652C15.9448 24.3355 15.8495 24.375 15.75 24.375C15.6505 24.375 15.5552 24.3355 15.4848 24.2652C15.4145 24.1948 15.375 24.0995 15.375 24C15.375 23.9005 15.4145 23.8052 15.4848 23.7348C15.5552 23.6645 15.6505 23.625 15.75 23.625C15.8495 23.625 15.9448 23.6645 16.0152 23.7348C16.0855 23.8052 16.125 23.9005 16.125 24ZM15.75 29.25H15.757V29.258H15.75V29.25ZM16.125 29.25C16.125 29.3495 16.0855 29.4448 16.0152 29.5152C15.9448 29.5855 15.8495 29.625 15.75 29.625C15.6505 29.625 15.5552 29.5855 15.4848 29.5152C15.4145 29.4448 15.375 29.3495 15.375 29.25C15.375 29.1505 15.4145 29.0552 15.4848 28.9848C15.5552 28.9145 15.6505 28.875 15.75 28.875C15.8495 28.875 15.9448 28.9145 16.0152 28.9848C16.0855 29.0552 16.125 29.1505 16.125 29.25Z"/></svg>