<svg width="218" height="49" viewBox="0 0 218 49" fill="none" xmlns="http://www.w3.org/2000/svg">
<g filter="url(#filter0_ddddd_112_8316)">
<rect x="4" y="1" width="210" height="40" rx="14" fill="white"/>
<mask id="path-2-inside-1_112_8316" fill="white">
<path d="M4 1H44V41H4V1Z"/>
</mask>
<path d="M43 1V41H45V1H43Z" fill="#F4F3FB" mask="url(#path-2-inside-1_112_8316)"/>
<g clip-path="url(#clip0_112_8316)">
<mask id="mask0_112_8316" style="mask-type:luminance" maskUnits="userSpaceOnUse" x="12" y="9" width="24" height="24">
<path d="M36 9H12V33H36V9Z" fill="white"/>
</mask>
<g mask="url(#mask0_112_8316)">
<path d="M33 16.5L24 11.25L15 16.5M33 16.5L24 21.75M33 16.5V23M15 16.5L24 21.75M15 16.5V25.5L24 30.75M24 21.75V30.75M24 30.75L25.6875 29.7656L26.5312 29.2734" stroke="#FFC976" stroke-width="1.5" stroke-linecap="round" stroke-linejoin="round"/>
<path fill-rule="evenodd" clip-rule="evenodd" d="M30.5001 20.191C30.3626 20.068 30.1846 20 30.0001 20C29.8156 20 29.6376 20.068 29.5001 20.191C28.1485 21.4031 26.4607 22.1762 24.6601 22.408C24.4833 22.4307 24.3204 22.5157 24.2006 22.6476C24.0807 22.7795 24.0118 22.9498 24.0061 23.128C23.9385 25.1088 24.4329 27.0683 25.4322 28.7798C26.4315 30.4914 27.8949 31.8852 29.6531 32.8C29.7603 32.8557 29.8794 32.8848 30.0002 32.8846C30.1211 32.8844 30.2401 32.855 30.3471 32.799C32.1053 31.8842 33.5687 30.4904 34.568 28.7788C35.5673 27.0673 36.0617 25.1078 35.9941 23.127C35.9882 22.949 35.9192 22.7789 35.7993 22.6472C35.6795 22.5155 35.5167 22.4307 35.3401 22.408C33.5396 22.1765 31.8518 21.4037 30.5001 20.192V20.191ZM32.8401 25.695C32.9612 25.5384 33.0154 25.3402 32.9909 25.1438C32.9665 24.9474 32.8654 24.7686 32.7097 24.6463C32.554 24.5241 32.3562 24.4685 32.1596 24.4914C31.963 24.5144 31.7835 24.6142 31.6601 24.769L29.3941 27.652L28.2381 26.662C28.164 26.5941 28.0769 26.5418 27.9821 26.5082C27.8874 26.4746 27.7868 26.4604 27.6865 26.4665C27.5861 26.4725 27.488 26.4987 27.3979 26.5434C27.3079 26.5881 27.2278 26.6505 27.1623 26.7268C27.0968 26.8032 27.0474 26.8919 27.0169 26.9877C26.9864 27.0835 26.9755 27.1845 26.9848 27.2846C26.9941 27.3847 27.0235 27.4819 27.0711 27.5704C27.1188 27.659 27.1837 27.737 27.2621 27.8L29.0121 29.3C29.0889 29.3659 29.1783 29.4155 29.2748 29.4459C29.3713 29.4764 29.473 29.487 29.5737 29.4771C29.6745 29.4672 29.7721 29.437 29.8609 29.3883C29.9496 29.3397 30.0276 29.2736 30.0901 29.194L32.8401 25.695Z" fill="#FFC976"/>
<path d="M20 14L28.5 19.5" stroke="#FFC976" stroke-width="1.5"/>
</g>
</g>
<path d="M53.3906 27V15.7266H57.8906C60.1797 15.7266 61.7266 17.2344 61.7266 19.4922V19.5078C61.7266 21.7578 60.1797 23.2734 57.8906 23.2734H55.4062V27H53.3906ZM57.3984 17.375H55.4062V21.6484H57.3984C58.8438 21.6484 59.6875 20.8672 59.6875 19.5156V19.5C59.6875 18.1484 58.8438 17.375 57.3984 17.375ZM65.7656 27.1406C64.1406 27.1406 62.9609 26.1406 62.9609 24.5859V24.5703C62.9609 23.0469 64.125 22.1562 66.2031 22.0312L68.3984 21.8984V21.1641C68.3984 20.3125 67.8438 19.8438 66.7969 19.8438C65.9062 19.8438 65.3281 20.1641 65.1328 20.7266L65.125 20.7578H63.2891L63.2969 20.6875C63.4844 19.25 64.8594 18.2969 66.8906 18.2969C69.0859 18.2969 70.3203 19.3594 70.3203 21.1641V27H68.3984V25.8281H68.2656C67.7969 26.6562 66.8906 27.1406 65.7656 27.1406ZM64.8828 24.4922C64.8828 25.2188 65.5 25.6484 66.3594 25.6484C67.5312 25.6484 68.3984 24.8828 68.3984 23.8672V23.1797L66.4766 23.3047C65.3906 23.375 64.8828 23.7734 64.8828 24.4766V24.4922ZM76.3203 27.1719C73.75 27.1719 72.2344 25.5078 72.2344 22.7188V22.7031C72.2344 19.9453 73.7422 18.2969 76.3125 18.2969C78.5078 18.2969 79.8203 19.5156 80.0391 21.2812V21.3125H78.2031L78.1953 21.2891C78.0156 20.4609 77.3828 19.8672 76.3203 19.8672C74.9922 19.8672 74.2109 20.9141 74.2109 22.7031V22.7188C74.2109 24.5312 75 25.5938 76.3203 25.5938C77.3281 25.5938 77.9453 25.1328 78.1875 24.2344L78.2031 24.2031L80.0391 24.1953L80.0234 24.2578C79.7422 26.0078 78.4844 27.1719 76.3203 27.1719ZM81.9688 27V15.1562H83.9141V21.9609H84.0469L87.1953 18.4609H89.4453L86.0078 22.0703L89.6797 27H87.3359L84.5938 23.3047L83.9141 24V27H81.9688ZM93.2188 27.1406C91.5938 27.1406 90.4141 26.1406 90.4141 24.5859V24.5703C90.4141 23.0469 91.5781 22.1562 93.6562 22.0312L95.8516 21.8984V21.1641C95.8516 20.3125 95.2969 19.8438 94.25 19.8438C93.3594 19.8438 92.7812 20.1641 92.5859 20.7266L92.5781 20.7578H90.7422L90.75 20.6875C90.9375 19.25 92.3125 18.2969 94.3438 18.2969C96.5391 18.2969 97.7734 19.3594 97.7734 21.1641V27H95.8516V25.8281H95.7188C95.25 26.6562 94.3438 27.1406 93.2188 27.1406ZM92.3359 24.4922C92.3359 25.2188 92.9531 25.6484 93.8125 25.6484C94.9844 25.6484 95.8516 24.8828 95.8516 23.8672V23.1797L93.9297 23.3047C92.8438 23.375 92.3359 23.7734 92.3359 24.4766V24.4922ZM103.781 30C101.531 30 100.18 29.0391 99.9844 27.6016L99.9922 27.5781H101.938L101.945 27.6016C102.078 28.1484 102.727 28.5312 103.812 28.5312C105.141 28.5312 105.914 27.9141 105.914 26.8203V25.1875H105.781C105.289 26.1016 104.359 26.6016 103.18 26.6016C101.016 26.6016 99.6719 24.9297 99.6719 22.5078V22.4922C99.6719 20.0234 101.016 18.3203 103.219 18.3203C104.398 18.3203 105.32 18.8984 105.805 19.8672H105.906V18.4609H107.852V26.7891C107.852 28.7578 106.273 30 103.781 30ZM103.781 25.0547C105.133 25.0547 105.945 24.0156 105.945 22.5078V22.4922C105.945 20.9844 105.125 19.9375 103.781 19.9375C102.43 19.9375 101.664 20.9844 101.664 22.4922V22.5078C101.664 24.0156 102.43 25.0547 103.781 25.0547ZM113.891 27.1719C111.352 27.1719 109.812 25.4688 109.812 22.75V22.7422C109.812 20.0547 111.367 18.2969 113.797 18.2969C116.227 18.2969 117.727 20 117.727 22.5781V23.2188H111.758C111.781 24.75 112.609 25.6406 113.93 25.6406C114.984 25.6406 115.586 25.1094 115.773 24.7188L115.797 24.6641H117.648L117.625 24.7344C117.352 25.8359 116.211 27.1719 113.891 27.1719ZM113.82 19.8203C112.734 19.8203 111.922 20.5547 111.773 21.9141H115.828C115.695 20.5156 114.906 19.8203 113.82 19.8203ZM124.141 27V15.7266H128.695C131.117 15.7266 132.57 17.0781 132.57 19.2266V19.2422C132.57 20.7344 131.781 21.9688 130.445 22.4531L132.906 27H130.602L128.391 22.7578H126.156V27H124.141ZM126.156 21.2109H128.484C129.758 21.2109 130.5 20.5 130.5 19.2891V19.2734C130.5 18.0938 129.727 17.3594 128.445 17.3594H126.156V21.2109ZM138.203 27.1719C135.664 27.1719 134.125 25.4688 134.125 22.75V22.7422C134.125 20.0547 135.68 18.2969 138.109 18.2969C140.539 18.2969 142.039 20 142.039 22.5781V23.2188H136.07C136.094 24.75 136.922 25.6406 138.242 25.6406C139.297 25.6406 139.898 25.1094 140.086 24.7188L140.109 24.6641H141.961L141.938 24.7344C141.664 25.8359 140.523 27.1719 138.203 27.1719ZM138.133 19.8203C137.047 19.8203 136.234 20.5547 136.086 21.9141H140.141C140.008 20.5156 139.219 19.8203 138.133 19.8203ZM147.656 30C145.406 30 144.055 29.0391 143.859 27.6016L143.867 27.5781H145.812L145.82 27.6016C145.953 28.1484 146.602 28.5312 147.688 28.5312C149.016 28.5312 149.789 27.9141 149.789 26.8203V25.1875H149.656C149.164 26.1016 148.234 26.6016 147.055 26.6016C144.891 26.6016 143.547 24.9297 143.547 22.5078V22.4922C143.547 20.0234 144.891 18.3203 147.094 18.3203C148.273 18.3203 149.195 18.8984 149.68 19.8672H149.781V18.4609H151.727V26.7891C151.727 28.7578 150.148 30 147.656 30ZM147.656 25.0547C149.008 25.0547 149.82 24.0156 149.82 22.5078V22.4922C149.82 20.9844 149 19.9375 147.656 19.9375C146.305 19.9375 145.539 20.9844 145.539 22.4922V22.5078C145.539 24.0156 146.305 25.0547 147.656 25.0547ZM155.109 17.0312C154.469 17.0312 153.945 16.5234 153.945 15.8828C153.945 15.25 154.469 14.7344 155.109 14.7344C155.742 14.7344 156.266 15.25 156.266 15.8828C156.266 16.5234 155.742 17.0312 155.109 17.0312ZM154.133 27V18.4609H156.078V27H154.133ZM161.695 27.1719C159.523 27.1719 158.211 26.1719 158.047 24.7266V24.7109H159.977L159.984 24.7266C160.188 25.3203 160.758 25.7344 161.727 25.7344C162.695 25.7344 163.367 25.2969 163.367 24.6562V24.6406C163.367 24.1406 162.992 23.8125 162.055 23.6016L160.672 23.2891C159.047 22.9297 158.273 22.1641 158.273 20.9062V20.8984C158.273 19.3594 159.68 18.2969 161.695 18.2969C163.773 18.2969 165.016 19.3281 165.141 20.7109V20.7266H163.312L163.305 20.7031C163.164 20.1641 162.602 19.7266 161.688 19.7266C160.82 19.7266 160.195 20.1484 160.195 20.7891V20.7969C160.195 21.2969 160.555 21.6016 161.477 21.8125L162.859 22.1172C164.531 22.4922 165.32 23.2031 165.32 24.4453V24.4609C165.32 26.0859 163.797 27.1719 161.695 27.1719ZM170.578 27.0391C168.617 27.0391 167.812 26.3828 167.812 24.7344V19.9688H166.484V18.4609H167.812V16.3672H169.789V18.4609H171.594V19.9688H169.789V24.2734C169.789 25.125 170.125 25.4844 170.938 25.4844C171.211 25.4844 171.359 25.4766 171.594 25.4531V26.9531C171.312 27.0078 170.953 27.0391 170.578 27.0391ZM173.531 27V18.4609H175.477V19.7734H175.609C175.898 18.8594 176.68 18.3203 177.805 18.3203C178.102 18.3203 178.406 18.3594 178.594 18.4141V20.1562C178.281 20.0938 177.961 20.0469 177.625 20.0469C176.328 20.0469 175.477 20.8203 175.477 22.0391V27H173.531ZM181.188 17.0312C180.547 17.0312 180.023 16.5234 180.023 15.8828C180.023 15.25 180.547 14.7344 181.188 14.7344C181.82 14.7344 182.344 15.25 182.344 15.8828C182.344 16.5234 181.82 17.0312 181.188 17.0312ZM180.211 27V18.4609H182.156V27H180.211ZM188.203 27.1719C185.664 27.1719 184.125 25.4688 184.125 22.75V22.7422C184.125 20.0547 185.68 18.2969 188.109 18.2969C190.539 18.2969 192.039 20 192.039 22.5781V23.2188H186.07C186.094 24.75 186.922 25.6406 188.242 25.6406C189.297 25.6406 189.898 25.1094 190.086 24.7188L190.109 24.6641H191.961L191.938 24.7344C191.664 25.8359 190.523 27.1719 188.203 27.1719ZM188.133 19.8203C187.047 19.8203 186.234 20.5547 186.086 21.9141H190.141C190.008 20.5156 189.219 19.8203 188.133 19.8203ZM197.211 27.1719C195.039 27.1719 193.727 26.1719 193.562 24.7266V24.7109H195.492L195.5 24.7266C195.703 25.3203 196.273 25.7344 197.242 25.7344C198.211 25.7344 198.883 25.2969 198.883 24.6562V24.6406C198.883 24.1406 198.508 23.8125 197.57 23.6016L196.188 23.2891C194.562 22.9297 193.789 22.1641 193.789 20.9062V20.8984C193.789 19.3594 195.195 18.2969 197.211 18.2969C199.289 18.2969 200.531 19.3281 200.656 20.7109V20.7266H198.828L198.82 20.7031C198.68 20.1641 198.117 19.7266 197.203 19.7266C196.336 19.7266 195.711 20.1484 195.711 20.7891V20.7969C195.711 21.2969 196.07 21.6016 196.992 21.8125L198.375 22.1172C200.047 22.4922 200.836 23.2031 200.836 24.4453V24.4609C200.836 26.0859 199.312 27.1719 197.211 27.1719Z" fill="#140D30"/>
</g>
<defs>
<filter id="filter0_ddddd_112_8316" x="0" y="0" width="218" height="49" filterUnits="userSpaceOnUse" color-interpolation-filters="sRGB">
<feFlood flood-opacity="0" result="BackgroundImageFix"/>
<feColorMatrix in="SourceAlpha" type="matrix" values="0 0 0 0 0 0 0 0 0 0 0 0 0 0 0 0 0 0 127 0" result="hardAlpha"/>
<feOffset dy="4"/>
<feGaussianBlur stdDeviation="2"/>
<feComposite in2="hardAlpha" operator="out"/>
<feColorMatrix type="matrix" values="0 0 0 0 0 0 0 0 0 0 0 0 0 0 0 0 0 0 0.01 0"/>
<feBlend mode="normal" in2="BackgroundImageFix" result="effect1_dropShadow_112_8316"/>
<feColorMatrix in="SourceAlpha" type="matrix" values="0 0 0 0 0 0 0 0 0 0 0 0 0 0 0 0 0 0 127 0" result="hardAlpha"/>
<feOffset dy="3"/>
<feGaussianBlur stdDeviation="1.5"/>
<feComposite in2="hardAlpha" operator="out"/>
<feColorMatrix type="matrix" values="0 0 0 0 0 0 0 0 0 0 0 0 0 0 0 0 0 0 0.02 0"/>
<feBlend mode="normal" in2="effect1_dropShadow_112_8316" result="effect2_dropShadow_112_8316"/>
<feColorMatrix in="SourceAlpha" type="matrix" values="0 0 0 0 0 0 0 0 0 0 0 0 0 0 0 0 0 0 127 0" result="hardAlpha"/>
<feOffset dy="2"/>
<feGaussianBlur stdDeviation="1"/>
<feComposite in2="hardAlpha" operator="out"/>
<feColorMatrix type="matrix" values="0 0 0 0 0 0 0 0 0 0 0 0 0 0 0 0 0 0 0.04 0"/>
<feBlend mode="normal" in2="effect2_dropShadow_112_8316" result="effect3_dropShadow_112_8316"/>
<feColorMatrix in="SourceAlpha" type="matrix" values="0 0 0 0 0 0 0 0 0 0 0 0 0 0 0 0 0 0 127 0" result="hardAlpha"/>
<feOffset dy="1"/>
<feComposite in2="hardAlpha" operator="out"/>
<feColorMatrix type="matrix" values="0 0 0 0 0 0 0 0 0 0 0 0 0 0 0 0 0 0 0.09 0"/>
<feBlend mode="normal" in2="effect3_dropShadow_112_8316" result="effect4_dropShadow_112_8316"/>
<feColorMatrix in="SourceAlpha" type="matrix" values="0 0 0 0 0 0 0 0 0 0 0 0 0 0 0 0 0 0 127 0" result="hardAlpha"/>
<feMorphology radius="1" operator="dilate" in="SourceAlpha" result="effect5_dropShadow_112_8316"/>
<feOffset/>
<feComposite in2="hardAlpha" operator="out"/>
<feColorMatrix type="matrix" values="0 0 0 0 0 0 0 0 0 0 0 0 0 0 0 0 0 0 0.15 0"/>
<feBlend mode="normal" in2="effect4_dropShadow_112_8316" result="effect5_dropShadow_112_8316"/>
<feBlend mode="normal" in="SourceGraphic" in2="effect5_dropShadow_112_8316" result="shape"/>
</filter>
<clipPath id="clip0_112_8316">
<rect width="24" height="24" fill="white" transform="translate(12 9)"/>
</clipPath>
</defs>
</svg>
