<svg xmlns="http://www.w3.org/2000/svg" width="216" height="112" fill="none" viewBox="0 0 216 112"><g clip-path="url(#clip0_29_431)"><path fill="#E8FADF" d="M208 0H8C3.58172 0 0 3.58172 0 8V104C0 108.418 3.58172 112 8 112H208C212.418 112 216 108.418 216 104V8C216 3.58172 212.418 0 208 0Z"/><g filter="url(#filter0_dd_29_431)"><path fill="#fff" d="M196 17H20C18.3431 17 17 18.3431 17 20V92C17 93.6569 18.3431 95 20 95H196C197.657 95 199 93.6569 199 92V20C199 18.3431 197.657 17 196 17Z"/></g><mask id="mask0_29_431" style="mask-type:luminance" width="182" height="25" x="17" y="44" maskUnits="userSpaceOnUse"><path fill="#fff" d="M17 44H199V69H17V44Z"/><path fill="#5EC986" d="M17 45H199V69H17V45Z"/></mask><g mask="url(#mask0_29_431)"><path fill="#5EC986" d="M17 46H199V44H17V46Z"/></g><path fill="#C6C6C6" d="M70 25H24C23.4477 25 23 25.4477 23 26V28C23 28.5523 23.4477 29 24 29H70C70.5523 29 71 28.5523 71 28V26C71 25.4477 70.5523 25 70 25Z"/><path fill="#D9D9D9" d="M36 32H24C23.4477 32 23 32.4477 23 33V34C23 34.5523 23.4477 35 24 35H36C36.5523 35 37 34.5523 37 34V33C37 32.4477 36.5523 32 36 32Z"/><path fill="#D9D9D9" d="M53 32H41C40.4477 32 40 32.4477 40 33V34C40 34.5523 40.4477 35 41 35H53C53.5523 35 54 34.5523 54 34V33C54 32.4477 53.5523 32 53 32Z"/><path fill="#D9D9D9" d="M70 32H58C57.4477 32 57 32.4477 57 33V34C57 34.5523 57.4477 35 58 35H70C70.5523 35 71 34.5523 71 34V33C71 32.4477 70.5523 32 70 32Z"/><path fill="#FBFDFA" stroke="#5EC986" d="M81 52.5H53C52.1716 52.5 51.5 53.1716 51.5 54V60C51.5 60.8284 52.1716 61.5 53 61.5H81C81.8284 61.5 82.5 60.8284 82.5 60V54C82.5 53.1716 81.8284 52.5 81 52.5Z"/><path fill="#FBFDFA" stroke="#5EC986" d="M47 52.5H25C24.1716 52.5 23.5 53.1716 23.5 54V60C23.5 60.8284 24.1716 61.5 25 61.5H47C47.8284 61.5 48.5 60.8284 48.5 60V54C48.5 53.1716 47.8284 52.5 47 52.5Z"/><path fill="#FBFDFA" stroke="#5EC986" d="M116 52.5H94C93.1716 52.5 92.5 53.1716 92.5 54V60C92.5 60.8284 93.1716 61.5 94 61.5H116C116.828 61.5 117.5 60.8284 117.5 60V54C117.5 53.1716 116.828 52.5 116 52.5Z"/><path fill="#FBFDFA" stroke="#5EC986" d="M136 52.5H122C121.172 52.5 120.5 53.1716 120.5 54V60C120.5 60.8284 121.172 61.5 122 61.5H136C136.828 61.5 137.5 60.8284 137.5 60V54C137.5 53.1716 136.828 52.5 136 52.5Z"/><path fill="#FBFDFA" stroke="#5EC986" d="M169 52.5H149C148.172 52.5 147.5 53.1716 147.5 54V60C147.5 60.8284 148.172 61.5 149 61.5H169C169.828 61.5 170.5 60.8284 170.5 60V54C170.5 53.1716 169.828 52.5 169 52.5Z"/><path fill="#FBFDFA" stroke="#5EC986" d="M191 52.5H175C174.172 52.5 173.5 53.1716 173.5 54V60C173.5 60.8284 174.172 61.5 175 61.5H191C191.828 61.5 192.5 60.8284 192.5 60V54C192.5 53.1716 191.828 52.5 191 52.5Z"/><path fill="#F9FAFB" d="M17 70H199V92C199 92.7956 198.684 93.5587 198.121 94.1213C197.559 94.6839 196.796 95 196 95H20C19.2044 95 18.4413 94.6839 17.8787 94.1213C17.3161 93.5587 17 92.7956 17 92V70Z"/><mask id="mask1_29_431" style="mask-type:luminance" width="182" height="25" x="17" y="70" maskUnits="userSpaceOnUse"><path fill="#5EC986" d="M17 70H199V92C199 92.7956 198.684 93.5587 198.121 94.1213C197.559 94.6839 196.796 95 196 95H20C19.2044 95 18.4413 94.6839 17.8787 94.1213C17.3161 93.5587 17 92.7956 17 92V70Z"/></mask><g mask="url(#mask1_29_431)"><path fill="#5EC986" d="M17 69H199V71H17V69Z"/></g><path stroke="#5EC986" stroke-linecap="round" stroke-linejoin="round" d="M87 55L89 57L87 59M142 55L144 57L142 59"/><path fill="#55BB3B" fill-rule="evenodd" d="M186 38C186.919 38 187.83 37.8189 188.679 37.4672C189.528 37.1154 190.3 36.5998 190.95 35.9497C191.6 35.2997 192.115 34.5281 192.467 33.6788C192.819 32.8295 193 31.9193 193 31C193 30.0807 192.819 29.1705 192.467 28.3212C192.115 27.4719 191.6 26.7003 190.95 26.0503C190.3 25.4002 189.528 24.8846 188.679 24.5328C187.83 24.1811 186.919 24 186 24C184.143 24 182.363 24.7375 181.05 26.0503C179.737 27.363 179 29.1435 179 31C179 32.8565 179.737 34.637 181.05 35.9497C182.363 37.2625 184.143 38 186 38ZM185.863 33.694L189.72 29.694L188.28 28.306L185.143 31.559L183.72 30.084L182.28 31.472L184.423 33.694L185.143 34.441L185.863 33.694Z" clip-rule="evenodd"/><path stroke="#D9D9D9" d="M29 87.5C32.0376 87.5 34.5 85.0376 34.5 82C34.5 78.9624 32.0376 76.5 29 76.5C25.9624 76.5 23.5 78.9624 23.5 82C23.5 85.0376 25.9624 87.5 29 87.5Z"/><path stroke="#D9D9D9" d="M191 76.5H163C162.172 76.5 161.5 77.1716 161.5 78V86C161.5 86.8284 162.172 87.5 163 87.5H191C191.828 87.5 192.5 86.8284 192.5 86V78C192.5 77.1716 191.828 76.5 191 76.5Z"/><path fill="#C6C6C6" d="M63 79H39C38.4477 79 38 79.4477 38 80C38 80.5523 38.4477 81 39 81H63C63.5523 81 64 80.5523 64 80C64 79.4477 63.5523 79 63 79Z"/><path fill="#D9D9D9" d="M51 83H39C38.4477 83 38 83.4477 38 84C38 84.5523 38.4477 85 39 85H51C51.5523 85 52 84.5523 52 84C52 83.4477 51.5523 83 51 83Z"/><path fill="#55BB3B" d="M17 20C17 19.2044 17.3161 18.4413 17.8787 17.8787C18.4413 17.3161 19.2044 17 20 17H196C196.796 17 197.559 17.3161 198.121 17.8787C198.684 18.4413 199 19.2044 199 20H17Z"/></g><defs><filter id="filter0_dd_29_431" width="184" height="81" x="16" y="16" color-interpolation-filters="sRGB" filterUnits="userSpaceOnUse"><feFlood flood-opacity="0" result="BackgroundImageFix"/><feColorMatrix in="SourceAlpha" result="hardAlpha" type="matrix" values="0 0 0 0 0 0 0 0 0 0 0 0 0 0 0 0 0 0 127 0"/><feOffset dy="1"/><feGaussianBlur stdDeviation=".5"/><feComposite in2="hardAlpha" operator="out"/><feColorMatrix type="matrix" values="0 0 0 0 0.0196078 0 0 0 0 0.105882 0 0 0 0 0 0 0 0 0.2 0"/><feBlend in2="BackgroundImageFix" mode="normal" result="effect1_dropShadow_29_431"/><feColorMatrix in="SourceAlpha" result="hardAlpha" type="matrix" values="0 0 0 0 0 0 0 0 0 0 0 0 0 0 0 0 0 0 127 0"/><feOffset/><feGaussianBlur stdDeviation=".5"/><feComposite in2="hardAlpha" operator="out"/><feColorMatrix type="matrix" values="0 0 0 0 0.0211589 0 0 0 0 0.104167 0 0 0 0 0 0 0 0 0.12 0"/><feBlend in2="effect1_dropShadow_29_431" mode="normal" result="effect2_dropShadow_29_431"/><feBlend in="SourceGraphic" in2="effect2_dropShadow_29_431" mode="normal" result="shape"/></filter><clipPath id="clip0_29_431"><rect width="216" height="112" fill="#fff"/></clipPath></defs></svg>