<svg width="140" height="49" viewBox="0 0 140 49" fill="none" xmlns="http://www.w3.org/2000/svg">
<g filter="url(#filter0_ddddd_112_8303)">
<rect x="4" y="1" width="132" height="40" rx="14" fill="white"/>
<mask id="path-2-inside-1_112_8303" fill="white">
<path d="M4 1H44V41H4V1Z"/>
</mask>
<path d="M43 1V41H45V1H43Z" fill="#F4F3FB" mask="url(#path-2-inside-1_112_8303)"/>
<path d="M19 14C19 15.1046 18.1046 16 17 16C15.8954 16 15 15.1046 15 14C15 12.8954 15.8954 12 17 12C18.1046 12 19 12.8954 19 14Z" stroke="#00E285" stroke-width="1.5"/>
<path d="M33 28C33 29.1046 32.1046 30 31 30C29.8954 30 29 29.1046 29 28C29 26.8954 29.8954 26 31 26C32.1046 26 33 26.8954 33 28Z" stroke="#00E285" stroke-width="1.5"/>
<path d="M28.5 28H21C19.067 28 17.5 26.433 17.5 24.5C17.5 22.567 19.067 21 21 21H25.5" stroke="#00E285" stroke-width="1.5"/>
<path d="M19.5 14H27C28.933 14 30.5 15.567 30.5 17.5C30.5 19.433 28.933 21 27 21H25.5" stroke="#00E285" stroke-width="1.5"/>
<path d="M53.3906 27V15.7266H57.8906C60.1797 15.7266 61.7266 17.2344 61.7266 19.4922V19.5078C61.7266 21.7578 60.1797 23.2734 57.8906 23.2734H55.4062V27H53.3906ZM57.3984 17.375H55.4062V21.6484H57.3984C58.8438 21.6484 59.6875 20.8672 59.6875 19.5156V19.5C59.6875 18.1484 58.8438 17.375 57.3984 17.375ZM64.75 17.0312C64.1094 17.0312 63.5859 16.5234 63.5859 15.8828C63.5859 15.25 64.1094 14.7344 64.75 14.7344C65.3828 14.7344 65.9062 15.25 65.9062 15.8828C65.9062 16.5234 65.3828 17.0312 64.75 17.0312ZM63.7734 27V18.4609H65.7188V27H63.7734ZM68.1094 29.8359V18.4609H70.0547V19.7969H70.1875C70.6562 18.8672 71.5859 18.3203 72.7812 18.3203C74.9219 18.3203 76.2891 20.0234 76.2891 22.7266V22.7422C76.2891 25.4609 74.9453 27.1406 72.7812 27.1406C71.6094 27.1406 70.6328 26.5625 70.1875 25.6406H70.0547V29.8359H68.1094ZM72.1719 25.5C73.5 25.5 74.3047 24.4531 74.3047 22.7422V22.7266C74.3047 21.0078 73.5 19.9609 72.1719 19.9609C70.8516 19.9609 70.0312 21.0078 70.0312 22.7188V22.7344C70.0312 24.4453 70.8516 25.5 72.1719 25.5ZM81.9062 27.1719C79.3672 27.1719 77.8281 25.4688 77.8281 22.75V22.7422C77.8281 20.0547 79.3828 18.2969 81.8125 18.2969C84.2422 18.2969 85.7422 20 85.7422 22.5781V23.2188H79.7734C79.7969 24.75 80.625 25.6406 81.9453 25.6406C83 25.6406 83.6016 25.1094 83.7891 24.7188L83.8125 24.6641H85.6641L85.6406 24.7344C85.3672 25.8359 84.2266 27.1719 81.9062 27.1719ZM81.8359 19.8203C80.75 19.8203 79.9375 20.5547 79.7891 21.9141H83.8438C83.7109 20.5156 82.9219 19.8203 81.8359 19.8203ZM87.7656 27V15.1562H89.7109V27H87.7656ZM93.1719 17.0312C92.5312 17.0312 92.0078 16.5234 92.0078 15.8828C92.0078 15.25 92.5312 14.7344 93.1719 14.7344C93.8047 14.7344 94.3281 15.25 94.3281 15.8828C94.3281 16.5234 93.8047 17.0312 93.1719 17.0312ZM92.1953 27V18.4609H94.1406V27H92.1953ZM96.5312 27V18.4609H98.4766V19.7656H98.6094C99.0156 18.8516 99.8359 18.2969 101.07 18.2969C102.977 18.2969 104.016 19.4453 104.016 21.4766V27H102.07V21.9297C102.07 20.6016 101.531 19.9297 100.352 19.9297C99.1953 19.9297 98.4766 20.7422 98.4766 22.0234V27H96.5312ZM109.969 27.1719C107.43 27.1719 105.891 25.4688 105.891 22.75V22.7422C105.891 20.0547 107.445 18.2969 109.875 18.2969C112.305 18.2969 113.805 20 113.805 22.5781V23.2188H107.836C107.859 24.75 108.688 25.6406 110.008 25.6406C111.062 25.6406 111.664 25.1094 111.852 24.7188L111.875 24.6641H113.727L113.703 24.7344C113.43 25.8359 112.289 27.1719 109.969 27.1719ZM109.898 19.8203C108.812 19.8203 108 20.5547 107.852 21.9141H111.906C111.773 20.5156 110.984 19.8203 109.898 19.8203ZM118.977 27.1719C116.805 27.1719 115.492 26.1719 115.328 24.7266V24.7109H117.258L117.266 24.7266C117.469 25.3203 118.039 25.7344 119.008 25.7344C119.977 25.7344 120.648 25.2969 120.648 24.6562V24.6406C120.648 24.1406 120.273 23.8125 119.336 23.6016L117.953 23.2891C116.328 22.9297 115.555 22.1641 115.555 20.9062V20.8984C115.555 19.3594 116.961 18.2969 118.977 18.2969C121.055 18.2969 122.297 19.3281 122.422 20.7109V20.7266H120.594L120.586 20.7031C120.445 20.1641 119.883 19.7266 118.969 19.7266C118.102 19.7266 117.477 20.1484 117.477 20.7891V20.7969C117.477 21.2969 117.836 21.6016 118.758 21.8125L120.141 22.1172C121.812 22.4922 122.602 23.2031 122.602 24.4453V24.4609C122.602 26.0859 121.078 27.1719 118.977 27.1719Z" fill="#140D30"/>
</g>
<defs>
<filter id="filter0_ddddd_112_8303" x="0" y="0" width="140" height="49" filterUnits="userSpaceOnUse" color-interpolation-filters="sRGB">
<feFlood flood-opacity="0" result="BackgroundImageFix"/>
<feColorMatrix in="SourceAlpha" type="matrix" values="0 0 0 0 0 0 0 0 0 0 0 0 0 0 0 0 0 0 127 0" result="hardAlpha"/>
<feOffset dy="4"/>
<feGaussianBlur stdDeviation="2"/>
<feComposite in2="hardAlpha" operator="out"/>
<feColorMatrix type="matrix" values="0 0 0 0 0 0 0 0 0 0 0 0 0 0 0 0 0 0 0.01 0"/>
<feBlend mode="normal" in2="BackgroundImageFix" result="effect1_dropShadow_112_8303"/>
<feColorMatrix in="SourceAlpha" type="matrix" values="0 0 0 0 0 0 0 0 0 0 0 0 0 0 0 0 0 0 127 0" result="hardAlpha"/>
<feOffset dy="3"/>
<feGaussianBlur stdDeviation="1.5"/>
<feComposite in2="hardAlpha" operator="out"/>
<feColorMatrix type="matrix" values="0 0 0 0 0 0 0 0 0 0 0 0 0 0 0 0 0 0 0.02 0"/>
<feBlend mode="normal" in2="effect1_dropShadow_112_8303" result="effect2_dropShadow_112_8303"/>
<feColorMatrix in="SourceAlpha" type="matrix" values="0 0 0 0 0 0 0 0 0 0 0 0 0 0 0 0 0 0 127 0" result="hardAlpha"/>
<feOffset dy="2"/>
<feGaussianBlur stdDeviation="1"/>
<feComposite in2="hardAlpha" operator="out"/>
<feColorMatrix type="matrix" values="0 0 0 0 0 0 0 0 0 0 0 0 0 0 0 0 0 0 0.04 0"/>
<feBlend mode="normal" in2="effect2_dropShadow_112_8303" result="effect3_dropShadow_112_8303"/>
<feColorMatrix in="SourceAlpha" type="matrix" values="0 0 0 0 0 0 0 0 0 0 0 0 0 0 0 0 0 0 127 0" result="hardAlpha"/>
<feOffset dy="1"/>
<feComposite in2="hardAlpha" operator="out"/>
<feColorMatrix type="matrix" values="0 0 0 0 0 0 0 0 0 0 0 0 0 0 0 0 0 0 0.09 0"/>
<feBlend mode="normal" in2="effect3_dropShadow_112_8303" result="effect4_dropShadow_112_8303"/>
<feColorMatrix in="SourceAlpha" type="matrix" values="0 0 0 0 0 0 0 0 0 0 0 0 0 0 0 0 0 0 127 0" result="hardAlpha"/>
<feMorphology radius="1" operator="dilate" in="SourceAlpha" result="effect5_dropShadow_112_8303"/>
<feOffset/>
<feComposite in2="hardAlpha" operator="out"/>
<feColorMatrix type="matrix" values="0 0 0 0 0 0 0 0 0 0 0 0 0 0 0 0 0 0 0.15 0"/>
<feBlend mode="normal" in2="effect4_dropShadow_112_8303" result="effect5_dropShadow_112_8303"/>
<feBlend mode="normal" in="SourceGraphic" in2="effect5_dropShadow_112_8303" result="shape"/>
</filter>
</defs>
</svg>
