<svg version="1.1" baseProfile="full" xmlns="http://www.w3.org/2000/svg" width="160px" height="30px" viewBox="0 0 160 30">
    <title>Add to Buildkite</title>
    <g stroke="none" stroke-width="1" fill="none" fill-rule="evenodd">
        <g>
            <rect fill="#14CC80" x="0" y="0" width="160" height="30" rx="3"></rect>
            <g transform="translate(8.000000, 8.000000)" fill="#FFFFFF">
                <path d="M0,0 L7.13462123,3.46519337 L7.13462123,10.4497238 L0,6.98453039 L0,0 Z" opacity="0.55"></path>
                <path d="M14.3245496,0 L21.4038637,3.46519337 L14.3245496,6.98453039 L14.3245496,0 Z" opacity="0.55"></path>
                <path d="M14.3245496,0 L7.13462123,3.46519337 L7.13462123,10.4497238 L14.3245496,6.98453039 L14.3245496,0 Z"></path>
                <path d="M21.4038637,3.46519337 L14.3245496,6.98453039 L14.3245496,13.9690608 L21.4038637,10.4497238 L21.4038637,3.46519337 Z"></path>
            </g>
            <path d="M39.984375,20 L40.984375,16.9453125 L44.8125,16.9453125 L45.8046875,20 L47.53125,20 L43.8125,9.3359375 L42.0703125,9.3359375 L38.3515625,20 L39.984375,20 Z M42.9296875,11.0859375 L44.4296875,15.6953125 L41.3671875,15.6953125 L42.875,11.0859375 L42.9296875,11.0859375 Z M51.7578125,11.640625 C49.71875,11.640625 48.515625,13.234375 48.515625,15.515625 L48.515625,16.2421875 C48.515625,18.5703125 49.65625,20.1171875 51.7578125,20.1171875 C52.8671875,20.1171875 53.734375,19.59375 54.171875,18.75 L54.21875,18.75 L54.21875,20 L55.75,20 L55.75,8.7734375 L54.171875,8.7734375 L54.171875,12.9296875 L54.1171875,12.9296875 C53.71875,12.1796875 52.859375,11.640625 51.7578125,11.640625 L51.7578125,11.640625 Z M52.1015625,12.96875 C53.390625,12.96875 54.1875,13.984375 54.1875,15.5703125 L54.1875,16.203125 C54.1875,17.8671875 53.3984375,18.7890625 52.1171875,18.7890625 C50.953125,18.7890625 50.1171875,17.9296875 50.1171875,16.1953125 L50.1171875,15.5703125 C50.1171875,13.828125 50.953125,12.96875 52.1015625,12.96875 L52.1015625,12.96875 Z M60.96875,11.640625 C58.9296875,11.640625 57.7265625,13.234375 57.7265625,15.515625 L57.7265625,16.2421875 C57.7265625,18.5703125 58.8671875,20.1171875 60.96875,20.1171875 C62.078125,20.1171875 62.9453125,19.59375 63.3828125,18.75 L63.4296875,18.75 L63.4296875,20 L64.9609375,20 L64.9609375,8.7734375 L63.3828125,8.7734375 L63.3828125,12.9296875 L63.328125,12.9296875 C62.9296875,12.1796875 62.0703125,11.640625 60.96875,11.640625 L60.96875,11.640625 Z M61.3125,12.96875 C62.6015625,12.96875 63.3984375,13.984375 63.3984375,15.5703125 L63.3984375,16.203125 C63.3984375,17.8671875 62.609375,18.7890625 61.328125,18.7890625 C60.1640625,18.7890625 59.328125,17.9296875 59.328125,16.1953125 L59.328125,15.5703125 C59.328125,13.828125 60.1640625,12.96875 61.3125,12.96875 L61.3125,12.96875 Z M71.0078125,11.765625 L69.8671875,11.765625 L69.8671875,13.046875 L70.9921875,13.046875 L70.9921875,17.6875 C70.9921875,19.328125 71.484375,20.0625 73.46875,20.0625 C73.7890625,20.0625 74.1015625,20.03125 74.234375,20.0078125 L74.234375,18.78125 C74.125,18.7890625 74,18.796875 73.859375,18.796875 C72.8984375,18.796875 72.5625,18.546875 72.5625,17.609375 L72.5625,13.046875 L74.1796875,13.046875 L74.1796875,11.765625 L72.5625,11.765625 L72.5625,9.734375 L71.0078125,9.734375 L71.0078125,11.765625 Z M79.3125,11.625 C76.9609375,11.625 75.6875,13.296875 75.6875,15.5234375 L75.6875,16.2109375 C75.6875,18.5 76.9609375,20.140625 79.3125,20.140625 C81.65625,20.140625 82.9140625,18.5 82.9140625,16.2109375 L82.9140625,15.515625 C82.9140625,13.2890625 81.6484375,11.625 79.3125,11.625 L79.3125,11.625 Z M79.3046875,12.921875 C80.640625,12.921875 81.328125,13.9765625 81.328125,15.5546875 L81.328125,16.1875 C81.328125,17.75 80.6484375,18.828125 79.3046875,18.828125 C77.96875,18.828125 77.2734375,17.7421875 77.2734375,16.1875 L77.2734375,15.5546875 C77.2734375,13.984375 77.96875,12.921875 79.3046875,12.921875 L79.3046875,12.921875 Z M88.1484375,20 L92.1875,20 C94.3359375,20 95.90625,18.9609375 95.90625,17.0078125 C95.90625,15.53125 95.0078125,14.5625 93.5703125,14.3828125 L93.5703125,14.3125 C94.578125,14.0234375 95.3203125,13.2734375 95.3203125,11.9609375 C95.3203125,10.3046875 94.09375,9.3359375 92.296875,9.3359375 L88.1484375,9.3359375 L88.1484375,20 Z M89.75,10.65625 L91.984375,10.65625 C92.96875,10.65625 93.7109375,11.140625 93.7109375,12.234375 C93.7109375,13.3828125 92.8984375,13.875 91.3046875,13.875 L89.75,13.875 L89.75,10.65625 Z M89.75,15.1484375 L92.1328125,15.1484375 C93.4140625,15.1484375 94.265625,15.75 94.265625,16.96875 C94.265625,18.359375 93.109375,18.6796875 91.5078125,18.6796875 L89.75,18.6796875 L89.75,15.1484375 Z M104.367188,11.765625 L102.789062,11.765625 L102.789062,16.7890625 C102.789062,18.046875 102,18.7421875 100.90625,18.7421875 C99.9140625,18.7421875 99.0625,18.296875 99.0625,16.8125 L99.0625,11.765625 L97.484375,11.765625 L97.484375,17.25 C97.484375,19.15625 98.671875,20.1328125 100.367188,20.1328125 C101.695312,20.1328125 102.46875,19.53125 102.75,18.8828125 L102.8125,18.8828125 L102.8125,20 L104.367188,20 L104.367188,11.765625 Z M106.726562,20 L108.304688,20 L108.304688,11.765625 L106.726562,11.765625 L106.726562,20 Z M106.554688,9.7578125 C106.554688,10.2890625 106.984375,10.6875 107.515625,10.6875 C108.046875,10.6875 108.476562,10.2890625 108.476562,9.7578125 C108.476562,9.2265625 108.046875,8.828125 107.515625,8.828125 C106.984375,8.828125 106.554688,9.2265625 106.554688,9.7578125 L106.554688,9.7578125 Z M110.71875,20 L112.289062,20 L112.289062,8.7734375 L110.71875,8.7734375 L110.71875,20 Z M117.539062,11.640625 C115.5,11.640625 114.296875,13.234375 114.296875,15.515625 L114.296875,16.2421875 C114.296875,18.5703125 115.4375,20.1171875 117.539062,20.1171875 C118.648438,20.1171875 119.515625,19.59375 119.953125,18.75 L120,18.75 L120,20 L121.53125,20 L121.53125,8.7734375 L119.953125,8.7734375 L119.953125,12.9296875 L119.898438,12.9296875 C119.5,12.1796875 118.640625,11.640625 117.539062,11.640625 L117.539062,11.640625 Z M117.882812,12.96875 C119.171875,12.96875 119.96875,13.984375 119.96875,15.5703125 L119.96875,16.203125 C119.96875,17.8671875 119.179688,18.7890625 117.898438,18.7890625 C116.734375,18.7890625 115.898438,17.9296875 115.898438,16.1953125 L115.898438,15.5703125 C115.898438,13.828125 116.734375,12.96875 117.882812,12.96875 L117.882812,12.96875 Z M125.429688,17.078125 L126.132812,16.296875 L128.78125,20 L130.6875,20 L127.3125,15.3359375 L130.484375,11.765625 L128.585938,11.765625 L125.5,15.3203125 L125.429688,15.3203125 L125.429688,8.7734375 L123.851562,8.7734375 L123.851562,20 L125.429688,20 L125.429688,17.078125 Z M131.945312,20 L133.523438,20 L133.523438,11.765625 L131.945312,11.765625 L131.945312,20 Z M131.773438,9.7578125 C131.773438,10.2890625 132.203125,10.6875 132.734375,10.6875 C133.265625,10.6875 133.695312,10.2890625 133.695312,9.7578125 C133.695312,9.2265625 133.265625,8.828125 132.734375,8.828125 C132.203125,8.828125 131.773438,9.2265625 131.773438,9.7578125 L131.773438,9.7578125 Z M136.40625,11.765625 L135.265625,11.765625 L135.265625,13.046875 L136.390625,13.046875 L136.390625,17.6875 C136.390625,19.328125 136.882812,20.0625 138.867188,20.0625 C139.1875,20.0625 139.5,20.03125 139.632812,20.0078125 L139.632812,18.78125 C139.523438,18.7890625 139.398438,18.796875 139.257812,18.796875 C138.296875,18.796875 137.960938,18.546875 137.960938,17.609375 L137.960938,13.046875 L139.578125,13.046875 L139.578125,11.765625 L137.960938,11.765625 L137.960938,9.734375 L136.40625,9.734375 L136.40625,11.765625 Z M144.632812,20.140625 C146.585938,20.140625 147.664062,19.0234375 147.9375,17.6796875 L146.414062,17.6796875 C146.179688,18.4140625 145.570312,18.8671875 144.664062,18.8671875 C143.421875,18.8671875 142.65625,17.8828125 142.65625,16.421875 L142.65625,16.25 L148.039062,16.25 L148.039062,15.46875 C148.039062,13.171875 146.75,11.625 144.570312,11.625 C142.398438,11.625 141.085938,13.1328125 141.085938,15.390625 L141.085938,16.2578125 C141.085938,18.65625 142.453125,20.140625 144.632812,20.140625 L144.632812,20.140625 Z M142.65625,15.09375 L142.65625,15.0703125 C142.65625,13.8515625 143.40625,12.8828125 144.578125,12.8828125 C145.726562,12.8828125 146.484375,13.84375 146.484375,15.0703125 L146.484375,15.09375 L142.65625,15.09375 Z" fill="#FFFFFF"></path>
        </g>
    </g>
</svg>