<svg fill="none" height="61" viewBox="0 0 570 61" width="570" xmlns="http://www.w3.org/2000/svg"><g fill="#1a002e"><path d="m.400024 3.79652v55.11428h27.478376c13.6212 0 20.3923-5.5901 20.3923-16.8492 0-5.9838-2.9919-10.7079-7.9522-12.8338v-.1574c3.7006-1.9684 5.9051-5.9051 5.9051-10.6292 0-8.5821-6.8499-14.64468-16.2981-14.64468zm27.714676 22.51818h-17.5579v-13.5424h17.5579c5.1177 0 7.9522 2.362 7.9522 6.6924 0 4.5667-2.677 6.85-7.9522 6.85zm.4724 23.5416h-18.0303v-15.432h18.109c6.3775 0 9.4482 2.5196 9.4482 7.6373 0 5.354-2.9132 7.7947-9.5269 7.7947z"/><path d="m54.5517 41.4317c0 11.6528 7.0861 18.6602 18.6601 18.6602 6.2201 0 11.1803-1.9684 14.6447-5.5115h.1574v4.3304h9.4482v-41.7294h-9.7631v22.6756c0 6.6925-4.9603 11.4166-11.9677 11.4166-7.3223 0-11.4165-4.173-11.4165-11.4166v-22.6756h-9.7631z"/><path d="m106.086 17.1814v41.7294h9.763v-41.7294zm-.394-17.085407v9.999307h10.393v-9.999307z"/><path d="m124.616 1.43449v57.47631h9.763v-57.47631z"/><path d="m141.651 38.0461c0 12.9125 9.369 22.0458 22.518 22.0458 6.22 0 11.338-2.0471 14.566-5.5902h.157v4.4091h9.212v-57.47631h-9.763v19.68371h-.157c-3.386-3.2282-8.504-5.1178-14.409-5.1178-12.676 0-22.124 9.5269-22.124 22.0457zm36.69 2.677c0 5.9051-5.905 10.7867-13.227 10.7867-8.267 0-13.7-5.2752-13.7-13.4637 0-8.1096 5.433-13.4636 13.621-13.4636 7.244 0 13.306 4.7241 13.306 10.6292z"/><path d="m196.739 1.43449v57.47631h9.763v-11.9676l7.952-6.7712h.157l15.196 18.7388h12.125l-20.628-24.8014 19.762-16.928h-13.936l-20.471 17.8728h-.157v-33.61971z"/><path d="m247.332 17.1814v41.7294h9.763v-41.7294zm-.394-17.085407v9.999307h10.393v-9.999307z"/><path d="m281.688 25.5273h13.463v-8.3459h-13.463v-10.07802h-9.763v10.07802h-9.606v8.3459h9.606v21.3371c0 8.4246 3.858 12.0464 13.385 12.0464h8.031v-8.9757h-7.244c-3.464 0-4.409-.7874-4.409-3.5431z"/><path d="m297.888 38.2036c0 13.2274 8.897 21.8883 22.991 21.8883 8.582 0 15.274-3.1494 20.077-9.3695l-6.535-5.8263c-3.858 4.8028-8.031 7.0861-13.621 7.0861-7.637 0-12.913-4.2517-13.227-10.7867h35.036v-2.9132c0-12.6763-8.897-22.2819-22.281-22.2819-12.992 0-22.44 9.212-22.44 22.2032zm35.116-4.0942h-25.274c.63-5.9051 5.748-9.9993 12.755-9.9993 6.85 0 11.968 4.0942 12.519 9.9993z"/><path d="m371.776 3.79652v55.11428h21.888c17.558 0 27.872-9.2119 27.872-27.5571 0-8.897-2.441-15.747-7.401-20.471-4.96-4.72413-11.731-7.08618-20.313-7.08618zm21.731 46.05978h-11.574v-37.084h11.652c11.732 0 17.716 5.9838 17.716 18.5814 0 12.9912-5.905 18.5026-17.794 18.5026z"/><path d="m427.062 38.0461c-.236 12.3614 10.078 22.282 23.227 22.0458 13.464 0 23.227-9.5269 23.227-22.0458.236-12.2038-10.078-22.2819-23.227-22.0457-13.149-.2362-23.463 9.8419-23.227 22.0457zm36.691 0c0 3.9368-1.26 7.1649-3.78 9.6844-2.44 2.5195-5.668 3.7793-9.684 3.7793-4.015 0-7.244-1.2598-9.763-3.7793-2.441-2.5195-3.701-5.7476-3.701-9.6844 0-3.9367 1.26-7.1648 3.701-9.6843 2.519-2.5195 5.748-3.7793 9.763-3.7793 4.016 0 7.244 1.2598 9.684 3.7793 2.52 2.5195 3.78 5.7476 3.78 9.6843z"/><path d="m479.04 38.0461c0 12.5189 9.92 22.0458 22.754 22.0458 5.275 0 9.842-1.3385 13.7-4.0155 3.858-2.7557 6.377-6.2988 7.558-10.7867l-9.133-2.5195c-1.811 5.7477-6.063 8.7396-12.125 8.7396-7.401 0-12.991-5.5115-12.991-13.4637s5.59-13.4636 12.991-13.4636c5.984 0 10.314 3.1494 12.125 8.7396l9.133-2.5196c-1.181-4.4878-3.7-8.0309-7.558-10.7079-3.858-2.7557-8.425-4.0942-13.7-4.0942-12.834 0-22.754 9.5269-22.754 22.0457z"/><path d="m526.693 45.0535c.866 4.6454 3.306 8.2672 7.479 11.0229 4.173 2.677 9.37 4.0155 15.511 4.0155 12.046 0 20.156-5.0391 20.156-12.6763 0-7.5586-5.59-11.2591-19.762-13.4637-9.685-1.5747-12.125-2.677-12.125-5.3539 0-2.8345 3.543-4.5666 9.212-4.5666 6.22 0 10.944 2.9131 12.518 7.401l8.897-2.4408c-1.889-7.401-11.101-12.9912-21.415-12.9912-11.102 0-18.582 5.039-18.582 12.6763 0 7.2436 5.275 10.7079 20.392 13.07 8.425 1.181 11.417 2.5982 11.417 5.6689 0 2.9132-4.015 4.6453-10.708 4.6453-7.637 0-12.283-3.0706-13.857-9.1332z"/></g></svg>