<svg xmlns="http://www.w3.org/2000/svg" width="544" height="61" fill="none" viewBox="0 0 544 61"><g clip-path="url(#clip0_820_1406)"><path fill="#1A002E" d="M0.399902 3.79639V58.9107H27.8783C41.4995 58.9107 48.2706 53.3206 48.2706 42.0615C48.2706 36.0777 45.2787 31.3536 40.3184 29.2277V29.0703C44.019 27.1019 46.2235 23.1652 46.2235 18.4411C46.2235 9.85897 39.3736 3.79639 29.9254 3.79639H0.399902ZM28.1146 26.3146H10.5567V12.7722H28.1146C33.2323 12.7722 36.0668 15.1342 36.0668 19.4646C36.0668 24.0313 33.3898 26.3146 28.1146 26.3146ZM28.587 49.8562H10.5567V34.4242H28.6657C35.0432 34.4242 38.1139 36.9438 38.1139 42.0615C38.1139 47.4155 35.2007 49.8562 28.587 49.8562Z"/><path fill="#1A002E" d="M54.5518 41.4319C54.5518 53.0847 61.6379 60.0921 73.2119 60.0921C79.432 60.0921 84.3922 58.1237 87.8566 54.5806H88.014V58.911H97.4622V17.1816H87.6991V39.8572C87.6991 46.5497 82.7388 51.2738 75.7314 51.2738C68.4091 51.2738 64.3149 47.1008 64.3149 39.8572V17.1816H54.5518V41.4319Z"/><path fill="#1A002E" d="M106.086 17.1816V58.911H115.849V17.1816H106.086ZM105.692 0.0961914V10.0955H116.085V0.0961914H105.692Z"/><path fill="#1A002E" d="M124.616 1.43457V58.9109H134.379V1.43457H124.616Z"/><path fill="#1A002E" d="M141.651 38.0462C141.651 50.9587 151.02 60.092 164.169 60.092C170.389 60.092 175.507 58.0449 178.735 54.5018H178.892V58.9109H188.104V1.43457H178.341V21.1183H178.184C174.798 17.8901 169.68 16.0005 163.775 16.0005C151.099 16.0005 141.651 25.5274 141.651 38.0462ZM178.341 40.7232C178.341 46.6283 172.436 51.5099 165.114 51.5099C156.847 51.5099 151.414 46.2347 151.414 38.0462C151.414 29.9366 156.847 24.5826 165.035 24.5826C172.279 24.5826 178.341 29.3067 178.341 35.2118V40.7232Z"/><path fill="#1A002E" d="M196.739 1.43457V58.9109H206.502V46.9433L214.454 40.1721H214.611L229.807 58.9109H241.932L221.304 34.1095L241.066 17.1815H227.13L206.659 35.0543H206.502V1.43457H196.739Z"/><path fill="#1A002E" d="M247.332 17.1816V58.911H257.095V17.1816H247.332ZM246.938 0.0961914V10.0955H257.331V0.0961914H246.938Z"/><path fill="#1A002E" d="M281.688 25.5274H295.151V17.1815H281.688V7.10352H271.925V17.1815H262.319V25.5274H271.925V46.8645C271.925 55.2891 275.783 58.9109 285.31 58.9109H293.341V49.9352H286.097C282.633 49.9352 281.688 49.1478 281.688 46.3921V25.5274Z"/><path fill="#1A002E" d="M297.888 38.2037C297.888 51.4311 306.785 60.092 320.879 60.092C329.461 60.092 336.153 56.9426 340.956 50.7225L334.421 44.8962C330.563 49.699 326.39 51.9823 320.8 51.9823C313.163 51.9823 307.887 47.7306 307.573 41.1956H342.609V38.2824C342.609 25.6061 333.712 16.0005 320.328 16.0005C307.336 16.0005 297.888 25.2125 297.888 38.2037ZM333.004 34.1095H307.73C308.36 28.2044 313.478 24.1102 320.485 24.1102C327.335 24.1102 332.453 28.2044 333.004 34.1095Z"/><path fill="#504581" d="M368 60V1.94775H387.855C393.578 1.94775 398.471 3.09557 402.536 5.3912C406.627 7.66015 409.756 10.9434 411.922 15.2411C414.088 19.5387 415.171 24.7172 415.171 30.7766V30.8567C415.171 36.9161 414.088 42.108 411.922 46.4323C409.756 50.73 406.641 54.0266 402.576 56.3222C398.511 58.8655 393.604 60 387.855 60H368ZM375.22 53.2392H387.374C391.679 53.2392 395.356 52.3583 398.404 50.5965C401.453 48.8347 403.779 46.2855 405.384 42.9488C406.988 39.6122 407.791 35.6082 407.791 30.9368V30.8567C407.791 26.1587 406.975 22.1413 405.344 18.8046C403.739 15.4413 401.413 12.8787 398.364 11.1169C395.316 9.32848 391.652 8.43425 387.374 8.43425H375.22V53.2392Z"/><path fill="#504581" d="M441.287 60.7608C437.195 60.7608 433.652 59.8665 430.657 58.0781C427.689 56.2629 425.389 53.4127 423.758 50.076C422.154 46.7393 421.351 42.7753 421.351 38.1841V38.104C421.351 33.486 422.154 29.5087 423.758 26.172C425.389 22.8354 427.689 20.2728 430.657 18.4843C433.652 16.6959 437.195 15.8016 441.287 15.8016C445.405 15.8016 448.948 16.6959 451.916 18.4843C454.885 20.2728 457.171 22.8354 458.775 26.172C460.407 29.5087 461.222 33.486 461.222 38.104V38.1841C461.222 42.7753 460.407 46.7393 458.775 50.076C457.171 53.4127 454.885 56.2629 451.916 58.0781C448.948 59.8665 445.405 60.7608 441.287 60.7608ZM441.287 54.3202C444.014 54.3202 446.328 53.6796 448.226 52.3983C450.125 51.117 451.569 49.2752 452.558 46.8728C453.574 44.4704 454.082 41.5741 454.082 38.1841V38.104C454.082 34.6872 453.574 31.7776 452.558 29.3752C451.569 26.9728 450.125 25.1443 448.226 23.8897C446.328 22.6085 444.014 21.9678 441.287 21.9678C438.559 21.9678 436.246 22.6085 434.348 23.8897C432.449 25.1443 430.992 26.9728 429.975 29.3752C428.986 31.7776 428.491 34.6872 428.491 38.104V38.1841C428.491 41.5741 428.986 44.4704 429.975 46.8728C430.992 49.2752 432.449 51.117 434.348 52.3983C436.246 53.6796 438.559 54.3202 441.287 54.3202Z"/><path fill="#504581" d="M486.456 60.7608C482.418 60.7608 478.915 59.8398 475.946 57.998C472.978 56.1561 470.678 53.2792 469.047 49.9158C467.416 46.5525 466.6 42.5885 466.6 38.0239V37.9438C466.6 33.4593 467.403 29.5621 469.007 26.2521C470.638 22.9421 472.938 20.3796 475.906 18.5644C478.875 16.7226 482.378 15.8016 486.415 15.8016C489.919 15.8016 492.94 16.4156 495.481 17.6435C498.021 18.8714 500.053 20.5264 501.578 22.6085C503.102 24.6639 504.078 26.9728 504.506 29.5354L504.546 29.7756H497.607L497.566 29.6555C497.032 27.52 495.815 25.7049 493.916 24.2101C492.018 22.7152 489.517 21.9678 486.415 21.9678C483.822 21.9678 481.575 22.6218 479.677 23.9298C477.778 25.2378 476.307 27.093 475.264 29.4954C474.248 31.8711 473.74 34.6872 473.74 37.9438V38.0239C473.74 41.3339 474.262 44.2168 475.305 46.6726C476.347 49.1017 477.818 50.9836 479.717 52.3182C481.615 53.6529 483.848 54.3202 486.415 54.3202C489.33 54.3202 491.71 53.6929 493.555 52.4384C495.4 51.1838 496.724 49.3553 497.526 46.9529L497.607 46.7126L504.506 46.6726L504.426 47.113C503.837 49.7023 502.794 52.0113 501.297 54.04C499.799 56.042 497.82 57.8912 495.36 59.039C492.9 60.1869 489.932 60.7608 486.456 60.7608Z"/><path fill="#504581" d="M526.289 60.7608C523.081 60.7608 520.246 60.2803 517.786 59.3193C515.326 58.3317 513.347 56.6826 511.849 54.9208C510.379 53.1591 509.51 51.0903 509.242 48.7146H516.382C516.97 50.5031 518.12 51.9445 519.832 53.039C521.543 54.1334 523.776 54.6806 526.53 54.6806C528.482 54.6806 530.194 54.4003 531.664 53.8398C533.162 53.2525 534.339 52.465 535.194 51.4774C536.05 50.463 536.478 49.3019 536.478 47.9939V47.9138C536.478 46.4457 535.889 45.2044 534.713 44.1901C533.536 43.149 531.611 42.3082 528.937 41.6676L522.238 40.066C519.537 39.4253 517.318 38.5978 515.58 37.5835C513.842 36.5424 512.558 35.2745 511.729 33.7797C510.9 32.2581 510.486 30.4697 510.486 28.4143V28.3742C510.486 25.9718 511.181 23.823 512.571 21.9278C513.989 20.0325 515.914 18.5377 518.347 17.4433C520.781 16.3489 523.522 15.8016 526.57 15.8016C529.592 15.8016 532.266 16.2821 534.593 17.2431C536.946 18.1774 538.831 19.512 540.248 21.2471C541.692 22.9822 542.575 25.0242 542.896 27.3732H536.037C535.582 25.6649 534.539 24.2768 532.908 23.2091C531.277 22.1413 529.151 21.6075 526.53 21.6075C524.819 21.6075 523.294 21.8877 521.957 22.4483C520.62 22.9822 519.564 23.7296 518.789 24.6905C518.013 25.6515 517.625 26.7726 517.625 28.0539V28.134C517.625 29.095 517.879 29.9491 518.388 30.6966C518.896 31.444 519.684 32.098 520.754 32.6585C521.824 33.2191 523.201 33.7129 524.886 34.14L531.544 35.7416C535.609 36.7293 538.63 38.144 540.609 39.9859C542.615 41.8277 543.618 44.2969 543.618 47.3933V47.4734C543.618 50.0359 542.856 52.3049 541.331 54.2802C539.807 56.2288 537.735 58.0247 535.114 59.1191C532.52 60.2135 529.579 60.7608 526.289 60.7608Z"/></g><defs><clipPath id="clip0_820_1406"><rect width="544" height="61" fill="#fff"/></clipPath></defs></svg>