<svg enable-background="new 0 0 263 169" viewBox="0 0 263 169" xmlns="http://www.w3.org/2000/svg" xmlns:xlink="http://www.w3.org/1999/xlink"><clipPath id="a"><path d="m256.19 40-76.68 38.96v-77.3zm-253.69 42.42 81 40.46v-80.78l-81-40.46zm88 40.48 83-40.49v-80.8l-83 40.49zm158.23-71.13-69.22 34.88v80.74l82-41.09v-80.74z"/></clipPath><g clip-path="url(#a)"><path d="m-203.1-41.16 655.72 326.94-8.51 17.07-655.72-326.94z" fill="#732a83"/><path d="m-193.49-59.89 655.72 326.94-9.67 19.39-655.72-326.94z" fill="#405fac"/><path d="m-186.15-74.63 655.72 326.94-8.51 17.07-655.71-326.94z" fill="#108140"/><path d="m-177.64-91.69 655.72 326.94-8.51 17.07-655.72-326.94z" fill="#fdec09"/><path d="m-151.87-143.24 655.72 326.94-9.65 19.35-655.72-326.94z" fill="#785120"/><path d="m-159.67-125.72 655.72 326.94-8.88 17.81-655.72-326.94z" fill="#e31e26"/><path d="m-169.14-108.76 655.72 326.94-8.51 17.07-655.71-326.94z" fill="#f78c1e"/><path d="m-143.37-160.31 655.72 326.94-8.51 17.07-655.72-326.94z" fill="#010101"/></g></svg>