<svg xmlns="http://www.w3.org/2000/svg" width="900" height="600" fill="none" viewBox="0 0 900 600"><path fill="#F3E242" d="M300 250L600 100L800 200L750 225L600 150L300 300L100 200L150 175L300 250Z"/><path fill="#F89E35" d="M300 200L600 50L850 175L800 200L600 100L300 250L150 175L200 150L300 200Z"/><path fill="#0FC97B" d="M300 300L600 150L750 225L700 250L600 200L300 350L50 225L100 200L300 300Z"/><path fill="#9335D4" d="M0 300V250L300 400L600 250L650 275L600 300L300 450L0 300Z"/><path fill="#5F77F8" d="M300 350L600 200L700 250L650 275L600 250L300 400L0 250L50 225L300 350Z"/><path fill="#F94C53" d="M600 0L300 150L250 125L200 150L300 200L600 50L850 175L600 300L600 350L900 200V150L600 0Z"/><path fill="#F3E242" d="M900 250V300L600 450V400L900 250Z"/><path fill="#F89E35" d="M900 200V250L600 400V350L900 200Z"/><path fill="#0FC97B" d="M900 300V350L600 500V450L900 300Z"/><path fill="#9335D5" d="M900 400V450L600 600V550L900 400Z"/><path fill="#5F77F8" d="M900 350V400L600 550V500L900 350Z"/><path fill="#72D7EE" d="M0 250V200L50 225L0 250Z"/><path fill="#FEAFC7" d="M0 150V200L50 225L100 200L0 150Z"/><path fill="#FCFBF9" d="M0 100V150L100 200L150 175L0 100Z"/><path fill="#804B40" d="M0 50V100L150 175L200 150L0 50Z"/><path fill="#35314A" d="M0 0V50L200 150L250 125L0 0Z"/></svg>