<svg width="900" height="600" viewBox="0 0 900 600" fill="none" xmlns="http://www.w3.org/2000/svg">
<path d="M200 150L300 200V150L250 125L200 150Z" fill="#F94C53"/>
<path d="M600 0V50.0001L300 200V150L600 0Z" fill="#F94C53"/>
<path d="M600 0V50.0001L850 175L900 150L600 0Z" fill="#F94C53"/>
<path d="M100 200L300 300V250L150 175L100 200Z" fill="#F3EC42"/>
<path d="M600 100V150L300 300V250L600 100Z" fill="#F3EC42"/>
<path d="M600 100V150L750 225L800 200L600 100Z" fill="#F3EC42"/>
<path d="M150 175L300 250V200L200 150L150 175Z" fill="#FFA944"/>
<path d="M600 50V100L300 250V200L600 50Z" fill="#FFA944"/>
<path d="M600 50V100L800 200L850 175L600 50Z" fill="#FFA944"/>
<path d="M50 225L300 350V300L100 200L50 225Z" fill="#0FC97B"/>
<path d="M600 150V200L300 350V300L600 150Z" fill="#0FC97B"/>
<path d="M600 150V200L700 250L750 225L600 150Z" fill="#0FC97B"/>
<path d="M0 250V300L300 450V400L0 250Z" fill="#9335D5"/>
<path d="M600 250V300L300 450V400L600 250Z" fill="#9335D5"/>
<path d="M600 250V300L650 275L600 250Z" fill="#9335D5"/>
<path d="M0 250L300 400V350L50 225L0 250Z" fill="#5F77F8"/>
<path d="M600 200V250L300 400V350L600 200Z" fill="#5F77F8"/>
<path d="M600 200V250L650 275L700 250L600 200Z" fill="#5F77F8"/>
<path d="M900 150V200L600 350V300L900 150Z" fill="#F94C53"/>
<path d="M900 250V300L600 450V400L900 250Z" fill="#F3EC42"/>
<path d="M900 200V250L600 400V350L900 200Z" fill="#FFA944"/>
<path d="M900 300V350L600 500V450L900 300Z" fill="#0FC97B"/>
<path d="M900 400V450L600 600V550L900 400Z" fill="#9335D5"/>
<path d="M900 350V400L600 550V500L900 350Z" fill="#5F77F8"/>
<path d="M0 250V200L50 225L0 250Z" fill="#72D7EE"/>
<path d="M0 150V200L50 225L100 200L0 150Z" fill="#FEAFC7"/>
<path d="M0 100V150L100 200L150 175L0 100Z" fill="#FCFBF9"/>
<path d="M0 50V100L150 175L200 150L0 50Z" fill="#804B40"/>
<path d="M0 0V50.0001L200 150L250 125L0 0Z" fill="#35314A"/>
</svg>
