<svg xmlns="http://www.w3.org/2000/svg" width="1161" height="615" fill="none" viewBox="0 0 1161 615"><rect width="1161" height="615" fill="#fff"/><path fill="#F2F2F2" d="M569 429C569 427.343 570.343 426 572 426H693C694.657 426 696 427.343 696 429V475C696 476.657 694.657 478 693 478H572C570.343 478 569 476.657 569 475V429Z"/><path fill="#000" d="M606.235 458V456.96C606.683 457.712 607.531 458.192 608.635 458.192C610.907 458.192 612.299 456.416 612.299 454.064C612.299 451.776 611.035 450 608.699 450C607.499 450 606.603 450.56 606.251 451.168V446.416H604.427V458H606.235ZM610.427 454.08C610.427 455.616 609.547 456.544 608.331 456.544C607.147 456.544 606.235 455.616 606.235 454.08C606.235 452.528 607.147 451.648 608.331 451.648C609.563 451.648 610.427 452.528 610.427 454.08ZM615.939 458V446.416H614.083V458H615.939ZM621.757 456.576C620.621 456.576 619.581 455.712 619.581 454.096C619.581 452.48 620.621 451.648 621.757 451.648C622.909 451.648 623.933 452.48 623.933 454.096C623.933 455.728 622.909 456.576 621.757 456.576ZM621.757 449.968C619.437 449.968 617.725 451.712 617.725 454.096C617.725 456.496 619.437 458.24 621.757 458.24C624.093 458.24 625.805 456.496 625.805 454.096C625.805 451.712 624.093 449.968 621.757 449.968ZM630.99 451.68C632.174 451.68 632.702 452.448 632.878 453.136L634.542 452.528C634.222 451.28 633.07 449.968 630.974 449.968C628.734 449.968 626.99 451.696 626.99 454.096C626.99 456.464 628.734 458.24 631.022 458.24C633.07 458.24 634.238 456.912 634.606 455.696L632.974 455.104C632.798 455.696 632.238 456.544 631.022 456.544C629.854 456.544 628.846 455.664 628.846 454.096C628.846 452.528 629.854 451.68 630.99 451.68ZM643.551 450.208H641.087L638.095 453.36V446.416H636.255V458H638.095V455.824L639.055 454.816L641.343 458H643.615L640.351 453.504L643.551 450.208ZM645.879 453.248C645.943 452.416 646.615 451.52 647.783 451.52C649.063 451.52 649.671 452.336 649.703 453.248H645.879ZM649.911 455.28C649.655 456.048 649.079 456.64 647.959 456.64C646.807 456.64 645.879 455.792 645.831 454.608H651.527C651.543 454.576 651.575 454.32 651.575 454.016C651.575 451.552 650.167 449.968 647.767 449.968C645.799 449.968 643.975 451.6 643.975 454.064C643.975 456.704 645.847 458.24 647.959 458.24C649.831 458.24 651.063 457.136 651.479 455.776L649.911 455.28ZM654.596 454.08C654.596 452.592 655.492 451.648 656.708 451.648C657.924 451.648 658.756 452.576 658.756 454.064C658.756 455.552 657.908 456.56 656.692 456.56C655.428 456.56 654.596 455.568 654.596 454.08ZM660.548 446.416H658.74V451.12C658.5 450.624 657.812 450 656.452 450C654.26 450 652.74 451.84 652.74 454.08C652.74 456.432 654.244 458.192 656.484 458.192C657.588 458.192 658.404 457.648 658.772 456.992C658.772 457.312 658.82 457.824 658.852 458H660.628C660.612 457.872 660.548 457.28 660.548 456.576V446.416Z"/><path fill="#8E8E8E" d="M572 427H693V425H572V427ZM695 429V475H697V429H695ZM693 477H572V479H693V477ZM570 475V429H568V475H570ZM572 477C570.895 477 570 476.105 570 475H568C568 477.209 569.791 479 572 479V477ZM695 475C695 476.105 694.105 477 693 477V479C695.209 479 697 477.209 697 475H695ZM693 427C694.105 427 695 427.895 695 429H697C697 426.791 695.209 425 693 425V427ZM572 425C569.791 425 568 426.791 568 429H570C570 427.895 570.895 427 572 427V425Z"/><path fill="#F2F2F2" d="M814 502C814 500.343 815.343 499 817 499H946C947.657 499 949 500.343 949 502V548C949 549.657 947.657 551 946 551H817C815.343 551 814 549.657 814 548V502Z"/><path fill="#000" d="M852.944 524.68C854.128 524.68 854.656 525.448 854.832 526.136L856.496 525.528C856.176 524.28 855.024 522.968 852.928 522.968C850.688 522.968 848.944 524.696 848.944 527.096C848.944 529.464 850.688 531.24 852.976 531.24C855.024 531.24 856.192 529.912 856.56 528.696L854.928 528.104C854.752 528.696 854.192 529.544 852.976 529.544C851.808 529.544 850.8 528.664 850.8 527.096C850.8 525.528 851.808 524.68 852.944 524.68ZM857.681 528.888C857.681 530.12 858.689 531.24 860.321 531.24C861.585 531.24 862.353 530.6 862.721 530.008C862.721 530.632 862.785 530.952 862.801 531H864.529C864.513 530.92 864.433 530.456 864.433 529.752V525.88C864.433 524.328 863.521 522.968 861.121 522.968C859.201 522.968 857.985 524.168 857.841 525.512L859.537 525.896C859.617 525.112 860.161 524.488 861.137 524.488C862.161 524.488 862.609 525.016 862.609 525.672C862.609 525.944 862.481 526.168 862.033 526.232L860.033 526.536C858.705 526.728 857.681 527.496 857.681 528.888ZM860.673 529.784C859.937 529.784 859.537 529.304 859.537 528.776C859.537 528.136 860.001 527.816 860.577 527.72L862.609 527.416V527.768C862.609 529.288 861.713 529.784 860.673 529.784ZM868.533 526.504C868.533 525.48 869.093 524.664 870.149 524.664C871.317 524.664 871.749 525.432 871.749 526.392V531H873.605V526.072C873.605 524.36 872.693 522.984 870.789 522.984C869.925 522.984 868.997 523.352 868.485 524.248V523.208H866.677V531H868.533V526.504ZM879.256 524.68C880.44 524.68 880.968 525.448 881.144 526.136L882.808 525.528C882.488 524.28 881.336 522.968 879.24 522.968C877 522.968 875.256 524.696 875.256 527.096C875.256 529.464 877 531.24 879.288 531.24C881.336 531.24 882.504 529.912 882.872 528.696L881.24 528.104C881.064 528.696 880.504 529.544 879.288 529.544C878.12 529.544 877.112 528.664 877.112 527.096C877.112 525.528 878.12 524.68 879.256 524.68ZM885.738 526.248C885.802 525.416 886.474 524.52 887.642 524.52C888.922 524.52 889.53 525.336 889.562 526.248H885.738ZM889.77 528.28C889.514 529.048 888.938 529.64 887.818 529.64C886.666 529.64 885.738 528.792 885.69 527.608H891.386C891.402 527.576 891.434 527.32 891.434 527.016C891.434 524.552 890.026 522.968 887.626 522.968C885.658 522.968 883.834 524.6 883.834 527.064C883.834 529.704 885.706 531.24 887.818 531.24C889.69 531.24 890.922 530.136 891.338 528.776L889.77 528.28ZM895.064 531V519.416H893.208V531H895.064ZM898.754 526.248C898.818 525.416 899.49 524.52 900.658 524.52C901.938 524.52 902.546 525.336 902.578 526.248H898.754ZM902.786 528.28C902.53 529.048 901.954 529.64 900.834 529.64C899.682 529.64 898.754 528.792 898.706 527.608H904.402C904.418 527.576 904.45 527.32 904.45 527.016C904.45 524.552 903.042 522.968 900.642 522.968C898.674 522.968 896.85 524.6 896.85 527.064C896.85 529.704 898.722 531.24 900.834 531.24C902.706 531.24 903.938 530.136 904.354 528.776L902.786 528.28ZM907.471 527.08C907.471 525.592 908.367 524.648 909.583 524.648C910.799 524.648 911.631 525.576 911.631 527.064C911.631 528.552 910.783 529.56 909.567 529.56C908.303 529.56 907.471 528.568 907.471 527.08ZM913.423 519.416H911.615V524.12C911.375 523.624 910.687 523 909.327 523C907.135 523 905.615 524.84 905.615 527.08C905.615 529.432 907.119 531.192 909.359 531.192C910.463 531.192 911.279 530.648 911.647 529.992C911.647 530.312 911.695 530.824 911.727 531H913.503C913.487 530.872 913.423 530.28 913.423 529.576V519.416Z"/><path fill="#8E8E8E" d="M817 500H946V498H817V500ZM948 502V548H950V502H948ZM946 550H817V552H946V550ZM815 548V502H813V548H815ZM817 550C815.895 550 815 549.105 815 548H813C813 550.209 814.791 552 817 552V550ZM948 548C948 549.105 947.105 550 946 550V552C948.209 552 950 550.209 950 548H948ZM946 500C947.105 500 948 500.895 948 502H950C950 499.791 948.209 498 946 498V500ZM817 498C814.791 498 813 499.791 813 502H815C815 500.895 815.895 500 817 500V498Z"/><path fill="#D2EFFF" d="M323 327C323 325.343 324.343 324 326 324H464C465.657 324 467 325.343 467 327V373C467 374.657 465.657 376 464 376H326C324.343 376 323 374.657 323 373V327Z"/><path fill="#000" d="M357.848 353.888C357.944 354.768 358.808 356.24 361.064 356.24C363.048 356.24 364.008 354.928 364.008 353.744C364.008 352.592 363.24 351.696 361.768 351.376L360.584 351.136C360.104 351.04 359.8 350.736 359.8 350.32C359.8 349.84 360.264 349.424 360.92 349.424C361.96 349.424 362.296 350.144 362.36 350.592L363.928 350.144C363.8 349.376 363.096 347.968 360.92 347.968C359.304 347.968 358.056 349.12 358.056 350.48C358.056 351.552 358.776 352.448 360.152 352.752L361.304 353.008C361.928 353.136 362.216 353.456 362.216 353.872C362.216 354.352 361.816 354.768 361.048 354.768C360.056 354.768 359.528 354.144 359.464 353.44L357.848 353.888ZM369.194 349.68C370.378 349.68 370.906 350.448 371.082 351.136L372.746 350.528C372.426 349.28 371.274 347.968 369.178 347.968C366.938 347.968 365.194 349.696 365.194 352.096C365.194 354.464 366.938 356.24 369.226 356.24C371.274 356.24 372.442 354.912 372.81 353.696L371.178 353.104C371.002 353.696 370.442 354.544 369.226 354.544C368.058 354.544 367.05 353.664 367.05 352.096C367.05 350.528 368.058 349.68 369.194 349.68ZM376.314 351.424C376.346 350.432 376.906 349.664 377.93 349.664C379.098 349.664 379.53 350.432 379.53 351.392V356H381.386V351.072C381.386 349.36 380.458 347.984 378.538 347.984C377.722 347.984 376.842 348.272 376.314 348.96V344.416H374.458V356H376.314V351.424ZM384.941 351.248C385.005 350.416 385.677 349.52 386.845 349.52C388.125 349.52 388.733 350.336 388.765 351.248H384.941ZM388.973 353.28C388.717 354.048 388.141 354.64 387.021 354.64C385.869 354.64 384.941 353.792 384.893 352.608H390.589C390.605 352.576 390.637 352.32 390.637 352.016C390.637 349.552 389.229 347.968 386.829 347.968C384.861 347.968 383.037 349.6 383.037 352.064C383.037 354.704 384.909 356.24 387.021 356.24C388.893 356.24 390.125 355.136 390.541 353.776L388.973 353.28ZM393.659 352.08C393.659 350.592 394.555 349.648 395.771 349.648C396.987 349.648 397.819 350.576 397.819 352.064C397.819 353.552 396.971 354.56 395.755 354.56C394.491 354.56 393.659 353.568 393.659 352.08ZM399.611 344.416H397.803V349.12C397.563 348.624 396.875 348 395.515 348C393.323 348 391.803 349.84 391.803 352.08C391.803 354.432 393.307 356.192 395.547 356.192C396.651 356.192 397.467 355.648 397.835 354.992C397.835 355.312 397.883 355.824 397.915 356H399.691C399.675 355.872 399.611 355.28 399.611 354.576V344.416ZM407.061 355.136C407.061 355.456 407.093 355.824 407.125 356H408.901C408.869 355.712 408.821 355.216 408.821 354.576V348.208H406.965V352.816C406.965 353.84 406.405 354.56 405.333 354.56C404.213 354.56 403.765 353.744 403.765 352.784V348.208H401.909V353.12C401.909 354.848 402.997 356.224 404.853 356.224C405.765 356.224 406.677 355.84 407.061 355.136ZM413.079 356V344.416H411.223V356H413.079ZM416.769 351.248C416.833 350.416 417.505 349.52 418.673 349.52C419.953 349.52 420.561 350.336 420.593 351.248H416.769ZM420.801 353.28C420.545 354.048 419.969 354.64 418.849 354.64C417.697 354.64 416.769 353.792 416.721 352.608H422.417C422.433 352.576 422.465 352.32 422.465 352.016C422.465 349.552 421.057 347.968 418.657 347.968C416.689 347.968 414.865 349.6 414.865 352.064C414.865 354.704 416.737 356.24 418.849 356.24C420.721 356.24 421.953 355.136 422.369 353.776L420.801 353.28ZM425.487 352.08C425.487 350.592 426.383 349.648 427.599 349.648C428.815 349.648 429.647 350.576 429.647 352.064C429.647 353.552 428.799 354.56 427.583 354.56C426.319 354.56 425.487 353.568 425.487 352.08ZM431.439 344.416H429.631V349.12C429.391 348.624 428.703 348 427.343 348C425.151 348 423.631 349.84 423.631 352.08C423.631 354.432 425.135 356.192 427.375 356.192C428.479 356.192 429.295 355.648 429.663 354.992C429.663 355.312 429.711 355.824 429.743 356H431.519C431.503 355.872 431.439 355.28 431.439 354.576V344.416Z"/><path fill="#8E8E8E" d="M326 325H464V323H326V325ZM466 327V373H468V327H466ZM464 375H326V377H464V375ZM324 373V327H322V373H324ZM326 375C324.895 375 324 374.105 324 373H322C322 375.209 323.791 377 326 377V375ZM466 373C466 374.105 465.105 375 464 375V377C466.209 377 468 375.209 468 373H466ZM464 325C465.105 325 466 325.895 466 327H468C468 324.791 466.209 323 464 323V325ZM326 323C323.791 323 322 324.791 322 327H324C324 325.895 324.895 325 326 325V323Z"/><path fill="#D2EFFF" d="M100 327C100 325.343 101.343 324 103 324H226C227.657 324 229 325.343 229 327V373C229 374.657 227.657 376 226 376H103C101.343 376 100 374.657 100 373V327Z"/><path fill="#000" d="M138.764 349.68C139.948 349.68 140.476 350.448 140.652 351.136L142.316 350.528C141.996 349.28 140.844 347.968 138.748 347.968C136.508 347.968 134.764 349.696 134.764 352.096C134.764 354.464 136.508 356.24 138.796 356.24C140.844 356.24 142.012 354.912 142.38 353.696L140.748 353.104C140.572 353.696 140.012 354.544 138.796 354.544C137.628 354.544 136.62 353.664 136.62 352.096C136.62 350.528 137.628 349.68 138.764 349.68ZM148.588 348.16C148.508 348.144 148.316 348.112 148.092 348.112C147.068 348.112 146.204 348.608 145.836 349.456V348.208H144.028V356H145.884V352.288C145.884 350.832 146.54 350 147.98 350C148.172 350 148.38 350.016 148.588 350.048V348.16ZM151.355 351.248C151.419 350.416 152.091 349.52 153.259 349.52C154.539 349.52 155.147 350.336 155.179 351.248H151.355ZM155.387 353.28C155.131 354.048 154.555 354.64 153.435 354.64C152.283 354.64 151.355 353.792 151.307 352.608H157.003C157.019 352.576 157.051 352.32 157.051 352.016C157.051 349.552 155.643 347.968 153.243 347.968C151.275 347.968 149.451 349.6 149.451 352.064C149.451 354.704 151.323 356.24 153.435 356.24C155.307 356.24 156.539 355.136 156.955 353.776L155.387 353.28ZM158.345 353.888C158.345 355.12 159.353 356.24 160.985 356.24C162.249 356.24 163.017 355.6 163.385 355.008C163.385 355.632 163.449 355.952 163.465 356H165.193C165.177 355.92 165.097 355.456 165.097 354.752V350.88C165.097 349.328 164.185 347.968 161.785 347.968C159.865 347.968 158.649 349.168 158.505 350.512L160.201 350.896C160.281 350.112 160.825 349.488 161.801 349.488C162.825 349.488 163.273 350.016 163.273 350.672C163.273 350.944 163.145 351.168 162.697 351.232L160.697 351.536C159.369 351.728 158.345 352.496 158.345 353.888ZM161.337 354.784C160.601 354.784 160.201 354.304 160.201 353.776C160.201 353.136 160.665 352.816 161.241 352.72L163.273 352.416V352.768C163.273 354.288 162.377 354.784 161.337 354.784ZM169.661 345.824H167.981V346.992C167.981 347.68 167.613 348.208 166.781 348.208H166.381V349.856H167.821V353.776C167.821 355.232 168.717 356.096 170.157 356.096C170.829 356.096 171.181 355.968 171.293 355.92V354.384C171.213 354.4 170.909 354.448 170.653 354.448C169.965 354.448 169.661 354.16 169.661 353.472V349.856H171.277V348.208H169.661V345.824ZM175.024 356V348.208H173.184V356H175.024ZM172.896 345.472C172.896 346.144 173.44 346.672 174.096 346.672C174.768 346.672 175.312 346.144 175.312 345.472C175.312 344.8 174.768 344.256 174.096 344.256C173.44 344.256 172.896 344.8 172.896 345.472ZM179.275 351.504C179.275 350.48 179.835 349.664 180.891 349.664C182.059 349.664 182.491 350.432 182.491 351.392V356H184.347V351.072C184.347 349.36 183.435 347.984 181.531 347.984C180.667 347.984 179.739 348.352 179.227 349.248V348.208H177.419V356H179.275V351.504ZM186.046 356.432C186.254 358 187.694 359.28 189.758 359.28C192.686 359.28 193.758 357.344 193.758 355.264V348.208H191.966V349.2C191.63 348.56 190.878 348.064 189.662 348.064C187.518 348.064 186.062 349.776 186.062 351.856C186.062 354.048 187.582 355.648 189.662 355.648C190.798 355.648 191.582 355.12 191.918 354.512V355.328C191.918 356.912 191.182 357.664 189.71 357.664C188.638 357.664 187.886 356.944 187.758 355.984L186.046 356.432ZM189.966 354.064C188.75 354.064 187.934 353.216 187.934 351.856C187.934 350.528 188.782 349.664 189.966 349.664C191.118 349.664 191.966 350.528 191.966 351.856C191.966 353.2 191.15 354.064 189.966 354.064Z"/><path fill="#8E8E8E" d="M103 325H226V323H103V325ZM228 327V373H230V327H228ZM226 375H103V377H226V375ZM101 373V327H99V373H101ZM103 375C101.895 375 101 374.105 101 373H99C99 375.209 100.791 377 103 377V375ZM228 373C228 374.105 227.105 375 226 375V377C228.209 377 230 375.209 230 373H228ZM226 325C227.105 325 228 325.895 228 327H230C230 324.791 228.209 323 226 323V325ZM103 323C100.791 323 99 324.791 99 327H101C101 325.895 101.895 325 103 325V323Z"/><path fill="#F2F2F2" d="M567 249C567 247.343 568.343 246 570 246H690C691.657 246 693 247.343 693 249V295C693 296.657 691.657 298 690 298H570C568.343 298 567 296.657 567 295V249Z"/><path fill="#000" d="M601.535 275.888C601.631 276.768 602.495 278.24 604.751 278.24C606.735 278.24 607.695 276.928 607.695 275.744C607.695 274.592 606.927 273.696 605.455 273.376L604.271 273.136C603.791 273.04 603.487 272.736 603.487 272.32C603.487 271.84 603.951 271.424 604.607 271.424C605.647 271.424 605.983 272.144 606.047 272.592L607.615 272.144C607.487 271.376 606.783 269.968 604.607 269.968C602.991 269.968 601.743 271.12 601.743 272.48C601.743 273.552 602.463 274.448 603.839 274.752L604.991 275.008C605.615 275.136 605.903 275.456 605.903 275.872C605.903 276.352 605.503 276.768 604.735 276.768C603.743 276.768 603.215 276.144 603.151 275.44L601.535 275.888ZM616.832 270.208H614.368L611.376 273.36V266.416H609.536V278H611.376V275.824L612.336 274.816L614.624 278H616.896L613.632 273.504L616.832 270.208ZM620.079 278V270.208H618.239V278H620.079ZM617.951 267.472C617.951 268.144 618.495 268.672 619.151 268.672C619.823 268.672 620.367 268.144 620.367 267.472C620.367 266.8 619.823 266.256 619.151 266.256C618.495 266.256 617.951 266.8 617.951 267.472ZM624.313 281.04V277.12C624.713 277.712 625.561 278.192 626.681 278.192C628.921 278.192 630.345 276.432 630.345 274.096C630.345 271.792 629.049 270.032 626.745 270.032C625.545 270.032 624.649 270.592 624.265 271.264V270.208H622.473V281.04H624.313ZM628.489 274.096C628.489 275.584 627.625 276.544 626.393 276.544C625.177 276.544 624.297 275.584 624.297 274.096C624.297 272.64 625.177 271.68 626.393 271.68C627.641 271.68 628.489 272.64 628.489 274.096ZM633.97 281.04V277.12C634.37 277.712 635.218 278.192 636.338 278.192C638.578 278.192 640.002 276.432 640.002 274.096C640.002 271.792 638.706 270.032 636.402 270.032C635.202 270.032 634.306 270.592 633.922 271.264V270.208H632.13V281.04H633.97ZM638.146 274.096C638.146 275.584 637.282 276.544 636.05 276.544C634.834 276.544 633.954 275.584 633.954 274.096C633.954 272.64 634.834 271.68 636.05 271.68C637.298 271.68 638.146 272.64 638.146 274.096ZM643.082 273.248C643.146 272.416 643.818 271.52 644.986 271.52C646.266 271.52 646.874 272.336 646.906 273.248H643.082ZM647.114 275.28C646.858 276.048 646.282 276.64 645.162 276.64C644.01 276.64 643.082 275.792 643.034 274.608H648.73C648.746 274.576 648.778 274.32 648.778 274.016C648.778 271.552 647.37 269.968 644.97 269.968C643.002 269.968 641.178 271.6 641.178 274.064C641.178 276.704 643.05 278.24 645.162 278.24C647.034 278.24 648.266 277.136 648.682 275.776L647.114 275.28ZM651.8 274.08C651.8 272.592 652.696 271.648 653.912 271.648C655.128 271.648 655.96 272.576 655.96 274.064C655.96 275.552 655.112 276.56 653.896 276.56C652.632 276.56 651.8 275.568 651.8 274.08ZM657.752 266.416H655.944V271.12C655.704 270.624 655.016 270 653.656 270C651.464 270 649.944 271.84 649.944 274.08C649.944 276.432 651.448 278.192 653.688 278.192C654.792 278.192 655.608 277.648 655.976 276.992C655.976 277.312 656.024 277.824 656.056 278H657.832C657.816 277.872 657.752 277.28 657.752 276.576V266.416Z"/><path fill="#8E8E8E" d="M570 247H690V245H570V247ZM692 249V295H694V249H692ZM690 297H570V299H690V297ZM568 295V249H566V295H568ZM570 297C568.895 297 568 296.105 568 295H566C566 297.209 567.791 299 570 299V297ZM692 295C692 296.105 691.105 297 690 297V299C692.209 299 694 297.209 694 295H692ZM690 247C691.105 247 692 247.895 692 249H694C694 246.791 692.209 245 690 245V247ZM570 245C567.791 245 566 246.791 566 249H568C568 247.895 568.895 247 570 247V245Z"/><path fill="#F2F2F2" d="M567 167C567 165.343 568.343 164 570 164H690C691.657 164 693 165.343 693 167V213C693 214.657 691.657 216 690 216H570C568.343 216 567 214.657 567 213V167Z"/><path fill="#000" d="M604.165 191.504C604.165 190.48 604.725 189.664 605.781 189.664C606.949 189.664 607.381 190.432 607.381 191.392V196H609.237V191.072C609.237 189.36 608.325 187.984 606.421 187.984C605.557 187.984 604.629 188.352 604.117 189.248V188.208H602.309V196H604.165V191.504ZM614.921 194.576C613.785 194.576 612.745 193.712 612.745 192.096C612.745 190.48 613.785 189.648 614.921 189.648C616.073 189.648 617.097 190.48 617.097 192.096C617.097 193.728 616.073 194.576 614.921 194.576ZM614.921 187.968C612.601 187.968 610.889 189.712 610.889 192.096C610.889 194.496 612.601 196.24 614.921 196.24C617.257 196.24 618.969 194.496 618.969 192.096C618.969 189.712 617.257 187.968 614.921 187.968ZM623.068 185.824H621.388V186.992C621.388 187.68 621.02 188.208 620.188 188.208H619.788V189.856H621.228V193.776C621.228 195.232 622.124 196.096 623.564 196.096C624.236 196.096 624.588 195.968 624.7 195.92V194.384C624.62 194.4 624.316 194.448 624.06 194.448C623.372 194.448 623.068 194.16 623.068 193.472V189.856H624.684V188.208H623.068V185.824ZM634.18 197.536V196H626.004V197.536H634.18ZM640.104 188.16C640.024 188.144 639.832 188.112 639.608 188.112C638.584 188.112 637.72 188.608 637.352 189.456V188.208H635.544V196H637.4V192.288C637.4 190.832 638.056 190 639.496 190C639.688 190 639.896 190.016 640.104 190.048V188.16ZM646.741 195.136C646.741 195.456 646.773 195.824 646.805 196H648.581C648.549 195.712 648.501 195.216 648.501 194.576V188.208H646.645V192.816C646.645 193.84 646.085 194.56 645.013 194.56C643.893 194.56 643.445 193.744 643.445 192.784V188.208H641.589V193.12C641.589 194.848 642.677 196.224 644.533 196.224C645.445 196.224 646.357 195.84 646.741 195.136ZM652.759 191.504C652.759 190.48 653.319 189.664 654.375 189.664C655.543 189.664 655.975 190.432 655.975 191.392V196H657.831V191.072C657.831 189.36 656.919 187.984 655.015 187.984C654.151 187.984 653.223 188.352 652.711 189.248V188.208H650.903V196H652.759V191.504Z"/><path fill="#8E8E8E" d="M570 165H690V163H570V165ZM692 167V213H694V167H692ZM690 215H570V217H690V215ZM568 213V167H566V213H568ZM570 215C568.895 215 568 214.105 568 213H566C566 215.209 567.791 217 570 217V215ZM692 213C692 214.105 691.105 215 690 215V217C692.209 217 694 215.209 694 213H692ZM690 165C691.105 165 692 165.895 692 167H694C694 164.791 692.209 163 690 163V165ZM570 163C567.791 163 566 164.791 566 167H568C568 165.895 568.895 165 570 165V163Z"/><path fill="#D2EFFF" d="M567 331C567 329.343 568.343 328 570 328H689C690.657 328 692 329.343 692 331V377C692 378.657 690.657 380 689 380H570C568.343 380 567 378.657 567 377V331Z"/><path fill="#000" d="M606.971 352.16C606.891 352.144 606.699 352.112 606.475 352.112C605.451 352.112 604.587 352.608 604.219 353.456V352.208H602.411V360H604.267V356.288C604.267 354.832 604.923 354 606.363 354C606.555 354 606.763 354.016 606.971 354.048V352.16ZM613.608 359.136C613.608 359.456 613.64 359.824 613.672 360H615.448C615.416 359.712 615.368 359.216 615.368 358.576V352.208H613.512V356.816C613.512 357.84 612.952 358.56 611.88 358.56C610.76 358.56 610.312 357.744 610.312 356.784V352.208H608.456V357.12C608.456 358.848 609.544 360.224 611.4 360.224C612.312 360.224 613.224 359.84 613.608 359.136ZM619.626 355.504C619.626 354.48 620.186 353.664 621.242 353.664C622.41 353.664 622.842 354.432 622.842 355.392V360H624.698V355.072C624.698 353.36 623.786 351.984 621.882 351.984C621.018 351.984 620.09 352.352 619.578 353.248V352.208H617.77V360H619.626V355.504ZM628.814 355.504C628.814 354.48 629.374 353.664 630.43 353.664C631.598 353.664 632.03 354.432 632.03 355.392V360H633.886V355.072C633.886 353.36 632.974 351.984 631.07 351.984C630.206 351.984 629.278 352.352 628.766 353.248V352.208H626.958V360H628.814V355.504ZM637.985 360V352.208H636.145V360H637.985ZM635.857 349.472C635.857 350.144 636.401 350.672 637.057 350.672C637.729 350.672 638.273 350.144 638.273 349.472C638.273 348.8 637.729 348.256 637.057 348.256C636.401 348.256 635.857 348.8 635.857 349.472ZM642.236 355.504C642.236 354.48 642.796 353.664 643.852 353.664C645.02 353.664 645.452 354.432 645.452 355.392V360H647.308V355.072C647.308 353.36 646.396 351.984 644.492 351.984C643.628 351.984 642.7 352.352 642.188 353.248V352.208H640.38V360H642.236V355.504ZM649.007 360.432C649.215 362 650.655 363.28 652.719 363.28C655.647 363.28 656.719 361.344 656.719 359.264V352.208H654.927V353.2C654.591 352.56 653.839 352.064 652.623 352.064C650.479 352.064 649.023 353.776 649.023 355.856C649.023 358.048 650.543 359.648 652.623 359.648C653.759 359.648 654.543 359.12 654.879 358.512V359.328C654.879 360.912 654.143 361.664 652.671 361.664C651.599 361.664 650.847 360.944 650.719 359.984L649.007 360.432ZM652.927 358.064C651.711 358.064 650.895 357.216 650.895 355.856C650.895 354.528 651.743 353.664 652.927 353.664C654.079 353.664 654.927 354.528 654.927 355.856C654.927 357.2 654.111 358.064 652.927 358.064Z"/><path fill="#8E8E8E" d="M570 329H689V327H570V329ZM691 331V377H693V331H691ZM689 379H570V381H689V379ZM568 377V331H566V377H568ZM570 379C568.895 379 568 378.105 568 377H566C566 379.209 567.791 381 570 381V379ZM691 377C691 378.105 690.105 379 689 379V381C691.209 381 693 379.209 693 377H691ZM689 329C690.105 329 691 329.895 691 331H693C693 328.791 691.209 327 689 327V329ZM570 327C567.791 327 566 328.791 566 331H568C568 329.895 568.895 329 570 329V327Z"/><path fill="#F2F2F2" d="M774 429C774 427.343 775.343 426 777 426H910C911.657 426 913 427.343 913 429V475C913 476.657 911.657 478 910 478H777C775.343 478 774 476.657 774 475V429Z"/><path fill="#000" d="M812.717 451.68C813.901 451.68 814.429 452.448 814.605 453.136L816.269 452.528C815.949 451.28 814.797 449.968 812.701 449.968C810.461 449.968 808.717 451.696 808.717 454.096C808.717 456.464 810.461 458.24 812.749 458.24C814.797 458.24 815.965 456.912 816.333 455.696L814.701 455.104C814.525 455.696 813.965 456.544 812.749 456.544C811.581 456.544 810.573 455.664 810.573 454.096C810.573 452.528 811.581 451.68 812.717 451.68ZM817.454 455.888C817.454 457.12 818.462 458.24 820.094 458.24C821.358 458.24 822.126 457.6 822.494 457.008C822.494 457.632 822.558 457.952 822.574 458H824.302C824.286 457.92 824.206 457.456 824.206 456.752V452.88C824.206 451.328 823.294 449.968 820.894 449.968C818.974 449.968 817.758 451.168 817.614 452.512L819.31 452.896C819.39 452.112 819.934 451.488 820.91 451.488C821.934 451.488 822.382 452.016 822.382 452.672C822.382 452.944 822.254 453.168 821.806 453.232L819.806 453.536C818.478 453.728 817.454 454.496 817.454 455.888ZM820.446 456.784C819.71 456.784 819.31 456.304 819.31 455.776C819.31 455.136 819.774 454.816 820.35 454.72L822.382 454.416V454.768C822.382 456.288 821.486 456.784 820.446 456.784ZM828.306 453.504C828.306 452.48 828.866 451.664 829.922 451.664C831.09 451.664 831.522 452.432 831.522 453.392V458H833.378V453.072C833.378 451.36 832.466 449.984 830.562 449.984C829.698 449.984 828.77 450.352 828.258 451.248V450.208H826.45V458H828.306V453.504ZM839.03 451.68C840.214 451.68 840.742 452.448 840.918 453.136L842.582 452.528C842.262 451.28 841.11 449.968 839.014 449.968C836.774 449.968 835.03 451.696 835.03 454.096C835.03 456.464 836.774 458.24 839.062 458.24C841.11 458.24 842.278 456.912 842.646 455.696L841.014 455.104C840.838 455.696 840.278 456.544 839.062 456.544C837.894 456.544 836.886 455.664 836.886 454.096C836.886 452.528 837.894 451.68 839.03 451.68ZM845.512 453.248C845.576 452.416 846.248 451.52 847.416 451.52C848.696 451.52 849.304 452.336 849.336 453.248H845.512ZM849.544 455.28C849.288 456.048 848.712 456.64 847.592 456.64C846.44 456.64 845.512 455.792 845.464 454.608H851.16C851.176 454.576 851.208 454.32 851.208 454.016C851.208 451.552 849.8 449.968 847.4 449.968C845.432 449.968 843.608 451.6 843.608 454.064C843.608 456.704 845.48 458.24 847.592 458.24C849.464 458.24 850.696 457.136 851.112 455.776L849.544 455.28ZM854.837 458V446.416H852.981V458H854.837ZM859.071 458V450.208H857.231V458H859.071ZM856.943 447.472C856.943 448.144 857.487 448.672 858.143 448.672C858.815 448.672 859.359 448.144 859.359 447.472C859.359 446.8 858.815 446.256 858.143 446.256C857.487 446.256 856.943 446.8 856.943 447.472ZM863.322 453.504C863.322 452.48 863.882 451.664 864.938 451.664C866.106 451.664 866.538 452.432 866.538 453.392V458H868.394V453.072C868.394 451.36 867.482 449.984 865.578 449.984C864.714 449.984 863.786 450.352 863.274 451.248V450.208H861.466V458H863.322V453.504ZM870.093 458.432C870.301 460 871.741 461.28 873.805 461.28C876.733 461.28 877.805 459.344 877.805 457.264V450.208H876.013V451.2C875.677 450.56 874.925 450.064 873.709 450.064C871.565 450.064 870.109 451.776 870.109 453.856C870.109 456.048 871.629 457.648 873.709 457.648C874.845 457.648 875.629 457.12 875.965 456.512V457.328C875.965 458.912 875.229 459.664 873.757 459.664C872.685 459.664 871.933 458.944 871.805 457.984L870.093 458.432ZM874.013 456.064C872.797 456.064 871.981 455.216 871.981 453.856C871.981 452.528 872.829 451.664 874.013 451.664C875.165 451.664 876.013 452.528 876.013 453.856C876.013 455.2 875.197 456.064 874.013 456.064Z"/><path fill="#8E8E8E" d="M777 427H910V425H777V427ZM912 429V475H914V429H912ZM910 477H777V479H910V477ZM775 475V429H773V475H775ZM777 477C775.895 477 775 476.105 775 475H773C773 477.209 774.791 479 777 479V477ZM912 475C912 476.105 911.105 477 910 477V479C912.209 479 914 477.209 914 475H912ZM910 427C911.105 427 912 427.895 912 429H914C914 426.791 912.209 425 910 425V427ZM777 425C774.791 425 773 426.791 773 429H775C775 427.895 775.895 427 777 427V425Z"/><path fill="#D2EFFF" d="M919 298C919 296.343 920.343 295 922 295H1036C1037.66 295 1039 296.343 1039 298V344C1039 345.657 1037.66 347 1036 347H922C920.343 347 919 345.657 919 344V298Z"/><path fill="#000" d="M956.47 330.04V326.12C956.87 326.712 957.718 327.192 958.838 327.192C961.078 327.192 962.502 325.432 962.502 323.096C962.502 320.792 961.206 319.032 958.902 319.032C957.702 319.032 956.806 319.592 956.422 320.264V319.208H954.63V330.04H956.47ZM960.646 323.096C960.646 324.584 959.782 325.544 958.55 325.544C957.334 325.544 956.454 324.584 956.454 323.096C956.454 321.64 957.334 320.68 958.55 320.68C959.798 320.68 960.646 321.64 960.646 323.096ZM963.806 324.888C963.806 326.12 964.814 327.24 966.446 327.24C967.71 327.24 968.478 326.6 968.846 326.008C968.846 326.632 968.91 326.952 968.926 327H970.654C970.638 326.92 970.558 326.456 970.558 325.752V321.88C970.558 320.328 969.646 318.968 967.246 318.968C965.326 318.968 964.11 320.168 963.966 321.512L965.662 321.896C965.742 321.112 966.286 320.488 967.262 320.488C968.286 320.488 968.734 321.016 968.734 321.672C968.734 321.944 968.606 322.168 968.158 322.232L966.158 322.536C964.83 322.728 963.806 323.496 963.806 324.888ZM966.798 325.784C966.062 325.784 965.662 325.304 965.662 324.776C965.662 324.136 966.126 323.816 966.702 323.72L968.734 323.416V323.768C968.734 325.288 967.838 325.784 966.798 325.784ZM972.114 324.888C972.21 325.768 973.074 327.24 975.33 327.24C977.314 327.24 978.274 325.928 978.274 324.744C978.274 323.592 977.506 322.696 976.034 322.376L974.85 322.136C974.37 322.04 974.066 321.736 974.066 321.32C974.066 320.84 974.53 320.424 975.186 320.424C976.226 320.424 976.562 321.144 976.626 321.592L978.194 321.144C978.066 320.376 977.362 318.968 975.186 318.968C973.57 318.968 972.322 320.12 972.322 321.48C972.322 322.552 973.042 323.448 974.418 323.752L975.57 324.008C976.194 324.136 976.482 324.456 976.482 324.872C976.482 325.352 976.082 325.768 975.314 325.768C974.322 325.768 973.794 325.144 973.73 324.44L972.114 324.888ZM979.426 324.888C979.522 325.768 980.386 327.24 982.642 327.24C984.626 327.24 985.586 325.928 985.586 324.744C985.586 323.592 984.818 322.696 983.346 322.376L982.162 322.136C981.682 322.04 981.378 321.736 981.378 321.32C981.378 320.84 981.842 320.424 982.498 320.424C983.538 320.424 983.874 321.144 983.938 321.592L985.506 321.144C985.378 320.376 984.674 318.968 982.498 318.968C980.882 318.968 979.634 320.12 979.634 321.48C979.634 322.552 980.354 323.448 981.73 323.752L982.882 324.008C983.506 324.136 983.794 324.456 983.794 324.872C983.794 325.352 983.394 325.768 982.626 325.768C981.634 325.768 981.106 325.144 981.042 324.44L979.426 324.888ZM988.676 322.248C988.74 321.416 989.412 320.52 990.58 320.52C991.86 320.52 992.468 321.336 992.5 322.248H988.676ZM992.708 324.28C992.452 325.048 991.876 325.64 990.756 325.64C989.604 325.64 988.676 324.792 988.628 323.608H994.324C994.34 323.576 994.372 323.32 994.372 323.016C994.372 320.552 992.964 318.968 990.564 318.968C988.596 318.968 986.772 320.6 986.772 323.064C986.772 325.704 988.644 327.24 990.756 327.24C992.628 327.24 993.86 326.136 994.276 324.776L992.708 324.28ZM997.393 323.08C997.393 321.592 998.289 320.648 999.505 320.648C1000.72 320.648 1001.55 321.576 1001.55 323.064C1001.55 324.552 1000.71 325.56 999.489 325.56C998.225 325.56 997.393 324.568 997.393 323.08ZM1003.35 315.416H1001.54V320.12C1001.3 319.624 1000.61 319 999.249 319C997.057 319 995.537 320.84 995.537 323.08C995.537 325.432 997.041 327.192 999.281 327.192C1000.39 327.192 1001.2 326.648 1001.57 325.992C1001.57 326.312 1001.62 326.824 1001.65 327H1003.43C1003.41 326.872 1003.35 326.28 1003.35 325.576V315.416Z"/><path fill="#8E8E8E" d="M922 296H1036V294H922V296ZM1038 298V344H1040V298H1038ZM1036 346H922V348H1036V346ZM920 344V298H918V344H920ZM922 346C920.895 346 920 345.105 920 344H918C918 346.209 919.791 348 922 348V346ZM1038 344C1038 345.105 1037.1 346 1036 346V348C1038.21 348 1040 346.209 1040 344H1038ZM1036 296C1037.1 296 1038 296.895 1038 298H1040C1040 295.791 1038.21 294 1036 294V296ZM922 294C919.791 294 918 295.791 918 298H920C920 296.895 920.895 296 922 296V294Z"/><path fill="#D2EFFF" d="M919 360C919 358.343 920.343 357 922 357H1025C1026.66 357 1028 358.343 1028 360V406C1028 407.657 1026.66 409 1025 409H922C920.343 409 919 407.657 919 406V360Z"/><path fill="#000" d="M957.742 379C958.094 379 958.302 379.048 958.414 379.08V377.496C958.286 377.432 957.902 377.336 957.438 377.336C955.838 377.336 954.718 378.392 954.718 380.136V381.208H953.358V382.824H954.718V389H956.59V382.824H958.398V381.208H956.59V380.184C956.59 379.224 957.246 379 957.742 379ZM959.243 386.888C959.243 388.12 960.251 389.24 961.883 389.24C963.147 389.24 963.915 388.6 964.283 388.008C964.283 388.632 964.347 388.952 964.363 389H966.091C966.075 388.92 965.995 388.456 965.995 387.752V383.88C965.995 382.328 965.083 380.968 962.683 380.968C960.763 380.968 959.547 382.168 959.403 383.512L961.099 383.896C961.179 383.112 961.723 382.488 962.699 382.488C963.723 382.488 964.171 383.016 964.171 383.672C964.171 383.944 964.043 384.168 963.595 384.232L961.595 384.536C960.267 384.728 959.243 385.496 959.243 386.888ZM962.235 387.784C961.499 387.784 961.099 387.304 961.099 386.776C961.099 386.136 961.563 385.816 962.139 385.72L964.171 385.416V385.768C964.171 387.288 963.275 387.784 962.235 387.784ZM970.079 389V381.208H968.239V389H970.079ZM967.951 378.472C967.951 379.144 968.495 379.672 969.151 379.672C969.823 379.672 970.367 379.144 970.367 378.472C970.367 377.8 969.823 377.256 969.151 377.256C968.495 377.256 967.951 377.8 967.951 378.472ZM974.329 389V377.416H972.473V389H974.329ZM978.019 384.248C978.083 383.416 978.755 382.52 979.923 382.52C981.203 382.52 981.811 383.336 981.843 384.248H978.019ZM982.051 386.28C981.795 387.048 981.219 387.64 980.099 387.64C978.947 387.64 978.019 386.792 977.971 385.608H983.667C983.683 385.576 983.715 385.32 983.715 385.016C983.715 382.552 982.307 380.968 979.907 380.968C977.939 380.968 976.115 382.6 976.115 385.064C976.115 387.704 977.987 389.24 980.099 389.24C981.971 389.24 983.203 388.136 983.619 386.776L982.051 386.28ZM986.737 385.08C986.737 383.592 987.633 382.648 988.849 382.648C990.065 382.648 990.897 383.576 990.897 385.064C990.897 386.552 990.049 387.56 988.833 387.56C987.569 387.56 986.737 386.568 986.737 385.08ZM992.689 377.416H990.881V382.12C990.641 381.624 989.953 381 988.593 381C986.401 381 984.881 382.84 984.881 385.08C984.881 387.432 986.385 389.192 988.625 389.192C989.729 389.192 990.545 388.648 990.913 387.992C990.913 388.312 990.961 388.824 990.993 389H992.769C992.753 388.872 992.689 388.28 992.689 387.576V377.416Z"/><path fill="#8E8E8E" d="M922 358H1025V356H922V358ZM1027 360V406H1029V360H1027ZM1025 408H922V410H1025V408ZM920 406V360H918V406H920ZM922 408C920.895 408 920 407.105 920 406H918C918 408.209 919.791 410 922 410V408ZM1027 406C1027 407.105 1026.1 408 1025 408V410C1027.21 410 1029 408.209 1029 406H1027ZM1025 358C1026.1 358 1027 358.895 1027 360H1029C1029 357.791 1027.21 356 1025 356V358ZM922 356C919.791 356 918 357.791 918 360H920C920 358.895 920.895 358 922 358V356Z"/><path fill="#4F4F4F" d="M812 511L802 505.226L802 516.774L812 511ZM782 512L803 512L803 510L782 510L782 512Z"/><path fill="#4F4F4F" d="M812 525L802 519.226V530.774L812 525ZM631 526H803V524H631V526Z"/><path fill="#4F4F4F" d="M772 452L762 446.226L762 457.774L772 452ZM742 453L763 453L763 451L742 451L742 453Z"/><path fill="#4F4F4F" d="M565 350L555 344.227L555 355.774L565 350ZM469 351L556 351L556 349L469 349L469 351Z"/><path fill="#4F4F4F" d="M567 454L557 448.227L557 459.774L567 454ZM492 455L558 455L558 453L492 453L492 455Z"/><path fill="#4F4F4F" d="M812 540L802 534.227L802 545.774L812 540ZM492 541L803 541L803 539L492 539L492 541Z"/><path fill="#4F4F4F" d="M321 350L311 344.226L311 355.773L321 350ZM231 351L312 351L312 349L231 349L231 351Z"/><path fill="#4F4F4F" d="M98 350L88 344.226L88 355.774L98 350ZM68 351L89 351L89 349L68 349L68 351Z"/><path fill="#4F4F4F" d="M565 272L555 266.227L555 277.774L565 272ZM494 273L556 273L556 271L494 271L494 273Z"/><path fill="#4F4F4F" d="M565 190L555 184.227L555 195.774L565 190ZM494 191L556 191L556 189L494 189L494 191Z"/><path fill="#4F4F4F" d="M631 424L636.774 414L625.226 414L631 424ZM631 382L625.226 392L636.774 392L631 382ZM632 415L632 391L630 391L630 415L632 415Z"/><path fill="#4F4F4F" d="M914 321L904 315.227L904 326.774L914 321ZM853 322L905 322L905 320L853 320L853 322Z"/><path fill="#4F4F4F" d="M914 383L904 377.227L904 388.774L914 383ZM853 384L905 384L905 382L853 382L853 384Z"/><line x1="493" x2="493" y1="540" y2="360" stroke="#4F4F4F" stroke-width="2"/><line x1="783" x2="783" y1="511" y2="480" stroke="#4F4F4F" stroke-width="2"/><line x1="632" x2="632" y1="526" y2="480" stroke="#4F4F4F" stroke-width="2"/><line x1="743" x2="743" y1="452" y2="362" stroke="#4F4F4F" stroke-width="2"/><line x1="853" x2="694" y1="353" y2="353" stroke="#4F4F4F" stroke-width="2"/><line x1="852" x2="852" y1="384" y2="320" stroke="#4F4F4F" stroke-width="2"/><path stroke="#4F4F4F" stroke-width="2" d="M494 340L494 281.478M494 189L494 254.385M494 254.385L494 267.029L494 281.478M494 254.385L494 281.478"/><line x1="494" x2="469" y1="361" y2="361" stroke="#4F4F4F" stroke-width="2"/><line x1="494" x2="469" y1="339" y2="339" stroke="#4F4F4F" stroke-width="2"/><line x1="744" x2="694" y1="363" y2="363" stroke="#4F4F4F" stroke-width="2"/><path fill="#000" d="M484.733 64.476V90H495.029C499.853 90 503.021 86.94 503.021 82.764C503.021 79.452 500.789 77.328 498.485 76.788C500.573 76.104 502.229 73.944 502.229 71.316C502.229 67.392 499.313 64.476 494.273 64.476H484.733ZM490.277 74.7V69.192H493.301C495.533 69.192 496.649 70.272 496.649 71.928C496.649 73.656 495.353 74.7 493.373 74.7H490.277ZM490.277 85.356V79.38H493.841C496.073 79.38 497.369 80.604 497.369 82.368C497.369 84.204 496.037 85.356 493.841 85.356H490.277ZM518.077 90H523.333C523.297 89.712 523.153 88.416 523.153 86.796V72.108H517.681V82.296C517.681 84.096 516.529 85.356 514.693 85.356C512.749 85.356 511.813 83.988 511.813 82.26V72.108H506.341V83.412C506.341 87.228 508.789 90.396 513.145 90.396C514.945 90.396 516.997 89.748 517.933 88.2C517.933 88.668 518.005 89.676 518.077 90ZM533.439 90V72.108H527.967V90H533.439ZM527.499 66.636C527.499 68.4 528.939 69.84 530.667 69.84C532.467 69.84 533.907 68.4 533.907 66.636C533.907 64.872 532.467 63.432 530.667 63.432C528.939 63.432 527.499 64.872 527.499 66.636ZM543.704 90V63.936H538.232V90H543.704ZM566.137 63.936H560.737V73.512C560.305 72.828 558.973 71.676 555.913 71.676C550.837 71.676 547.237 75.672 547.237 81C547.237 86.508 551.053 90.396 556.093 90.396C558.253 90.396 560.053 89.496 560.881 88.272C560.881 88.992 560.989 89.784 561.025 90H566.281C566.245 89.604 566.137 88.416 566.137 86.796V63.936ZM552.745 81.036C552.745 78.048 554.653 76.608 556.777 76.608C558.901 76.608 560.809 78.048 560.809 81.036C560.809 83.988 558.901 85.5 556.777 85.5C554.653 85.5 552.745 83.988 552.745 81.036ZM597.856 70.74C597.316 67.752 594.904 63.936 588.532 63.936C583.636 63.936 579.388 67.32 579.388 72.144C579.388 75.924 582.016 78.804 586.336 79.632L589.828 80.28C591.52 80.604 592.564 81.54 592.564 82.836C592.564 84.42 591.196 85.5 588.964 85.5C585.472 85.5 583.888 83.448 583.672 81.108L578.452 82.368C578.812 85.968 581.836 90.54 588.892 90.54C594.976 90.54 598.324 86.472 598.324 82.476C598.324 78.84 595.804 75.708 590.944 74.808L587.524 74.16C585.76 73.836 585.004 72.936 585.004 71.712C585.004 70.308 586.372 68.976 588.496 68.976C591.592 68.976 592.564 70.992 592.744 72.18L597.856 70.74ZM608.874 66.888H603.978V69.192C603.978 70.848 603.078 72.108 601.206 72.108H600.306V76.896H603.474V84.564C603.474 88.128 605.742 90.324 609.45 90.324C611.178 90.324 612.078 89.928 612.294 89.82V85.284C611.97 85.356 611.43 85.464 610.854 85.464C609.666 85.464 608.874 85.068 608.874 83.592V76.896H612.366V72.108H608.874V66.888ZM615.305 85.068C615.305 87.912 617.573 90.504 621.497 90.504C623.873 90.504 625.601 89.496 626.537 87.984C626.537 89.208 626.681 89.856 626.717 90H631.649C631.613 89.82 631.433 88.632 631.433 87.228V78.48C631.433 74.808 629.309 71.568 623.513 71.568C618.257 71.568 615.881 74.952 615.665 77.508L620.417 78.48C620.525 77.148 621.569 75.852 623.477 75.852C625.205 75.852 626.105 76.752 626.105 77.796C626.105 78.408 625.781 78.876 624.809 79.02L620.597 79.668C617.645 80.1 615.305 81.9 615.305 85.068ZM622.829 86.544C621.317 86.544 620.705 85.644 620.705 84.708C620.705 83.448 621.569 82.908 622.721 82.728L626.105 82.188V82.98C626.105 85.752 624.449 86.544 622.829 86.544ZM642.413 66.888H637.517V69.192C637.517 70.848 636.617 72.108 634.745 72.108H633.845V76.896H637.013V84.564C637.013 88.128 639.281 90.324 642.989 90.324C644.717 90.324 645.617 89.928 645.833 89.82V85.284C645.509 85.356 644.969 85.464 644.393 85.464C643.205 85.464 642.413 85.068 642.413 83.592V76.896H645.905V72.108H642.413V66.888ZM653.712 78.912C653.82 77.58 654.972 75.888 657.276 75.888C659.868 75.888 660.804 77.544 660.876 78.912H653.712ZM661.272 83.556C660.768 84.96 659.652 85.896 657.672 85.896C655.548 85.896 653.712 84.456 653.604 82.44H666.06C666.096 82.332 666.168 81.504 666.168 80.748C666.168 74.988 662.748 71.568 657.204 71.568C652.56 71.568 648.276 75.24 648.276 81C648.276 87.012 652.668 90.54 657.6 90.54C662.136 90.54 664.98 87.948 665.844 84.852L661.272 83.556ZM668.206 84.924C668.35 86.904 670.15 90.54 675.766 90.54C680.554 90.54 682.894 87.552 682.894 84.492C682.894 81.864 681.094 79.632 677.386 78.876L675.01 78.408C674.218 78.264 673.606 77.832 673.606 77.076C673.606 76.14 674.506 75.528 675.55 75.528C677.206 75.528 677.962 76.536 678.106 77.724L682.642 76.896C682.462 74.808 680.662 71.568 675.478 71.568C671.482 71.568 668.602 74.232 668.602 77.508C668.602 80.028 670.114 82.188 673.93 83.016L675.982 83.484C677.314 83.772 677.746 84.312 677.746 84.96C677.746 85.752 677.062 86.508 675.658 86.508C673.786 86.508 672.922 85.32 672.85 84.096L668.206 84.924Z"/></svg>