<svg width="900" height="615" viewBox="0 0 900 615" fill="none" xmlns="http://www.w3.org/2000/svg">
<rect width="900" height="615" fill="white"/>
<path d="M382 429C382 427.343 383.343 426 385 426H506C507.657 426 509 427.343 509 429V475C509 476.657 507.657 478 506 478H385C383.343 478 382 476.657 382 475V429Z" fill="#F2F2F2"/>
<path d="M419.235 458V456.96C419.683 457.712 420.531 458.192 421.635 458.192C423.907 458.192 425.299 456.416 425.299 454.064C425.299 451.776 424.035 450 421.699 450C420.499 450 419.603 450.56 419.251 451.168V446.416H417.427V458H419.235ZM423.427 454.08C423.427 455.616 422.547 456.544 421.331 456.544C420.147 456.544 419.235 455.616 419.235 454.08C419.235 452.528 420.147 451.648 421.331 451.648C422.563 451.648 423.427 452.528 423.427 454.08ZM428.939 458V446.416H427.083V458H428.939ZM434.757 456.576C433.621 456.576 432.581 455.712 432.581 454.096C432.581 452.48 433.621 451.648 434.757 451.648C435.909 451.648 436.933 452.48 436.933 454.096C436.933 455.728 435.909 456.576 434.757 456.576ZM434.757 449.968C432.437 449.968 430.725 451.712 430.725 454.096C430.725 456.496 432.437 458.24 434.757 458.24C437.093 458.24 438.805 456.496 438.805 454.096C438.805 451.712 437.093 449.968 434.757 449.968ZM443.99 451.68C445.174 451.68 445.702 452.448 445.878 453.136L447.542 452.528C447.222 451.28 446.07 449.968 443.974 449.968C441.734 449.968 439.99 451.696 439.99 454.096C439.99 456.464 441.734 458.24 444.022 458.24C446.07 458.24 447.238 456.912 447.606 455.696L445.974 455.104C445.798 455.696 445.238 456.544 444.022 456.544C442.854 456.544 441.846 455.664 441.846 454.096C441.846 452.528 442.854 451.68 443.99 451.68ZM456.551 450.208H454.087L451.095 453.36V446.416H449.255V458H451.095V455.824L452.055 454.816L454.343 458H456.615L453.351 453.504L456.551 450.208ZM458.879 453.248C458.943 452.416 459.615 451.52 460.783 451.52C462.063 451.52 462.671 452.336 462.703 453.248H458.879ZM462.911 455.28C462.655 456.048 462.079 456.64 460.959 456.64C459.807 456.64 458.879 455.792 458.831 454.608H464.527C464.543 454.576 464.575 454.32 464.575 454.016C464.575 451.552 463.167 449.968 460.767 449.968C458.799 449.968 456.975 451.6 456.975 454.064C456.975 456.704 458.847 458.24 460.959 458.24C462.831 458.24 464.063 457.136 464.479 455.776L462.911 455.28ZM467.596 454.08C467.596 452.592 468.492 451.648 469.708 451.648C470.924 451.648 471.756 452.576 471.756 454.064C471.756 455.552 470.908 456.56 469.692 456.56C468.428 456.56 467.596 455.568 467.596 454.08ZM473.548 446.416H471.74V451.12C471.5 450.624 470.812 450 469.452 450C467.26 450 465.74 451.84 465.74 454.08C465.74 456.432 467.244 458.192 469.484 458.192C470.588 458.192 471.404 457.648 471.772 456.992C471.772 457.312 471.82 457.824 471.852 458H473.628C473.612 457.872 473.548 457.28 473.548 456.576V446.416Z" fill="black"/>
<path d="M385 427H506V425H385V427ZM508 429V475H510V429H508ZM506 477H385V479H506V477ZM383 475V429H381V475H383ZM385 477C383.895 477 383 476.105 383 475H381C381 477.209 382.791 479 385 479V477ZM508 475C508 476.105 507.105 477 506 477V479C508.209 479 510 477.209 510 475H508ZM506 427C507.105 427 508 427.895 508 429H510C510 426.791 508.209 425 506 425V427ZM385 425C382.791 425 381 426.791 381 429H383C383 427.895 383.895 427 385 427V425Z" fill="#8E8E8E"/>
<path d="M627 502C627 500.343 628.343 499 630 499H759C760.657 499 762 500.343 762 502V548C762 549.657 760.657 551 759 551H630C628.343 551 627 549.657 627 548V502Z" fill="#F2F2F2"/>
<path d="M665.944 524.68C667.128 524.68 667.656 525.448 667.832 526.136L669.496 525.528C669.176 524.28 668.024 522.968 665.928 522.968C663.688 522.968 661.944 524.696 661.944 527.096C661.944 529.464 663.688 531.24 665.976 531.24C668.024 531.24 669.192 529.912 669.56 528.696L667.928 528.104C667.752 528.696 667.192 529.544 665.976 529.544C664.808 529.544 663.8 528.664 663.8 527.096C663.8 525.528 664.808 524.68 665.944 524.68ZM670.681 528.888C670.681 530.12 671.689 531.24 673.321 531.24C674.585 531.24 675.353 530.6 675.721 530.008C675.721 530.632 675.785 530.952 675.801 531H677.529C677.513 530.92 677.433 530.456 677.433 529.752V525.88C677.433 524.328 676.521 522.968 674.121 522.968C672.201 522.968 670.985 524.168 670.841 525.512L672.537 525.896C672.617 525.112 673.161 524.488 674.137 524.488C675.161 524.488 675.609 525.016 675.609 525.672C675.609 525.944 675.481 526.168 675.033 526.232L673.033 526.536C671.705 526.728 670.681 527.496 670.681 528.888ZM673.673 529.784C672.937 529.784 672.537 529.304 672.537 528.776C672.537 528.136 673.001 527.816 673.577 527.72L675.609 527.416V527.768C675.609 529.288 674.713 529.784 673.673 529.784ZM681.533 526.504C681.533 525.48 682.093 524.664 683.149 524.664C684.317 524.664 684.749 525.432 684.749 526.392V531H686.605V526.072C686.605 524.36 685.693 522.984 683.789 522.984C682.925 522.984 681.997 523.352 681.485 524.248V523.208H679.677V531H681.533V526.504ZM692.256 524.68C693.44 524.68 693.968 525.448 694.144 526.136L695.808 525.528C695.488 524.28 694.336 522.968 692.24 522.968C690 522.968 688.256 524.696 688.256 527.096C688.256 529.464 690 531.24 692.288 531.24C694.336 531.24 695.504 529.912 695.872 528.696L694.24 528.104C694.064 528.696 693.504 529.544 692.288 529.544C691.12 529.544 690.112 528.664 690.112 527.096C690.112 525.528 691.12 524.68 692.256 524.68ZM698.738 526.248C698.802 525.416 699.474 524.52 700.642 524.52C701.922 524.52 702.53 525.336 702.562 526.248H698.738ZM702.77 528.28C702.514 529.048 701.938 529.64 700.818 529.64C699.666 529.64 698.738 528.792 698.69 527.608H704.386C704.402 527.576 704.434 527.32 704.434 527.016C704.434 524.552 703.026 522.968 700.626 522.968C698.658 522.968 696.834 524.6 696.834 527.064C696.834 529.704 698.706 531.24 700.818 531.24C702.69 531.24 703.922 530.136 704.338 528.776L702.77 528.28ZM708.064 531V519.416H706.208V531H708.064ZM711.754 526.248C711.818 525.416 712.49 524.52 713.658 524.52C714.938 524.52 715.546 525.336 715.578 526.248H711.754ZM715.786 528.28C715.53 529.048 714.954 529.64 713.834 529.64C712.682 529.64 711.754 528.792 711.706 527.608H717.402C717.418 527.576 717.45 527.32 717.45 527.016C717.45 524.552 716.042 522.968 713.642 522.968C711.674 522.968 709.85 524.6 709.85 527.064C709.85 529.704 711.722 531.24 713.834 531.24C715.706 531.24 716.938 530.136 717.354 528.776L715.786 528.28ZM720.471 527.08C720.471 525.592 721.367 524.648 722.583 524.648C723.799 524.648 724.631 525.576 724.631 527.064C724.631 528.552 723.783 529.56 722.567 529.56C721.303 529.56 720.471 528.568 720.471 527.08ZM726.423 519.416H724.615V524.12C724.375 523.624 723.687 523 722.327 523C720.135 523 718.615 524.84 718.615 527.08C718.615 529.432 720.119 531.192 722.359 531.192C723.463 531.192 724.279 530.648 724.647 529.992C724.647 530.312 724.695 530.824 724.727 531H726.503C726.487 530.872 726.423 530.28 726.423 529.576V519.416Z" fill="black"/>
<path d="M630 500H759V498H630V500ZM761 502V548H763V502H761ZM759 550H630V552H759V550ZM628 548V502H626V548H628ZM630 550C628.895 550 628 549.105 628 548H626C626 550.209 627.791 552 630 552V550ZM761 548C761 549.105 760.105 550 759 550V552C761.209 552 763 550.209 763 548H761ZM759 500C760.105 500 761 500.895 761 502H763C763 499.791 761.209 498 759 498V500ZM630 498C627.791 498 626 499.791 626 502H628C628 500.895 628.895 500 630 500V498Z" fill="#8E8E8E"/>
<path d="M136 327C136 325.343 137.343 324 139 324H277C278.657 324 280 325.343 280 327V373C280 374.657 278.657 376 277 376H139C137.343 376 136 374.657 136 373V327Z" fill="#D2EFFF"/>
<path d="M170.848 353.888C170.944 354.768 171.808 356.24 174.064 356.24C176.048 356.24 177.008 354.928 177.008 353.744C177.008 352.592 176.24 351.696 174.768 351.376L173.584 351.136C173.104 351.04 172.8 350.736 172.8 350.32C172.8 349.84 173.264 349.424 173.92 349.424C174.96 349.424 175.296 350.144 175.36 350.592L176.928 350.144C176.8 349.376 176.096 347.968 173.92 347.968C172.304 347.968 171.056 349.12 171.056 350.48C171.056 351.552 171.776 352.448 173.152 352.752L174.304 353.008C174.928 353.136 175.216 353.456 175.216 353.872C175.216 354.352 174.816 354.768 174.048 354.768C173.056 354.768 172.528 354.144 172.464 353.44L170.848 353.888ZM182.194 349.68C183.378 349.68 183.906 350.448 184.082 351.136L185.746 350.528C185.426 349.28 184.274 347.968 182.178 347.968C179.938 347.968 178.194 349.696 178.194 352.096C178.194 354.464 179.938 356.24 182.226 356.24C184.274 356.24 185.442 354.912 185.81 353.696L184.178 353.104C184.002 353.696 183.442 354.544 182.226 354.544C181.058 354.544 180.05 353.664 180.05 352.096C180.05 350.528 181.058 349.68 182.194 349.68ZM189.314 351.424C189.346 350.432 189.906 349.664 190.93 349.664C192.098 349.664 192.53 350.432 192.53 351.392V356H194.386V351.072C194.386 349.36 193.458 347.984 191.538 347.984C190.722 347.984 189.842 348.272 189.314 348.96V344.416H187.458V356H189.314V351.424ZM197.941 351.248C198.005 350.416 198.677 349.52 199.845 349.52C201.125 349.52 201.733 350.336 201.765 351.248H197.941ZM201.973 353.28C201.717 354.048 201.141 354.64 200.021 354.64C198.869 354.64 197.941 353.792 197.893 352.608H203.589C203.605 352.576 203.637 352.32 203.637 352.016C203.637 349.552 202.229 347.968 199.829 347.968C197.861 347.968 196.037 349.6 196.037 352.064C196.037 354.704 197.909 356.24 200.021 356.24C201.893 356.24 203.125 355.136 203.541 353.776L201.973 353.28ZM206.659 352.08C206.659 350.592 207.555 349.648 208.771 349.648C209.987 349.648 210.819 350.576 210.819 352.064C210.819 353.552 209.971 354.56 208.755 354.56C207.491 354.56 206.659 353.568 206.659 352.08ZM212.611 344.416H210.803V349.12C210.563 348.624 209.875 348 208.515 348C206.323 348 204.803 349.84 204.803 352.08C204.803 354.432 206.307 356.192 208.547 356.192C209.651 356.192 210.467 355.648 210.835 354.992C210.835 355.312 210.883 355.824 210.915 356H212.691C212.675 355.872 212.611 355.28 212.611 354.576V344.416ZM220.061 355.136C220.061 355.456 220.093 355.824 220.125 356H221.901C221.869 355.712 221.821 355.216 221.821 354.576V348.208H219.965V352.816C219.965 353.84 219.405 354.56 218.333 354.56C217.213 354.56 216.765 353.744 216.765 352.784V348.208H214.909V353.12C214.909 354.848 215.997 356.224 217.853 356.224C218.765 356.224 219.677 355.84 220.061 355.136ZM226.079 356V344.416H224.223V356H226.079ZM229.769 351.248C229.833 350.416 230.505 349.52 231.673 349.52C232.953 349.52 233.561 350.336 233.593 351.248H229.769ZM233.801 353.28C233.545 354.048 232.969 354.64 231.849 354.64C230.697 354.64 229.769 353.792 229.721 352.608H235.417C235.433 352.576 235.465 352.32 235.465 352.016C235.465 349.552 234.057 347.968 231.657 347.968C229.689 347.968 227.865 349.6 227.865 352.064C227.865 354.704 229.737 356.24 231.849 356.24C233.721 356.24 234.953 355.136 235.369 353.776L233.801 353.28ZM238.487 352.08C238.487 350.592 239.383 349.648 240.599 349.648C241.815 349.648 242.647 350.576 242.647 352.064C242.647 353.552 241.799 354.56 240.583 354.56C239.319 354.56 238.487 353.568 238.487 352.08ZM244.439 344.416H242.631V349.12C242.391 348.624 241.703 348 240.343 348C238.151 348 236.631 349.84 236.631 352.08C236.631 354.432 238.135 356.192 240.375 356.192C241.479 356.192 242.295 355.648 242.663 354.992C242.663 355.312 242.711 355.824 242.743 356H244.519C244.503 355.872 244.439 355.28 244.439 354.576V344.416Z" fill="black"/>
<path d="M139 325H277V323H139V325ZM279 327V373H281V327H279ZM277 375H139V377H277V375ZM137 373V327H135V373H137ZM139 375C137.895 375 137 374.105 137 373H135C135 375.209 136.791 377 139 377V375ZM279 373C279 374.105 278.105 375 277 375V377C279.209 377 281 375.209 281 373H279ZM277 325C278.105 325 279 325.895 279 327H281C281 324.791 279.209 323 277 323V325ZM139 323C136.791 323 135 324.791 135 327H137C137 325.895 137.895 325 139 325V323Z" fill="#8E8E8E"/>
<path d="M380 249C380 247.343 381.343 246 383 246H503C504.657 246 506 247.343 506 249V295C506 296.657 504.657 298 503 298H383C381.343 298 380 296.657 380 295V249Z" fill="#F2F2F2"/>
<path d="M414.535 275.888C414.631 276.768 415.495 278.24 417.751 278.24C419.735 278.24 420.695 276.928 420.695 275.744C420.695 274.592 419.927 273.696 418.455 273.376L417.271 273.136C416.791 273.04 416.487 272.736 416.487 272.32C416.487 271.84 416.951 271.424 417.607 271.424C418.647 271.424 418.983 272.144 419.047 272.592L420.615 272.144C420.487 271.376 419.783 269.968 417.607 269.968C415.991 269.968 414.743 271.12 414.743 272.48C414.743 273.552 415.463 274.448 416.839 274.752L417.991 275.008C418.615 275.136 418.903 275.456 418.903 275.872C418.903 276.352 418.503 276.768 417.735 276.768C416.743 276.768 416.215 276.144 416.151 275.44L414.535 275.888ZM429.832 270.208H427.368L424.376 273.36V266.416H422.536V278H424.376V275.824L425.336 274.816L427.624 278H429.896L426.632 273.504L429.832 270.208ZM433.079 278V270.208H431.239V278H433.079ZM430.951 267.472C430.951 268.144 431.495 268.672 432.151 268.672C432.823 268.672 433.367 268.144 433.367 267.472C433.367 266.8 432.823 266.256 432.151 266.256C431.495 266.256 430.951 266.8 430.951 267.472ZM437.313 281.04V277.12C437.713 277.712 438.561 278.192 439.681 278.192C441.921 278.192 443.345 276.432 443.345 274.096C443.345 271.792 442.049 270.032 439.745 270.032C438.545 270.032 437.649 270.592 437.265 271.264V270.208H435.473V281.04H437.313ZM441.489 274.096C441.489 275.584 440.625 276.544 439.393 276.544C438.177 276.544 437.297 275.584 437.297 274.096C437.297 272.64 438.177 271.68 439.393 271.68C440.641 271.68 441.489 272.64 441.489 274.096ZM446.97 281.04V277.12C447.37 277.712 448.218 278.192 449.338 278.192C451.578 278.192 453.002 276.432 453.002 274.096C453.002 271.792 451.706 270.032 449.402 270.032C448.202 270.032 447.306 270.592 446.922 271.264V270.208H445.13V281.04H446.97ZM451.146 274.096C451.146 275.584 450.282 276.544 449.05 276.544C447.834 276.544 446.954 275.584 446.954 274.096C446.954 272.64 447.834 271.68 449.05 271.68C450.298 271.68 451.146 272.64 451.146 274.096ZM456.082 273.248C456.146 272.416 456.818 271.52 457.986 271.52C459.266 271.52 459.874 272.336 459.906 273.248H456.082ZM460.114 275.28C459.858 276.048 459.282 276.64 458.162 276.64C457.01 276.64 456.082 275.792 456.034 274.608H461.73C461.746 274.576 461.778 274.32 461.778 274.016C461.778 271.552 460.37 269.968 457.97 269.968C456.002 269.968 454.178 271.6 454.178 274.064C454.178 276.704 456.05 278.24 458.162 278.24C460.034 278.24 461.266 277.136 461.682 275.776L460.114 275.28ZM464.8 274.08C464.8 272.592 465.696 271.648 466.912 271.648C468.128 271.648 468.96 272.576 468.96 274.064C468.96 275.552 468.112 276.56 466.896 276.56C465.632 276.56 464.8 275.568 464.8 274.08ZM470.752 266.416H468.944V271.12C468.704 270.624 468.016 270 466.656 270C464.464 270 462.944 271.84 462.944 274.08C462.944 276.432 464.448 278.192 466.688 278.192C467.792 278.192 468.608 277.648 468.976 276.992C468.976 277.312 469.024 277.824 469.056 278H470.832C470.816 277.872 470.752 277.28 470.752 276.576V266.416Z" fill="black"/>
<path d="M383 247H503V245H383V247ZM505 249V295H507V249H505ZM503 297H383V299H503V297ZM381 295V249H379V295H381ZM383 297C381.895 297 381 296.105 381 295H379C379 297.209 380.791 299 383 299V297ZM505 295C505 296.105 504.105 297 503 297V299C505.209 299 507 297.209 507 295H505ZM503 247C504.105 247 505 247.895 505 249H507C507 246.791 505.209 245 503 245V247ZM383 245C380.791 245 379 246.791 379 249H381C381 247.895 381.895 247 383 247V245Z" fill="#8E8E8E"/>
<path d="M380 167C380 165.343 381.343 164 383 164H503C504.657 164 506 165.343 506 167V213C506 214.657 504.657 216 503 216H383C381.343 216 380 214.657 380 213V167Z" fill="#F2F2F2"/>
<path d="M417.165 191.504C417.165 190.48 417.725 189.664 418.781 189.664C419.949 189.664 420.381 190.432 420.381 191.392V196H422.237V191.072C422.237 189.36 421.325 187.984 419.421 187.984C418.557 187.984 417.629 188.352 417.117 189.248V188.208H415.309V196H417.165V191.504ZM427.921 194.576C426.785 194.576 425.745 193.712 425.745 192.096C425.745 190.48 426.785 189.648 427.921 189.648C429.073 189.648 430.097 190.48 430.097 192.096C430.097 193.728 429.073 194.576 427.921 194.576ZM427.921 187.968C425.601 187.968 423.889 189.712 423.889 192.096C423.889 194.496 425.601 196.24 427.921 196.24C430.257 196.24 431.969 194.496 431.969 192.096C431.969 189.712 430.257 187.968 427.921 187.968ZM436.068 185.824H434.388V186.992C434.388 187.68 434.02 188.208 433.188 188.208H432.788V189.856H434.228V193.776C434.228 195.232 435.124 196.096 436.564 196.096C437.236 196.096 437.588 195.968 437.7 195.92V194.384C437.62 194.4 437.316 194.448 437.06 194.448C436.372 194.448 436.068 194.16 436.068 193.472V189.856H437.684V188.208H436.068V185.824ZM447.18 197.536V196H439.004V197.536H447.18ZM453.104 188.16C453.024 188.144 452.832 188.112 452.608 188.112C451.584 188.112 450.72 188.608 450.352 189.456V188.208H448.544V196H450.4V192.288C450.4 190.832 451.056 190 452.496 190C452.688 190 452.896 190.016 453.104 190.048V188.16ZM459.741 195.136C459.741 195.456 459.773 195.824 459.805 196H461.581C461.549 195.712 461.501 195.216 461.501 194.576V188.208H459.645V192.816C459.645 193.84 459.085 194.56 458.013 194.56C456.893 194.56 456.445 193.744 456.445 192.784V188.208H454.589V193.12C454.589 194.848 455.677 196.224 457.533 196.224C458.445 196.224 459.357 195.84 459.741 195.136ZM465.759 191.504C465.759 190.48 466.319 189.664 467.375 189.664C468.543 189.664 468.975 190.432 468.975 191.392V196H470.831V191.072C470.831 189.36 469.919 187.984 468.015 187.984C467.151 187.984 466.223 188.352 465.711 189.248V188.208H463.903V196H465.759V191.504Z" fill="black"/>
<path d="M383 165H503V163H383V165ZM505 167V213H507V167H505ZM503 215H383V217H503V215ZM381 213V167H379V213H381ZM383 215C381.895 215 381 214.105 381 213H379C379 215.209 380.791 217 383 217V215ZM505 213C505 214.105 504.105 215 503 215V217C505.209 217 507 215.209 507 213H505ZM503 165C504.105 165 505 165.895 505 167H507C507 164.791 505.209 163 503 163V165ZM383 163C380.791 163 379 164.791 379 167H381C381 165.895 381.895 165 383 165V163Z" fill="#8E8E8E"/>
<path d="M380 331C380 329.343 381.343 328 383 328H502C503.657 328 505 329.343 505 331V377C505 378.657 503.657 380 502 380H383C381.343 380 380 378.657 380 377V331Z" fill="#D2EFFF"/>
<path d="M419.971 352.16C419.891 352.144 419.699 352.112 419.475 352.112C418.451 352.112 417.587 352.608 417.219 353.456V352.208H415.411V360H417.267V356.288C417.267 354.832 417.923 354 419.363 354C419.555 354 419.763 354.016 419.971 354.048V352.16ZM426.608 359.136C426.608 359.456 426.64 359.824 426.672 360H428.448C428.416 359.712 428.368 359.216 428.368 358.576V352.208H426.512V356.816C426.512 357.84 425.952 358.56 424.88 358.56C423.76 358.56 423.312 357.744 423.312 356.784V352.208H421.456V357.12C421.456 358.848 422.544 360.224 424.4 360.224C425.312 360.224 426.224 359.84 426.608 359.136ZM432.626 355.504C432.626 354.48 433.186 353.664 434.242 353.664C435.41 353.664 435.842 354.432 435.842 355.392V360H437.698V355.072C437.698 353.36 436.786 351.984 434.882 351.984C434.018 351.984 433.09 352.352 432.578 353.248V352.208H430.77V360H432.626V355.504ZM441.814 355.504C441.814 354.48 442.374 353.664 443.43 353.664C444.598 353.664 445.03 354.432 445.03 355.392V360H446.886V355.072C446.886 353.36 445.974 351.984 444.07 351.984C443.206 351.984 442.278 352.352 441.766 353.248V352.208H439.958V360H441.814V355.504ZM450.985 360V352.208H449.145V360H450.985ZM448.857 349.472C448.857 350.144 449.401 350.672 450.057 350.672C450.729 350.672 451.273 350.144 451.273 349.472C451.273 348.8 450.729 348.256 450.057 348.256C449.401 348.256 448.857 348.8 448.857 349.472ZM455.236 355.504C455.236 354.48 455.796 353.664 456.852 353.664C458.02 353.664 458.452 354.432 458.452 355.392V360H460.308V355.072C460.308 353.36 459.396 351.984 457.492 351.984C456.628 351.984 455.7 352.352 455.188 353.248V352.208H453.38V360H455.236V355.504ZM462.007 360.432C462.215 362 463.655 363.28 465.719 363.28C468.647 363.28 469.719 361.344 469.719 359.264V352.208H467.927V353.2C467.591 352.56 466.839 352.064 465.623 352.064C463.479 352.064 462.023 353.776 462.023 355.856C462.023 358.048 463.543 359.648 465.623 359.648C466.759 359.648 467.543 359.12 467.879 358.512V359.328C467.879 360.912 467.143 361.664 465.671 361.664C464.599 361.664 463.847 360.944 463.719 359.984L462.007 360.432ZM465.927 358.064C464.711 358.064 463.895 357.216 463.895 355.856C463.895 354.528 464.743 353.664 465.927 353.664C467.079 353.664 467.927 354.528 467.927 355.856C467.927 357.2 467.111 358.064 465.927 358.064Z" fill="black"/>
<path d="M383 329H502V327H383V329ZM504 331V377H506V331H504ZM502 379H383V381H502V379ZM381 377V331H379V377H381ZM383 379C381.895 379 381 378.105 381 377H379C379 379.209 380.791 381 383 381V379ZM504 377C504 378.105 503.105 379 502 379V381C504.209 381 506 379.209 506 377H504ZM502 329C503.105 329 504 329.895 504 331H506C506 328.791 504.209 327 502 327V329ZM383 327C380.791 327 379 328.791 379 331H381C381 329.895 381.895 329 383 329V327Z" fill="#8E8E8E"/>
<path d="M587 429C587 427.343 588.343 426 590 426H723C724.657 426 726 427.343 726 429V475C726 476.657 724.657 478 723 478H590C588.343 478 587 476.657 587 475V429Z" fill="#F2F2F2"/>
<path d="M625.717 451.68C626.901 451.68 627.429 452.448 627.605 453.136L629.269 452.528C628.949 451.28 627.797 449.968 625.701 449.968C623.461 449.968 621.717 451.696 621.717 454.096C621.717 456.464 623.461 458.24 625.749 458.24C627.797 458.24 628.965 456.912 629.333 455.696L627.701 455.104C627.525 455.696 626.965 456.544 625.749 456.544C624.581 456.544 623.573 455.664 623.573 454.096C623.573 452.528 624.581 451.68 625.717 451.68ZM630.454 455.888C630.454 457.12 631.462 458.24 633.094 458.24C634.358 458.24 635.126 457.6 635.494 457.008C635.494 457.632 635.558 457.952 635.574 458H637.302C637.286 457.92 637.206 457.456 637.206 456.752V452.88C637.206 451.328 636.294 449.968 633.894 449.968C631.974 449.968 630.758 451.168 630.614 452.512L632.31 452.896C632.39 452.112 632.934 451.488 633.91 451.488C634.934 451.488 635.382 452.016 635.382 452.672C635.382 452.944 635.254 453.168 634.806 453.232L632.806 453.536C631.478 453.728 630.454 454.496 630.454 455.888ZM633.446 456.784C632.71 456.784 632.31 456.304 632.31 455.776C632.31 455.136 632.774 454.816 633.35 454.72L635.382 454.416V454.768C635.382 456.288 634.486 456.784 633.446 456.784ZM641.306 453.504C641.306 452.48 641.866 451.664 642.922 451.664C644.09 451.664 644.522 452.432 644.522 453.392V458H646.378V453.072C646.378 451.36 645.466 449.984 643.562 449.984C642.698 449.984 641.77 450.352 641.258 451.248V450.208H639.45V458H641.306V453.504ZM652.03 451.68C653.214 451.68 653.742 452.448 653.918 453.136L655.582 452.528C655.262 451.28 654.11 449.968 652.014 449.968C649.774 449.968 648.03 451.696 648.03 454.096C648.03 456.464 649.774 458.24 652.062 458.24C654.11 458.24 655.278 456.912 655.646 455.696L654.014 455.104C653.838 455.696 653.278 456.544 652.062 456.544C650.894 456.544 649.886 455.664 649.886 454.096C649.886 452.528 650.894 451.68 652.03 451.68ZM658.512 453.248C658.576 452.416 659.248 451.52 660.416 451.52C661.696 451.52 662.304 452.336 662.336 453.248H658.512ZM662.544 455.28C662.288 456.048 661.712 456.64 660.592 456.64C659.44 456.64 658.512 455.792 658.464 454.608H664.16C664.176 454.576 664.208 454.32 664.208 454.016C664.208 451.552 662.8 449.968 660.4 449.968C658.432 449.968 656.608 451.6 656.608 454.064C656.608 456.704 658.48 458.24 660.592 458.24C662.464 458.24 663.696 457.136 664.112 455.776L662.544 455.28ZM667.837 458V446.416H665.981V458H667.837ZM672.071 458V450.208H670.231V458H672.071ZM669.943 447.472C669.943 448.144 670.487 448.672 671.143 448.672C671.815 448.672 672.359 448.144 672.359 447.472C672.359 446.8 671.815 446.256 671.143 446.256C670.487 446.256 669.943 446.8 669.943 447.472ZM676.322 453.504C676.322 452.48 676.882 451.664 677.938 451.664C679.106 451.664 679.538 452.432 679.538 453.392V458H681.394V453.072C681.394 451.36 680.482 449.984 678.578 449.984C677.714 449.984 676.786 450.352 676.274 451.248V450.208H674.466V458H676.322V453.504ZM683.093 458.432C683.301 460 684.741 461.28 686.805 461.28C689.733 461.28 690.805 459.344 690.805 457.264V450.208H689.013V451.2C688.677 450.56 687.925 450.064 686.709 450.064C684.565 450.064 683.109 451.776 683.109 453.856C683.109 456.048 684.629 457.648 686.709 457.648C687.845 457.648 688.629 457.12 688.965 456.512V457.328C688.965 458.912 688.229 459.664 686.757 459.664C685.685 459.664 684.933 458.944 684.805 457.984L683.093 458.432ZM687.013 456.064C685.797 456.064 684.981 455.216 684.981 453.856C684.981 452.528 685.829 451.664 687.013 451.664C688.165 451.664 689.013 452.528 689.013 453.856C689.013 455.2 688.197 456.064 687.013 456.064Z" fill="black"/>
<path d="M590 427H723V425H590V427ZM725 429V475H727V429H725ZM723 477H590V479H723V477ZM588 475V429H586V475H588ZM590 477C588.895 477 588 476.105 588 475H586C586 477.209 587.791 479 590 479V477ZM725 475C725 476.105 724.105 477 723 477V479C725.209 479 727 477.209 727 475H725ZM723 427C724.105 427 725 427.895 725 429H727C727 426.791 725.209 425 723 425V427ZM590 425C587.791 425 586 426.791 586 429H588C588 427.895 588.895 427 590 427V425Z" fill="#8E8E8E"/>
<path d="M732 298C732 296.343 733.343 295 735 295H849C850.657 295 852 296.343 852 298V344C852 345.657 850.657 347 849 347H735C733.343 347 732 345.657 732 344V298Z" fill="#D2EFFF"/>
<path d="M769.47 330.04V326.12C769.87 326.712 770.718 327.192 771.838 327.192C774.078 327.192 775.502 325.432 775.502 323.096C775.502 320.792 774.206 319.032 771.902 319.032C770.702 319.032 769.806 319.592 769.422 320.264V319.208H767.63V330.04H769.47ZM773.646 323.096C773.646 324.584 772.782 325.544 771.55 325.544C770.334 325.544 769.454 324.584 769.454 323.096C769.454 321.64 770.334 320.68 771.55 320.68C772.798 320.68 773.646 321.64 773.646 323.096ZM776.806 324.888C776.806 326.12 777.814 327.24 779.446 327.24C780.71 327.24 781.478 326.6 781.846 326.008C781.846 326.632 781.91 326.952 781.926 327H783.654C783.638 326.92 783.558 326.456 783.558 325.752V321.88C783.558 320.328 782.646 318.968 780.246 318.968C778.326 318.968 777.11 320.168 776.966 321.512L778.662 321.896C778.742 321.112 779.286 320.488 780.262 320.488C781.286 320.488 781.734 321.016 781.734 321.672C781.734 321.944 781.606 322.168 781.158 322.232L779.158 322.536C777.83 322.728 776.806 323.496 776.806 324.888ZM779.798 325.784C779.062 325.784 778.662 325.304 778.662 324.776C778.662 324.136 779.126 323.816 779.702 323.72L781.734 323.416V323.768C781.734 325.288 780.838 325.784 779.798 325.784ZM785.114 324.888C785.21 325.768 786.074 327.24 788.33 327.24C790.314 327.24 791.274 325.928 791.274 324.744C791.274 323.592 790.506 322.696 789.034 322.376L787.85 322.136C787.37 322.04 787.066 321.736 787.066 321.32C787.066 320.84 787.53 320.424 788.186 320.424C789.226 320.424 789.562 321.144 789.626 321.592L791.194 321.144C791.066 320.376 790.362 318.968 788.186 318.968C786.57 318.968 785.322 320.12 785.322 321.48C785.322 322.552 786.042 323.448 787.418 323.752L788.57 324.008C789.194 324.136 789.482 324.456 789.482 324.872C789.482 325.352 789.082 325.768 788.314 325.768C787.322 325.768 786.794 325.144 786.73 324.44L785.114 324.888ZM792.426 324.888C792.522 325.768 793.386 327.24 795.642 327.24C797.626 327.24 798.586 325.928 798.586 324.744C798.586 323.592 797.818 322.696 796.346 322.376L795.162 322.136C794.682 322.04 794.378 321.736 794.378 321.32C794.378 320.84 794.842 320.424 795.498 320.424C796.538 320.424 796.874 321.144 796.938 321.592L798.506 321.144C798.378 320.376 797.674 318.968 795.498 318.968C793.882 318.968 792.634 320.12 792.634 321.48C792.634 322.552 793.354 323.448 794.73 323.752L795.882 324.008C796.506 324.136 796.794 324.456 796.794 324.872C796.794 325.352 796.394 325.768 795.626 325.768C794.634 325.768 794.106 325.144 794.042 324.44L792.426 324.888ZM801.676 322.248C801.74 321.416 802.412 320.52 803.58 320.52C804.86 320.52 805.468 321.336 805.5 322.248H801.676ZM805.708 324.28C805.452 325.048 804.876 325.64 803.756 325.64C802.604 325.64 801.676 324.792 801.628 323.608H807.324C807.34 323.576 807.372 323.32 807.372 323.016C807.372 320.552 805.964 318.968 803.564 318.968C801.596 318.968 799.772 320.6 799.772 323.064C799.772 325.704 801.644 327.24 803.756 327.24C805.628 327.24 806.86 326.136 807.276 324.776L805.708 324.28ZM810.393 323.08C810.393 321.592 811.289 320.648 812.505 320.648C813.721 320.648 814.553 321.576 814.553 323.064C814.553 324.552 813.705 325.56 812.489 325.56C811.225 325.56 810.393 324.568 810.393 323.08ZM816.345 315.416H814.537V320.12C814.297 319.624 813.609 319 812.249 319C810.057 319 808.537 320.84 808.537 323.08C808.537 325.432 810.041 327.192 812.281 327.192C813.385 327.192 814.201 326.648 814.569 325.992C814.569 326.312 814.617 326.824 814.649 327H816.425C816.409 326.872 816.345 326.28 816.345 325.576V315.416Z" fill="black"/>
<path d="M735 296H849V294H735V296ZM851 298V344H853V298H851ZM849 346H735V348H849V346ZM733 344V298H731V344H733ZM735 346C733.895 346 733 345.105 733 344H731C731 346.209 732.791 348 735 348V346ZM851 344C851 345.105 850.105 346 849 346V348C851.209 348 853 346.209 853 344H851ZM849 296C850.105 296 851 296.895 851 298H853C853 295.791 851.209 294 849 294V296ZM735 294C732.791 294 731 295.791 731 298H733C733 296.895 733.895 296 735 296V294Z" fill="#8E8E8E"/>
<path d="M732 360C732 358.343 733.343 357 735 357H838C839.657 357 841 358.343 841 360V406C841 407.657 839.657 409 838 409H735C733.343 409 732 407.657 732 406V360Z" fill="#D2EFFF"/>
<path d="M770.742 379C771.094 379 771.302 379.048 771.414 379.08V377.496C771.286 377.432 770.902 377.336 770.438 377.336C768.838 377.336 767.718 378.392 767.718 380.136V381.208H766.358V382.824H767.718V389H769.59V382.824H771.398V381.208H769.59V380.184C769.59 379.224 770.246 379 770.742 379ZM772.243 386.888C772.243 388.12 773.251 389.24 774.883 389.24C776.147 389.24 776.915 388.6 777.283 388.008C777.283 388.632 777.347 388.952 777.363 389H779.091C779.075 388.92 778.995 388.456 778.995 387.752V383.88C778.995 382.328 778.083 380.968 775.683 380.968C773.763 380.968 772.547 382.168 772.403 383.512L774.099 383.896C774.179 383.112 774.723 382.488 775.699 382.488C776.723 382.488 777.171 383.016 777.171 383.672C777.171 383.944 777.043 384.168 776.595 384.232L774.595 384.536C773.267 384.728 772.243 385.496 772.243 386.888ZM775.235 387.784C774.499 387.784 774.099 387.304 774.099 386.776C774.099 386.136 774.563 385.816 775.139 385.72L777.171 385.416V385.768C777.171 387.288 776.275 387.784 775.235 387.784ZM783.079 389V381.208H781.239V389H783.079ZM780.951 378.472C780.951 379.144 781.495 379.672 782.151 379.672C782.823 379.672 783.367 379.144 783.367 378.472C783.367 377.8 782.823 377.256 782.151 377.256C781.495 377.256 780.951 377.8 780.951 378.472ZM787.329 389V377.416H785.473V389H787.329ZM791.019 384.248C791.083 383.416 791.755 382.52 792.923 382.52C794.203 382.52 794.811 383.336 794.843 384.248H791.019ZM795.051 386.28C794.795 387.048 794.219 387.64 793.099 387.64C791.947 387.64 791.019 386.792 790.971 385.608H796.667C796.683 385.576 796.715 385.32 796.715 385.016C796.715 382.552 795.307 380.968 792.907 380.968C790.939 380.968 789.115 382.6 789.115 385.064C789.115 387.704 790.987 389.24 793.099 389.24C794.971 389.24 796.203 388.136 796.619 386.776L795.051 386.28ZM799.737 385.08C799.737 383.592 800.633 382.648 801.849 382.648C803.065 382.648 803.897 383.576 803.897 385.064C803.897 386.552 803.049 387.56 801.833 387.56C800.569 387.56 799.737 386.568 799.737 385.08ZM805.689 377.416H803.881V382.12C803.641 381.624 802.953 381 801.593 381C799.401 381 797.881 382.84 797.881 385.08C797.881 387.432 799.385 389.192 801.625 389.192C802.729 389.192 803.545 388.648 803.913 387.992C803.913 388.312 803.961 388.824 803.993 389H805.769C805.753 388.872 805.689 388.28 805.689 387.576V377.416Z" fill="black"/>
<path d="M735 358H838V356H735V358ZM840 360V406H842V360H840ZM838 408H735V410H838V408ZM733 406V360H731V406H733ZM735 408C733.895 408 733 407.105 733 406H731C731 408.209 732.791 410 735 410V408ZM840 406C840 407.105 839.105 408 838 408V410C840.209 410 842 408.209 842 406H840ZM838 358C839.105 358 840 358.895 840 360H842C842 357.791 840.209 356 838 356V358ZM735 356C732.791 356 731 357.791 731 360H733C733 358.895 733.895 358 735 358V356Z" fill="#8E8E8E"/>
<path d="M625 511L615 505.226L615 516.774L625 511ZM595 512L616 512L616 510L595 510L595 512Z" fill="#4F4F4F"/>
<path d="M625 525L615 519.226V530.774L625 525ZM444 526H616V524H444V526Z" fill="#4F4F4F"/>
<path d="M585 452L575 446.226L575 457.774L585 452ZM555 453L576 453L576 451L555 451L555 453Z" fill="#4F4F4F"/>
<path d="M378 350L368 344.227L368 355.774L378 350ZM282 351L369 351L369 349L282 349L282 351Z" fill="#4F4F4F"/>
<path d="M380 454L370 448.227L370 459.774L380 454ZM305 455L371 455L371 453L305 453L305 455Z" fill="#4F4F4F"/>
<path d="M625 540L615 534.227L615 545.774L625 540ZM305 541L616 541L616 539L305 539L305 541Z" fill="#4F4F4F"/>
<path d="M134 350L124 344.226L124 355.773L134 350ZM44 351L125 351L125 349L44 349L44 351Z" fill="#4F4F4F"/>
<path d="M378 272L368 266.227L368 277.774L378 272ZM307 273L369 273L369 271L307 271L307 273Z" fill="#4F4F4F"/>
<path d="M378 190L368 184.227L368 195.774L378 190ZM307 191L369 191L369 189L307 189L307 191Z" fill="#4F4F4F"/>
<path d="M444 424L449.774 414L438.226 414L444 424ZM444 382L438.226 392L449.774 392L444 382ZM445 415L445 391L443 391L443 415L445 415Z" fill="#4F4F4F"/>
<path d="M727 321L717 315.227L717 326.774L727 321ZM666 322L718 322L718 320L666 320L666 322Z" fill="#4F4F4F"/>
<path d="M727 383L717 377.227L717 388.774L727 383ZM666 384L718 384L718 382L666 382L666 384Z" fill="#4F4F4F"/>
<line x1="306" y1="540" x2="306" y2="360" stroke="#4F4F4F" stroke-width="2"/>
<line x1="596" y1="511" x2="596" y2="480" stroke="#4F4F4F" stroke-width="2"/>
<line x1="445" y1="526" x2="445" y2="480" stroke="#4F4F4F" stroke-width="2"/>
<line x1="556" y1="452" x2="556" y2="362" stroke="#4F4F4F" stroke-width="2"/>
<line x1="666" y1="353" x2="507" y2="353" stroke="#4F4F4F" stroke-width="2"/>
<line x1="665" y1="384" x2="665" y2="320" stroke="#4F4F4F" stroke-width="2"/>
<path d="M307 340L307 281.478M307 189L307 254.385M307 254.385L307 267.029L307 281.478M307 254.385L307 281.478" stroke="#4F4F4F" stroke-width="2"/>
<line x1="307" y1="361" x2="282" y2="361" stroke="#4F4F4F" stroke-width="2"/>
<line x1="307" y1="339" x2="282" y2="339" stroke="#4F4F4F" stroke-width="2"/>
<line x1="557" y1="363" x2="507" y2="363" stroke="#4F4F4F" stroke-width="2"/>
<path d="M358.733 64.476V90H369.029C373.853 90 377.021 86.94 377.021 82.764C377.021 79.452 374.789 77.328 372.485 76.788C374.573 76.104 376.229 73.944 376.229 71.316C376.229 67.392 373.313 64.476 368.273 64.476H358.733ZM364.277 74.7V69.192H367.301C369.533 69.192 370.649 70.272 370.649 71.928C370.649 73.656 369.353 74.7 367.373 74.7H364.277ZM364.277 85.356V79.38H367.841C370.073 79.38 371.369 80.604 371.369 82.368C371.369 84.204 370.037 85.356 367.841 85.356H364.277ZM392.077 90H397.333C397.297 89.712 397.153 88.416 397.153 86.796V72.108H391.681V82.296C391.681 84.096 390.529 85.356 388.693 85.356C386.749 85.356 385.813 83.988 385.813 82.26V72.108H380.341V83.412C380.341 87.228 382.789 90.396 387.145 90.396C388.945 90.396 390.997 89.748 391.933 88.2C391.933 88.668 392.005 89.676 392.077 90ZM407.439 90V72.108H401.967V90H407.439ZM401.499 66.636C401.499 68.4 402.939 69.84 404.667 69.84C406.467 69.84 407.907 68.4 407.907 66.636C407.907 64.872 406.467 63.432 404.667 63.432C402.939 63.432 401.499 64.872 401.499 66.636ZM417.704 90V63.936H412.232V90H417.704ZM440.137 63.936H434.737V73.512C434.305 72.828 432.973 71.676 429.913 71.676C424.837 71.676 421.237 75.672 421.237 81C421.237 86.508 425.053 90.396 430.093 90.396C432.253 90.396 434.053 89.496 434.881 88.272C434.881 88.992 434.989 89.784 435.025 90H440.281C440.245 89.604 440.137 88.416 440.137 86.796V63.936ZM426.745 81.036C426.745 78.048 428.653 76.608 430.777 76.608C432.901 76.608 434.809 78.048 434.809 81.036C434.809 83.988 432.901 85.5 430.777 85.5C428.653 85.5 426.745 83.988 426.745 81.036ZM471.856 70.74C471.316 67.752 468.904 63.936 462.532 63.936C457.636 63.936 453.388 67.32 453.388 72.144C453.388 75.924 456.016 78.804 460.336 79.632L463.828 80.28C465.52 80.604 466.564 81.54 466.564 82.836C466.564 84.42 465.196 85.5 462.964 85.5C459.472 85.5 457.888 83.448 457.672 81.108L452.452 82.368C452.812 85.968 455.836 90.54 462.892 90.54C468.976 90.54 472.324 86.472 472.324 82.476C472.324 78.84 469.804 75.708 464.944 74.808L461.524 74.16C459.76 73.836 459.004 72.936 459.004 71.712C459.004 70.308 460.372 68.976 462.496 68.976C465.592 68.976 466.564 70.992 466.744 72.18L471.856 70.74ZM482.874 66.888H477.978V69.192C477.978 70.848 477.078 72.108 475.206 72.108H474.306V76.896H477.474V84.564C477.474 88.128 479.742 90.324 483.45 90.324C485.178 90.324 486.078 89.928 486.294 89.82V85.284C485.97 85.356 485.43 85.464 484.854 85.464C483.666 85.464 482.874 85.068 482.874 83.592V76.896H486.366V72.108H482.874V66.888ZM489.305 85.068C489.305 87.912 491.573 90.504 495.497 90.504C497.873 90.504 499.601 89.496 500.537 87.984C500.537 89.208 500.681 89.856 500.717 90H505.649C505.613 89.82 505.433 88.632 505.433 87.228V78.48C505.433 74.808 503.309 71.568 497.513 71.568C492.257 71.568 489.881 74.952 489.665 77.508L494.417 78.48C494.525 77.148 495.569 75.852 497.477 75.852C499.205 75.852 500.105 76.752 500.105 77.796C500.105 78.408 499.781 78.876 498.809 79.02L494.597 79.668C491.645 80.1 489.305 81.9 489.305 85.068ZM496.829 86.544C495.317 86.544 494.705 85.644 494.705 84.708C494.705 83.448 495.569 82.908 496.721 82.728L500.105 82.188V82.98C500.105 85.752 498.449 86.544 496.829 86.544ZM516.413 66.888H511.517V69.192C511.517 70.848 510.617 72.108 508.745 72.108H507.845V76.896H511.013V84.564C511.013 88.128 513.281 90.324 516.989 90.324C518.717 90.324 519.617 89.928 519.833 89.82V85.284C519.509 85.356 518.969 85.464 518.393 85.464C517.205 85.464 516.413 85.068 516.413 83.592V76.896H519.905V72.108H516.413V66.888ZM527.712 78.912C527.82 77.58 528.972 75.888 531.276 75.888C533.868 75.888 534.804 77.544 534.876 78.912H527.712ZM535.272 83.556C534.768 84.96 533.652 85.896 531.672 85.896C529.548 85.896 527.712 84.456 527.604 82.44H540.06C540.096 82.332 540.168 81.504 540.168 80.748C540.168 74.988 536.748 71.568 531.204 71.568C526.56 71.568 522.276 75.24 522.276 81C522.276 87.012 526.668 90.54 531.6 90.54C536.136 90.54 538.98 87.948 539.844 84.852L535.272 83.556ZM542.206 84.924C542.35 86.904 544.15 90.54 549.766 90.54C554.554 90.54 556.894 87.552 556.894 84.492C556.894 81.864 555.094 79.632 551.386 78.876L549.01 78.408C548.218 78.264 547.606 77.832 547.606 77.076C547.606 76.14 548.506 75.528 549.55 75.528C551.206 75.528 551.962 76.536 552.106 77.724L556.642 76.896C556.462 74.808 554.662 71.568 549.478 71.568C545.482 71.568 542.602 74.232 542.602 77.508C542.602 80.028 544.114 82.188 547.93 83.016L549.982 83.484C551.314 83.772 551.746 84.312 551.746 84.96C551.746 85.752 551.062 86.508 549.658 86.508C547.786 86.508 546.922 85.32 546.85 84.096L542.206 84.924Z" fill="black"/>
</svg>
