<svg fill="none" height="615" viewBox="0 0 1161 615" width="1161" xmlns="http://www.w3.org/2000/svg"><path d="m0 0h1161v615h-1161z" fill="#fff"/><path d="m517 453c0-1.657 1.343-3 3-3h122c1.657 0 3 1.343 3 3v44c0 1.657-1.343 3-3 3h-122c-1.657 0-3-1.343-3-3z" fill="#f2f2f2"/><path d="m559.022 480.123c1.887 0 3.07-1.483 3.07-3.862 0-2.393-1.176-3.863-3.07-3.863-1.025 0-1.886.499-2.276 1.313h-.116v-4.081h-1.695v10.37h1.633v-1.183h.117c.423.821 1.292 1.306 2.337 1.306zm-.533-6.282c1.156 0 1.86.916 1.86 2.42s-.698 2.42-1.86 2.42-1.886-.93-1.886-2.42.731-2.42 1.886-2.42zm5.373 6.159h1.696v-10.37h-1.696zm7.069.15c2.235 0 3.595-1.462 3.595-3.889 0-2.42-1.367-3.89-3.595-3.89-2.222 0-3.596 1.477-3.596 3.89 0 2.427 1.353 3.889 3.596 3.889zm0-1.421c-1.183 0-1.86-.903-1.86-2.468 0-1.559.677-2.468 1.86-2.468 1.175 0 1.852.909 1.852 2.468 0 1.565-.67 2.468-1.852 2.468zm11.764-3.692c-.177-1.572-1.34-2.666-3.26-2.666-2.249 0-3.569 1.442-3.569 3.869 0 2.461 1.326 3.91 3.575 3.91 1.894 0 3.07-1.052 3.254-2.618h-1.613c-.178.78-.766 1.197-1.647 1.197-1.156 0-1.853-.917-1.853-2.489 0-1.552.69-2.447 1.853-2.447.929 0 1.49.519 1.647 1.244zm3.5.533h-.116v-5.94h-1.695v10.37h1.695v-2.604l.602-.602 2.399 3.206h2.051l-3.186-4.272 2.981-3.207h-1.969zm8.969-1.852c1.019 0 1.689.711 1.723 1.818h-3.521c.075-1.094.786-1.818 1.798-1.818zm1.736 4.224c-.246.554-.827.862-1.668.862-1.114 0-1.832-.78-1.873-2.024v-.089h5.223v-.546c0-2.359-1.278-3.774-3.411-3.774-2.167 0-3.514 1.511-3.514 3.917s1.326 3.862 3.528 3.862c1.763 0 3.014-.847 3.322-2.208zm6.091 2.181c1.039 0 1.901-.485 2.324-1.306h.117v1.183h1.64v-10.37h-1.695v4.081h-.116c-.397-.82-1.244-1.313-2.27-1.313-1.887 0-3.076 1.491-3.076 3.856 0 2.379 1.183 3.869 3.076 3.869zm.527-6.282c1.162 0 1.879.93 1.879 2.42 0 1.504-.71 2.42-1.879 2.42-1.163 0-1.867-.91-1.867-2.42 0-1.504.711-2.42 1.867-2.42z" fill="#000"/><path d="m520 451h122v-2h-122zm124 2v44h2v-44zm-2 46h-122v2h122zm-124-2v-44h-2v44zm2 2c-1.105 0-2-.895-2-2h-2c0 2.209 1.791 4 4 4zm124-2c0 1.105-.895 2-2 2v2c2.209 0 4-1.791 4-4zm-2-46c1.105 0 2 .895 2 2h2c0-2.209-1.791-4-4-4zm-122-2c-2.209 0-4 1.791-4 4h2c0-1.105.895-2 2-2z" fill="#8e8e8e"/><path d="m993 526c0-1.657 1.343-3 3-3h122c1.66 0 3 1.343 3 3v44c0 1.657-1.34 3-3 3h-122c-1.657 0-3-1.343-3-3z" fill="#f2f2f2"/><path d="m1033.43 548.037c-.18-1.572-1.34-2.666-3.26-2.666-2.25 0-3.57 1.442-3.57 3.869 0 2.461 1.33 3.91 3.58 3.91 1.89 0 3.07-1.052 3.25-2.618h-1.61c-.18.78-.77 1.197-1.65 1.197-1.16 0-1.85-.917-1.85-2.489 0-1.552.69-2.447 1.85-2.447.93 0 1.49.519 1.65 1.244zm4.18 3.753c-.76 0-1.3-.376-1.3-1.005 0-.608.45-.95 1.4-1.012l1.69-.109v.595c0 .868-.77 1.531-1.79 1.531zm-.5 1.333c.97 0 1.8-.424 2.21-1.148h.12v1.025h1.63v-5.106c0-1.586-1.08-2.523-3-2.523-1.78 0-3.01.841-3.15 2.16h1.6c.16-.506.69-.779 1.47-.779.92 0 1.41.41 1.41 1.142v.628l-1.93.117c-1.82.109-2.84.888-2.84 2.242 0 1.367 1.04 2.242 2.48 2.242zm6.01-.123h1.69v-4.354c0-1.101.64-1.798 1.65-1.798 1.03 0 1.51.574 1.51 1.715v4.437h1.7v-4.84c0-1.784-.91-2.789-2.58-2.789-1.12 0-1.87.513-2.22 1.347h-.12v-1.197h-1.63zm15.01-4.963c-.17-1.572-1.34-2.666-3.26-2.666-2.25 0-3.56 1.442-3.56 3.869 0 2.461 1.32 3.91 3.57 3.91 1.89 0 3.07-1.052 3.25-2.618h-1.61c-.18.78-.76 1.197-1.65 1.197-1.15 0-1.85-.917-1.85-2.489 0-1.552.69-2.447 1.85-2.447.93 0 1.49.519 1.65 1.244zm4.76-1.319c1.02 0 1.69.711 1.73 1.818h-3.53c.08-1.094.79-1.818 1.8-1.818zm1.74 4.224c-.25.554-.83.862-1.67.862-1.11 0-1.83-.78-1.87-2.024v-.089h5.22v-.546c0-2.359-1.28-3.774-3.41-3.774-2.17 0-3.51 1.511-3.51 3.917s1.32 3.862 3.52 3.862c1.77 0 3.02-.847 3.33-2.208zm3.45 2.058h1.7v-10.37h-1.7zm6.98-6.282c1.02 0 1.69.711 1.72 1.818h-3.52c.08-1.094.79-1.818 1.8-1.818zm1.74 4.224c-.25.554-.83.862-1.67.862-1.12 0-1.83-.78-1.87-2.024v-.089h5.22v-.546c0-2.359-1.28-3.774-3.41-3.774-2.17 0-3.52 1.511-3.52 3.917s1.33 3.862 3.53 3.862c1.76 0 3.02-.847 3.32-2.208zm6.09 2.181c1.04 0 1.9-.485 2.32-1.306h.12v1.183h1.64v-10.37h-1.7v4.081h-.11c-.4-.82-1.25-1.313-2.27-1.313-1.89 0-3.08 1.491-3.08 3.856 0 2.379 1.18 3.869 3.08 3.869zm.52-6.282c1.17 0 1.88.93 1.88 2.42 0 1.504-.71 2.42-1.88 2.42-1.16 0-1.86-.91-1.86-2.42 0-1.504.71-2.42 1.86-2.42z" fill="#000"/><path d="m996 524h122v-2h-122zm124 2v44h2v-44zm-2 46h-122v2h122zm-124-2v-44h-2v44zm2 2c-1.105 0-2-.895-2-2h-2c0 2.209 1.791 4 4 4zm124-2c0 1.105-.9 2-2 2v2c2.21 0 4-1.791 4-4zm-2-46c1.1 0 2 .895 2 2h2c0-2.209-1.79-4-4-4zm-122-2c-2.209 0-4 1.791-4 4h2c0-1.105.895-2 2-2z" fill="#8e8e8e"/><path d="m280 283c0-1.657 1.343-3 3-3h122c1.657 0 3 1.343 3 3v44c0 1.657-1.343 3-3 3h-122c-1.657 0-3-1.343-3-3z" fill="#d2efff"/><path d="m309.185 304.661c0 1.128.676 1.791 2.112 2.119l1.326.308c.711.157 1.032.424 1.032.848 0 .553-.594.929-1.449.929-.848 0-1.374-.328-1.538-.882h-1.675c.13 1.361 1.306 2.167 3.172 2.167s3.186-.957 3.186-2.392c0-1.101-.663-1.716-2.092-2.037l-1.32-.301c-.751-.171-1.107-.431-1.107-.855 0-.54.581-.909 1.354-.909.793 0 1.292.335 1.415.862h1.592c-.123-1.361-1.237-2.147-3.014-2.147-1.764 0-2.994.937-2.994 2.29zm14.341.376c-.177-1.572-1.339-2.666-3.26-2.666-2.249 0-3.569 1.442-3.569 3.869 0 2.461 1.326 3.91 3.575 3.91 1.894 0 3.07-1.052 3.254-2.618h-1.613c-.178.78-.766 1.197-1.647 1.197-1.156 0-1.853-.917-1.853-2.489 0-1.552.691-2.447 1.853-2.447.929 0 1.49.519 1.647 1.244zm1.689 4.963h1.695v-4.341c0-1.073.622-1.798 1.736-1.798.985 0 1.504.581 1.504 1.716v4.423h1.696v-4.826c0-1.778-.971-2.789-2.571-2.789-1.114 0-1.914.506-2.269 1.346h-.123v-4.101h-1.668zm11.778-6.282c1.019 0 1.689.711 1.723 1.818h-3.521c.076-1.094.786-1.818 1.798-1.818zm1.736 4.224c-.246.554-.827.862-1.667.862-1.115 0-1.833-.78-1.874-2.024v-.089h5.223v-.546c0-2.359-1.278-3.774-3.411-3.774-2.167 0-3.514 1.511-3.514 3.917s1.326 3.862 3.528 3.862c1.763 0 3.014-.847 3.322-2.208zm6.091 2.181c1.039 0 1.901-.485 2.325-1.306h.116v1.183h1.64v-10.37h-1.695v4.081h-.116c-.397-.82-1.244-1.313-2.27-1.313-1.886 0-3.076 1.491-3.076 3.856 0 2.379 1.183 3.869 3.076 3.869zm.527-6.282c1.162 0 1.88.93 1.88 2.42 0 1.504-.711 2.42-1.88 2.42-1.162 0-1.867-.91-1.867-2.42 0-1.504.711-2.42 1.867-2.42zm12.202-1.32h-1.695v4.355c0 1.107-.602 1.784-1.703 1.784-1.011 0-1.483-.56-1.483-1.702v-4.437h-1.695v4.861c0 1.75.957 2.768 2.59 2.768 1.142 0 1.874-.485 2.236-1.339h.116v1.189h1.634zm2.146 7.479h1.696v-10.37h-1.696zm6.98-6.282c1.018 0 1.688.711 1.722 1.818h-3.52c.075-1.094.786-1.818 1.798-1.818zm1.736 4.224c-.246.554-.827.862-1.668.862-1.114 0-1.832-.78-1.873-2.024v-.089h5.223v-.546c0-2.359-1.279-3.774-3.411-3.774-2.167 0-3.514 1.511-3.514 3.917s1.326 3.862 3.527 3.862c1.764 0 3.015-.847 3.323-2.208zm6.091 2.181c1.039 0 1.9-.485 2.324-1.306h.116v1.183h1.641v-10.37h-1.695v4.081h-.117c-.396-.82-1.244-1.313-2.269-1.313-1.887 0-3.076 1.491-3.076 3.856 0 2.379 1.182 3.869 3.076 3.869zm.526-6.282c1.162 0 1.88.93 1.88 2.42 0 1.504-.711 2.42-1.88 2.42-1.162 0-1.866-.91-1.866-2.42 0-1.504.711-2.42 1.866-2.42z" fill="#000"/><path d="m283 281h122v-2h-122zm124 2v44h2v-44zm-2 46h-122v2h122zm-124-2v-44h-2v44zm2 2c-1.105 0-2-.895-2-2h-2c0 2.209 1.791 4 4 4zm124-2c0 1.105-.895 2-2 2v2c2.209 0 4-1.791 4-4zm-2-46c1.105 0 2 .895 2 2h2c0-2.209-1.791-4-4-4zm-122-2c-2.209 0-4 1.791-4 4h2c0-1.105.895-2 2-2z" fill="#8e8e8e"/><path d="m40 283c0-1.657 1.3431-3 3-3h122c1.657 0 3 1.343 3 3v44c0 1.657-1.343 3-3 3h-122c-1.6569 0-3-1.343-3-3z" fill="#d2efff"/><path d="m83.1025 305.037c-.1777-1.572-1.3398-2.666-3.2607-2.666-2.249 0-3.5684 1.442-3.5684 3.869 0 2.461 1.3262 3.91 3.5752 3.91 1.8936 0 3.0694-1.052 3.2539-2.618h-1.6132c-.1778.78-.7657 1.197-1.6475 1.197-1.1553 0-1.8525-.917-1.8525-2.489 0-1.552.6904-2.447 1.8525-2.447.9297 0 1.4902.519 1.6475 1.244zm1.6202 4.963h1.6953v-4.32c0-1.046.7656-1.73 1.8662-1.73.2871 0 .7383.048.8681.096v-1.572c-.1572-.048-.458-.076-.7041-.076-.9638 0-1.7705.547-1.9755 1.286h-.1163v-1.163h-1.6337zm8.7705-6.282c1.0185 0 1.6884.711 1.7226 1.818h-3.5205c.0752-1.094.7861-1.818 1.7979-1.818zm1.7363 4.224c-.2461.554-.8272.862-1.668.862-1.1142 0-1.832-.78-1.873-2.024v-.089h5.2226v-.546c0-2.359-1.2783-3.774-3.4111-3.774-2.167 0-3.5137 1.511-3.5137 3.917s1.3262 3.862 3.5274 3.862c1.7636 0 3.0146-.847 3.3222-2.208zm5.9405.848c-.752 0-1.2921-.376-1.2921-1.005 0-.608.4441-.95 1.3941-1.012l1.689-.109v.595c0 .868-.766 1.531-1.791 1.531zm-.499 1.333c.977 0 1.798-.424 2.215-1.148h.116v1.025h1.634v-5.106c0-1.586-1.08-2.523-3.001-2.523-1.7776 0-3.0149.841-3.1516 2.16h1.5996c.157-.506.69-.779 1.47-.779.916 0 1.408.41 1.408 1.142v.628l-1.928.117c-1.8182.109-2.8367.888-2.8367 2.242 0 1.367 1.0322 2.242 2.4747 2.242zm6.549-9.434v1.88h-1.183v1.354h1.183v4.081c0 1.449.683 2.03 2.399 2.03.328 0 .643-.034.889-.082v-1.326c-.205.02-.335.034-.574.034-.711 0-1.026-.328-1.026-1.066v-3.671h1.6v-1.354h-1.6v-1.88zm5.004 9.311h1.688v-7.479h-1.688zm.84-8.716c.561 0 1.012-.451 1.012-1.018 0-.568-.451-1.026-1.012-1.026-.553 0-1.011.458-1.011 1.026 0 .567.458 1.018 1.011 1.018zm2.954 8.716h1.695v-4.354c0-1.101.636-1.798 1.647-1.798 1.033 0 1.511.574 1.511 1.715v4.437h1.695v-4.84c0-1.784-.909-2.789-2.577-2.789-1.114 0-1.866.513-2.221 1.347h-.117v-1.197h-1.633zm11.771-1.49c-1.183 0-1.852-.903-1.852-2.331 0-1.429.669-2.338 1.852-2.338 1.176 0 1.894.909 1.894 2.338 0 1.428-.711 2.331-1.894 2.331zm0 4.334c2.181 0 3.562-1.087 3.562-2.817v-7.506h-1.634v1.197h-.116c-.411-.814-1.299-1.32-2.318-1.32-1.907 0-3.09 1.491-3.09 3.781 0 2.249 1.176 3.712 3.063 3.712 1.039 0 1.852-.438 2.283-1.238h.116v1.415c0 .937-.676 1.484-1.839 1.484-.929 0-1.531-.328-1.64-.841h-1.702c.136 1.285 1.394 2.133 3.315 2.133z" fill="#000"/><path d="m43 281h122v-2h-122zm124 2v44h2v-44zm-2 46h-122v2h122zm-124-2v-44h-2v44zm2 2c-1.1046 0-2-.895-2-2h-2c0 2.209 1.7909 4 4 4zm124-2c0 1.105-.895 2-2 2v2c2.209 0 4-1.791 4-4zm-2-46c1.105 0 2 .895 2 2h2c0-2.209-1.791-4-4-4zm-122-2c-2.2091 0-4 1.791-4 4h2c0-1.105.8954-2 2-2z" fill="#8e8e8e"/><path d="m517 198c0-1.657 1.343-3 3-3h122c1.657 0 3 1.343 3 3v44c0 1.657-1.343 3-3 3h-122c-1.657 0-3-1.343-3-3z" fill="#f2f2f2"/><path d="m554.593 219.661c0 1.128.677 1.791 2.112 2.119l1.326.308c.711.157 1.032.424 1.032.848 0 .553-.594.929-1.449.929-.847 0-1.374-.328-1.538-.882h-1.675c.13 1.361 1.306 2.167 3.172 2.167s3.186-.957 3.186-2.392c0-1.101-.663-1.716-2.092-2.037l-1.319-.301c-.752-.171-1.108-.431-1.108-.855 0-.54.581-.909 1.354-.909.793 0 1.292.335 1.415.862h1.593c-.123-1.361-1.238-2.147-3.015-2.147-1.764 0-2.994.937-2.994 2.29zm9.761.909h-.116v-5.94h-1.695v10.37h1.695v-2.604l.602-.602 2.399 3.206h2.051l-3.186-4.272 2.981-3.207h-1.969zm6.262 4.43h1.689v-7.479h-1.689zm.841-8.716c.561 0 1.012-.451 1.012-1.018 0-.568-.451-1.026-1.012-1.026-.554 0-1.012.458-1.012 1.026 0 .567.458 1.018 1.012 1.018zm7.027 1.114c-1.025 0-1.893.513-2.324 1.361h-.116v-1.238h-1.634v9.967h1.695v-3.623h.117c.382.793 1.21 1.258 2.283 1.258 1.887 0 3.062-1.477 3.062-3.862 0-2.4-1.189-3.863-3.083-3.863zm-.533 6.283c-1.155 0-1.873-.923-1.88-2.42.007-1.49.732-2.42 1.887-2.42 1.162 0 1.866.909 1.866 2.42 0 1.51-.697 2.42-1.873 2.42zm9.393-6.283c-1.026 0-1.894.513-2.324 1.361h-.117v-1.238h-1.633v9.967h1.695v-3.623h.116c.383.793 1.21 1.258 2.283 1.258 1.887 0 3.063-1.477 3.063-3.862 0-2.4-1.19-3.863-3.083-3.863zm-.533 6.283c-1.156 0-1.873-.923-1.88-2.42.007-1.49.731-2.42 1.886-2.42 1.162 0 1.867.909 1.867 2.42 0 1.51-.698 2.42-1.873 2.42zm8.456-4.963c1.018 0 1.688.711 1.722 1.818h-3.52c.075-1.094.786-1.818 1.798-1.818zm1.736 4.224c-.246.554-.827.862-1.668.862-1.114 0-1.832-.78-1.873-2.024v-.089h5.223v-.546c0-2.359-1.279-3.774-3.412-3.774-2.167 0-3.513 1.511-3.513 3.917s1.326 3.862 3.527 3.862c1.764 0 3.015-.847 3.322-2.208zm6.091 2.181c1.039 0 1.9-.485 2.324-1.306h.116v1.183h1.641v-10.37h-1.696v4.081h-.116c-.396-.82-1.244-1.313-2.269-1.313-1.887 0-3.076 1.491-3.076 3.856 0 2.379 1.182 3.869 3.076 3.869zm.526-6.282c1.162 0 1.88.93 1.88 2.42 0 1.504-.711 2.42-1.88 2.42-1.162 0-1.866-.91-1.866-2.42 0-1.504.711-2.42 1.866-2.42z" fill="#000"/><path d="m520 196h122v-2h-122zm124 2v44h2v-44zm-2 46h-122v2h122zm-124-2v-44h-2v44zm2 2c-1.105 0-2-.895-2-2h-2c0 2.209 1.791 4 4 4zm124-2c0 1.105-.895 2-2 2v2c2.209 0 4-1.791 4-4zm-2-46c1.105 0 2 .895 2 2h2c0-2.209-1.791-4-4-4zm-122-2c-2.209 0-4 1.791-4 4h2c0-1.105.895-2 2-2z" fill="#8e8e8e"/><path d="m517 113c0-1.657 1.343-3 3-3h122c1.657 0 3 1.343 3 3v44c0 1.657-1.343 3-3 3h-122c-1.657 0-3-1.343-3-3z" fill="#f2f2f2"/><path d="m556.056 140h1.695v-4.354c0-1.101.636-1.798 1.647-1.798 1.033 0 1.511.574 1.511 1.715v4.437h1.695v-4.84c0-1.784-.909-2.789-2.577-2.789-1.114 0-1.866.513-2.221 1.347h-.117v-1.197h-1.633zm11.785.15c2.235 0 3.596-1.462 3.596-3.889 0-2.42-1.368-3.89-3.596-3.89-2.222 0-3.596 1.477-3.596 3.89 0 2.427 1.354 3.889 3.596 3.889zm0-1.421c-1.183 0-1.86-.903-1.86-2.468 0-1.559.677-2.468 1.86-2.468 1.176 0 1.852.909 1.852 2.468 0 1.565-.67 2.468-1.852 2.468zm5.845-8.04v1.88h-1.183v1.354h1.183v4.081c0 1.449.683 2.03 2.399 2.03.328 0 .643-.034.889-.082v-1.326c-.205.02-.335.034-.575.034-.711 0-1.025-.328-1.025-1.066v-3.671h1.6v-1.354h-1.6v-1.88zm10.363 11.348v-1.306h-6.453v1.306zm1.005-2.037h1.695v-4.32c0-1.046.766-1.73 1.866-1.73.287 0 .739.048.868.096v-1.572c-.157-.048-.458-.076-.704-.076-.964 0-1.77.547-1.975 1.286h-.116v-1.163h-1.634zm12.332-7.479h-1.696v4.355c0 1.107-.601 1.784-1.702 1.784-1.011 0-1.483-.56-1.483-1.702v-4.437h-1.695v4.861c0 1.75.957 2.768 2.59 2.768 1.142 0 1.873-.485 2.236-1.339h.116v1.189h1.634zm2.078 7.479h1.695v-4.354c0-1.101.636-1.798 1.648-1.798 1.032 0 1.51.574 1.51 1.715v4.437h1.696v-4.84c0-1.784-.909-2.789-2.577-2.789-1.115 0-1.867.513-2.222 1.347h-.116v-1.197h-1.634z" fill="#000"/><path d="m520 111h122v-2h-122zm124 2v44h2v-44zm-2 46h-122v2h122zm-124-2v-44h-2v44zm2 2c-1.105 0-2-.895-2-2h-2c0 2.209 1.791 4 4 4zm124-2c0 1.105-.895 2-2 2v2c2.209 0 4-1.791 4-4zm-2-46c1.105 0 2 .895 2 2h2c0-2.209-1.791-4-4-4zm-122-2c-2.209 0-4 1.791-4 4h2c0-1.105.895-2 2-2z" fill="#8e8e8e"/><path d="m517 283c0-1.657 1.343-3 3-3h122c1.657 0 3 1.343 3 3v44c0 1.657-1.343 3-3 3h-122c-1.657 0-3-1.343-3-3z" fill="#d2efff"/><path d="m555.659 310h1.695v-4.32c0-1.046.766-1.73 1.867-1.73.287 0 .738.048.868.096v-1.572c-.157-.048-.458-.076-.704-.076-.964 0-1.771.547-1.976 1.286h-.116v-1.163h-1.634zm12.332-7.479h-1.695v4.355c0 1.107-.602 1.784-1.702 1.784-1.012 0-1.484-.56-1.484-1.702v-4.437h-1.695v4.861c0 1.75.957 2.768 2.591 2.768 1.141 0 1.873-.485 2.235-1.339h.116v1.189h1.634zm2.078 7.479h1.696v-4.354c0-1.101.635-1.798 1.647-1.798 1.032 0 1.511.574 1.511 1.715v4.437h1.695v-4.84c0-1.784-.909-2.789-2.577-2.789-1.114 0-1.866.513-2.222 1.347h-.116v-1.197h-1.634zm8.559 0h1.695v-4.354c0-1.101.636-1.798 1.648-1.798 1.032 0 1.51.574 1.51 1.715v4.437h1.696v-4.84c0-1.784-.909-2.789-2.577-2.789-1.115 0-1.867.513-2.222 1.347h-.116v-1.197h-1.634zm8.579 0h1.689v-7.479h-1.689zm.841-8.716c.56 0 1.012-.451 1.012-1.018 0-.568-.452-1.026-1.012-1.026-.554 0-1.012.458-1.012 1.026 0 .567.458 1.018 1.012 1.018zm2.953 8.716h1.695v-4.354c0-1.101.636-1.798 1.648-1.798 1.032 0 1.51.574 1.51 1.715v4.437h1.696v-4.84c0-1.784-.909-2.789-2.577-2.789-1.115 0-1.867.513-2.222 1.347h-.116v-1.197h-1.634zm11.771-1.49c-1.182 0-1.852-.903-1.852-2.331 0-1.429.67-2.338 1.852-2.338 1.176 0 1.894.909 1.894 2.338 0 1.428-.711 2.331-1.894 2.331zm0 4.334c2.181 0 3.562-1.087 3.562-2.817v-7.506h-1.634v1.197h-.116c-.41-.814-1.299-1.32-2.317-1.32-1.908 0-3.09 1.491-3.09 3.781 0 2.249 1.176 3.712 3.062 3.712 1.039 0 1.853-.438 2.283-1.238h.117v1.415c0 .937-.677 1.484-1.839 1.484-.93 0-1.531-.328-1.641-.841h-1.702c.137 1.285 1.395 2.133 3.315 2.133z" fill="#000"/><path d="m520 281h122v-2h-122zm124 2v44h2v-44zm-2 46h-122v2h122zm-124-2v-44h-2v44zm2 2c-1.105 0-2-.895-2-2h-2c0 2.209 1.791 4 4 4zm124-2c0 1.105-.895 2-2 2v2c2.209 0 4-1.791 4-4zm-2-46c1.105 0 2 .895 2 2h2c0-2.209-1.791-4-4-4zm-122-2c-2.209 0-4 1.791-4 4h2c0-1.105.895-2 2-2z" fill="#8e8e8e"/><path d="m720 453c0-1.657 1.343-3 3-3h122c1.657 0 3 1.343 3 3v44c0 1.657-1.343 3-3 3h-122c-1.657 0-3-1.343-3-3z" fill="#f2f2f2"/><path d="m758.406 475.037c-.177-1.572-1.34-2.666-3.26-2.666-2.25 0-3.569 1.442-3.569 3.869 0 2.461 1.326 3.91 3.575 3.91 1.894 0 3.07-1.052 3.254-2.618h-1.613c-.178.78-.766 1.197-1.647 1.197-1.156 0-1.853-.917-1.853-2.489 0-1.552.69-2.447 1.853-2.447.929 0 1.49.519 1.647 1.244zm4.177 3.753c-.752 0-1.292-.376-1.292-1.005 0-.608.444-.95 1.395-1.012l1.688-.109v.595c0 .868-.766 1.531-1.791 1.531zm-.499 1.333c.978 0 1.798-.424 2.215-1.148h.116v1.025h1.634v-5.106c0-1.586-1.08-2.523-3.001-2.523-1.777 0-3.015.841-3.152 2.16h1.6c.157-.506.691-.779 1.47-.779.916 0 1.408.41 1.408 1.142v.628l-1.928.117c-1.818.109-2.837.888-2.837 2.242 0 1.367 1.033 2.242 2.475 2.242zm6.009-.123h1.695v-4.354c0-1.101.636-1.798 1.648-1.798 1.032 0 1.51.574 1.51 1.715v4.437h1.696v-4.84c0-1.784-.91-2.789-2.578-2.789-1.114 0-1.866.513-2.221 1.347h-.116v-1.197h-1.634zm15.018-4.963c-.177-1.572-1.34-2.666-3.26-2.666-2.249 0-3.569 1.442-3.569 3.869 0 2.461 1.326 3.91 3.575 3.91 1.894 0 3.07-1.052 3.254-2.618h-1.613c-.178.78-.766 1.197-1.647 1.197-1.156 0-1.853-.917-1.853-2.489 0-1.552.69-2.447 1.853-2.447.929 0 1.49.519 1.647 1.244zm4.758-1.319c1.019 0 1.689.711 1.723 1.818h-3.521c.075-1.094.786-1.818 1.798-1.818zm1.736 4.224c-.246.554-.827.862-1.667.862-1.115 0-1.833-.78-1.874-2.024v-.089h5.223v-.546c0-2.359-1.278-3.774-3.411-3.774-2.167 0-3.514 1.511-3.514 3.917s1.326 3.862 3.528 3.862c1.763 0 3.014-.847 3.322-2.208zm3.453 2.058h1.695v-10.37h-1.695zm3.862 0h1.688v-7.479h-1.688zm.841-8.716c.56 0 1.011-.451 1.011-1.018 0-.568-.451-1.026-1.011-1.026-.554 0-1.012.458-1.012 1.026 0 .567.458 1.018 1.012 1.018zm2.953 8.716h1.695v-4.354c0-1.101.636-1.798 1.648-1.798 1.032 0 1.51.574 1.51 1.715v4.437h1.696v-4.84c0-1.784-.909-2.789-2.577-2.789-1.115 0-1.867.513-2.222 1.347h-.116v-1.197h-1.634zm11.771-1.49c-1.182 0-1.852-.903-1.852-2.331 0-1.429.67-2.338 1.852-2.338 1.176 0 1.894.909 1.894 2.338 0 1.428-.711 2.331-1.894 2.331zm0 4.334c2.181 0 3.562-1.087 3.562-2.817v-7.506h-1.634v1.197h-.116c-.41-.814-1.299-1.32-2.318-1.32-1.907 0-3.089 1.491-3.089 3.781 0 2.249 1.175 3.712 3.062 3.712 1.039 0 1.853-.438 2.283-1.238h.117v1.415c0 .937-.677 1.484-1.839 1.484-.93 0-1.532-.328-1.641-.841h-1.702c.137 1.285 1.394 2.133 3.315 2.133z" fill="#000"/><path d="m723 451h122v-2h-122zm124 2v44h2v-44zm-2 46h-122v2h122zm-124-2v-44h-2v44zm2 2c-1.105 0-2-.895-2-2h-2c0 2.209 1.791 4 4 4zm124-2c0 1.105-.895 2-2 2v2c2.209 0 4-1.791 4-4zm-2-46c1.105 0 2 .895 2 2h2c0-2.209-1.791-4-4-4zm-122-2c-2.209 0-4 1.791-4 4h2c0-1.105.895-2 2-2z" fill="#8e8e8e"/><path d="m993 283c0-1.657 1.343-3 3-3h122c1.66 0 3 1.343 3 3v44c0 1.657-1.34 3-3 3h-122c-1.657 0-3-1.343-3-3z" fill="#d2efff"/><path d="m1037.42 302.398c-1.03 0-1.9.513-2.33 1.361h-.12v-1.238h-1.63v9.967h1.7v-3.623h.11c.39.793 1.21 1.258 2.29 1.258 1.88 0 3.06-1.477 3.06-3.862 0-2.4-1.19-3.863-3.08-3.863zm-.54 6.283c-1.15 0-1.87-.923-1.88-2.42.01-1.49.73-2.42 1.89-2.42s1.86.909 1.86 2.42c0 1.51-.69 2.42-1.87 2.42zm7.88.109c-.76 0-1.3-.376-1.3-1.005 0-.608.45-.95 1.4-1.012l1.69-.109v.595c0 .868-.77 1.531-1.79 1.531zm-.5 1.333c.98 0 1.8-.424 2.21-1.148h.12v1.025h1.63v-5.106c0-1.586-1.08-2.523-3-2.523-1.78 0-3.01.841-3.15 2.16h1.6c.16-.506.69-.779 1.47-.779.92 0 1.41.41 1.41 1.142v.628l-1.93.117c-1.82.109-2.84.888-2.84 2.242 0 1.367 1.04 2.242 2.48 2.242zm5.84-5.462c0 1.128.67 1.791 2.11 2.119l1.32.308c.72.157 1.04.424 1.04.848 0 .553-.6.929-1.45.929s-1.38-.328-1.54-.882h-1.68c.13 1.361 1.31 2.167 3.18 2.167 1.86 0 3.18-.957 3.18-2.392 0-1.101-.66-1.716-2.09-2.037l-1.32-.301c-.75-.171-1.11-.431-1.11-.855 0-.54.58-.909 1.36-.909.79 0 1.29.335 1.41.862h1.59c-.12-1.361-1.23-2.147-3.01-2.147-1.76 0-2.99.937-2.99 2.29zm7.57 0c0 1.128.68 1.791 2.11 2.119l1.33.308c.71.157 1.03.424 1.03.848 0 .553-.59.929-1.45.929-.85 0-1.37-.328-1.54-.882h-1.67c.13 1.361 1.3 2.167 3.17 2.167s3.19-.957 3.19-2.392c0-1.101-.67-1.716-2.1-2.037l-1.32-.301c-.75-.171-1.1-.431-1.1-.855 0-.54.58-.909 1.35-.909.79 0 1.29.335 1.42.862h1.59c-.12-1.361-1.24-2.147-3.02-2.147-1.76 0-2.99.937-2.99 2.29zm11.02-.943c1.02 0 1.69.711 1.72 1.818h-3.52c.08-1.094.79-1.818 1.8-1.818zm1.74 4.224c-.25.554-.83.862-1.67.862-1.12 0-1.83-.78-1.88-2.024v-.089h5.23v-.546c0-2.359-1.28-3.774-3.41-3.774-2.17 0-3.52 1.511-3.52 3.917s1.33 3.862 3.53 3.862c1.76 0 3.01-.847 3.32-2.208zm6.09 2.181c1.04 0 1.9-.485 2.32-1.306h.12v1.183h1.64v-10.37h-1.7v4.081h-.11c-.4-.82-1.25-1.313-2.27-1.313-1.89 0-3.08 1.491-3.08 3.856 0 2.379 1.18 3.869 3.08 3.869zm.52-6.282c1.17 0 1.88.93 1.88 2.42 0 1.504-.71 2.42-1.88 2.42-1.16 0-1.86-.91-1.86-2.42 0-1.504.71-2.42 1.86-2.42z" fill="#000"/><path d="m996 281h122v-2h-122zm124 2v44h2v-44zm-2 46h-122v2h122zm-124-2v-44h-2v44zm2 2c-1.105 0-2-.895-2-2h-2c0 2.209 1.791 4 4 4zm124-2c0 1.105-.9 2-2 2v2c2.21 0 4-1.791 4-4zm-2-46c1.1 0 2 .895 2 2h2c0-2.209-1.79-4-4-4zm-122-2c-2.209 0-4 1.791-4 4h2c0-1.105.895-2 2-2z" fill="#8e8e8e"/><path d="m993 368c0-1.657 1.343-3 3-3h122c1.66 0 3 1.343 3 3v44c0 1.657-1.34 3-3 3h-122c-1.657 0-3-1.343-3-3z" fill="#d2efff"/><path d="m1039.47 395h1.69v-6.077h1.61v-1.354h-1.63v-.676c0-.705.32-1.053 1.11-1.053.24 0 .45.014.59.034v-1.244c-.28-.048-.59-.075-.95-.075-1.66 0-2.42.738-2.42 2.228v.786h-1.22v1.354h1.22zm7.26-1.21c-.75 0-1.29-.376-1.29-1.005 0-.608.44-.95 1.39-1.012l1.69-.109v.595c0 .868-.76 1.531-1.79 1.531zm-.5 1.333c.98 0 1.8-.424 2.22-1.148h.11v1.025h1.64v-5.106c0-1.586-1.08-2.523-3-2.523-1.78 0-3.02.841-3.15 2.16h1.6c.15-.506.69-.779 1.47-.779.91 0 1.4.41 1.4 1.142v.628l-1.92.117c-1.82.109-2.84.888-2.84 2.242 0 1.367 1.03 2.242 2.47 2.242zm6.03-.123h1.69v-7.479h-1.69zm.84-8.716c.56 0 1.02-.451 1.02-1.018 0-.568-.46-1.026-1.02-1.026-.55 0-1.01.458-1.01 1.026 0 .567.46 1.018 1.01 1.018zm3.02 8.716h1.7v-10.37h-1.7zm6.98-6.282c1.02 0 1.69.711 1.73 1.818h-3.52c.07-1.094.78-1.818 1.79-1.818zm1.74 4.224c-.25.554-.83.862-1.67.862-1.11 0-1.83-.78-1.87-2.024v-.089h5.22v-.546c0-2.359-1.28-3.774-3.41-3.774-2.17 0-3.51 1.511-3.51 3.917s1.32 3.862 3.52 3.862c1.77 0 3.02-.847 3.33-2.208zm6.09 2.181c1.04 0 1.9-.485 2.33-1.306h.11v1.183h1.64v-10.37h-1.69v4.081h-.12c-.4-.82-1.24-1.313-2.27-1.313-1.89 0-3.07 1.491-3.07 3.856 0 2.379 1.18 3.869 3.07 3.869zm.53-6.282c1.16 0 1.88.93 1.88 2.42 0 1.504-.71 2.42-1.88 2.42-1.16 0-1.87-.91-1.87-2.42 0-1.504.71-2.42 1.87-2.42z" fill="#000"/><path d="m996 366h122v-2h-122zm124 2v44h2v-44zm-2 46h-122v2h122zm-124-2v-44h-2v44zm2 2c-1.105 0-2-.895-2-2h-2c0 2.209 1.791 4 4 4zm124-2c0 1.105-.9 2-2 2v2c2.21 0 4-1.791 4-4zm-2-46c1.1 0 2 .895 2 2h2c0-2.209-1.79-4-4-4zm-122-2c-2.209 0-4 1.791-4 4h2c0-1.105.895-2 2-2z" fill="#8e8e8e"/><path d="m720 368c0-1.657 1.343-3 3-3h122c1.657 0 3 1.343 3 3v44c0 1.657-1.343 3-3 3h-122c-1.657 0-3-1.343-3-3z" fill="#f2f2f2"/><path d="m764.449 395h1.689v-6.077h1.606v-1.354h-1.627v-.676c0-.705.315-1.053 1.114-1.053.24 0 .445.014.581.034v-1.244c-.273-.048-.581-.075-.943-.075-1.661 0-2.42.738-2.42 2.228v.786h-1.223v1.354h1.223zm7.26-1.21c-.752 0-1.292-.376-1.292-1.005 0-.608.444-.95 1.395-1.012l1.688-.109v.595c0 .868-.766 1.531-1.791 1.531zm-.499 1.333c.978 0 1.798-.424 2.215-1.148h.116v1.025h1.634v-5.106c0-1.586-1.08-2.523-3.001-2.523-1.778 0-3.015.841-3.152 2.16h1.6c.157-.506.69-.779 1.47-.779.916 0 1.408.41 1.408 1.142v.628l-1.928.117c-1.818.109-2.837.888-2.837 2.242 0 1.367 1.033 2.242 2.475 2.242zm6.029-.123h1.689v-7.479h-1.689zm.841-8.716c.561 0 1.012-.451 1.012-1.018 0-.568-.451-1.026-1.012-1.026-.554 0-1.012.458-1.012 1.026 0 .567.458 1.018 1.012 1.018zm3.022 8.716h1.695v-10.37h-1.695zm3.862 0h1.688v-7.479h-1.688zm.841-8.716c.56 0 1.011-.451 1.011-1.018 0-.568-.451-1.026-1.011-1.026-.554 0-1.012.458-1.012 1.026 0 .567.458 1.018 1.012 1.018zm2.953 8.716h1.695v-4.354c0-1.101.636-1.798 1.648-1.798 1.032 0 1.51.574 1.51 1.715v4.437h1.696v-4.84c0-1.784-.91-2.789-2.578-2.789-1.114 0-1.866.513-2.221 1.347h-.116v-1.197h-1.634zm11.771-1.49c-1.182 0-1.852-.903-1.852-2.331 0-1.429.67-2.338 1.852-2.338 1.176 0 1.894.909 1.894 2.338 0 1.428-.711 2.331-1.894 2.331zm0 4.334c2.181 0 3.562-1.087 3.562-2.817v-7.506h-1.634v1.197h-.116c-.41-.814-1.299-1.32-2.318-1.32-1.907 0-3.089 1.491-3.089 3.781 0 2.249 1.175 3.712 3.062 3.712 1.039 0 1.853-.438 2.283-1.238h.117v1.415c0 .937-.677 1.484-1.839 1.484-.93 0-1.532-.328-1.641-.841h-1.702c.137 1.285 1.394 2.133 3.315 2.133z" fill="#000"/><path d="m723 366h122v-2h-122zm124 2v44h2v-44zm-2 46h-122v2h122zm-124-2v-44h-2v44zm2 2c-1.105 0-2-.895-2-2h-2c0 2.209 1.791 4 4 4zm124-2c0 1.105-.895 2-2 2v2c2.209 0 4-1.791 4-4zm-2-46c1.105 0 2 .895 2 2h2c0-2.209-1.791-4-4-4zm-122-2c-2.209 0-4 1.791-4 4h2c0-1.105.895-2 2-2z" fill="#8e8e8e"/><g fill="#4f4f4f"><path d="m990 533-10-5.773v11.547zm-208 1h199v-2h-199z"/><path d="m990 548-10-5.773v11.547zm-411 1h402v-2h-402z"/><path d="m716 475-10-5.774v11.548zm-35 1h26v-2h-26z"/><path d="m514 305-10-5.774v11.547zm-102 1h93v-2h-93z"/><path d="m990 305-10-5.774v11.547zm-341 1h332v-2h-332z"/><path d="m514 475-10-5.774v11.547zm-51 1h42v-2h-42z"/><path d="m990 563-10-5.773v11.547zm-527 1h518v-2h-518z"/><path d="m277 305-10-5.773v11.547zm-105 1h96v-2h-96z"/><path d="m514 220-10-5.773v11.547zm-51 1h42v-2h-42z"/><path d="m514 135-10-5.773v11.547zm-51 1h42v-2h-42z"/><path d="m581 447 5.774-10h-11.548zm0-114-5.773 10h11.547zm1 105v-96h-2v96z"/><path d="m784 446 5.774-10h-11.548zm1-9v-17h-2v17z"/><path d="m784 361 5.774-10h-11.548zm1-9v-35h-2v35z"/><path d="m625 333-5.774 10h11.548zm1 59v-50h-2v50z"/></g><path d="m682 475v-55" stroke="#4f4f4f" stroke-width="2"/><path d="m990 390-10-5.773v11.547zm-138 1h129v-2h-129z" fill="#4f4f4f"/><path d="m463 564v-247" stroke="#4f4f4f" stroke-width="2"/><path d="m783 533v-30" stroke="#4f4f4f" stroke-width="2"/><path d="m580 548v-45" stroke="#4f4f4f" stroke-width="2"/><path d="m602 420v-86" stroke="#4f4f4f" stroke-width="2"/><path d="m463 292v-61.234m0-96.766v68.416m0 0v13.23 15.12m0-28.35v28.35" stroke="#4f4f4f" stroke-width="2"/><path d="m412 318h52" stroke="#4f4f4f" stroke-width="2"/><path d="m412 292h52" stroke="#4f4f4f" stroke-width="2"/><path d="m783 318h-134" stroke="#4f4f4f" stroke-width="2"/><path d="m720 391h-95" stroke="#4f4f4f" stroke-width="2"/><path d="m682 421h-81" stroke="#4f4f4f" stroke-width="2"/><path d="m482.733 50.476v25.524h10.296c4.824 0 7.992-3.06 7.992-7.236 0-3.312-2.232-5.436-4.536-5.976 2.088-.684 3.744-2.844 3.744-5.472 0-3.924-2.916-6.84-7.956-6.84zm5.544 10.224v-5.508h3.024c2.232 0 3.348 1.08 3.348 2.736 0 1.728-1.296 2.772-3.276 2.772zm0 10.656v-5.976h3.564c2.232 0 3.528 1.224 3.528 2.988 0 1.836-1.332 2.988-3.528 2.988zm27.8 4.644h5.256c-.036-.288-.18-1.584-.18-3.204v-14.688h-5.472v10.188c0 1.8-1.152 3.06-2.988 3.06-1.944 0-2.88-1.368-2.88-3.096v-10.152h-5.472v11.304c0 3.816 2.448 6.984 6.804 6.984 1.8 0 3.852-.648 4.788-2.196 0 .468.072 1.476.144 1.8zm15.362 0v-17.892h-5.472v17.892zm-5.94-23.364c0 1.764 1.44 3.204 3.168 3.204 1.8 0 3.24-1.44 3.24-3.204s-1.44-3.204-3.24-3.204c-1.728 0-3.168 1.44-3.168 3.204zm16.205 23.364v-26.064h-5.472v26.064zm22.433-26.064h-5.4v9.576c-.432-.684-1.764-1.836-4.824-1.836-5.076 0-8.676 3.996-8.676 9.324 0 5.508 3.816 9.396 8.856 9.396 2.16 0 3.96-.9 4.788-2.124 0 .72.108 1.512.144 1.728h5.256c-.036-.396-.144-1.584-.144-3.204zm-13.392 17.1c0-2.988 1.908-4.428 4.032-4.428s4.032 1.44 4.032 4.428c0 2.952-1.908 4.464-4.032 4.464s-4.032-1.512-4.032-4.464zm45.111-10.296c-.54-2.988-2.952-6.804-9.324-6.804-4.896 0-9.144 3.384-9.144 8.208 0 3.78 2.628 6.66 6.948 7.488l3.492.648c1.692.324 2.736 1.26 2.736 2.556 0 1.584-1.368 2.664-3.6 2.664-3.492 0-5.076-2.052-5.292-4.392l-5.22 1.26c.36 3.6 3.384 8.172 10.44 8.172 6.084 0 9.432-4.068 9.432-8.064 0-3.636-2.52-6.768-7.38-7.668l-3.42-.648c-1.764-.324-2.52-1.224-2.52-2.448 0-1.404 1.368-2.736 3.492-2.736 3.096 0 4.068 2.016 4.248 3.204zm11.018-3.852h-4.896v2.304c0 1.656-.9 2.916-2.772 2.916h-.9v4.788h3.168v7.668c0 3.564 2.268 5.76 5.976 5.76 1.728 0 2.628-.396 2.844-.504v-4.536c-.324.072-.864.18-1.44.18-1.188 0-1.98-.396-1.98-1.872v-6.696h3.492v-4.788h-3.492zm6.431 18.18c0 2.844 2.268 5.436 6.192 5.436 2.376 0 4.104-1.008 5.04-2.52 0 1.224.144 1.872.18 2.016h4.932c-.036-.18-.216-1.368-.216-2.772v-8.748c0-3.672-2.124-6.912-7.92-6.912-5.256 0-7.632 3.384-7.848 5.94l4.752.972c.108-1.332 1.152-2.628 3.06-2.628 1.728 0 2.628.9 2.628 1.944 0 .612-.324 1.08-1.296 1.224l-4.212.648c-2.952.432-5.292 2.232-5.292 5.4zm7.524 1.476c-1.512 0-2.124-.9-2.124-1.836 0-1.26.864-1.8 2.016-1.98l3.384-.54v.792c0 2.772-1.656 3.564-3.276 3.564zm19.584-19.656h-4.896v2.304c0 1.656-.9 2.916-2.772 2.916h-.9v4.788h3.168v7.668c0 3.564 2.268 5.76 5.976 5.76 1.728 0 2.628-.396 2.844-.504v-4.536c-.324.072-.864.18-1.44.18-1.188 0-1.98-.396-1.98-1.872v-6.696h3.492v-4.788h-3.492zm11.299 12.024c.108-1.332 1.26-3.024 3.564-3.024 2.592 0 3.528 1.656 3.6 3.024zm7.56 4.644c-.504 1.404-1.62 2.34-3.6 2.34-2.124 0-3.96-1.44-4.068-3.456h12.456c.036-.108.108-.936.108-1.692 0-5.76-3.42-9.18-8.964-9.18-4.644 0-8.928 3.672-8.928 9.432 0 6.012 4.392 9.54 9.324 9.54 4.536 0 7.38-2.592 8.244-5.688zm6.934 1.368c.144 1.98 1.944 5.616 7.56 5.616 4.788 0 7.128-2.988 7.128-6.048 0-2.628-1.8-4.86-5.508-5.616l-2.376-.468c-.792-.144-1.404-.576-1.404-1.332 0-.936.9-1.548 1.944-1.548 1.656 0 2.412 1.008 2.556 2.196l4.536-.828c-.18-2.088-1.98-5.328-7.164-5.328-3.996 0-6.876 2.664-6.876 5.94 0 2.52 1.512 4.68 5.328 5.508l2.052.468c1.332.288 1.764.828 1.764 1.476 0 .792-.684 1.548-2.088 1.548-1.872 0-2.736-1.188-2.808-2.412z" fill="#000"/><path d="m37 305-10-5.774v11.548zm-37 1h28v-2h-28z" fill="#4f4f4f"/></svg>