<svg fill="none" height="23" viewBox="0 0 23 23" width="23" xmlns="http://www.w3.org/2000/svg"><path d="m18.0627 10.0363h-11.43846c-.03384-.0003-.06678-.0108-.09452-.0302-.02773-.01941-.04895-.04673-.06088-.0784-.01193-.03166-.01401-.0662-.00596-.09906.00805-.03287.02585-.06253.05106-.0851l5.77376-5.08051c.1815-.17114.2895-.40607.3012-.65526.0117-.2492-.0738-.49321-.2385-.6806s-.3957-.30353-.6443-.32394c-.2487-.02041-.4955.0565-.6886.21452l-7.47432 6.57726c-.17072.15056-.30744.33569-.40109.54319-.09366.2075-.14209.4325-.14209.6601s.04843.4526.14209.6601c.09365.2074.23037.3926.40109.5432l7.47302 6.5759c.1932.156.4392.2314.6867.2103.2474-.0211.4771-.137.6411-.3236.164-.1865.2495-.4291.2388-.6772-.0108-.2481-.117-.4825-.2965-.6541l-5.7737-5.0805c-.02521-.0226-.04301-.0523-.05106-.0851-.00804-.0329-.00597-.0674.00596-.0991s.03315-.059.06089-.0784c.02773-.0194.06068-.0299.09451-.0302h11.4398c.2509-.0066.4892-.1109.6643-.2907.175-.1797.273-.4207.273-.6716s-.098-.4919-.273-.6717c-.1751-.1797-.4134-.284-.6643-.2906z" fill="#333"/></svg>