<svg width="9" height="9" viewBox="0 0 9 9" fill="none" xmlns="http://www.w3.org/2000/svg">
<g clip-path="url(#clip0_47_536)">
<path d="M1.59912 4.21203C1.59912 3.97869 1.69912 3.77869 1.86579 3.64536L5.59912 0.378694C5.86579 0.14536 6.23246 0.178694 6.46579 0.44536C6.66579 0.712027 6.66579 1.07869 6.39912 1.27869L3.13245 4.14536C3.09912 4.17869 3.09912 4.21203 3.13245 4.24536L6.39912 7.11203C6.66579 7.34536 6.69912 7.71203 6.46579 7.97869C6.23246 8.24536 5.86579 8.27869 5.59912 8.04536C5.59912 8.04536 5.59912 8.04536 5.56579 8.01203L1.86579 4.77869C1.69912 4.64536 1.59912 4.41203 1.59912 4.21203Z" fill="#333333"/>
</g>
<defs>
<clipPath id="clip0_47_536">
<rect width="8" height="8" fill="white" transform="translate(0.0991211 0.211914)"/>
</clipPath>
</defs>
</svg>
