<svg xmlns="http://www.w3.org/2000/svg" width="22" height="22" fill="none" viewBox="0 0 22 22"><path stroke="#8E8E8E" stroke-linecap="round" stroke-linejoin="round" stroke-width="2" d="M11 20.375V12.875"/><path stroke="#8E8E8E" stroke-linecap="round" stroke-linejoin="round" stroke-width="2" d="M7.875 16L11 12.875L14.125 16"/><path stroke="#8E8E8E" stroke-linecap="round" stroke-linejoin="round" stroke-width="2" d="M16.3125 14.125C16.9499 14.1261 17.5786 13.9772 18.1477 13.6903C18.7169 13.4035 19.2106 12.9867 19.5889 12.4738C19.9672 11.9608 20.2195 11.366 20.3254 10.7375C20.4313 10.109 20.3879 9.46437 20.1985 8.85576C20.0092 8.24715 19.6793 7.69164 19.2356 7.23411C18.7918 6.77658 18.2466 6.42989 17.6441 6.22205C17.0416 6.01422 16.3986 5.95107 15.7671 6.03772C15.1357 6.12437 14.5335 6.35838 14.0092 6.72083C13.7999 5.60664 13.2915 4.57035 12.5385 3.72293C11.7854 2.87551 10.816 2.24887 9.73416 1.91011C8.65228 1.57136 7.49864 1.53324 6.39676 1.79985C5.29488 2.06646 4.28627 2.62774 3.47892 3.42361C2.67157 4.21948 2.0959 5.21995 1.81354 6.3179C1.53118 7.41585 1.55277 8.56992 1.876 9.65654C2.19922 10.7432 2.81192 11.7214 3.64847 12.4865C4.28573 13.0694 5.03461 13.5118 5.84641 13.7891"/></svg>