<svg fill="none" height="24" viewBox="0 0 24 24" width="24" xmlns="http://www.w3.org/2000/svg" xmlns:xlink="http://www.w3.org/1999/xlink"><clipPath id="a"><path d="m0 0h24v24h-24z"/></clipPath><g clip-path="url(#a)" clip-rule="evenodd" fill="#767676" fill-rule="evenodd"><path d="m12 1.5c-2.78477 0-5.45549 1.10625-7.42462 3.07538s-3.07538 4.63985-3.07538 7.42462v10.5h10.5c1.3789 0 2.7443-.2716 4.0182-.7993 1.2739-.5276 2.4314-1.3011 3.4064-2.2761s1.7485-2.1325 2.2761-3.4064c.5277-1.2739.7993-2.6393.7993-4.0182 0-2.78477-1.1062-5.45549-3.0754-7.42462-1.9691-1.96913-4.6398-3.07538-7.4246-3.07538zm-8.48528 2.01472c2.25044-2.25044 5.30268-3.51472 8.48528-3.51472s6.2348 1.26428 8.4853 3.51472c2.2504 2.25044 3.5147 5.30268 3.5147 8.48528 0 1.5759-.3104 3.1363-.9134 4.5922-.6031 1.4559-1.487 2.7788-2.6013 3.8931s-2.4372 1.9982-3.8931 2.6013c-1.4559.603-3.0163.9134-4.5922.9134h-11.25c-.414214 0-.75-.3358-.75-.75v-11.25c0-3.1826 1.26428-6.23484 3.51472-8.48528z"/><path d="m10.9151 6.59769c1.2953-.33972 2.6599-.30887 3.9385.08903 1.2786.39791 2.4198 1.14688 3.2936 2.16162.8737 1.01474 1.445 2.25446 1.6486 3.57796.2037 1.3235.0316 2.6776-.4967 3.9081-.5281 1.2303-1.3911 2.2875-2.4907 3.0514-1.3042.9077-2.8739 1.3544-4.4606 1.2694-1.4781-.0791-2.89225-.6155-4.04879-1.5308l-2.86302.2529c-.26841.0237-.52891-.0984-.68241-.3198-.15349-.2215-.17639-.5083-.05998-.7513l1.23615-2.5806c-.37931-1.1659-.45296-2.4117-.21119-3.6175.26326-1.313.88994-2.5256 1.80867-3.49982.91872-.97422 2.09257-1.67086 3.38787-2.01059zm5.4651 12.17291-.4281-.6164c.8691-.6036 1.5513-1.4392 1.9687-2.4115.4174-.9724.5534-2.0424.3925-3.0882-.1609-1.0459-.6124-2.0255-1.3028-2.8274-.6905-.80185-1.5922-1.3937-2.6026-1.70813s-2.0887-.33881-3.1123-.07035c-1.0235.26845-1.9511.81894-2.67709 1.58878-.72599.7698-1.22119 1.7281-1.42923 2.7656-.20803 1.0375-.12052 2.1126.25256 3.1028.07211.1914.06292.404-.02544.5884l-.80145 1.6731 1.85906-.1642c.20274-.0179.40406.0474.55774.1808.94772.823 2.14285 1.3063 3.39625 1.3735 1.2534.0671 2.4933-.2857 3.5236-1.0028z"/><path d="m11.3458 5.68683c-1.0459-.16094-2.11588-.02494-3.08823.3925-.97234.41744-1.80792 1.09955-2.41156 1.96864l-.61603-.42788.61562.42847c-.71702 1.03021-1.06989 2.27014-1.00274 3.52354.06714 1.2534.55047 2.4486 1.37345 3.3963.13345.1536.19871.355.1808.5577l-.16421 1.8591 1.67311-.8015c.18447-.0883.39703-.0975.58844-.0254.99021.3731 2.06525.4606 3.10285.2525 1.0375-.208 1.9957-.7032 2.7655-1.4292.7699-.726 1.3204-1.6536 1.5888-2.6771.2685-1.0236.2441-2.1019-.0703-3.11228-.3145-1.01037-.9063-1.91213-1.7082-2.60259-.8018-.69046-1.7815-1.14186-2.8273-1.3028zm-6.73158 1.50516c.76389-1.09969 1.82122-1.96279 3.05161-2.49101 1.23048-.52827 2.58457-.70037 3.90807-.4967 1.3235.20366 2.5633.77491 3.578 1.64867 1.0147.87377 1.7637 2.01494 2.1616 3.29355.3979 1.2786.4288 2.6433.0891 3.9385-.3398 1.2953-1.0364 2.4692-2.0106 3.3879-.9743.9187-2.1869 1.5454-3.4999 1.8087-1.2057.2417-2.45156.1681-3.6175-.2112l-2.58057 1.2361c-.24301.1164-.52979.0935-.75125-.06s-.34356-.414-.31985-.6824l.25288-2.863c-.91525-1.1565-1.45162-2.5707-1.5308-4.0487-.085-1.5866.36164-3.15626 1.26921-4.46041z"/></g></svg>