<svg fill="none" height="24" viewBox="0 0 24 24" width="24" xmlns="http://www.w3.org/2000/svg"><path d="m23.4601.239972c-.1571-.125714-.3464-.2045947-.5463-.227589s-.4022.0108291-.5837.097589l-21.06 10.990028c-.303803.1652-.559558.4065-.742294.7001s-.286207.6296-.300312.9752c-.014104.3455.061641.6888.219839.9964.158198.3075.393444.5688.682767.7583l5.94 3.74v4.12c.00412.2936.09432.5795.25941.8223s.39782.4318.66932.5436.56984.1415.85804.0853.55357-.1957.76323-.4012l2.19-2.19 3.88 2.44c.2664.166.5682.2671.8809.2949s.6276-.0185.9191-.1349c.2905-.1197.5487-.3061.7537-.5441s.351-.5209.4263-.8259l5.1-21.25003c.0329-.17778.0218-.360905-.0322-.533442-.0541-.172536-.1494-.329263-.2778-.456556zm-6.16 4.759998c.0513-.02814.1112-.03655.1682-.02366.0571.01289.1076.0462.1418.09366.0394.044.0611.10097.0611.16 0 .05904-.0217.116-.0611.16l-9.61 10.87003c-.044.0393-.10097.0611-.16.0611s-.116-.0218-.16-.0611l-5.09-3.17c-.03648-.0234-.06596-.0561-.08533-.0949-.01936-.0387-.02789-.0819-.02467-.1251.0009-.0448.01333-.0886.03611-.1271.02277-.0385.05511-.0706.09389-.0929zm-8.23 16.16003v-1.63l1 .63zm7.77.5c-.0105.0378-.0295.0727-.0555.1022-.026.0294-.0583.0526-.0945.0678-.0358.0176-.0751.0268-.115.0268s-.0792-.0092-.115-.0268l-6.61-4.18c-.03323-.0179-.06156-.0436-.08248-.075-.02093-.0314-.03381-.0675-.03752-.105-.00501-.0357-.00224-.0721.00812-.1066s.02805-.0664.05188-.0934l10.44-11.84003c.0352-.04334.0844-.07304.1392-.084.0548-.01095.1116-.00246.1608.024.0487.02666.0877.06823.1111.11862.0233.05039.03.10695.0189.16138z" fill="#111"/></svg>