<svg fill="none" height="22" viewBox="0 0 22 22" width="22" xmlns="http://www.w3.org/2000/svg" xmlns:xlink="http://www.w3.org/1999/xlink"><clipPath id="a"><path d="m0 0h22v22h-22z"/></clipPath><g clip-path="url(#a)" fill="#aaa"><path d="m21.3125.00000064h-7.3333c-.1366-.00018728-.27.04083556-.3828.11770336-.1129.076868-.1999.186002-.2497.31313-.0521.124328-.066.26136-.0399.393606.0261.132247.0911.25371.1865.34889l3.0067 2.96084-8.6625 8.52503c-.17073.1717-.26656.404-.26656.6462s.09583.4745.26656.6463c.08489.0866.18614.1555.29785.2027.11172.0472.2317.0718.35298.0723.23918.0014.46946-.0907.64167-.2567l8.69-8.5525 3.0158 2.97c.0635.06427.1392.11521.2226.14984.0834.03464.1729.05225.2633.05183.0914.00028.182-.01845.2658-.055.1237-.05268.229-.14093.3024-.25355.0734-.11261.1118-.24451.1101-.37895v-7.214169c-.0024-.181598-.0756-.355091-.204-.483511-.1284-.1284202-.3019-.20161523-.4835-.20398936z"/><path d="m16.9583 9.735c-.2431 0-.4762.09658-.6481.2685-.172.1719-.2685.4051-.2685.6482v9.515h-14.20837v-14.20837h9.50587c.2431 0 .4762-.09657.6481-.26848.172-.17191.2685-.40507.2685-.64818 0-.24312-.0965-.47628-.2685-.64818-.1719-.17191-.405-.26849-.6481-.26849h-9.62503c-.45463 0-.890634.1806-1.212102.50207-.321469.32147-.502068.75747-.502068 1.2121v14.43753c-.00000644.4554.1803.8924.501507 1.2153.321208.3229.757193.5056 1.212663.508h14.43753c.457 0 .8954-.1816 1.2185-.5048.3232-.3231.5048-.7615.5048-1.2185v-9.625c0-.2431-.0966-.4763-.2685-.6482-.1719-.17192-.4051-.2685-.6482-.2685z"/></g></svg>