<svg width="22" height="22" viewBox="0 0 22 22" fill="none" xmlns="http://www.w3.org/2000/svg">
<path d="M19.6605 10.1984L11.8016 2.33953C11.3491 1.88682 10.6151 1.88682 10.1622 2.33953L8.53022 3.97172L10.6004 6.04192C11.0815 5.87932 11.6331 5.98844 12.0165 6.3718C12.4022 6.75771 12.5103 7.31405 12.3436 7.79692L14.3389 9.7921C14.8218 9.62559 15.3783 9.73313 15.764 10.1194C16.3027 10.6579 16.3027 11.531 15.764 12.0699C15.2249 12.609 14.3521 12.609 13.8128 12.0699C13.4077 11.6644 13.3074 11.0689 13.5129 10.5698L11.6519 8.709V13.6056C11.7832 13.6706 11.9072 13.7574 12.0165 13.8665C12.5552 14.4052 12.5552 15.2781 12.0165 15.8176C11.4778 16.3561 10.6043 16.3561 10.066 15.8176C9.5273 15.2781 9.5273 14.4052 10.066 13.8665C10.1992 13.7335 10.3534 13.6328 10.5179 13.5654V8.6234C10.3534 8.55621 10.1996 8.4563 10.066 8.32251C9.65796 7.91466 9.55982 7.31561 9.76923 6.81452L7.72845 4.77331L2.33953 10.1619C1.88682 10.615 1.88682 11.3491 2.33953 11.8018L10.1988 19.6606C10.6513 20.1131 11.3851 20.1131 11.8382 19.6606L19.6605 11.8382C20.1132 11.3855 20.1132 10.6509 19.6605 10.1984Z" fill="#8E8E8E"/>
</svg>
