<svg fill="none" height="22" viewBox="0 0 22 22" width="22" xmlns="http://www.w3.org/2000/svg"><g clip-rule="evenodd" fill="#8e8e8e" fill-rule="evenodd"><path d="m6.96405 7.99936c-.76957 0-1.50762.30571-2.05179.84988s-.84988 1.28226-.84988 2.05176c0 .7696.30571 1.5077.84988 2.0518.54417.5442 1.28222.8499 2.05179.8499h.79137v-5.80334zm-3.17095-.26928c.84099-.84099 1.98161-1.31345 3.17095-1.31345h1.58274c.43706 0 .79136.3543.79136.79136v7.38611c0 .437-.3543.7913-.79136.7913h-1.58274c-1.18934 0-2.32996-.4724-3.17095-1.3134s-1.31346-1.9816-1.31346-3.171c0-1.1893.47247-2.32993 1.31346-3.17092z"/><path d="m8.25 8.79076c0-.43706.35431-.79137.79137-.79137h2.26853c.4371 0 .7914.35431.7914.79137s-.3543.79136-.7914.79136h-2.26853c-.43706 0-.79137-.3543-.79137-.79136z"/><path d="m8.25 13.0113c0-.437.35431-.7913.79137-.7913h2.26853c.4371 0 .7914.3543.7914.7913 0 .4371-.3543.7914-.7914.7914h-2.26853c-.43706 0-.79137-.3543-.79137-.7914z"/><path d="m18.3069 10.9011c0-.4371.3544-.7914.7914-.7914h2.1103c.4371 0 .7914.3543.7914.7914s-.3543.7914-.7914.7914h-2.1103c-.437 0-.7914-.3543-.7914-.7914z"/><path d="m0 10.9011c0-.4371.354307-.7914.791366-.7914h2.110314c.43706 0 .79136.3543.79136.7914s-.3543.7914-.79136.7914h-2.110314c-.437059 0-.791366-.3543-.791366-.7914z"/><path d="m12.9257 7.20799c0-.43706.3543-.79136.7913-.79136h1.5828c1.1893 0 2.3299.47246 3.1709 1.31345s1.3135 1.98162 1.3135 3.17092c0 1.1894-.4725 2.33-1.3135 3.171s-1.9816 1.3134-3.1709 1.3134h-1.5828c-.437 0-.7913-.3543-.7913-.7913zm1.5827.79137v5.80334h.7914c.7695 0 1.5076-.3057 2.0518-.8499.5441-.5441.8498-1.2822.8498-2.0518 0-.7695-.3057-1.50759-.8498-2.05176-.5442-.54417-1.2823-.84988-2.0518-.84988z"/></g></svg>