<svg width="22" height="22" viewBox="0 0 22 22" fill="none" xmlns="http://www.w3.org/2000/svg">
<path d="M13.5455 10.2V6.86667C13.5455 6.51304 13.4114 6.17391 13.1727 5.92386C12.934 5.67381 12.6103 5.53333 12.2727 5.53333H9.72727C9.38972 5.53333 9.066 5.67381 8.82732 5.92386C8.58864 6.17391 8.45455 6.51304 8.45455 6.86667V10.2H5.27273C4.93518 10.2 4.61146 10.3405 4.37277 10.5905C4.13409 10.8406 4 11.1797 4 11.5333V14.2C4 14.5536 4.13409 14.8928 4.37277 15.1428C4.61146 15.3929 4.93518 15.5333 5.27273 15.5333H16.7273C17.0648 15.5333 17.3885 15.3929 17.6272 15.1428C17.8659 14.8928 18 14.5536 18 14.2V11.5333C18 11.1797 17.8659 10.8406 17.6272 10.5905C17.3885 10.3405 17.0648 10.2 16.7273 10.2H13.5455Z" stroke="#8E8E8E" stroke-width="2" stroke-linecap="round" stroke-linejoin="round"/>
<path d="M18.4667 12.5H21" stroke="#8E8E8E" stroke-width="2" stroke-linecap="round" stroke-linejoin="round"/>
<path d="M1 12.5H3.53333" stroke="#8E8E8E" stroke-width="2" stroke-linecap="round" stroke-linejoin="round"/>
<path d="M11 3V5.53333" stroke="#8E8E8E" stroke-width="2" stroke-linecap="round" stroke-linejoin="round"/>
</svg>
