<svg fill="none" height="24" viewBox="0 0 24 24" width="24" xmlns="http://www.w3.org/2000/svg" xmlns:xlink="http://www.w3.org/1999/xlink"><clipPath id="a"><path d="m0 0h24v24h-24z"/></clipPath><g clip-path="url(#a)" fill="#111"><path d="m12 16.125c1.094 0 2.1432-.4346 2.9168-1.2082s1.2082-1.8228 1.2082-2.9168-.4346-2.14323-1.2082-2.91682c-.7736-.77358-1.8228-1.20818-2.9168-1.20818s-2.14323.4346-2.91682 1.20818c-.77358.77359-1.20818 1.82282-1.20818 2.91682s.4346 2.1432 1.20818 2.9168c.77359.7736 1.82282 1.2082 2.91682 1.2082z"/><path clip-rule="evenodd" d="m12 0c-3.1826 0-6.23484 1.26428-8.48528 3.51472s-3.51472 5.30268-3.51472 8.48528 1.26428 6.2348 3.51472 8.4853c2.25044 2.2504 5.30268 3.5147 8.48528 3.5147s6.2348-1.2643 8.4853-3.5147c2.2504-2.2505 3.5147-5.3027 3.5147-8.4853s-1.2643-6.23484-3.5147-8.48528c-2.2505-2.25044-5.3027-3.51472-8.4853-3.51472zm-9.75 12c0-2.58586 1.02723-5.06581 2.85571-6.89429s4.30843-2.85571 6.89429-2.85571c2.5859 0 5.0658 1.02723 6.8943 2.85571s2.8557 4.30843 2.8557 6.89429c0 2.5859-1.0272 5.0658-2.8557 6.8943s-4.3084 2.8557-6.8943 2.8557c-2.58586 0-5.06581-1.0272-6.89429-2.8557s-2.85571-4.3084-2.85571-6.8943z" fill-rule="evenodd"/></g></svg>