<svg fill="none" height="24" viewBox="0 0 24 24" width="24" xmlns="http://www.w3.org/2000/svg"><g fill="#111"><path d="m19.5 3h-15c-.82843 0-1.5.67157-1.5 1.5v1c0 .82843.67157 1.5 1.5 1.5h15c.8284 0 1.5-.67157 1.5-1.5v-1c0-.82843-.6716-1.5-1.5-1.5z"/><path d="m19.5 10h-15c-.82843 0-1.5.6716-1.5 1.5v1c0 .8284.67157 1.5 1.5 1.5h15c.8284 0 1.5-.6716 1.5-1.5v-1c0-.8284-.6716-1.5-1.5-1.5z"/><path d="m19.5 17h-15c-.82843 0-1.5.6716-1.5 1.5v1c0 .8284.67157 1.5 1.5 1.5h15c.8284 0 1.5-.6716 1.5-1.5v-1c0-.8284-.6716-1.5-1.5-1.5z"/></g></svg>