<svg fill="none" height="22" viewBox="0 0 22 22" width="22" xmlns="http://www.w3.org/2000/svg"><path clip-rule="evenodd" d="m17 17c-.553 0-1-.448-1-1s.447-1 1-1 1 .448 1 1-.447 1-1 1zm-12-12c.552 0 1 .448 1 1s-.448 1-1 1-1-.448-1-1 .448-1 1-1zm13 2c0-2.206-1.794-4-4-4s-4 1.794-4 4v8c0 1.103-.897 2-2 2s-2-.897-2-2v-6.185c1.336-.476 2.245-1.86 1.941-3.415-.23-1.175-1.198-2.131-2.376-2.348-1.901-.349-3.565 1.109-3.565 2.948 0 1.302.839 2.401 2 2.815v6.185c0 2.206 1.794 4 4 4s4-1.794 4-4v-8c0-1.103.897-2 2-2s2 .897 2 2v6.185c-1.336.476-2.245 1.86-1.941 3.416.23 1.175 1.198 2.131 2.376 2.347 1.902.349 3.565-1.109 3.565-2.948 0-1.302-.839-2.401-2-2.815z" fill="#8e8e8e" fill-rule="evenodd"/></svg>