<svg fill="none" height="25" viewBox="0 0 25 25" width="25" xmlns="http://www.w3.org/2000/svg" xmlns:xlink="http://www.w3.org/1999/xlink"><clipPath id="a"><path d="m.674561.982666h24v24h-24z"/></clipPath><g clip-path="url(#a)" fill="#111"><path d="m21.9246 18.4027v-8.67003c0-1.5913-.6321-3.11743-1.7573-4.24265-1.1252-1.12521-2.6514-1.75736-4.2427-1.75736h-.25v-2c.001-.14779-.0422-.29251-.1242-.41548-.082-.12298-.199-.21859-.3358-.27452-.1369-.059026-.2884-.075335-.4347-.046785-.1463.028545-.2806.100625-.3853.206785l-3 3c-.1404.14063-.2193.33125-.2193.53 0 .19876.0789.38938.2193.53001l3 3c.1418.13888.3316.21769.53.22.0997-.00053.1983-.02093.29-.06.1368-.05593.2538-.15154.3358-.27452.082-.12297.1252-.26769.1242-.41548v-2h.25c1.0609 0 2.0783.42142 2.8285 1.17157.7501.75014 1.1715 1.76756 1.1715 2.82843v8.67003c-.6672.2359-1.2295.7-1.5876 1.3104-.3581.6105-.4888 1.3278-.3692 2.0253.1197.6975.4821 1.3302 1.0232 1.7864.541.4561 1.2259.7063 1.9336.7063s1.3926-.2502 1.9337-.7063c.5411-.4562.9035-1.0889 1.0231-1.7864.1197-.6975-.0111-1.4148-.3691-2.0253-.3581-.6104-.9205-1.0745-1.5877-1.3104z"/><path d="m10.9546 17.7026c-.1049-.1048-.2385-.1761-.3839-.205s-.2961-.014-.4331.0427c-.1369.0567-.254.1527-.33642.2759s-.12648.2681-.12661.4164v2h-.25c-1.06087 0-2.07829-.4215-2.82843-1.1716-.75015-.7502-1.17157-1.7676-1.17157-2.8284v-8.67004c.66721-.2359 1.22955-.70007 1.58763-1.31048s.48883-1.32776.36916-2.02526c-.11967-.69749-.48206-1.33023-1.02313-1.78637s-1.22598-.70632-1.93366-.70632c-.70769 0-1.39259.25018-1.93366.70632s-.90347 1.08888-1.02314 1.78637c-.11967.6975.01109 1.41485.36917 2.02526.35807.61041.92041 1.07458 1.58763 1.31048v8.67004c0 1.5913.63214 3.1174 1.75736 4.2426 1.12521 1.1252 2.65134 1.7574 4.24264 1.7574h.25v2c-.001.1478.04228.2925.12426.4154.08199.123.19892.2186.33577.2746.0917.039.1903.0594.29.06.1984-.0023.3882-.0812.53-.22l3-3c.1404-.1407.2193-.3313.2193-.53 0-.1988-.0789-.3894-.2193-.53z"/></g></svg>