<svg fill="none" height="24" viewBox="0 0 24 24" width="24" xmlns="http://www.w3.org/2000/svg"><path clip-rule="evenodd" d="m11.7782 8.94986 3.8891-3.88918c.5858-.58579 1.5356-.58579 2.1214 0l.7071.7071c.5857.58579.5857 1.53554 0 2.12132l-3.8892 3.8892 3.8891 3.8891c.5858.5858.5858 1.5356 0 2.1213l-.7071.7071c-.5858.5858-1.5355.5858-2.1213 0l-3.8891-3.8891-3.88904 3.889c-.58578.5858-1.53553.5858-2.12132 0l-.7071-.7071c-.58579-.5858-.58579-1.5355 0-2.1213l3.88898-3.889-3.88904-3.88906c-.58579-.58578-.58579-1.53553 0-2.12132l.7071-.7071c.58579-.58579 1.53554-.58579 2.12132 0z" fill="#111" fill-rule="evenodd"/></svg>