<svg xmlns="http://www.w3.org/2000/svg" width="22" height="22" fill="none" viewBox="0 0 22 22"><path stroke="#8E8E8E" stroke-width="2" d="M10.251 5.52668L10.2509 5.52664L10.2434 5.53427C9.75143 6.03491 9.24935 6.58915 8.74391 7.17677L5.44641 7.35078L5.42297 7.35201L5.39961 7.35435C4.99284 7.39503 4.63035 7.62358 4.41139 7.95202L4.39476 7.97696L4.37966 8.00285L2.17697 11.7789C1.8703 12.3046 1.98245 12.9347 2.34998 13.3389L2.36598 13.3565L2.38281 13.3734L3.01215 14.0027C3.29189 14.2825 3.65251 14.3841 3.94543 14.3841C3.94574 14.3841 3.94641 14.3841 3.94744 14.3841C3.96875 14.3846 4.14158 14.3887 4.33264 14.3286L6.46671 13.6714L8.37818 15.5829L7.7196 17.7213L7.71482 17.7369L7.71054 17.7525C7.58631 18.2081 7.71848 18.6706 8.00656 18.9947L8.02609 19.0166L8.04687 19.0374L8.67621 19.6668L8.70336 19.6939L8.73252 19.7189C8.96606 19.9191 9.27119 20.0482 9.60948 20.0482C9.79412 20.0482 10.0316 20.014 10.2742 19.8706L14.0467 17.6699L14.0726 17.6548L14.0976 17.6382C14.426 17.4192 14.6546 17.0567 14.6952 16.65L14.6976 16.6266L14.6988 16.6032L14.8728 13.3057C15.4604 12.8002 16.0147 12.2981 16.5153 11.8061L16.5154 11.8062L16.523 11.7985C17.7531 10.5633 18.6489 9.32943 19.2292 7.93452C19.8098 6.53891 20.0496 5.04199 20.0496 3.31467C20.0496 2.50852 19.3644 2 18.7152 2C16.9287 2 15.4593 2.20486 14.0894 2.77655C12.721 3.34767 11.5307 4.25204 10.251 5.52668Z"/><circle cx="13.027" cy="9.026" r="1.5" stroke="#8E8E8E" stroke-width="2"/></svg>