<svg fill="none" height="25" viewBox="0 0 25 25" width="25" xmlns="http://www.w3.org/2000/svg" xmlns:xlink="http://www.w3.org/1999/xlink"><clipPath id="a"><path d="m.097656.602783h24v24h-24z"/></clipPath><g clip-path="url(#a)" fill="#111"><path d="m22.2677 17.2628h-7.34c-.4854 0-.9509-.1928-1.294-.536-.3432-.3432-.536-.8087-.536-1.294 0-.4854.1928-.9508.536-1.294.3431-.3432.8086-.536 1.294-.536h7.34c.4853 0 .9508.1928 1.294.536s.536.8086.536 1.294c0 .4853-.1928.9508-.536 1.294s-.8087.536-1.294.536z"/><path d="m14.9278 11.6027c-.4854 0-.9508-.1928-1.294-.536s-.536-.8086-.536-1.29399v-7.34c-.0186-.25102.0148-.50318.0981-.74071.0832-.23753.2146-.45532.3859-.63976.1713-.184446.3788-.33157.6095-.432177.2308-.100607.4798-.152534.7315-.152534s.5007.051927.7314.152534.4382.247731.6095.432177c.1713.18444.3027.40223.386.63976s.1167.48969.0981.74071v7.34c0 .48359-.1914.94759-.5325 1.29049-.341.3429-.8039.5369-1.2875.5395z"/><path d="m9.26766 11.6029h-7.34c-.48535 0-.950818-.1928-1.294009-.536-.343192-.3432-.5359947-.8087-.5359948-1.29403.0000001-.48535.1928028-.95081.5359948-1.294.343191-.3432.808659-.536 1.294009-.536h7.34c.48534 0 .95084.1928 1.29404.536.3432.34319.536.80865.536 1.294 0 .48533-.1928.95083-.536 1.29403s-.8087.536-1.29404.536z"/><path d="m9.26762 24.6027c-.48535 0-.95082-.1928-1.29401-.536s-.53599-.8086-.53599-1.294v-7.34c-.0186-.251.01479-.5032.09808-.7407s.21468-.4553.38597-.6398c.17128-.1844.37878-.3315.60951-.4321.23072-.1006.47973-.1526.73144-.1526s.50071.052.73144.1526c.23074.1006.43824.2477.60954.4321.1713.1845.3026.4023.3859.6398s.1167.4897.0981.7407v7.34c0 .4836-.1914.9476-.5324 1.2905-.3411.3429-.80397.5369-1.28758.5395z"/><path d="m2.31766 18.0828c-.58706 0-1.15021-.2325-1.566256-.6467-.416044-.4142-.651103-.9763-.6537478-1.5633 0-.6021.2391598-1.1794.6648678-1.6051.425706-.4258 1.003086-.6649 1.605136-.6649h1.48c.19452.0026.38018.0817.5168.2202s.21321.3252.2132.5198v1.48c0 .2968-.05846.5907-.17204.8648-.11357.2742-.28004.5234-.4899.7332-.20986.2099-.459.3764-.7332.49-.27419.1135-.56808.172-.86486.172z"/><path d="m10.3677 5.08281h-1.49c-.59939 0-1.17423-.23811-1.59806-.66194-.42384-.42384-.66194-.99867-.66194-1.59806-.00133-.29191.05519-.58118.16629-.85113.1111-.26994.27457-.51519.48098-.7216s.45167-.369887.72161-.480983c.26994-.111097.55921-.167615.85112-.166291.60031.002644 1.1751.242971 1.5987.668394.4235.42542.6613 1.00129.6613 1.60161v1.48c0 .1936-.0769.37928-.2138.51618-.1369.13691-.3226.21382-.5162.21382z"/><path d="m15.3577 24.6028c-.6004-.0026-1.1752-.243-1.5987-.6684-.4236-.4254-.6613-1.0013-.6613-1.6016v-1.48c0-.1936.0769-.3793.2138-.5162s.3225-.2138.5162-.2138h1.49c.5993 0 1.1742.2381 1.598.6619.4239.4239.662.9987.662 1.5981.0013.2919-.0552.5812-.1663.8511-.1111.27-.2746.5152-.481.7216s-.4517.3699-.7216.481c-.27.1111-.5592.1676-.8511.1663z"/><path d="m21.8277 11.6028h-1.48c-.1945-.0026-.3802-.0817-.5168-.2202-.1367-.1385-.2132-.3253-.2132-.5198v-1.48c0-.59939.2381-1.17423.6619-1.59806s.9987-.66194 1.5981-.66194c.587 0 1.1502.23252 1.5662.64669.4161.41417.6511.97627.6538 1.56331 0 .60204-.2392 1.1794-.6649 1.6051s-1.0031.6649-1.6051.6649z"/></g></svg>