<svg fill="none" xmlns="http://www.w3.org/2000/svg" viewBox="0 0 118 32"><path d="m8.2 16 7.9 8L31.8 8.1 23.9.4 8.2 16Z" stroke="currentColor" stroke-miterlimit="10" stroke-linejoin="round"/><path d="m16 24 8-8L8.1.5.4 8.2 16 24Z" stroke="currentColor" stroke-miterlimit="10" stroke-linejoin="round"/><path opacity=".2" d="m8.2 23.8 7.9 7.8L31.8 16l-7.9-7.8L8.2 23.8Z" stroke="currentColor" stroke-miterlimit="10" stroke-linejoin="round"/><path opacity=".2" d="m16 31.6 8-7.8L8.1 8 .4 15.9 16 31.6Z" stroke="currentColor" stroke-miterlimit="10" stroke-linejoin="round"/><path d="M.4 8.2V16l7.8 7.9V16L.4 8.2ZM16 23.9v7.7l-7.8-7.8V16l7.9 7.8ZM31.8 8.2V16l-7.9 7.9V16l7.9-7.9Z" stroke="currentColor" stroke-miterlimit="10" stroke-linejoin="round"/><path d="m16 23.9 7.9-7.8v7.7l-7.8 7.8V24Z" stroke="currentColor" stroke-miterlimit="10" stroke-linejoin="round"/><path opacity=".2" d="M8.2.4V8M23.9.4V8m-7.9.2v7.7" stroke="currentColor" stroke-miterlimit="10" stroke-linejoin="round"/><path d="M43.4 28.3V3.9h8.8c1.9 0 3.5.6 5 1.9a6.1 6.1 0 0 1 2 4.7 5.4 5.4 0 0 1-3.3 5.1v.2a6 6 0 0 1 3 2c.8 1 1.1 2.2 1.1 3.5 0 2-.7 3.7-2.1 5a7.4 7.4 0 0 1-5.2 2h-9.3Zm3-14h5.8a4 4 0 0 0 2.8-1.1c.7-.8 1-1.7 1-2.6 0-1-.2-1.8-1-2.6a3.5 3.5 0 0 0-2.7-1h-5.8v7.5Zm0 11h6.4c1.2 0 2.1-.4 2.9-1.3.7-.8 1-1.8 1-2.8a4 4 0 0 0-1-2.7 4 4 0 0 0-3-1.3h-6.3v8Zm21.9 3.5c-1.7 0-3.2-.5-4.4-1.5a5.1 5.1 0 0 1-1.8-4 5 5 0 0 1 2.1-4.4c1.4-1 3.2-1.5 5.2-1.5a9 9 0 0 1 4.6 1V18c0-1.2-.4-2.2-1.3-3a4.6 4.6 0 0 0-3-1c-1 0-1.8.2-2.6.6-.7.5-1.2 1-1.5 1.8l-2.8-1.2c.3-1 1.1-2 2.3-2.8a7.3 7.3 0 0 1 4.5-1.3c2.1 0 4 .7 5.3 2 1.4 1.2 2.1 3 2.1 5.2v10.1h-3V26a6.4 6.4 0 0 1-5.6 2.8Zm.5-2.8a5 5 0 0 0 3.6-1.5c1-1 1.6-2 1.6-3.4-1-.8-2.3-1-4-1-1.6 0-2.7.2-3.5 1a3 3 0 0 0-1.1 2.2c0 .9.3 1.5 1 2 .7.4 1.5.7 2.4.7ZM80 28.3v-2.7l9.5-11.2h-9.2v-2.8h13v2.7L84 25.4h9.6v2.9H80Zm23.7.5a8 8 0 0 1-6.1-2.5 8.9 8.9 0 0 1-2.4-6.4c0-2.4.8-4.5 2.3-6.2a7.5 7.5 0 0 1 5.9-2.7c2.5 0 4.5.8 6 2.4a9.2 9.2 0 0 1 2.2 6.5v.6H98.2c.1 1.7.7 3 1.7 4s2.3 1.5 3.7 1.5c2.2 0 3.7-1 4.5-2.9l2.8 1.2a7.6 7.6 0 0 1-7.3 4.5Zm4.5-10.9c0-1-.5-1.8-1.3-2.7-.8-.9-2-1.3-3.5-1.3-1.2 0-2.2.3-3 1a5 5 0 0 0-1.8 3h9.6Zm9.4 10.4h-3.2V3.9h3.2v24.4Z" fill="currentColor"/></svg>
