<svg viewBox="0 0 130 19" fill="none" xmlns="http://www.w3.org/2000/svg">
  <g fill="currentColor">
    <path d="M89.9 17.8c6.8 0 10-1.5 10.6-6h-4.9c-.6 1.7-2 2.4-6.5 2.4h-1c-5.6 0-6.7-1.2-6.7-4.7v-.6c0-3.5 1-4.7 6.7-4.7h1c4.5 0 6 .7 6.5 2.5h4.8c-.6-4.5-3.7-6-10.5-6h-2.6c-7.8 0-10.7 2-10.7 8v1.1c0 6 3 8 10.7 8H90Z"/><path fill-rule="evenodd" clip-rule="evenodd" d="M73.1 9.8c0 6-3 8-11 8h-2.7c-8 0-11-2-11-8V8.6c0-5.9 3-8 11-8h2.7c8 0 11 2.1 11 8v1.2Zm-12.9 4.4h1.1c6 0 7-1.2 7-4.7V9c0-3.6-1-4.7-7-4.8h-1c-6 0-7 1.2-7 4.8v.5c0 3.5 1 4.7 7 4.7Zm-37.1-1.6v.4c0 3.4-1.9 4.6-7.3 4.6H.8V.9h14.5c5.3 0 7.3 1 7.3 4V5c0 2.5-1.2 3.5-3.1 3.8V9c2.1.2 3.6 1.1 3.6 3.6Zm-8.3-8.2H5.5v3H15c2.2 0 3-.4 3-1.5 0-1.2-.8-1.5-3.2-1.5Zm3.6 8c0-1.5-.8-1.7-3.6-1.7H5.5V14h9.3c2.8 0 3.6-.3 3.6-1.6Z"/><path d="M45.6 17.6v-4H32V1h-4.7v16.7h18.4Zm63.6 0v-5.3l3.8-2.2h.1l9.2 7.4h7L117 7.7 129 1h-7.2l-12.4 7.3h-.1V.9h-4.8v16.7h4.8Z"/>
  </g>
</svg>
