<svg viewBox="0 0 91 30" fill="none" xmlns="http://www.w3.org/2000/svg">
  <path d="M90.4 20.5c-.2 0-.3.1-.4.3-1 2.7-2.2 4.2-3.2 4.2-.6 0-.8-.6-.8-1.7A50.4 50.4 0 0 1 88.4 12c0-.7-.4-1-1.3-1-1.1 0-2.3.4-3.4 2.3-.4-1.7-1.5-2.5-3.2-2.5-1.8 0-3.7 1.2-5.1 3.2-1.5 2-3.3 2.6-4.6 2.3 1-2.3 1.3-4 1.3-5.4 0-2-1-3.2-2.6-3.2-2.5 0-4 2.3-4 4.8 0 2 1 3.9 2.8 4.8-1.5 3.6-3.9 6.9-4.8 6.9-1.1 0-1.4-5.6-1.4-9.6 0-2.3.3-2.4.3-3.1 0-.4-.3-.7-1.3-.7-2.5 0-3.2 2-3.3 4.4 0 1-.2 1.8-.4 2.7-1 3.6-3.1 6.3-4.5 6.3-.6 0-.8-.6-.8-1.4 0-2.6 1.5-5.9 1.5-8.6 0-2-1-3.4-2.6-3.4-2 0-4.6 2.4-7.1 6.8.8-3.4 1.2-6.7-1.3-6.7-.5 0-1 .2-1.5.4a.9.9 0 0 0-.5.9c.3 3.6-2.9 12.8-5.8 12.8-.6 0-.8-.6-.8-1.5A50.6 50.6 0 0 1 36.5 12c0-.7-.5-1-1.4-1-1.1 0-2.2.4-3.4 2.3-.3-1.7-1.5-2.5-3.1-2.5-2.7 0-5.7 2.9-7 6.5-1.8 5-5.3 9.7-10 9.7-4.4 0-6.7-3.6-6.7-9.3.1-8.3 6.1-15 10.5-15 2.2 0 3.2 1.4 3.2 3.5 0 2.5-1.4 3.7-1.4 4.6 0 .3.2.6.7.6 2 0 4.2-2.3 4.2-5.4 0-3-2.5-5.4-7-5.4C7.8.6.3 8.1.3 17.6c0 7.5 3.8 12.1 10.2 12.1 4.4 0 8.3-3.4 10.4-7.4.2 3.3 1.7 5 4 5 2 0 3.7-1.2 5-3.3.4 2.2 1.7 3.3 3.4 3.3 2 0 3.5-1.2 5-3.5 0 1.8.4 3.5 2 3.5.7 0 1.5-.2 1.7-.8 1.6-6.7 5.6-12.2 6.8-12.2.4 0 .5.4.5.8 0 1.8-1.3 5.5-1.3 8s1.1 4.2 3.4 4.2c2.5 0 5-3 6.7-7.6.5 4.2 1.7 7.6 3.5 7.6 2.2 0 6.1-4.6 8.5-9.6.9.2 2.3.1 3.6-.8a14 14 0 0 0-.9 4.6c0 4.6 2.2 5.8 4 5.8 2.1 0 3.8-1.2 5-3.3.5 2 1.5 3.3 3.5 3.3 3 0 5.7-3.1 5.7-5.7 0-.7-.3-1-.6-1Zm-63.6 4.3c-1.3 0-1.8-1.2-1.8-3.1 0-3.2 2.2-8.6 4.6-8.6 1 0 1.4 1.2 1.4 2.7 0 3.2-2.1 9-4.2 9Zm42.4-9.6a5 5 0 0 1-1-3.2c0-1.3.4-2.4 1-2.4s.8.6.8 1.4c0 1.3-.5 3.2-.8 4.2Zm9.6 9.6c-1.3 0-1.8-1.4-1.8-3.1 0-3.1 2.2-8.6 4.6-8.6 1 0 1.4 1.2 1.4 2.7 0 3.2-2 9-4.2 9Z" fill="currentColor"/>
</svg>
