<svg fill="none" xmlns="http://www.w3.org/2000/svg" viewBox="0 0 146 32"><path d="M60.3 11.5c.3-.3.3-.6.1-.9a7.5 7.5 0 0 0-6.2-3.1c-4.7 0-7.9 3.4-7.9 8.4s3.2 8.4 8 8.4a7.3 7.3 0 0 0 6.3-3.3c.1-.2 0-.6-.3-.8l-1.4-.8a.6.6 0 0 0-.7.2c-.9 1.3-2.4 2-4 2-2.9 0-4.7-2.4-4.7-5.7 0-3.3 1.8-5.7 4.7-5.7a5 5 0 0 1 4 2c0 .2.4.3.7.1l1.4-.8ZM69.8 24h1.6c.3 0 .6-.2.6-.5v-7.8c0-2.8-2-4-4.8-4-1.6 0-3.2.5-4.6 1.2-.2.2-.3.5-.2.8l.5 1c.2.4.5.5.8.3 1-.5 2.1-.8 3.3-.8 1 0 2.1.3 2.1 1.3s-1.5 1.2-3.2 1.5c-1.6.2-4.2.7-4.2 3.6 0 2.4 1.7 3.7 4.1 3.7 1.7 0 2.7-.6 3.5-1.5v.7c0 .3.2.5.5.5Zm-.7-4.5c0 1.8-1.3 2.6-2.7 2.6-1.1 0-1.9-.5-1.9-1.6 0-1.2 1-1.5 2-1.7 1-.1 2-.3 2.6-.7v1.4Zm4.7 2.5c-.3.2-.2.6 0 .8 1.4 1 3.1 1.6 4.9 1.5 3.1 0 5.1-1.5 5.1-4S82 17 79.1 16.6c-1.3-.2-2.6-.4-2.6-1.4 0-.8.9-1.2 2-1.2s2.2.4 3.1 1c.3.2.6.2.8 0l.8-1c.2-.2.2-.6-.1-.8a7.3 7.3 0 0 0-4.5-1.4c-2.6 0-4.9 1-4.9 3.7 0 2.6 2.1 3.3 4.4 3.6 2 .4 3 .6 3 1.5 0 1-1 1.4-2.3 1.4a6 6 0 0 1-3.4-1.1.6.6 0 0 0-.9 0l-.7 1Zm12.4 2h1.7c.3 0 .6-.2.6-.5v-6.2c0-1.9 1.1-3 2.7-3s2 1.2 2 2.5v6.7c0 .3.3.5.6.5h1.7c.4 0 .6-.2.6-.5V16c0-2.5-1.5-4.3-4-4.3-1.4 0-2.8.6-3.6 1.7v-5c0-.3-.3-.6-.6-.6h-1.7c-.4 0-.6.3-.6.6v15c0 .4.2.6.6.6Zm29.3 0h2.3c.3-.1.4-.4.3-.7l-5.5-15.1c-.1-.2-.4-.4-.6-.4h-2.7c-.3 0-.5.2-.6.4l-5.6 15v.3c0 .3.2.5.6.5h2c.2 0 .4-.1.5-.4l1.3-3.6h6.2l1.2 3.6c0 .3.3.4.6.4Zm-2.6-6.5h-4.7l2.4-7 2.3 7Zm9.5-4.9c0-.3-.3-.6-.6-.6h-1.7c-.3 0-.6.3-.6.6v14.8c0 .3.3.6.6.6h1.7c.3 0 .6-.3.6-.6v-5a4.3 4.3 0 0 0 3.7 2c3.3 0 5.4-2.8 5.4-6.4 0-3.5-2.1-6.2-5.4-6.2-1.5-.1-2.8.6-3.7 1.8v-1Zm0 5.4c0-2 1.1-3.7 3.1-3.7s3 1.6 3 3.7c0 2-1 3.8-3 3.8s-3-1.7-3-3.8Zm13.8-5.4c0-.3-.3-.6-.6-.6h-1.7c-.4 0-.6.3-.6.6v14.8c0 .3.2.6.6.6h1.7c.3 0 .6-.3.6-.6v-5a4.4 4.4 0 0 0 3.7 2c3.2 0 5.4-2.8 5.4-6.4 0-3.5-2.2-6.2-5.4-6.2-1.5-.1-2.9.6-3.7 1.8v-1Zm3 9.2c-2 0-3-1.7-3-3.8 0-2 1-3.7 3-3.7s3 1.6 3 3.7c0 2-1 3.8-3 3.8Z" fill="currentColor"/><path fill-rule="evenodd" clip-rule="evenodd" d="M12.1 0C9 0 7.3 0 5.6.5a6.8 6.8 0 0 0-4 4.1C1 6.3 1 7.9 1 11.1v9.7c0 3.3 0 4.8.5 6.6a6.8 6.8 0 0 0 4.1 4c1.7.6 3.3.6 6.5.6h9.7c3.3 0 4.9 0 6.6-.6a6.8 6.8 0 0 0 4-4c.6-1.8.6-3.4.6-6.6v-9.6c0-3.3 0-4.9-.5-6.6a6.8 6.8 0 0 0-4.1-4C26.6 0 25 0 21.8 0h-9.7Zm3.1 12.1c0 1.2 1.4 1.6 3 2.2 2.8 1 5.1 2.1 5.1 4.9 0 3-2.3 5-6 5.2l-.4 1.6c-.1.3-.4.5-.7.5h-2.4a.7.7 0 0 1-.6-.7l.4-1.7A7.8 7.8 0 0 1 9.8 22a.6.6 0 0 1 0-1l1.3-1.3c.2-.2.6-.2.9 0a6.4 6.4 0 0 0 4.5 1.8c1.7 0 2.9-.7 2.9-1.9 0-1.1-1.2-1.5-3.4-2.3-2.4-.8-4.6-2-4.6-4.8 0-3.2 2.7-4.8 5.9-5l.3-1.6c0-.3.3-.5.6-.5h2.6c.3.1.5.5.5.8L20.9 8c1.2.4 2.3 1 3.3 1.9.3.3.3.7 0 1L23 12c-.3.3-.6.3-1 0a6.7 6.7 0 0 0-4.2-1.5c-1.3 0-2.6.4-2.6 1.6Z" fill="currentColor"/></svg>
