<svg fill="none" xmlns="http://www.w3.org/2000/svg" viewBox="0 0 110 32"><path d="M53.6 22c0 1.4-.6 2.8-1.6 3.8a5.3 5.3 0 0 1-7.5 0c-1-1-1.6-2.4-1.6-3.9V10h-4.3v12c0 2.6 1 5 2.8 7a9.5 9.5 0 0 0 13.7 0 10 10 0 0 0 2.8-7V10h-4.3v12Zm12.9-12H62v21.6h4.4V10ZM11 14a6.5 6.5 0 0 1 5.4 3l3.4-2.6a11 11 0 0 0-9.6-4.7 10.7 10.7 0 0 0-9 6 11.4 11.4 0 0 0 4.4 14.9 10.7 10.7 0 0 0 14.2-3.3l-3.4-2.7a6.6 6.6 0 0 1-5.9 3A6.5 6.5 0 0 1 5.1 24a6.9 6.9 0 0 1 2.6-9c1-.6 2-1 3.2-1Zm81.9 4.7c1.6-5.4 6.3-5 6.3-5 1.5-.1 2.9.4 4 1.3 1.2 1 2 2.3 2.3 3.7H92.9Zm6.2-9c-2.8 0-5.5 1.3-7.5 3.3a11.3 11.3 0 0 0 0 15.6c2 2 4.7 3.3 7.5 3.4a11 11 0 0 0 5.2-1.3c1.6-.8 3-1.9 4-3.3l-3.2-2.3a7 7 0 0 1-5.7 3c-1.6 0-3.2-.6-4.4-1.7a7 7 0 0 1-2.3-4h17C110.2 9.4 99 9.7 99 9.7ZM83.8 20.8l-2.1-1.2-2.4-.8-2-.7c-2.3-.9-2.1-2.2-2.1-2.2a1.9 1.9 0 0 1 .7-1.5 3 3 0 0 1 2.2-.6c1.7 0 3.3.5 4.7 1.6l2.2-3.2a10.8 10.8 0 0 0-10.5-1.9 6.6 6.6 0 0 0-3.7 6c0 1 .2 2 .6 2.8.4.8 1 1.4 1.6 1.8 1.4.9 2.9 1.5 4.4 1.9l2.1.6s2.2.7 2.1 2.3a2 2 0 0 1-.8 1.6s-3.3 2.3-8.2-1.7l-2.2 3a11 11 0 0 0 10.8 3 6.2 6.2 0 0 0 3.4-2.2 6.4 6.4 0 0 0 1.4-4 5.4 5.4 0 0 0-2.2-4.6ZM64.5 6.1a3 3 0 0 0 1.6-.6 3 3 0 0 0 1.1-3.2 3 3 0 0 0-.9-1.5 3 3 0 0 0-4.6.7 3.1 3.1 0 0 0 .6 3.9 3 3 0 0 0 2.2.7Zm-36.4 6.1V10h-4.4v21.6h4.4V19.4c.1-1.6 1.2-4.9 6.5-4.9v-5c-2.4.2-4.6 1.1-6.5 2.7Z" fill="currentColor"/></svg>
