<svg fill="none" xmlns="http://www.w3.org/2000/svg" viewBox="0 0 166 24"><path d="M17.2 13.5v.3a5 5 0 0 1-1.6 2.8.2.2 0 0 0 0 .2l.4-.1a4 4 0 0 0 1.2-1l.6-.8c.4-.5.7-1 .8-1.7l.4-1.4.3-.5V11h.1l.1.4v1.2c0 .6-.1 1.1-.3 1.6a12.2 12.2 0 0 1-2.1 3 11.3 11.3 0 0 1-1.6 1.4v.1h.4a4 4 0 0 0 1.4-.7 9 9 0 0 0 2.7-3 8.2 8.2 0 0 0 .8-4.3V9.5c.2-.2.3-.2.3 0l.2.4c.1.8.2 1.5.1 2.3a11 11 0 0 1-.9 3.5 8.4 8.4 0 0 1-2.2 3l-1 .8a11.5 11.5 0 0 1-4.3 1.7c-.5.2-1.2.2-1.8.2h-1a15.1 15.1 0 0 1-5-1.8c-1-.7-2-1.5-2.6-2.5a10 10 0 0 1-1-1.7 1.2 1.2 0 0 1-.8-.7l-.5-1.5a10.6 10.6 0 0 1 1.3-8c.3-.2.5-.6.7-.9A9.9 9.9 0 0 1 8 .6L9.5.2A13.1 13.1 0 0 1 12 0a9.3 9.3 0 0 1 6 2l.1.5h.1l1.1 1.2c.6.6 1 1.3 1.2 2.1a2.6 2.6 0 0 1-.2 2 3 3 0 0 1-1 1c-.5.4-1.1.6-1.7.5a2 2 0 0 1-1.5-.6 14.3 14.3 0 0 0-2.3-2l-1.3-.4c-.5 0-1-.1-1.6 0-1.1 0-2.3.3-3.2 1-.6.6-1.2 1.2-1.6 2-.2.4-.4 1-.4 1.4l-.1 1c0 .9.2 1.8.7 2.6A6 6 0 0 0 9.2 17a5 5 0 0 0 2 .6c1 0 2 0 2.8-.4l1.2-.8c.6-.5 1-1.1 1.4-1.8l.4-.8.1-.2v-.1m141.4-4.1c2 0 3.2 1.4 3.2 3.6 0 2.1-1.3 3.5-3.2 3.5-2 0-3.3-1.4-3.3-3.6 0-2.1 1.3-3.5 3.3-3.5Zm-56.9-.2c1.5 0 2.5.8 2.8 2.1h-5.5c.2-1.3 1.2-2.1 2.7-2.1Zm-49 5.2c0 1.3-.7 2.1-2.1 2.1-1.4 0-2.2-.8-2.2-2V7a.3.3 0 0 0-.3-.2h-2.8a.3.3 0 0 0-.3.2v7.6c0 3.2 2 4.9 4.4 4.9 1.7 0 2.9-1 3.4-2.7v2a.3.3 0 0 0 .2.3h2.9a.3.3 0 0 0 .2-.2V7a.3.3 0 0 0-.2-.2h-2.9a.3.3 0 0 0-.2.2v7.4Zm29.1 0c0 1.3-.8 2.1-2.1 2.1-1.4 0-2.2-.8-2.2-2V7a.3.3 0 0 0-.3-.2h-2.8a.3.3 0 0 0-.3.2v7.6c0 3.2 2 4.9 4.3 4.9 1.8 0 3-1 3.4-2.7v2a.3.3 0 0 0 .3.3h2.8a.3.3 0 0 0 .3-.2v-12l-.3-.1H82a.3.3 0 0 0-.3.2v7.4ZM88 19v.2h3a.3.3 0 0 0 .3-.2v-7c0-1.7 1-2 2.6-2H95a.3.3 0 0 0 .3-.3V7a.3.3 0 0 0-.3-.2h-.3c-1.8 0-2.9.8-3.4 2.9V7a.3.3 0 0 0-.3-.3h-2.8a.3.3 0 0 0-.2.3v11.8Zm43.3 0a.3.3 0 0 0 .3.2h2.8a.3.3 0 0 0 .3-.2v-7.6c0-1.2.7-2 2-2 1.2 0 2 .8 2 2V19a.3.3 0 0 0 .2.2h3v-7.8c0-1.2.8-2 2-2 1.3 0 2 .8 2 2v7.8h3.3v-7.9c0-3.2-1.8-4.8-4.2-4.8-2 0-3.1 1.3-3.6 3a3.6 3.6 0 0 0-3.6-3c-1.7 0-2.5 1.1-3.1 2.7v-2l-.1-.2-.2-.1h-2.8a.3.3 0 0 0-.3.2V19Zm34.1-6c0-3.6-2.1-6.5-5.5-6.5-2.3 0-4 1.2-4.6 2.9V7a.3.3 0 0 0-.2-.2h-3l-.1.2v17h3a.3.3 0 0 0 .3-.2v-7c.5 1.6 2.2 2.8 4.5 2.8 3.4 0 5.5-2.9 5.5-6.5Zm-46.7-.7 2.1-5.8 2.2 5.8h-4.3Zm-10.8.8c0-3.7-2.2-6.7-6.2-6.7-3.7 0-6.2 3-6.2 6.7 0 3.8 2.7 6.6 6.9 6.6 2.2 0 4.2-1 5-2.3h.1V17a.3.3 0 0 0-.1-.2l-1.9-1.7a.2.2 0 0 0-.4 0 3.4 3.4 0 0 1-2.9 1.5c-1.6 0-3-.7-3.2-2.8h8.6a.3.3 0 0 0 .3-.1V13Zm-44-3.6a.3.3 0 0 0 .3.3H66v5.8c0 2.3 1.2 3.7 3.6 3.7h2.3a.3.3 0 0 0 .3-.3v-2.5a.2.2 0 0 0-.3-.2h-1.5c-.8 0-1-.3-1-1V9.8h2.5a.3.3 0 0 0 .3-.3V7.1a.3.3 0 0 0-.3-.3h-2.6V3.2A.3.3 0 0 0 69 3h-3a.2.2 0 0 0-.3.2v3.6H64a.3.3 0 0 0-.2.2v2.4Zm48.5 9.5v.1a.2.2 0 0 0 .1.2h3.3a.4.4 0 0 0 .4-.3l1.3-3.6h6.7l1.3 3.6a.4.4 0 0 0 .4.3h3.4a.2.2 0 0 0 .1-.1.2.2 0 0 0 0-.2l-6-15.7a.3.3 0 0 0-.4-.2h-4.3a.4.4 0 0 0-.3.2l-6 15.7ZM37 16.1c-2.8 0-4.8-2.1-4.8-5 0-3 2-5.1 4.8-5.1a5 5 0 0 1 4.2 2 .3.3 0 0 0 .3 0l2.3-2a.3.3 0 0 0 0-.4c-1.4-2-3.8-3-6.8-3a8.2 8.2 0 0 0-8.5 8.3c0 4.7 3.4 8.5 8.5 8.5 3 0 5.6-1.3 6.8-3.1a.3.3 0 0 0 0-.4L41.5 14a.2.2 0 0 0-.4 0 5 5 0 0 1-4 2Zm25-14h-3a.2.2 0 0 0-.2.3v16.5a.3.3 0 0 0 .3.3h2.8a.3.3 0 0 0 .3-.3V2.4a.2.2 0 0 0-.3-.3" fill="currentColor"/></svg>
