<svg viewBox="0 0 118 41" fill="none" xmlns="http://www.w3.org/2000/svg"><path fill-rule="evenodd" clip-rule="evenodd" d="M39 16.5a8 8 0 0 1-3.8 12.2 6 6 0 0 1-2.1 7 6 6 0 0 1-7.3-.1 11.4 11.4 0 0 1-20.5-8.9 8 8 0 0 1-3.8-12c1-1.4 2.3-2.5 3.8-3a6 6 0 0 1 9.4-7 11.5 11.5 0 0 1 20.5 9 8 8 0 0 1 3.8 2.8Zm-23 .9 8.8 4 9-7.8.1-2A10 10 0 0 0 15.7 6l-1.5 7.7 1.7 3.7Zm-9.3 9.4a10 10 0 0 0 1.8 7.9 10 10 0 0 0 16.3-.3l1.5-7.7-2-3.8-8.8-4-8.8 7.8Zm6-14-6-1.4A4.8 4.8 0 0 1 14 6l-1.3 6.9Zm-6.5 0a6.8 6.8 0 0 0-4.6 6.4 6.7 6.7 0 0 0 4.3 6.3l8.5-7.7-1.6-3.4L6.2 13Zm23 22.5c-1 0-2-.3-2.8-1l1.3-6.8 6.1 1.4a4.8 4.8 0 0 1-4.5 6.4ZM27.7 26l6.7 1.6a6.7 6.7 0 0 0 3.4-10.2c-.7-1-1.8-2-3-2.4L26 22.6l1.7 3.4Z" fill="currentColor"/><path d="M56.6 28.3h.8v1.6a40 40 0 0 1-5.4.4c-2 0-3.4-.5-4.2-1.7-.9-1.2-1.3-3-1.3-5.4 0-5 2-7.4 5.8-7.4 2 0 3.3.6 4.2 1.6 1 1 1.4 2.7 1.4 5v1.5h-9.3c0 1.6.3 2.7.9 3.5.5.7 1.5 1 2.9 1h4.2Zm-.8-6c0-1.7-.2-3-.8-3.6-.5-.7-1.4-1.1-2.7-1.1-1.2 0-2.1.4-2.7 1.1-.7.8-1 2-1 3.6h7.2Zm5.1 7.9V12h2v18.3h-2Zm15.2-9.9v7c0 .8 1.8.7 1.8.7l-.1 1.9c-1.5 0-2.7.1-3.5-.6-1.5.7-3.2 1-5 1-1.3 0-2.2-.3-3-1a5 5 0 0 1-1-3.2 4 4 0 0 1 1.1-3c.7-.6 1.8-1 3.3-1.2l4.3-.4v-1.2c0-1-.2-1.6-.6-2a2.3 2.3 0 0 0-1.7-.6h-5.4v-1.9h5.3a5 5 0 0 1 3.5 1.1c.7.8 1 1.9 1 3.4ZM67.5 26c0 1.7.7 2.6 2.2 2.6 1.2 0 2.5-.2 3.7-.7l.6-.2v-4.6l-4 .4c-1 0-1.5.3-1.9.7-.4.4-.6 1-.6 1.8Zm16.8-8.3c-2 0-3 .7-3 2.1 0 .7.2 1.1.7 1.4a8 8 0 0 0 3.1.8c1.7.3 2.9.7 3.6 1.3.6.5 1 1.5 1 2.9s-.5 2.5-1.4 3.1c-1 .7-2.3 1-4 1l-5-.4v-1.8l5 .4a5 5 0 0 0 2.4-.5c.6-.4.9-1 .9-1.8s-.2-1.3-.7-1.6c-.5-.3-1.6-.6-3.2-.8a8.4 8.4 0 0 1-3.5-1.2c-.7-.5-1-1.4-1-2.8 0-1.3.4-2.3 1.4-3a7 7 0 0 1 3.6-1l5 .3V18l-4.9-.2Zm15.5.3h-4.5v6.6a9 9 0 0 0 .4 3.1c.2.6.8.8 1.6.8l2.5-.2.2 1.8-2.9.3c-1.4 0-2.4-.4-3-1-.6-.8-.8-2.1-.8-4.1v-7.4h-2v-1.8h2v-4.3h2v4.3h4.5V18Zm2.9-3.7V12h2v2.4h-2Zm0 16V16h2v14.1h-2Zm11.1-14.5c1 0 2.1.2 3.1.4h.7V18l-3.4-.3c-1.5 0-2.6.4-3.2 1.1-.5.8-.8 2.2-.8 4.2s.2 3.5.8 4.3c.5.8 1.6 1.2 3.3 1.2l3.3-.3V30l-3.8.4c-2.2 0-3.7-.6-4.5-1.7-.9-1.1-1.3-3-1.3-5.7 0-2.6.5-4.5 1.4-5.5.9-1.1 2.4-1.6 4.4-1.6Z" fill="currentColor"/></svg>
