<svg fill="none" xmlns="http://www.w3.org/2000/svg" viewBox="0 0 132 40"><path d="M37.8 13.6C38.9 10 38.2 3 36 .2a.7.7 0 0 0-1 .1l-2.8 4.3a2 2 0 0 1-2.8.5A18.6 18.6 0 0 0 9 5a2 2 0 0 1-3-.4L3.4.3a.7.7 0 0 0-1.1 0C.1 2.8-.6 10 .5 13.5c.4 1.2.5 2.5.3 3.7A18.9 18.9 0 0 0 19.2 40a18.9 18.9 0 0 0 18.3-22.7c-.2-1.2 0-2.5.3-3.7ZM19.2 35.8A14.7 14.7 0 0 1 4.6 20.3a14.7 14.7 0 0 1 14.6-14 14.7 14.7 0 0 1 0 29.4Z" fill="currentColor"/><path d="m25.5 26.7-3.8-6.5-3.1-5.4c-.1-.2-.3-.2-.4-.2h-3c-.2 0-.3 0-.4.2v.4l3 5.2-4 6.3c-.1.1-.1.3 0 .4 0 .2.1.2.3.2h3c.2 0 .3 0 .4-.2l2.2-3.4 2 3.4c.1.2.2.2.4.2h3c.2 0 .3 0 .4-.2v-.4ZM54.1 10H58v21.3h-3.9v-9h-4.4v9h-3.9V10h4v9.3H54V10ZM70 31.3l-.8-4.4h-4.7l-.7 4.4h-4L64.3 10h5.2L74 31.3h-4ZM65 24h3.6l-1.8-10.2L65 24Zm17.6 3.4V23c0-.4 0-.6-.2-.7-.2-.2-.4-.2-.8-.2H79c-2.3 0-3.5-1.2-3.5-3.4v-5.3c0-2.2 1.2-3.3 3.7-3.3h3.7c2.4 0 3.6 1.1 3.6 3.3v3h-3.9V14c0-.4 0-.6-.2-.7-.1-.2-.4-.2-.7-.2h-1.3c-.4 0-.7 0-.8.2-.1 0-.2.3-.2.7v4.3c0 .3 0 .6.2.7l.8.2H83c2.4 0 3.6 1.1 3.6 3.3V28c0 2.2-1.2 3.3-3.7 3.3h-3.6c-2.5 0-3.7-1-3.7-3.3v-3h3.9v2.4c0 .4 0 .6.2.8l.7.2h1.3l.8-.2.2-.8ZM96.9 10h3.9v18c0 2.2-1.3 3.3-3.7 3.3h-4.2c-2.4 0-3.6-1-3.6-3.3V10h3.9v17.4c0 .4 0 .6.2.8 0 .1.3.2.7.2h1.8l.8-.2.2-.8V10Zm11 13v8.3h-4V10h8c2.4 0 3.6 1.1 3.6 3.3v6.4c0 1.8-.8 2.9-2.5 3.2l3.6 8.4h-4.2L109 23h-1Zm0-10v7h2.8l.7-.1.2-.8V14c0-.4 0-.6-.2-.7-.1-.2-.4-.2-.7-.2h-2.8Zm19.4 18.3-.9-4.4h-4.6l-.8 4.4h-3.9l4.3-21.3h5.3l4.5 21.3h-4Zm-5-7.3h3.6L124 13.8 122.3 24Z" fill="currentColor"/></svg>
