<svg fill="none" xmlns="http://www.w3.org/2000/svg" viewBox="0 0 158 36"><path d="M54.2 12.5c0-.8-.6-1.4-1.4-1.4-.8 0-1.4.6-1.4 1.4v11c0 .8.6 1.4 1.4 1.4.8 0 1.4-.6 1.4-1.3V12.5ZM67.9 11c-.8 0-1.4.6-1.4 1.4v8.9l-1.6-4-2.2-4.4C62 11.6 61.2 11 60 11c-1.6 0-2.3 1-2.3 2.5v10c0 .7.6 1.3 1.4 1.3.8 0 1.3-.6 1.3-1.3V14l1.8 4.4 2.2 4.6c.7 1.4 1.4 1.8 2.5 1.8 1.5 0 2.2-.8 2.2-2.5v-10c0-.7-.5-1.3-1.3-1.3Zm11.6 2.8 3.1.1c.8 0 1.3-.5 1.3-1.3 0-.9-.5-1.4-1.3-1.4h-9c-.8 0-1.4.5-1.4 1.3s.6 1.4 1.3 1.4h3.2v9.6c0 .7.6 1.3 1.4 1.3.8 0 1.4-.6 1.4-1.3v-9.7Zm9.3 10.9h6.8c.7 0 1.3-.6 1.3-1.3 0-.8-.6-1.4-1.3-1.4h-5.9v-3h5.1c.7 0 1.3-.6 1.3-1.3 0-.7-.6-1.2-1.3-1.2h-5V14h5.8c.7 0 1.3-.6 1.3-1.4 0-.7-.6-1.2-1.3-1.2h-6.8c-1.2 0-1.9.7-1.9 1.9v9.6c0 1.3.7 2 2 2Zm19.1-5.5c1.9-.5 3-2 3-3.8 0-2.1-1.4-4.2-4.7-4.2h-4.3c-1.2 0-1.9.7-1.9 1.9v10.4c0 .7.6 1.3 1.4 1.3.9 0 1.5-.6 1.5-1.3v-3.7h2.3l2.4 4.3c.3.7 1.2 1 2 .6.7-.5.9-1.3.5-2l-2.2-3.5Zm-5-5.5h3.3c1.1 0 1.9.7 1.9 1.8 0 1-.7 1.8-1.9 1.8h-3.4v-3.6ZM119.3 25c2.8 0 4.6-1.3 5.2-3.3.4-1.2-.3-2-1.4-2-.6 0-1 .3-1.3 1-.4 1-1.3 1.7-2.7 1.7-2.1 0-3-1.4-3-4.4 0-3 .9-4.4 3-4.4 1.3 0 2.1.6 2.6 1.9.3.7.7 1 1.4 1 1 0 1.7-.8 1.4-1.9-.6-2.3-2.4-3.5-5.3-3.5-4 0-6 2.4-6 6.9s2 7 6 7Zm13.7 0c4 0 6.1-2.5 6.1-7s-2-7-6.1-7c-4 0-6 2.5-6.1 7 0 4.5 2 7 6.1 7Zm0-2.6c-2.3 0-3.3-1.5-3.3-4.4 0-3 1-4.4 3.3-4.4 2.2 0 3.3 1.4 3.3 4.4 0 3-1 4.4-3.3 4.4Zm24-8.9c0-1.5-.9-2.4-2.3-2.4-1.2 0-2.1.6-2.6 2.1l-1.5 4.9-1 3.5-.9-3.5-1.6-4.9c-.4-1.4-1.2-2.1-2.5-2.1-1.5 0-2.4.9-2.4 2.4v10c0 .8.5 1.4 1.3 1.4s1.3-.6 1.3-1.3v-4.9l-.1-5.2 1.5 5.3 1.6 4.7c.4 1 1 1.4 1.9 1.4.8 0 1.4-.3 1.7-1.3l1.6-4.8 1.6-5.3-.1 5.2v4.9c0 .7.5 1.3 1.3 1.3s1.3-.6 1.3-1.3V13.5ZM31.4 19.8A1.2 1.2 0 0 1 30 21a1.2 1.2 0 0 1-1.2-1.2V9a1.2 1.2 0 0 1 .7-1.1A1.2 1.2 0 0 1 31.3 9v10.8Zm-.5 7.5c-.1.2-4.6 4-12.8 4-8.2 0-12.6-3.8-12.8-4a1.2 1.2 0 1 1 1.6-1.8s4 3.3 11.2 3.3c7.2 0 11.2-3.3 11.3-3.3a1.2 1.2 0 0 1 1.7.1 1.2 1.2 0 0 1-.2 1.7ZM4.8 9A1.2 1.2 0 0 1 6 7.8 1.2 1.2 0 0 1 7 9v10.8a1.2 1.2 0 0 1-.6 1.1 1.2 1.2 0 0 1-1.4-.3c-.2-.2-.3-.5-.3-.8V9Zm6-2.4c0-.3.2-.6.4-.8a1.2 1.2 0 0 1 2 .8v16a1.2 1.2 0 0 1-1.2 1.2 1.2 1.2 0 0 1-.8-.3c-.3-.3-.4-.6-.4-.9v-16Zm6-.6a1.2 1.2 0 0 1 1.3-1.2A1.2 1.2 0 0 1 19.3 6v17.4a1.2 1.2 0 0 1-1.2 1.2 1.2 1.2 0 0 1-.9-.3l-.3-.9V6Zm6 .6A1.2 1.2 0 0 1 24 5.4a1.2 1.2 0 0 1 1.2 1.2v16a1.2 1.2 0 0 1-1.2 1.2 1.2 1.2 0 0 1-1.2-1.2v-16ZM31.6 0h-27a4.5 4.5 0 0 0-3.3 1.3C.5 2.2 0 3.3 0 4.5v27a4.6 4.6 0 0 0 2.8 4.2c.5.2 1.1.3 1.7.3h27a4.5 4.5 0 0 0 3.3-1.3c.8-.8 1.3-2 1.3-3.2v-27A4.5 4.5 0 0 0 33.3.3c-.5-.2-1.1-.3-1.7-.3" fill="currentColor"/></svg>
