<svg fill="none" xmlns="http://www.w3.org/2000/svg" viewBox="0 0 146 33"><path d="M19 29.7c-7-.2-12.5-3-12.4-6 .1-3.2 5.9-5.4 13-5.2l9 .2c.4 0 .7-.2.6-.6l-.1-2.7c0-.2-.2-.3-.4-.3-1.7 0-8.2.5-9.5.6v-.1c1.4-1.1 6.4-3 8.4-3.6.2-.1.3-.4.2-.6-.4-1-1.4-2.6-2-3.3a.4.4 0 0 0-.5 0c-3.6 2-7.4 3.7-11 5.8l-.2-.1c1.9-3.3 5.5-5.9 8.6-8.5.2-.1.2-.4 0-.6l-2.5-1.9a.4.4 0 0 0-.5 0L8.9 12.4s-.1 0 0 0A31 31 0 0 1 16 1.5c.3-.2.2-.6-.1-.7L12.6 0h-.3c-8.2 7.2-26 34.4 6.5 33 .1 0 .3-.1.3-.3.3-.4.4-1.4.7-2.3.1-.3 0-.6-.3-.6h-.4Z" fill="currentColor"/><path d="M18.8 26.7a3 3 0 0 0 2.9-3 2.9 2.9 0 0 0-5.8 0 3 3 0 0 0 3 3Zm31.3-14.2h5.7l-6.3 6.3 6.9 9.7h-5.7L46.3 22l-1.6 1.6v5h-4.8v-22h4.8v12.1l5.4-6Zm29.8 11c0 1.7 1.3 2.4 3.2 2.4 1 0 2.5-.5 2.5-1.7 0-1.8-2.2-2-4.6-2.4-2.3-.4-5.6-1-5.6-5 0-1.4.6-4.9 7.3-4.9 5.7 0 7 2.9 7.1 5h-4.3c-.2-1.8-1.9-1.8-2.5-1.8-.8 0-2.7.1-2.7 1.4 0 2 2.3 2 4 2.3 2.7.4 6.2 1 6.2 4.9 0 2.4-1.2 5.4-7.6 5.4-5 0-7.8-2.2-7.9-5.6h5Zm42.8 5v-1.9c-1.6 1.8-2.8 2.5-4.8 2.5-4.5 0-7.2-3.5-7.2-8.6 0-5.2 2.7-8.6 7.3-8.6 1.6 0 3.7.8 4.7 2.2V6.5h4.8v22h-4.8Zm-3.4-13.4c-2.7 0-3.7 2.7-3.7 5.4 0 3.4 1.4 5.4 3.7 5.4 1.9 0 3.7-1.4 3.7-5.4 0-3.5-1.3-5.4-3.7-5.4ZM72.5 25.2V18c0-1.8 0-6-7.2-6-1.8 0-7.2.3-7.5 5.8h4.5c0-2.4 2-2.6 3-2.6.5 0 2.4 0 2.5 2.2v.4c0 1.5-1.3 1.3-4.8 1.8-3 .5-6 1.3-6 5 0 1.3.5 4.6 5.6 4.6 2 0 4-.6 5.3-2.2v1.6h4.6v-3.3ZM67.8 22c0 3.2-2.3 4-3.4 4-1 0-2.5-.3-2.5-1.9 0-1.7 1.8-2 2.8-2.2 1.8-.4 1.7-.2 3.1-.9v1Zm40.1 3.2V18c0-1.8 0-6-7.2-6-1.7 0-7.2.3-7.5 5.8h4.6c0-2.4 2-2.6 2.9-2.6.5 0 2.4 0 2.5 2.2v.4c0 1.5-1.3 1.3-4.8 1.8-2.9.5-6 1.3-6 5 0 1.3.6 4.6 5.6 4.6 2 0 4-.6 5.3-2.2h.1v1.6h4.5v-3.3Zm-4.6-3.3c0 3.2-2.4 4-3.5 4-1 0-2.4-.3-2.4-1.9 0-1.7 1.7-2 2.7-2.2 1.8-.4 1.8-.2 3.2-.9v1Zm42.7 3.3V18c0-1.8-.1-6-7.3-6-1.7 0-7.2.3-7.4 5.8h4.5c0-2.4 2-2.6 2.9-2.6.5 0 2.5 0 2.6 2.2v.4c-.1 1.5-1.4 1.3-4.9 1.8-2.9.5-5.9 1.3-5.9 5 0 1.3.5 4.6 5.5 4.6 2 0 4.1-.6 5.3-2.2h.1v1.6h4.5v-3.3Zm-4.7-3.3c0 3.2-2.3 4-3.5 4-.9 0-2.4-.3-2.4-1.9 0-1.7 1.8-2 2.8-2.2 1.8-.4 1.7-.2 3-.9v1Z" fill="currentColor"/></svg>
