<svg fill="none" xmlns="http://www.w3.org/2000/svg" viewBox="0 0 46 32"><path fill-rule="evenodd" clip-rule="evenodd" d="M0 .6h7V19c0 2.9 1.3 4.6 2.4 5.4a6.1 6.1 0 0 1-7.2-.3A6.7 6.7 0 0 1 0 19V.6Zm43.7 15.3v-2h2V7.1h-2.3c-.9-4-4.5-7.1-9-7.1-5 0-9.2 4-9.2 9v16a6 6 0 0 0 4.7-1.3 6.7 6.7 0 0 0 2.2-5.2v-.6h3.5v-6.8H32v-2c0-1.3 1-2.3 2.3-2.3 1.3 0 2.4 1 2.4 2.3v6.8c0 5 4.1 9 9.2 9v-6.7c-1.3 0-2.3-1-2.3-2.3ZM17.2 7v10c0 .6-.5 1-1 1a1 1 0 0 1-1.1-1V7H8v12c0 2 .8 4.7 4 5.6 3.4.9 5.3-1 5.3-1-.1 1.3-1.3 2.1-3.1 2.3a8 8 0 0 1-4-.7v6.2c2.2.7 4.6 1 7 .5 4.1-.8 6.8-4.3 6.8-9V7.2h-6.9Z" fill="currentColor"/></svg>
