<svg fill="none" xmlns="http://www.w3.org/2000/svg" viewBox="0 0 96 32"><path d="M56.6 10.6A9.7 9.7 0 0 0 50 8a9 9 0 0 0-7 2.8V8.3h-6.2V32H43V19c0-1.6.5-2.9 1.5-3.9.9-.9 2.2-1.3 3.8-1.3 1.4 0 2.5.4 3.2 1.2.7 1 1 2 1 3.5V32H59V17.4a10 10 0 0 0-2.5-6.9ZM68 8.3h-6.4V32H68V8.3Zm0-7.9h-6.4v6H68v-6Zm27 15.1c-.6-1.5-1.6-2.8-2.6-4a12.2 12.2 0 0 0-12.1-2.8 9 9 0 0 0-3.1 1.5V.4h-6.4V32h6.4v-1.8a9 9 0 0 0 3 1.6 13 13 0 0 0 8.4-.4 10 10 0 0 0 3.8-2.5A12.2 12.2 0 0 0 95 15.5Zm-5.7 7.3-1.3 2c-.6.5-1.2 1-2 1.3-.7.4-1.6.5-2.5.5-.9 0-1.8-.2-2.5-.5-.8-.3-1.5-.8-2.1-1.3-.6-.6-1-1.3-1.4-2-.3-.7-.4-1.7-.4-2.5s.1-1.7.5-2.4a6 6 0 0 1 1.4-2 7 7 0 0 1 4.6-2 6 6 0 0 1 2.5.6 9 9 0 0 1 2 1.4 5.8 5.8 0 0 1 1.7 4.4c0 .8-.3 1.7-.5 2.5ZM0 13.2v6h8.7l-6.2 6.1 4.2 4.1 6.1-6.2V32h6V13.2H0ZM11.5 12V7.7L6.7 2.9 2.5 7.1 7.3 12h4.2Zm8.6 8.6v4.2l4.8 4.7 4.1-4-4.7-4.9H20Zm9-13.4L24.8 3 20 7.8V12h4.2L29 7Zm-4.2 6.1-3 3 3 3h6.7v-6h-6.7Zm-12-6 3 2.8 2.8-2.9V.4h-5.9v6.7Z" fill="currentColor"/></svg>
