<svg fill="none" xmlns="http://www.w3.org/2000/svg" viewBox="0 0 158 40"><path d="m153.9 14.7-3.5 10-1.6 4.5-1.5-4.4-3.5-10.1h-4l7 18.5-.5 1.3a3.8 3.8 0 0 1-3.5 2.3H141V40h1.8a7.2 7.2 0 0 0 6.7-4.5l8.3-20.8h-3.9Zm-98.3 15c0 6.7-3 10.3-9.3 10.3-4.6 0-7.4-2.4-8.4-6.1h3.8c.6 1.7 2 3.2 4.7 3.2 4.2 0 5.7-2.6 5.7-7.6-1 1.5-3 3-6.2 3-5.3 0-8.6-3.9-8.6-9.2 0-5.5 3.6-9.2 8.6-9.2a7 7 0 0 1 6.2 3v-2.4h3.5v15Zm-14.4-6.4c0 3.6 2 6.2 5.5 6.2 3 0 5.5-2.2 5.5-6.3 0-3.6-2.1-6-5.5-6s-5.5 2.4-5.5 6.1ZM61.4 25c.2 3.2 2.3 5.8 5.9 5.8 2.5 0 3.7-1.2 4.7-2.8h3.6c-1.1 3.4-4 5.8-8.5 5.8-5.7 0-9.3-3.9-9.3-9.7 0-5.7 3.8-9.8 9.3-9.8 6 0 8.8 4.6 8.8 9.5V25H61.4Zm10.8-2.8c-.3-3-2.1-5-5.2-5-2.8 0-5 1.9-5.4 5h10.6Zm9.5-7.4v2.4c.5-1.8 2.4-2.8 4.4-2.8h1v3.3l-1.3-.1c-3.3 0-4 2.4-4 6.1v9.6h-3.5V14.7h3.4Zm42 15.9a6.5 6.5 0 0 1-5.9 3c-4.3 0-6.4-2.6-6.4-7.4V14.7h3.5v10.2c0 3.6 1.2 5.8 4.1 5.8 3.8 0 4.5-3.4 4.5-7.5v-8.5h3.6v18.5h-3.4v-2.6Zm11.3-16h3.5v2.8H135v11c0 1.8.9 2.4 2.3 2.4l.8-.1v2.6l-1.3.2c-3.3 0-5.4-1.1-5.4-4.8V17.5h-2.8v-2.8h2.8v-5h3.6v5ZM5.5 26.5H1.8v6.7h3.7v-6.7ZM15.7 9.2c-2-1-3.3-1.2-6.6-1.2H1.8v15.3h7.3c2.9 0 5-.2 7-1.4 2-1.4 3.1-3.7 3.1-6.3a7 7 0 0 0-3.5-6.4ZM10 20.1H5.5v-8.8h4.2c3.8-.1 5.7 1.2 5.7 4.3 0 3.2-2.4 4.5-5.5 4.5ZM89.2 8h6.2c9.2 0 13.7 4.6 13.7 12.7 0 6.9-3.5 12.4-13 12.5h-6.9V8ZM93 30h2c6.7 0 10.2-2.5 10.2-9.3 0-6-3.5-9.5-9.8-9.5H93v18.9Zm-60.8 3.2-.2-2.5c-1.4 2-3.3 2.9-6.2 2.9-4 0-6.8-2-6.8-5.4 0-4 3.9-5.3 8.8-6l3.8-.4c0-3.6-2-4.7-4.2-4.7-2 0-3.6 1.5-3.6 3.4h-3.5c0-3.7 3-6.3 7.2-6.3 4.3 0 7.6 1.8 7.6 8.6v3.6c0 3 .1 5.2.4 6.8h-3.3Zm-9.3-5c0 1.7 1.4 2.8 3.7 2.8 3.3 0 5-2 5-5.6v-1c-6 .6-8.7 1.2-8.7 3.8Z" fill="currentColor"/></svg>
