<svg viewBox="0 0 42 42" fill="none" xmlns="http://www.w3.org/2000/svg">
  <path d="M21 0a21 21 0 0 0-7.7 40.5c-.2-1.6-.3-4.2.1-6L16 24.1s-.7-1.3-.7-3.1c0-3 1.7-5.1 3.8-5.1 1.8 0 2.7 1.3 2.7 3s-1.1 4.4-1.7 7c-.5 2 1 3.7 3 3.7 3.8 0 6.7-4 6.7-9.6 0-5-3.6-8.5-8.8-8.5a9 9 0 0 0-9.5 9c0 1.9.7 3.8 1.6 4.9l.1.6-.6 2.4c0 .3-.3.4-.7.2-2.6-1.2-4.2-5-4.2-8.1 0-6.6 4.8-12.7 13.9-12.7 7.2 0 12.9 5.2 12.9 12.1 0 7.3-4.6 13-10.9 13-2.1 0-4.1-1-4.8-2.3l-1.3 5c-.5 1.8-1.7 4-2.6 5.5A21 21 0 0 0 42 21 21 21 0 0 0 21 0Z" fill="currentColor"/>
</svg>
