<svg fill="none" xmlns="http://www.w3.org/2000/svg" viewBox="0 0 200 32"><path d="M0 16a16 16 0 0 1 30.6-6.6L9.4 30.6A16 16 0 0 1 7 29.1L20 16h-4L4.7 27.3A16 16 0 0 1 0 16Zm32 0L16 32a16 16 0 0 0 16-16Z" fill="currentColor"/><path fill-rule="evenodd" clip-rule="evenodd" d="M40.5 4.9v21.8h3V20h4.6c4.2 0 7.5-3.1 7.5-7.3 0-4.5-3.3-7.7-7.5-7.7h-7.6Zm12.2 7.5c0 2.6-2 4.9-4.6 4.9a3141.3 3141.3 0 0 0-4.6 0V7.6H48c2.6 0 4.7 2.1 4.7 4.8Z" fill="currentColor"/><path d="M178.3 26.7V5h3.1v21.8h-3Zm-118 0V5h-3.1v21.8h3Z" fill="currentColor"/><path fill-rule="evenodd" clip-rule="evenodd" d="M79.2 26.7V10.4h-3v2.3H76a6.5 6.5 0 0 0-5.7-2.8c-4.8 0-8.5 3.7-8.5 9 0 4.6 3.8 8.2 8.6 8.2 2.4 0 4.4-1 5.6-3v2.6h3.1Zm-8.7-2.4a5.8 5.8 0 0 1 0-11.6c3.4 0 5.7 2.7 5.7 5.9 0 3-2.5 5.7-5.7 5.7Z" fill="currentColor"/><path d="M96.4 26.7V17c0-4.5-3-7-6.9-7-1.9 0-3.5.6-4.7 2.2h-.1v-1.7h-3v16.3h3.2v-9c0-3 1.6-5 4.3-5 2.7 0 4 1.6 4 5.1v9h3.2Z" fill="currentColor"/><path fill-rule="evenodd" clip-rule="evenodd" d="M114.6 19.8v-1.5c0-4.7-3.6-8.4-8.4-8.4a8.4 8.4 0 0 0-8.3 8.8c0 4.4 3.7 8.4 8.3 8.4 3.6 0 6.6-2.1 7.9-5.5h-3a5.3 5.3 0 0 1-4.7 2.7 5.6 5.6 0 0 1-5.4-4.4h13.5v-.1ZM101 17.3a5.4 5.4 0 0 1 5.2-4.6c2.6 0 5 2 5.3 4.6H101Z" fill="currentColor"/><path d="M137 10.3h3.4c-.5-2.7-3.6-5.4-7.7-5.4-4.3 0-7.6 2.4-7.6 6.1 0 3 2.1 4.9 5.6 5.8l2.5.7c2.3.6 4 1.4 4 3.3 0 2.1-2 3.5-4.7 3.5-2.2 0-4-.9-4.6-2.7h-3.4c.6 3.3 3.5 5.5 8 5.5 5 0 8-2.6 8-6.3 0-3.8-3.5-5.4-6.2-6l-2-.6c-1.8-.4-4-1.3-4-3.4 0-1.8 1.7-3.2 4.3-3.2 2.3 0 4 1 4.4 2.7Zm21 11.3a8.4 8.4 0 0 1-8 5.5 8.4 8.4 0 0 1-8.4-8.4c0-5 3.6-8.8 8.4-8.8 3.6 0 6.9 2.2 8 5.6h-3.5a4.8 4.8 0 0 0-4.4-2.8c-3.2 0-5.4 2.5-5.4 5.8s2.2 5.8 5.3 5.8c2 0 3.6-1 4.5-2.7h3.5Z" fill="currentColor"/><path fill-rule="evenodd" clip-rule="evenodd" d="M176 10.4v16.3h-3.1v-2.5h-.1c-1.2 2-3.2 3-5.6 3a8.4 8.4 0 0 1-8.6-8.4c0-5.2 3.7-8.9 8.5-8.9 2.4 0 4.4.9 5.7 2.8v-2.3h3.1Zm-14.4 8.2c0 3 2.5 5.7 5.6 5.7 3.2 0 5.7-2.6 5.7-5.7 0-3.2-2.3-5.9-5.7-5.9-3 0-5.6 2.7-5.6 5.9Zm38 1.1V18a8.8 8.8 0 0 0-1.3-4.5 8.4 8.4 0 0 0-7.1-3.7 8.4 8.4 0 0 0-8.2 8.8l.1 1.6a8.6 8.6 0 0 0 8.2 6.8c3.5 0 6.6-2.1 7.8-5.5h-3l-.4.6a5.3 5.3 0 0 1-4.3 2.1c-2.5 0-4.6-1.7-5.4-4.4h13.6v-.2ZM186.1 17a5.4 5.4 0 0 1 5.2-4.3c2.5 0 5 2 5.3 4.6H186V17Z" fill="currentColor"/><path d="M120.1 10.4h3.4V13h-3.4v9.2c0 1.6.8 2 1.7 2.1h.1l1.2-.1c.4.8.9 1.6 1.5 2.2-1.1.7-2.4.8-3.3.7-.5 0-1 0-1.4-.2a4 4 0 0 1-2.6-2.5c-.2-.4-.3-1-.3-1.6V13h-2.4v-2.6h2.4V4.9h3.1v5.5Z" fill="currentColor"/></svg>
