<svg viewBox="0 0 124 24" fill="none" xmlns="http://www.w3.org/2000/svg">
<path d="M52.6667 23.4963H48.1586L38.3084 13.4273H36.4728V23.4949H33.1322V0H44.3186C49.0279 0 51.8326 2.51689 51.8326 6.71366C51.8326 10.909 49.0279 13.4273 44.3186 13.4273H42.649L52.6667 23.4963ZM48.4934 6.71219C48.4934 4.3304 47.1571 2.85316 44.3186 2.85316H36.4714V10.5742H44.3186C47.1571 10.5742 48.4934 9.09692 48.4934 6.71219ZM61.2173 24C55.8737 24 52.5345 20.0059 52.5345 14.7695C52.5345 9.53304 55.8737 5.53745 61.0499 5.53745C65.2247 5.53745 67.7283 7.88693 68.8311 11.3789C69.232 12.6872 69.3979 14.1307 69.3979 15.6079V15.9442H55.7416C55.8414 18.7636 57.9104 21.4816 61.2173 21.4816C64.0558 21.4816 65.3583 19.837 65.6256 18.6285H69.0646C68.2628 21.4816 65.5918 24 61.2173 24ZM55.7401 13.4273H66.1924C66.025 10.4053 64.4229 8.0558 61.0499 8.0558C57.6769 8.0558 55.8414 10.5727 55.7401 13.4258V13.4273ZM69.5639 8.72687V6.04258H73.7371V2.01468H76.9427V6.04258H81.4508V8.72687H76.9427V19.2996C76.9427 20.4758 77.2775 20.8781 78.4464 20.8781H81.4508V23.4963H77.7783C74.7386 23.4963 73.7371 21.9868 73.7371 19.301V8.72834L69.5639 8.72687ZM90.6681 5.53745C96.0117 5.53745 99.5169 9.53157 99.5169 14.7695C99.5169 20.0059 96.0117 24 90.6681 24C85.3245 24 81.8194 20.0059 81.8194 14.7695C81.8194 9.53304 85.3245 5.53745 90.6681 5.53745ZM90.6681 8.22467C87.0279 8.22467 85.025 11.2438 85.025 14.7695C85.025 18.2937 87.0279 21.3142 90.6681 21.3142C94.3084 21.3142 96.3113 18.2937 96.3113 14.7695C96.3113 11.2452 94.3084 8.22467 90.6681 8.22467ZM109.783 5.53745C115.125 5.53745 118.631 9.53157 118.631 14.7695C118.631 20.0059 115.125 24 109.783 24C104.439 24 100.932 20.0059 100.932 14.7695C100.932 9.53304 104.439 5.53745 109.783 5.53745ZM109.783 8.22467C106.141 8.22467 104.138 11.2438 104.138 14.7695C104.138 18.2937 106.142 21.3142 109.783 21.3142C113.421 21.3142 115.426 18.2937 115.426 14.7695C115.426 11.2452 113.421 8.22467 109.783 8.22467ZM123.692 0V23.4963H120.486V0H123.692ZM14.6843 1.10132C14.6843 0.809233 14.5683 0.529108 14.3617 0.32257C14.1552 0.116032 13.8751 0 13.583 0L1.10132 0C0.809233 0 0.529107 0.116032 0.32257 0.32257C0.116032 0.529108 0 0.809233 0 1.10132L0 6.24082C0 6.84875 0.493392 7.34214 1.10132 7.34214H13.583C13.8751 7.34214 14.1552 7.45818 14.3617 7.66471C14.5683 7.87125 14.6843 8.15138 14.6843 8.44347V9.91189C14.6843 10.204 14.5683 10.4841 14.3617 10.6906C14.1552 10.8972 13.8751 11.0132 13.583 11.0132H5.50661C5.21452 11.0132 4.93439 11.1292 4.72786 11.3358C4.52132 11.5423 4.40529 11.8224 4.40529 12.1145V17.254C4.40529 17.862 4.89868 18.3554 5.50661 18.3554H13.583C13.8751 18.3554 14.1552 18.4714 14.3617 18.6779C14.5683 18.8845 14.6843 19.1646 14.6843 19.4567V22.3935C14.6843 23.0029 15.1777 23.4949 15.7856 23.4949H20.9251C21.2172 23.4949 21.4973 23.3788 21.7039 23.1723C21.9104 22.9658 22.0264 22.6856 22.0264 22.3935V17.254C22.0264 16.962 21.9104 16.6818 21.7039 16.4753C21.4973 16.2687 21.2172 16.1527 20.9251 16.1527H15.7856C15.4935 16.1527 15.2134 16.0367 15.0069 15.8301C14.8003 15.6236 14.6843 15.3435 14.6843 15.0514V13.583C14.6843 13.2909 14.8003 13.0108 15.0069 12.8042C15.2134 12.5977 15.4935 12.4816 15.7856 12.4816H20.9251C21.2172 12.4816 21.4973 12.3656 21.7039 12.1591C21.9104 11.9525 22.0264 11.6724 22.0264 11.3803V6.24082C22.0264 5.94873 21.9104 5.66861 21.7039 5.46207C21.4973 5.25553 21.2172 5.1395 20.9251 5.1395H15.7856C15.4935 5.1395 15.2134 5.02347 15.0069 4.81693C14.8003 4.61039 14.6843 4.33027 14.6843 4.03818V1.10132Z" fill="currentColor"/>
</svg>
