<svg viewBox="0 0 113 32" fill="none" xmlns="http://www.w3.org/2000/svg">
  <path d="M38.8 17.8c-1-.5-1.5-1-1.5-1.6 0-.7.7-1.2 1.8-1.2 1.2 0 2.3.5 2.3.5l.9-2.7s-.8-.6-3.2-.6c-3.3 0-5.6 2-5.6 4.6 0 1.5 1 2.6 2.5 3.5 1.1.6 1.5 1 1.5 1.8 0 .7-.5 1.3-1.6 1.3-1.6 0-3.1-.9-3.1-.9l-1 2.7s1.5 1 3.8 1c3.4 0 5.8-1.7 5.8-4.7 0-1.7-1.2-2.9-2.6-3.7Zm13.6-5.7c-1.7 0-3 .9-4 2h-.1l1.4-7.6H46l-3.7 19.4H46l1.3-6.6c.5-2.5 1.8-4 3-4 .8 0 1.2.5 1.2 1.3l-.2 1.7-1.5 7.6h3.8l1.5-7.8c.2-.8.3-1.8.3-2.5 0-2.2-1-3.5-3-3.5Zm11.6 0c-4.5 0-7.6 4.2-7.6 8.8 0 2.9 1.8 5.3 5.2 5.3 4.5 0 7.5-4 7.5-8.7 0-2.8-1.5-5.4-5-5.4Zm-1.8 11.1c-1.3 0-1.9-1-1.9-2.4 0-2.2 1.2-5.8 3.2-5.8 1.4 0 1.8 1.2 1.8 2.3 0 2.4-1.1 6-3.1 6Zm16.7-11.1c-2.6 0-4 2.3-4 2.3l.1-2h-3.3l-.8 5-2.6 13.9H72l1-5.6s.9.5 2.3.5c4.5 0 7.4-4.6 7.4-9.2 0-2.6-1.1-4.9-4-4.9Zm-3.6 11.2c-1 0-1.6-.5-1.6-.5l.6-3.6c.5-2.3 1.7-4 3-4 1.2 0 1.5 1.2 1.5 2.2 0 2.4-1.4 6-3.5 6ZM88.2 6.7c-1.2 0-2.2 1-2.2 2.2 0 1.1.7 2 1.8 2 1.2 0 2.3-.9 2.3-2.3 0-1.1-.7-1.9-1.9-1.9Zm-5.3 19.2h3.8l2.6-13.5h-3.8L82.9 26ZM99 12.4h-2.7l.1-.6c.3-1.3 1-2.5 2.3-2.5.7 0 1.2.2 1.2.2l.7-3s-.6-.3-2-.3-2.7.4-3.7 1.3a7.1 7.1 0 0 0-2.2 4.3l-.1.6h-1.8l-.5 2.9H92l-2 10.6h3.8l2-10.6h2.6l.5-2.9Zm9 0-3.4 9.3c0-1-1-9.3-1-9.3h-4l2.3 12.4v.6c-.5.9-1.2 1.7-2 2.3-.8.5-1.6.9-2.2 1l1 3.3a10 10 0 0 0 3.8-2c1.7-1.7 3.3-4.2 5-7.6l4.6-10h-4ZM18.8 3.7l-1 .3c0-.3-.2-.7-.4-1.1-.7-1.3-1.6-2-2.8-2h-.3c-.5-.6-1.2-.8-2-.8-1.5 0-3 1.1-4.2 3a12 12 0 0 0-1.7 4.4l-3 1c-.8.2-.8.3-1 1L.2 28l19 3.3V3.7h-.3Zm-4.4 1.4-3.2 1a8 8 0 0 1 1.6-3.2 4 4 0 0 1 1-.8c.5 1 .6 2.1.6 3Zm-2-4c.3 0 .6 0 .8.2-.4.2-.8.6-1.2 1a9 9 0 0 0-2 4.1l-2.6.8c.6-2.4 2.6-6 5-6.1Zm-3 13.8c.1 1.6 4.4 2 4.6 5.8.2 3-1.6 5-4.1 5.1-3 .2-4.8-1.6-4.8-1.6l.7-2.7s1.7 1.2 3 1.1c1 0 1.2-.7 1.2-1.2-.1-2.1-3.6-2-3.8-5.5-.2-2.9 1.7-5.8 6-6.1a5 5 0 0 1 2.4.3l-1 3.6s-1-.5-2.3-.4c-1.9.1-2 1.3-1.9 1.6Zm6-10.1a8 8 0 0 0-.5-2.8c1.2.3 1.7 1.5 2 2.3l-1.5.5Zm4.2 26.3 8-2-3.5-23c0-.2-.2-.3-.3-.3h-2.3L19.6 4v27Z" fill="currentColor"/>
</svg>
