<svg viewBox="0 0 109 28" fill="none" xmlns="http://www.w3.org/2000/svg">
  <path fill="currentColor" d="m34.6 21.5 1.4-3a9 9 0 0 0 5.2 1.6c1.5 0 2.3-.6 2.3-1.4 0-2.3-8.4-.5-8.4-6.2 0-3 2.5-5.2 6.2-5.2 2.2 0 4.4.5 6 1.8L46 12.3a9.5 9.5 0 0 0-5-1.6c-1 0-1.8.5-1.8 1.2 0 2.3 8.5 1 8.6 6.5 0 3-2.6 5.1-6.2 5.1-2.7 0-5.1-.6-7-2Zm51.5-4.2a3.9 3.9 0 0 1-6.1.8 3.9 3.9 0 1 1 6-4.6l3.8-2a8.1 8.1 0 1 0 0 8L86 17.2ZM54.2.6h-4.6v22.6h4.6V.6Zm37.4 0v22.6h4.6v-6.8l5.5 6.8h6l-7-8 6.4-7.6h-5.7L96.2 14V.6h-4.6ZM68 17.4a4.3 4.3 0 0 1-5.1 1.6 3.9 3.9 0 0 1 1.5-7.5c1.5 0 3 .9 3.6 2v3.9Zm0-9.8v1.9c-.8-1.3-2.7-2.2-4.6-2.2-4 0-7.3 3.6-7.3 8 0 4.6 3.2 8.2 7.3 8.2 2 0 3.8-.9 4.6-2.1v1.8h4.6V7.6H68ZM6 17.3a2.9 2.9 0 1 1-2.8-2.8H6v2.8Zm1.5 0a2.9 2.9 0 1 1 5.7 0v7.2a2.8 2.8 0 1 1-5.7 0v-7.2Zm2.8-11.4A2.9 2.9 0 1 1 13.2 3v3h-2.9Zm0 1.4a2.9 2.9 0 1 1 0 5.7H3.2a2.9 2.9 0 1 1 0-5.7h7.1Zm11.4 2.9a2.9 2.9 0 1 1 2.9 2.8h-2.9v-2.8Zm-1.4 0a2.9 2.9 0 1 1-5.7 0V3a2.8 2.8 0 1 1 5.7 0v7.2Zm-2.8 11.4a2.9 2.9 0 1 1-2.9 2.9v-2.9h2.9Zm0-1.4a2.9 2.9 0 1 1 0-5.7h7.1a2.8 2.8 0 1 1 0 5.7h-7.1Z"/>
</svg>
