<svg viewBox="0 0 120 28" fill="none" xmlns="http://www.w3.org/2000/svg"><path fill="currentColor" d="M7.9 11.3c5.3-1.9 6.2-6.7 5.5-11 0-.2.2-.3.3-.3 5.1 2.5 10.9 8 10.9 16.2 0 6.2-4.9 11.8-12 11.8A11.4 11.4 0 0 1 6.2 6.9c.2 0 .3 0 .3.2.1.8.3 3 1.3 4.2ZM39.7 23l.3-.4 1.3 3.8-.2.1c-1 .9-2.3 1.3-4 1.3H37c-1.6 0-2.9-.4-3.7-1.3-.9-.8-1.3-2.1-1.3-3.8V12.3h-3.1V8h3V3h4.8v5h3.8v4.3h-3.8v9.4c0 .4 0 1.8 1.4 1.8.7 0 1.3-.2 1.6-.5Zm2.5 4.4V8h4.7v19.3h-4.7ZM44.5.2a2.8 2.8 0 1 1-2.8 2.9c0-1.6 1.3-2.9 2.8-2.9Zm15.1 7.4C63.7 7.6 66 10 66 14v13.5h-4.8V15c0-2.2-1.1-3.2-3.3-3.2a6 6 0 0 0-4.5 2.3v13.2h-4.7V8h4.7v2a9 9 0 0 1 6.2-2.4Zm22.1 2.5v-9h4.8v26.3h-4.8v-2a7.8 7.8 0 0 1-5.6 2.4c-5.2 0-8.6-4-8.6-10 0-6.1 3.4-10.2 8.6-10.2a7.7 7.7 0 0 1 5.6 2.5Zm0 4a5.8 5.8 0 0 0-4.4-2.2c-3 0-5 2.4-5 5.9 0 3.4 2 5.8 5 5.8 1.7 0 3.5-1 4.4-2.2v-7.2Zm15.8-6.5c5.6 0 9.5 4.4 9.5 10.5v1.3H92.7a5.3 5.3 0 0 0 5.5 4.5c1.9 0 3.9-.8 5-2l.4-.3 2.2 3.3-.2.2a11 11 0 0 1-7.8 2.7c-5.9 0-10-4.1-10-10a9.7 9.7 0 0 1 9.7-10.2Zm-4.8 8.2h9.7c-.3-2.8-2.7-4.2-4.9-4.2-3.3 0-4.6 2.5-4.8 4.3Zm25.8-8.2h.3v4.8h-.4l-1.2-.2a6.2 6.2 0 0 0-4.4 2.3v12.9H108V8h4.8v2.1a8 8 0 0 1 5.7-2.6Z"/></svg>
