<svg fill="none" xmlns="http://www.w3.org/2000/svg" viewBox="0 0 112 40"><path d="M13.5 27.4a3.2 3.2 0 1 0 0-6.4 3.2 3.2 0 0 0 0 6.4Zm0-8.4a3.2 3.2 0 1 0 0-6.4 3.2 3.2 0 0 0 0 6.4Zm8.3 8.4a3.2 3.2 0 1 0 0-6.4 3.2 3.2 0 0 0 0 6.4Zm0-8.4a3.2 3.2 0 1 0 0-6.4 3.2 3.2 0 0 0 0 6.4ZM17.7 3.3c9 0 16.6 7.7 16.6 16.7s-7.6 16.7-16.6 16.7C8.7 36.7 1 29 1 20S8.6 3.3 17.7 3.3Zm0 4.5a12 12 0 0 0-12.2 12c0 6.6 5.5 12.4 12.2 12.4 6.7 0 12.1-5.8 12.1-12.4a12 12 0 0 0-12.1-12ZM53.2 30h5.3c.2 0 .2 0 .3-.2l1.7-6.4 1.7 6.4c0 .2.1.2.3.2h5.3c.2 0 .3 0 .4-.2L71.8 16v13.5c0 .2.2.3.4.3h5.7c.2 0 .3-.1.3-.3v-14c0-.3 0-.4-.3-.4H66.7c-.2 0-.3 0-.4.3L65.1 22l-1.3-6.5c0-.2-.2-.3-.4-.3h-5.7c-.1 0-.3.1-.3.3L56 22l-1-6.5c0-.2-.2-.3-.3-.3H46v-4.8c0-.3-.1-.4-.4-.3l-5.3 1.7c-.2.1-.3.3-.3.4v2.3c0 .6-.3.8-.9.8h-1.4c-.2 0-.3.2-.3.3v4c0 .3.1.4.3.4h2v4.9c0 3.5 1.4 5.4 5.6 5.4 1.6 0 3-.2 3.7-.5.2-.1.3-.2.3-.5v-3.8c0-.2-.3-.3-.5-.2-.4.2-.8.2-1.2.2-1 0-1.4-.4-1.4-1.7V20h2.5c.2 0 .3-.1.3-.3V16l3.8 13.6c0 .2.2.2.4.2Zm18.6-16.3c0 .2.2.3.4.3h5.7c.2 0 .3-.1.3-.3v-3.2c0-.2 0-.3-.3-.3h-5.7c-.2 0-.4.1-.4.3v3.2Zm7.7 16c0 .2.2.3.3.3h5.8c.2 0 .3-.1.3-.3V10.4c0-.2-.1-.3-.3-.3h-5.8c-.1 0-.3.1-.3.3v19.2Zm7.7 0c0 .2.2.3.3.3h5.8c.2 0 .3-.1.3-.3v-14c0-.3-.1-.4-.3-.4h-5.8c-.1 0-.3.1-.3.3v14.1Zm0-16c0 .2.2.3.3.3h5.8c.2 0 .3-.1.3-.3v-3.2c0-.2-.1-.3-.3-.3h-5.8c-.1 0-.3.1-.3.3v3.2Zm7.4 9c0 4.5 3.4 7.8 8.3 7.8 5 0 8.3-3.3 8.3-7.7v-.4c0-4.3-3.4-7.6-8.3-7.6s-8.3 3.3-8.3 7.6v.4Zm6.2.1v-.3c0-2 1-2.8 2.1-2.8 1.2 0 2.1.8 2.1 2.8v.3c0 2-.9 2.8-2 2.8-1.3 0-2.2-.8-2.2-2.8Z" fill="currentColor"/></svg>
