<svg viewBox="0 0 81 28" fill="none" xmlns="http://www.w3.org/2000/svg">
  <path d="M4.9 20a6 6 0 0 0 1.4 2.3c.6.7 1.3 1.2 2.1 1.5a7 7 0 0 0 7.6-1.5c.6-.7 1-1.4 1.4-2.3.3-1 .5-2 .5-3V0H22v27.5h-4V25a10.3 10.3 0 0 1-7.3 3 11 11 0 0 1-4.1-.8A9.6 9.6 0 0 1 1 21.6C.5 20.3.2 19 .2 17.2V0h4.2v17c0 1 .1 2 .5 3ZM29.2 0v10c.9-.9 2-1.6 3.1-2.2A10.4 10.4 0 0 1 46 13.4a10.3 10.3 0 0 1 0 8.2 10.6 10.6 0 0 1-9.7 6.4 10.2 10.2 0 0 1-7.2-3v2.5h-4V0h4Zm.4 20.3a6.8 6.8 0 0 0 3.7 3.6 6.7 6.7 0 0 0 5.4 0 6.9 6.9 0 0 0 3.6-3.6 6.8 6.8 0 0 0 0-5.4c-.3-1-.8-1.7-1.4-2.3a6.6 6.6 0 0 0-4.9-2 6.8 6.8 0 0 0-6.4 4.2c-.3.9-.5 1.8-.5 2.7 0 1 .2 2 .5 2.8ZM49 13.5c.6-1.3 1.3-2.4 2.2-3.3A10 10 0 0 1 58.6 7a10.2 10.2 0 0 1 7.2 3 8 8 0 0 1 2 3.3c.6 1.2.8 2.6.8 4.1v1.3H52.3a6.7 6.7 0 0 0 6.7 5.7c2.3 0 4.3-1 5.7-3l3 2.2a10.7 10.7 0 0 1-13 3.5 10.2 10.2 0 0 1-6.4-9.7c0-1.4.3-2.8.8-4Zm5.6-1.6a6.7 6.7 0 0 0-2.2 3.8h12.2c-.3-1.6-1-2.8-2.2-3.8a6 6 0 0 0-3.9-1.4 6 6 0 0 0-3.9 1.4Zm21.4.5c-.8 1-1.2 2.2-1.2 3.7v11.4h-4v-20h4v2.4a5.5 5.5 0 0 1 4.8-2.6H81V11h-1.7c-1.3 0-2.4.5-3.2 1.4Z" fill="currentColor"/>
</svg>
