<svg fill="none" xmlns="http://www.w3.org/2000/svg" viewBox="0 0 160 36"><path d="M58.4 8.7h-7.2A1.2 1.2 0 0 0 50 10v1.6a.8.8 0 0 0 .8.8H52a.1.1 0 0 1 .1.2L49.3 21a.1.1 0 0 1-.1 0 .1.1 0 0 1-.2 0L44.8 9.5a.8.8 0 0 0-.7-.5h-2.5a.8.8 0 0 0-.7.5l-4.2 11.4a.1.1 0 0 1-.1.1.1.1 0 0 1-.2 0l-2.8-8.5a.1.1 0 0 1 0-.2.1.1 0 0 1 .1 0H35a.8.8 0 0 0 .8-.8V10a1.2 1.2 0 0 0-1.2-1.2h-7.2a.8.8 0 0 0-.7 1 129.8 129.8 0 0 1 1 2.4l.4.2h1.4L35 28.9a.8.8 0 0 0 .8.6h1.7a.8.8 0 0 0 .7-.5A3225.8 3225.8 0 0 1 43 15.6a3141.4 3141.4 0 0 1 5 13.6l.4.2h1.8a.8.8 0 0 0 .7-.6l5.6-16.4.1-.1h1.2a.8.8 0 0 0 .8-.6l.3-1 .4-1A.7.7 0 0 0 59 9a.8.8 0 0 0-.7-.3Zm84.3 17.4h-1.3a.4.4 0 0 1-.4-.4V9.5a.5.5 0 0 0-.5-.6h-3.8a.6.6 0 0 0-.4.2l-1.6 2a.5.5 0 0 0 0 .6.5.5 0 0 0 .4.3h.5a.4.4 0 0 1 .3.4v13.5l-1.8 2.3a.5.5 0 0 0-.1.6.5.5 0 0 0 .5.3h6.6a.5.5 0 0 0 .4-.2l1.6-2c.3-.3 0-.8-.4-.8Zm-4.2-19.3a2.9 2.9 0 1 0 0-5.8 2.9 2.9 0 0 0 0 5.8ZM77.2 26.2c-1.2 0-1.7-.5-1.7-1.7v-9.2c0-4-3.3-6.5-7.1-6.5-5.8 0-8 2.8-8.2 5.9a.5.5 0 0 0 .6.6h2.8a.5.5 0 0 0 .5-.5c.2-1.6 1.3-2.8 3-2.8 2 0 3.3 1 3.3 3.3v2h-1c-3.6 0-6 .4-7.8 1.5-1.6 1-2.5 3-2.5 5.2 0 1.7.6 3 1.8 4.1 1 1.1 2.4 1.6 4.2 1.6 1 0 2-.3 3-.7a10 10 0 0 0 2.7-1.7.4.4 0 0 1 .5.1c.8 1.5 1.7 2 3.4 2 1.5 0 2.2-1.5 3-2.4.1-.3-.1-.8-.5-.8Zm-6.8-1.5c0 .2-.2.3-.3.4-.4.4-1 .7-1.5 1-.5.2-1 .3-1.6.3-.8 0-1.6-.3-2-.9a3 3 0 0 1-.9-2.1c0-1.2.5-2 1.4-2.6.8-.6 2.3-.9 4-.9h1v4.8Zm61.5 1.5c-1.1 0-1.7-.5-1.7-1.7v-9.2c0-4-3.3-6.5-7-6.5-6 0-8 2.8-8.3 5.9a.6.6 0 0 0 .2.4.5.5 0 0 0 .4.2h2.9a.5.5 0 0 0 .5-.5 2.8 2.8 0 0 1 3-2.8c2 0 3.2 1 3.2 3.3v2h-1c-3.6 0-6 .4-7.7 1.5-1.7 1-2.5 3-2.5 5.2 0 1.7.5 3 1.7 4.1a5.7 5.7 0 0 0 4.2 1.6c1 0 2-.3 3-.7a10.1 10.1 0 0 0 2.7-1.7.4.4 0 0 1 .4 0v.1c.9 1.5 1.8 2 3.5 2 1.5 0 2.3-1.5 3-2.4.2-.3 0-.8-.5-.8Zm-6.7-1.5c0 .2-.3.3-.3.4l-1.6 1c-.5.2-1 .3-1.6.3-.7 0-1.5-.3-2-.9a3 3 0 0 1-.9-2.1c0-1.2.5-2 1.4-2.6.9-.6 2.3-.9 4-.9h1v4.8ZM159 9l-1.5-.2a5 5 0 0 0-2.3.4 9.2 9.2 0 0 0-2.9 2.3s-.3.2-.3-.1V9.5a.5.5 0 0 0-.6-.6h-3.8a.5.5 0 0 0-.4.2l-1.6 2c-.2.3 0 .9.4.9h.5a.4.4 0 0 1 .4.4v13.3l-.1.3a286.6 286.6 0 0 0-2 2.7.5.5 0 0 0 .3.4h8.6a.5.5 0 0 0 .5-.3v-2.2a.5.5 0 0 0-.5-.5h-1.4a.4.4 0 0 1-.3-.4V18c.1-3.6 2.3-4.8 3.4-5.1h.1l1-.2c1.2 0 1.7.2 2.4.4.3 0 .5-.3.5-.5v-3c0-.3-.2-.5-.4-.6Zm-45 0h-6a.4.4 0 0 1-.3-.4v-3c0-1.4.7-2.8 2.2-2.8 1.8 0 2 1.4 2.1 2.6 0 0 0 .2.2.3l.3.2h2.5a.5.5 0 0 0 .5-.5c0-3.8-2.4-5.3-6.2-5.3-2.3 0-3.8.7-5 2a9 9 0 0 0-1.6 5.7v.8a.4.4 0 0 1-.4.4H92.1a.5.5 0 0 0-.6.5v2a.5.5 0 0 0 .6.6h1a.4.4 0 0 1 .4.5l-4 9.2a.4.4 0 0 1-.6 0l-4-9.2a.4.4 0 0 1 .3-.5h.8a.5.5 0 0 0 .5-.6v-2A.5.5 0 0 0 86 9h-9.3a.5.5 0 0 0-.5.8 86 86 0 0 1 1.3 2.2h2a.4.4 0 0 1 .4.3l6.8 15.3c.3.6.3 1.4 0 2-.3 1.2-2.3 3.4-3.4 3-.8-.3-1-1.6-1.8-1.8H81l-2 2.4a.6.6 0 0 0 0 .7 6 6 0 0 0 4.2 2c2.4.1 4.8-.2 7-4.4 0 0 7.1-17.3 8-19.2a.4.4 0 0 1 .3-.2h3.8a.4.4 0 0 1 .3.4V26l-1.8 2.2a.5.5 0 0 0 0 .8h8.8a.5.5 0 0 0 .6-.5v-2a.5.5 0 0 0-.6-.5h-1.4a.4.4 0 0 1-.4-.4V12.4a.4.4 0 0 1 .4-.3h4.4a.6.6 0 0 0 .4-.2 215.4 215.4 0 0 1 1.7-2.5.5.5 0 0 0-.6-.4Zm-90 6.3L22.4 10a.5.5 0 0 0-.4-.4l-5.4-1.4a.5.5 0 0 0-.5.1L12.4 12l7.7 7.6 3.6-3.6a.5.5 0 0 0 .2-.6ZM1 23.7 2.5 29a.5.5 0 0 0 .3.4l5.5 1.4a.5.5 0 0 0 .5-.1l3.6-3.7-7.6-7.6-3.6 3.7a.5.5 0 0 0-.2.5ZM8.3 8 2.8 9.5a.5.5 0 0 0-.3.4L1 15.3a.5.5 0 0 0 .2.5l3.6 3.7 7.6-7.6-3.6-3.7a.5.5 0 0 0-.5-.1Zm15.4 15L20 19.5l-7.7 7.6 3.6 3.6a.7.7 0 0 0 .7.2l5.3-1.4a.7.7 0 0 0 .4-.5l1.4-5.3a.7.7 0 0 0-.1-.6Z" fill="currentColor"/></svg>
