<svg fill="none" xmlns="http://www.w3.org/2000/svg" viewBox="0 0 64 24"><path d="M36.5.5c-1.2.6-1.7 1.7-1.7 4.7 0 0 .6-.6 1.5-1 .7-.2 1.2-.6 1.6-.8 1-.8 1.2-1.7 1.2-3.4 0 0-1.7 0-2.6.5Zm-7.3.7C28.2 2 28 3.5 28 3.5l-3.3 12.7L22 5.8a9 9 0 0 0-1.6-3.4c-1-1.2-3-1.3-3.2-1.3C17 1 15 1 14 2.4a9 9 0 0 0-1.6 3.4L9.8 16.2 6.5 3.5S6.2 2 5.2 1.2C3.6-.3 1.2 0 1.2 0l6.3 24s2 .1 3.1-.4c1.4-.7 2-1.2 2.9-4.5l3-12c0-.2.2-1 .7-1 .5 0 .7.7.8 1l3 12c.9 3.3 1.4 3.8 2.8 4.5 1 .5 3.1.3 3.1.3L33.2 0s-2.4-.3-4 1.2Zm9.9 2.7s-.5.6-1.3 1.1l-1.7.9c-1 .5-1.3 1-1.3 1.8v16.2s1.6.1 2.6-.4c1.4-.7 1.7-1.3 1.7-4.3V3.8ZM54.8 12l8-11.9s-3.2-.6-5 1c-1 1-2.2 2.7-2.2 2.7l-3 4.3c0 .3-.2.4-.5.4s-.5-.2-.6-.4l-3-4.3s-1.1-1.7-2.1-2.7c-1.7-1.6-5.1-1-5.1-1l7.8 12-8 11.8s3.5.5 5.3-1c1-1 2.1-2.7 2.1-2.7l3-4.3c.1-.2.3-.4.5-.4.3 0 .5.3.6.4l3 4.3s1 1.7 2 2.6c1.8 1.6 5.2 1.1 5.2 1.1l-8-11.9Z" fill="currentColor"/></svg>
