<svg width="730" height="570" viewBox="0 0 730 570" fill="none" xmlns="http://www.w3.org/2000/svg">
<g clip-path="url(#clip0_906_2479)">
<rect width="730" height="570" fill="white"/>
<g clip-path="url(#clip1_906_2479)">
<path d="M-0.5 259.5H731.654" stroke="#DCDCDC" stroke-linecap="square" stroke-dasharray="10 10"/>
<path d="M575.374 288.78L572.332 281.4H574.276L576.436 287.052H576.49L580.648 281.4H582.88L577.246 288.78L576.292 294H574.42L575.374 288.78ZM580.35 290.022C580.296 286.8 582.618 284.118 585.444 284.19C587.928 284.19 589.62 285.954 589.62 288.438C589.674 291.66 587.334 294.342 584.508 294.27C582.006 294.27 580.35 292.506 580.35 290.022ZM587.838 288.438C587.838 286.872 586.902 285.846 585.408 285.846C583.572 285.846 582.132 287.664 582.132 290.022C582.132 291.588 583.086 292.614 584.544 292.614C586.398 292.614 587.838 290.796 587.838 288.438ZM590.913 291.3C590.913 291.03 590.931 290.778 590.985 290.544L592.047 284.46H593.829L592.785 290.436C592.749 290.652 592.731 290.85 592.731 291.048C592.731 292.092 593.307 292.614 594.459 292.614C595.809 292.614 596.853 291.66 597.123 290.274L598.149 284.46H599.931L598.257 294H596.529L596.673 293.154H596.637C596.043 293.874 595.017 294.27 594.063 294.27C592.119 294.27 590.913 293.046 590.913 291.3ZM602.106 284.46H603.798L603.636 285.27H603.672C604.158 284.622 604.896 284.298 605.778 284.298C606.12 284.298 606.48 284.352 606.84 284.442L606.426 286.188C606.048 286.098 605.724 286.062 605.454 286.062C604.212 286.062 603.456 286.89 603.168 288.528L602.196 294H600.414L602.106 284.46ZM612.987 284.46H614.769L613.095 294H611.313L612.987 284.46ZM613.545 280.95H615.471L615.129 282.822H613.203L613.545 280.95ZM616.959 284.46H618.687L618.543 285.306H618.579C619.245 284.64 620.289 284.19 621.315 284.19C623.241 284.19 624.447 285.396 624.447 287.142C624.447 287.412 624.429 287.664 624.375 287.898L623.295 294H621.513L622.575 288.024C622.611 287.826 622.629 287.628 622.629 287.466C622.629 286.404 621.981 285.846 620.883 285.846C619.443 285.846 618.363 286.8 618.093 288.186L617.067 294H615.285L616.959 284.46ZM627.327 286.062H625.617L625.887 284.46H627.597L627.795 283.38C628.047 281.94 628.947 281.22 630.513 281.22H632.115L631.827 282.84H630.549C629.901 282.84 629.631 283.074 629.505 283.722L629.379 284.46H631.845L631.557 286.062H629.109L627.705 294H625.923L627.327 286.062ZM633.149 284.46H634.841L634.679 285.27H634.715C635.201 284.622 635.939 284.298 636.821 284.298C637.163 284.298 637.523 284.352 637.883 284.442L637.469 286.188C637.091 286.098 636.767 286.062 636.497 286.062C635.255 286.062 634.499 286.89 634.211 288.528L633.239 294H631.457L633.149 284.46ZM647.6 284.46L645.926 294H644.27L644.432 293.1H644.396C643.82 293.766 642.866 294.18 641.732 294.18C639.536 294.18 638.024 292.524 638.024 290.058C637.97 286.89 640.22 284.172 642.938 284.226C644.072 284.226 645.062 284.604 645.656 285.252H645.692L645.854 284.46H647.6ZM644.792 290.31L645.332 287.286C644.99 286.422 644.072 285.864 643.01 285.864C641.21 285.864 639.806 287.736 639.806 290.022C639.806 291.552 640.688 292.524 642.074 292.524C642.722 292.524 643.316 292.308 643.838 291.876C644.378 291.444 644.702 290.922 644.792 290.31ZM648.122 290.796L649.796 290.436C650.084 292.02 650.858 292.686 652.352 292.686C653.522 292.686 654.296 292.2 654.296 291.426C654.296 290.706 653.792 290.292 652.154 289.77C649.994 289.068 649.184 288.33 649.184 286.98C649.184 285.414 650.678 284.19 652.55 284.19C654.566 284.19 656.024 285.27 656.384 287.052L654.692 287.43C654.386 286.278 653.72 285.774 652.568 285.774C651.614 285.774 650.912 286.26 650.912 286.926C650.912 287.502 651.38 287.862 652.838 288.312C655.16 289.086 656.042 289.95 656.042 291.462C656.042 293.1 654.512 294.27 652.352 294.27C649.958 294.27 648.41 293.01 648.122 290.796ZM660.059 291.516C660.041 291.66 660.023 291.75 660.023 291.804C660.023 292.182 660.257 292.308 660.887 292.308H661.805L661.517 294H660.563C658.997 294 658.223 293.37 658.223 292.11C658.223 291.912 658.241 291.696 658.277 291.462L659.231 286.062H657.557L657.827 284.46H659.501L659.897 282.228H661.679L661.283 284.46H663.641L663.371 286.062H661.013L660.059 291.516ZM665.229 284.46H666.921L666.759 285.27H666.795C667.281 284.622 668.019 284.298 668.901 284.298C669.243 284.298 669.603 284.352 669.963 284.442L669.549 286.188C669.171 286.098 668.847 286.062 668.577 286.062C667.335 286.062 666.579 286.89 666.291 288.528L665.319 294H663.537L665.229 284.46ZM670.032 291.3C670.032 291.03 670.05 290.778 670.104 290.544L671.166 284.46H672.948L671.904 290.436C671.868 290.652 671.85 290.85 671.85 291.048C671.85 292.092 672.426 292.614 673.578 292.614C674.928 292.614 675.972 291.66 676.242 290.274L677.268 284.46H679.05L677.376 294H675.648L675.792 293.154H675.756C675.162 293.874 674.136 294.27 673.182 294.27C671.238 294.27 670.032 293.046 670.032 291.3ZM680.001 290.022C679.947 286.836 682.215 284.118 684.969 284.19C687.219 284.19 688.785 285.576 688.947 287.736L687.219 287.97C687.057 286.62 686.265 285.846 684.969 285.846C683.151 285.846 681.783 287.7 681.783 290.022C681.783 291.606 682.611 292.614 684.105 292.614C685.365 292.614 686.301 291.858 686.895 290.364L688.533 290.994C687.759 293.028 686.175 294.27 684.105 294.27C681.603 294.27 680.001 292.56 680.001 290.022ZM692.42 291.516C692.402 291.66 692.384 291.75 692.384 291.804C692.384 292.182 692.618 292.308 693.248 292.308H694.166L693.878 294H692.924C691.358 294 690.584 293.37 690.584 292.11C690.584 291.912 690.602 291.696 690.638 291.462L691.592 286.062H689.918L690.188 284.46H691.862L692.258 282.228H694.04L693.644 284.46H696.002L695.732 286.062H693.374L692.42 291.516ZM696.276 291.3C696.276 291.03 696.294 290.778 696.348 290.544L697.41 284.46H699.192L698.148 290.436C698.112 290.652 698.094 290.85 698.094 291.048C698.094 292.092 698.67 292.614 699.822 292.614C701.172 292.614 702.216 291.66 702.486 290.274L703.512 284.46H705.294L703.62 294H701.892L702.036 293.154H702C701.406 293.874 700.38 294.27 699.426 294.27C697.482 294.27 696.276 293.046 696.276 291.3ZM707.469 284.46H709.161L708.999 285.27H709.035C709.521 284.622 710.259 284.298 711.141 284.298C711.483 284.298 711.843 284.352 712.203 284.442L711.789 286.188C711.411 286.098 711.087 286.062 710.817 286.062C709.575 286.062 708.819 286.89 708.531 288.528L707.559 294H705.777L707.469 284.46ZM721.027 288.438C721.027 288.78 721.009 289.23 720.955 289.752H713.827C713.809 289.824 713.809 289.95 713.809 290.13C713.809 291.786 714.673 292.686 716.239 292.686C717.247 292.686 718.111 292.146 718.975 290.94L720.289 291.984C719.263 293.442 717.805 294.27 716.203 294.27C713.629 294.27 712.063 292.686 712.063 290.022C712.009 286.8 714.223 284.118 716.977 284.19C719.407 284.19 721.027 285.9 721.027 288.438ZM719.317 288.384C719.317 286.674 718.435 285.774 716.977 285.774C715.591 285.774 714.421 286.818 714.007 288.384H719.317Z" fill="#666666"/>
<path d="M605.432 27.842L607.304 27.482C607.61 29.624 608.6 30.542 610.598 30.542C612.056 30.542 613.1 29.75 613.1 28.616C613.1 28.094 612.902 27.644 612.506 27.302C612.11 26.942 611.39 26.564 610.364 26.15C607.754 25.142 606.872 24.206 606.872 22.568C606.872 20.624 608.636 19.13 610.886 19.13C613.388 19.13 615.116 20.516 615.494 22.838L613.658 23.18C613.244 21.542 612.452 20.858 610.886 20.858C609.68 20.858 608.726 21.596 608.726 22.532C608.726 22.946 608.906 23.288 609.248 23.594C609.608 23.882 610.256 24.224 611.21 24.602C613.982 25.7 614.972 26.78 614.972 28.598C614.972 30.704 613.1 32.27 610.562 32.27C607.664 32.27 605.81 30.668 605.432 27.842ZM626.071 22.46L624.397 32H622.741L622.903 31.1H622.867C622.291 31.766 621.337 32.18 620.203 32.18C618.007 32.18 616.495 30.524 616.495 28.058C616.441 24.89 618.691 22.172 621.409 22.226C622.543 22.226 623.533 22.604 624.127 23.252H624.163L624.325 22.46H626.071ZM623.263 28.31L623.803 25.286C623.461 24.422 622.543 23.864 621.481 23.864C619.681 23.864 618.277 25.736 618.277 28.022C618.277 29.552 619.159 30.524 620.545 30.524C621.193 30.524 621.787 30.308 622.309 29.876C622.849 29.444 623.173 28.922 623.263 28.31ZM636.582 22.46L634.908 32H633.252L633.414 31.1H633.378C632.802 31.766 631.848 32.18 630.714 32.18C628.518 32.18 627.006 30.524 627.006 28.058C626.952 24.89 629.202 22.172 631.92 22.226C633.054 22.226 634.044 22.604 634.638 23.252H634.674L634.836 22.46H636.582ZM633.774 28.31L634.314 25.286C633.972 24.422 633.054 23.864 631.992 23.864C630.192 23.864 628.788 25.736 628.788 28.022C628.788 29.552 629.67 30.524 631.056 30.524C631.704 30.524 632.298 30.308 632.82 29.876C633.36 29.444 633.684 28.922 633.774 28.31ZM637.266 27.842L639.138 27.482C639.444 29.624 640.434 30.542 642.432 30.542C643.89 30.542 644.934 29.75 644.934 28.616C644.934 28.094 644.736 27.644 644.34 27.302C643.944 26.942 643.224 26.564 642.198 26.15C639.588 25.142 638.706 24.206 638.706 22.568C638.706 20.624 640.47 19.13 642.72 19.13C645.222 19.13 646.95 20.516 647.328 22.838L645.492 23.18C645.078 21.542 644.286 20.858 642.72 20.858C641.514 20.858 640.56 21.596 640.56 22.532C640.56 22.946 640.74 23.288 641.082 23.594C641.442 23.882 642.09 24.224 643.044 24.602C645.816 25.7 646.806 26.78 646.806 28.598C646.806 30.704 644.934 32.27 642.396 32.27C639.498 32.27 637.644 30.668 637.266 27.842ZM654.352 22.46H656.08L655.936 23.27H655.972C656.62 22.604 657.628 22.19 658.708 22.19C660.85 22.19 662.416 23.954 662.416 26.438C662.47 29.606 660.13 32.324 657.412 32.27C656.242 32.27 655.216 31.838 654.64 31.136H654.604L653.74 36.05H651.958L654.352 22.46ZM660.634 26.438C660.634 24.8 659.77 23.846 658.33 23.846C657.628 23.846 656.998 24.062 656.458 24.476C655.936 24.89 655.612 25.412 655.486 26.078L654.964 29.048C655.198 29.984 656.17 30.614 657.34 30.614C659.158 30.614 660.634 28.778 660.634 26.438ZM665.669 18.86H667.451L665.147 32H663.365L665.669 18.86ZM677.346 22.46L675.672 32H674.016L674.178 31.1H674.142C673.566 31.766 672.612 32.18 671.478 32.18C669.282 32.18 667.77 30.524 667.77 28.058C667.716 24.89 669.966 22.172 672.684 22.226C673.818 22.226 674.808 22.604 675.402 23.252H675.438L675.6 22.46H677.346ZM674.538 28.31L675.078 25.286C674.736 24.422 673.818 23.864 672.756 23.864C670.956 23.864 669.552 25.736 669.552 28.022C669.552 29.552 670.434 30.524 671.82 30.524C672.468 30.524 673.062 30.308 673.584 29.876C674.124 29.444 674.448 28.922 674.538 28.31ZM680.946 29.516C680.928 29.66 680.91 29.75 680.91 29.804C680.91 30.182 681.144 30.308 681.774 30.308H682.692L682.404 32H681.45C679.884 32 679.11 31.37 679.11 30.11C679.11 29.912 679.128 29.696 679.164 29.462L680.118 24.062H678.444L678.714 22.46H680.388L680.784 20.228H682.566L682.17 22.46H684.168L683.898 24.062H681.9L680.946 29.516ZM686.376 24.062H684.666L684.936 22.46H686.646L686.844 21.38C687.096 19.94 687.996 19.22 689.562 19.22H691.164L690.876 20.84H689.598C688.95 20.84 688.68 21.074 688.554 21.722L688.428 22.46H690.894L690.606 24.062H688.158L686.754 32H684.972L686.376 24.062ZM690.481 28.022C690.427 24.8 692.749 22.118 695.575 22.19C698.059 22.19 699.751 23.954 699.751 26.438C699.805 29.66 697.465 32.342 694.639 32.27C692.137 32.27 690.481 30.506 690.481 28.022ZM697.969 26.438C697.969 24.872 697.033 23.846 695.539 23.846C693.703 23.846 692.263 25.664 692.263 28.022C692.263 29.588 693.217 30.614 694.675 30.614C696.529 30.614 697.969 28.796 697.969 26.438ZM702.358 22.46H704.05L703.888 23.27H703.924C704.41 22.622 705.148 22.298 706.03 22.298C706.372 22.298 706.732 22.352 707.092 22.442L706.678 24.188C706.3 24.098 705.976 24.062 705.706 24.062C704.464 24.062 703.708 24.89 703.42 26.528L702.448 32H700.666L702.358 22.46ZM708.475 22.46H710.185L710.059 23.216H710.095C710.653 22.568 711.607 22.19 712.471 22.19C713.533 22.19 714.451 22.676 714.829 23.378H714.865C715.621 22.586 716.521 22.19 717.565 22.19C719.383 22.19 720.661 23.27 720.661 24.926C720.661 25.124 720.643 25.322 720.607 25.52L719.455 32H717.709L718.825 25.682C718.843 25.484 718.861 25.358 718.861 25.268C718.861 24.386 718.303 23.846 717.385 23.846C716.179 23.846 715.261 24.674 715.045 25.916L713.983 32H712.291L713.407 25.682C713.425 25.484 713.443 25.358 713.443 25.268C713.443 24.386 712.885 23.846 711.967 23.846C710.761 23.846 709.843 24.674 709.627 25.916L708.565 32H706.801L708.475 22.46Z" fill="#666666"/>
<path d="M268 394H182C177.582 394 174 397.582 174 402V451C174 455.418 177.582 459 182 459H268C272.418 459 276 455.418 276 451V402C276 397.582 272.418 394 268 394Z" fill="white"/>
<path d="M267.5 394.5H182.5C178.082 394.5 174.5 398.082 174.5 402.5V450.5C174.5 454.918 178.082 458.5 182.5 458.5H267.5C271.918 458.5 275.5 454.918 275.5 450.5V402.5C275.5 398.082 271.918 394.5 267.5 394.5Z" stroke="#979797"/>
<path d="M263 389H177C172.582 389 169 392.582 169 397V446C169 450.418 172.582 454 177 454H263C267.418 454 271 450.418 271 446V397C271 392.582 267.418 389 263 389Z" fill="white"/>
<path d="M262.5 389.5H177.5C173.082 389.5 169.5 393.082 169.5 397.5V445.5C169.5 449.918 173.082 453.5 177.5 453.5H262.5C266.918 453.5 270.5 449.918 270.5 445.5V397.5C270.5 393.082 266.918 389.5 262.5 389.5Z" stroke="#979797"/>
<path d="M257 383H171C166.582 383 163 386.582 163 391V440C163 444.418 166.582 448 171 448H257C261.418 448 265 444.418 265 440V391C265 386.582 261.418 383 257 383Z" fill="white"/>
<path d="M256.5 383.5H171.5C167.082 383.5 163.5 387.082 163.5 391.5V439.5C163.5 443.918 167.082 447.5 171.5 447.5H256.5C260.918 447.5 264.5 443.918 264.5 439.5V391.5C264.5 387.082 260.918 383.5 256.5 383.5Z" stroke="#979797"/>
<path d="M189.357 420.038H184.533L183.867 422H181.221L185.721 409.4H188.169L192.669 422H190.023L189.357 420.038ZM188.547 417.698L186.963 413.054H186.927L185.343 417.698H188.547ZM192.749 415.7C192.749 411.74 194.945 409.13 198.311 409.13C200.957 409.13 202.955 410.912 203.279 413.45L200.687 413.864C200.417 412.424 199.535 411.56 198.311 411.56C196.493 411.56 195.413 413.108 195.413 415.7C195.413 418.292 196.511 419.84 198.329 419.84C199.823 419.84 200.687 418.976 200.705 417.482H198.455V415.34H203.225V417.05C203.225 420.182 201.263 422.27 198.311 422.27C194.945 422.27 192.749 419.678 192.749 415.7ZM205.035 409.4H213.153V411.848H207.699V414.404H212.667V416.744H207.699V419.552H213.171V422H205.035V409.4ZM215.125 409.4H217.861L222.127 417.41H222.163V409.4H224.827V422H222.091L217.825 413.99H217.789V422H215.125V409.4ZM230.15 411.848H226.496V409.4H236.45V411.848H232.814V422H230.15V411.848Z" fill="#2ACE69"/>
<path d="M162 312H103C98.5817 312 95 315.582 95 320V352C95 356.418 98.5817 360 103 360H162C166.418 360 170 356.418 170 352V320C170 315.582 166.418 312 162 312Z" fill="white"/>
<path d="M161.5 312.5H103.5C99.0817 312.5 95.5 316.082 95.5 320.5V351.5C95.5 355.918 99.0817 359.5 103.5 359.5H161.5C165.918 359.5 169.5 355.918 169.5 351.5V320.5C169.5 316.082 165.918 312.5 161.5 312.5Z" stroke="#979797"/>
<path d="M114.968 340.583H111.484L111.003 342H109.092L112.342 332.9H114.11L117.36 342H115.449L114.968 340.583ZM114.383 338.893L113.239 335.539H113.213L112.069 338.893H114.383ZM117.418 337.45C117.418 334.59 119.004 332.705 121.435 332.705C123.346 332.705 124.789 333.992 125.023 335.825L123.151 336.124C122.956 335.084 122.319 334.46 121.435 334.46C120.122 334.46 119.342 335.578 119.342 337.45C119.342 339.322 120.135 340.44 121.448 340.44C122.527 340.44 123.151 339.816 123.164 338.737H121.539V337.19H124.984V338.425C124.984 340.687 123.567 342.195 121.435 342.195C119.004 342.195 117.418 340.323 117.418 337.45ZM126.292 332.9H132.155V334.668H128.216V336.514H131.804V338.204H128.216V340.232H132.168V342H126.292V332.9ZM133.579 332.9H135.555L138.636 338.685H138.662V332.9H140.586V342H138.61L135.529 336.215H135.503V342H133.579V332.9ZM144.43 334.668H141.791V332.9H148.98V334.668H146.354V342H144.43V334.668Z" fill="#2ACE69"/>
<path d="M56 498.007C56 493.585 59.575 490 63.996 490H229.004C233.42 490 237 493.588 237 498.007V529.993C237 534.415 233.425 538 229.004 538H63.996C59.58 538 56 534.412 56 529.993V498.007Z" fill="white" stroke="#979797" stroke-width="2" stroke-dasharray="3 3"/>
<path d="M79.3586 516.295L76.3036 510.9H78.3706L80.2946 514.618H80.3206L82.2706 510.9H84.3246L81.2826 516.295V520H79.3586V516.295ZM83.9073 515.45C83.9073 512.59 85.4933 510.705 87.9243 510.705C90.3423 510.705 91.9543 512.59 91.9543 515.45C91.9543 518.31 90.3423 520.195 87.9243 520.195C85.4933 520.195 83.9073 518.31 83.9073 515.45ZM90.0303 515.45C90.0303 513.578 89.2243 512.46 87.9243 512.46C86.6243 512.46 85.8313 513.578 85.8313 515.45C85.8313 517.322 86.6243 518.44 87.9243 518.44C89.2373 518.44 90.0303 517.322 90.0303 515.45ZM93.1601 516.997V510.9H95.0841V516.867C95.0841 517.92 95.6041 518.44 96.6571 518.44C97.7101 518.44 98.2301 517.933 98.2301 516.893V510.9H100.154V516.997C100.154 519.012 98.8541 520.195 96.6571 520.195C94.4601 520.195 93.1601 519.012 93.1601 516.997ZM108.76 520H106.693L104.977 516.802H103.807V520H101.883V510.9H105.588C107.512 510.9 108.695 512.018 108.695 513.838C108.695 515.151 108.045 516.152 106.914 516.581V516.594L108.76 520ZM105.354 515.047C106.277 515.047 106.771 514.618 106.771 513.825C106.771 513.045 106.303 512.655 105.354 512.655H103.807V515.047H105.354ZM112.646 516.997L114.531 516.594C114.778 517.946 115.311 518.466 116.52 518.466C117.417 518.466 117.924 518.141 117.924 517.569C117.924 516.932 117.495 516.62 115.974 516.1C114.921 515.749 114.167 515.359 113.725 514.93C113.283 514.501 113.062 513.942 113.062 513.279C113.062 511.758 114.336 510.705 116.143 510.705C117.924 510.705 119.315 511.784 119.601 513.383L117.729 513.786C117.482 512.863 116.975 512.434 116.143 512.434C115.428 512.434 114.96 512.759 114.96 513.266C114.96 513.734 115.35 513.994 116.702 514.449C117.833 514.839 118.639 515.268 119.12 515.749C119.601 516.23 119.848 516.828 119.848 517.569C119.848 519.142 118.483 520.195 116.494 520.195C114.323 520.195 112.971 519.077 112.646 516.997ZM120.47 515.45C120.47 512.59 122.056 510.705 124.487 510.705C126.905 510.705 128.517 512.59 128.517 515.45C128.517 518.31 126.905 520.195 124.487 520.195C122.056 520.195 120.47 518.31 120.47 515.45ZM126.593 515.45C126.593 513.578 125.787 512.46 124.487 512.46C123.187 512.46 122.394 513.578 122.394 515.45C122.394 517.322 123.187 518.44 124.487 518.44C125.8 518.44 126.593 517.322 126.593 515.45ZM129.723 516.997V510.9H131.647V516.867C131.647 517.92 132.167 518.44 133.22 518.44C134.273 518.44 134.793 517.933 134.793 516.893V510.9H136.717V516.997C136.717 519.012 135.417 520.195 133.22 520.195C131.023 520.195 129.723 519.012 129.723 516.997ZM145.323 520H143.256L141.54 516.802H140.37V520H138.446V510.9H142.151C144.075 510.9 145.258 512.018 145.258 513.838C145.258 515.151 144.608 516.152 143.477 516.581V516.594L145.323 520ZM141.917 515.047C142.84 515.047 143.334 514.618 143.334 513.825C143.334 513.045 142.866 512.655 141.917 512.655H140.37V515.047H141.917ZM146.025 515.45C146.025 512.577 147.611 510.705 150.042 510.705C151.966 510.705 153.461 512.031 153.669 513.955L151.784 514.267C151.589 513.11 150.965 512.46 150.042 512.46C148.729 512.46 147.949 513.578 147.949 515.45C147.949 517.322 148.729 518.44 150.042 518.44C151.017 518.44 151.641 517.751 151.81 516.49L153.695 516.815C153.461 518.856 152.031 520.195 150.042 520.195C147.611 520.195 146.025 518.323 146.025 515.45ZM154.823 510.9H160.686V512.668H156.747V514.514H160.335V516.204H156.747V518.232H160.699V520H154.823V510.9ZM164.649 515.45C164.649 512.577 166.235 510.705 168.666 510.705C170.59 510.705 172.085 512.031 172.293 513.955L170.408 514.267C170.213 513.11 169.589 512.46 168.666 512.46C167.353 512.46 166.573 513.578 166.573 515.45C166.573 517.322 167.353 518.44 168.666 518.44C169.641 518.44 170.265 517.751 170.434 516.49L172.319 516.815C172.085 518.856 170.655 520.195 168.666 520.195C166.235 520.195 164.649 518.323 164.649 515.45ZM172.927 515.45C172.927 512.59 174.513 510.705 176.944 510.705C179.362 510.705 180.974 512.59 180.974 515.45C180.974 518.31 179.362 520.195 176.944 520.195C174.513 520.195 172.927 518.31 172.927 515.45ZM179.05 515.45C179.05 513.578 178.244 512.46 176.944 512.46C175.644 512.46 174.851 513.578 174.851 515.45C174.851 517.322 175.644 518.44 176.944 518.44C178.257 518.44 179.05 517.322 179.05 515.45ZM182.245 510.9H185.404C187.822 510.9 189.395 512.629 189.395 515.45C189.395 518.284 187.809 520 185.391 520H182.245V510.9ZM185.391 518.232C186.691 518.232 187.471 517.27 187.471 515.45C187.471 513.63 186.691 512.668 185.391 512.668H184.169V518.232H185.391ZM190.662 510.9H196.525V512.668H192.586V514.514H196.174V516.204H192.586V518.232H196.538V520H190.662V510.9Z" fill="black"/>
<path d="M275 500.007C275 495.585 278.575 492 282.997 492H461.003C465.42 492 469 495.588 469 500.007V531.993C469 536.415 465.425 540 461.003 540H282.997C278.58 540 275 536.412 275 531.993V500.007Z" fill="white" stroke="#979797" stroke-width="2" stroke-dasharray="3 3"/>
<path d="M293.113 518.295L290.057 512.9H292.125L294.049 516.618H294.075L296.025 512.9H298.079L295.037 518.295V522H293.113V518.295ZM297.661 517.45C297.661 514.59 299.247 512.705 301.678 512.705C304.096 512.705 305.708 514.59 305.708 517.45C305.708 520.31 304.096 522.195 301.678 522.195C299.247 522.195 297.661 520.31 297.661 517.45ZM303.784 517.45C303.784 515.578 302.978 514.46 301.678 514.46C300.378 514.46 299.585 515.578 299.585 517.45C299.585 519.322 300.378 520.44 301.678 520.44C302.991 520.44 303.784 519.322 303.784 517.45ZM306.914 518.997V512.9H308.838V518.867C308.838 519.92 309.358 520.44 310.411 520.44C311.464 520.44 311.984 519.933 311.984 518.893V512.9H313.908V518.997C313.908 521.012 312.608 522.195 310.411 522.195C308.214 522.195 306.914 521.012 306.914 518.997ZM322.514 522H320.447L318.731 518.802H317.561V522H315.637V512.9H319.342C321.266 512.9 322.449 514.018 322.449 515.838C322.449 517.151 321.799 518.152 320.668 518.581V518.594L322.514 522ZM319.108 517.047C320.031 517.047 320.525 516.618 320.525 515.825C320.525 515.045 320.057 514.655 319.108 514.655H317.561V517.047H319.108ZM327.05 512.9H330.209C332.627 512.9 334.2 514.629 334.2 517.45C334.2 520.284 332.614 522 330.196 522H327.05V512.9ZM330.196 520.232C331.496 520.232 332.276 519.27 332.276 517.45C332.276 515.63 331.496 514.668 330.196 514.668H328.974V520.232H330.196ZM335.467 512.9H341.33V514.668H337.391V516.514H340.979V518.204H337.391V520.232H341.343V522H335.467V512.9ZM342.754 512.9H346.485C348.422 512.9 349.644 514.031 349.644 515.903C349.644 517.788 348.448 518.893 346.459 518.893H344.678V522H342.754V512.9ZM346.433 517.125C347.213 517.125 347.72 516.657 347.72 515.89C347.72 515.071 347.291 514.655 346.446 514.655H344.678V517.125H346.433ZM350.74 512.9H352.664V520.232H356.512V522H350.74V512.9ZM356.961 517.45C356.961 514.59 358.547 512.705 360.978 512.705C363.396 512.705 365.008 514.59 365.008 517.45C365.008 520.31 363.396 522.195 360.978 522.195C358.547 522.195 356.961 520.31 356.961 517.45ZM363.084 517.45C363.084 515.578 362.278 514.46 360.978 514.46C359.678 514.46 358.885 515.578 358.885 517.45C358.885 519.322 359.678 520.44 360.978 520.44C362.291 520.44 363.084 519.322 363.084 517.45ZM367.647 518.295L364.592 512.9H366.659L368.583 516.618H368.609L370.559 512.9H372.613L369.571 518.295V522H367.647V518.295ZM376.039 518.997L377.924 518.594C378.171 519.946 378.704 520.466 379.913 520.466C380.81 520.466 381.317 520.141 381.317 519.569C381.317 518.932 380.888 518.62 379.367 518.1C378.314 517.749 377.56 517.359 377.118 516.93C376.676 516.501 376.455 515.942 376.455 515.279C376.455 513.758 377.729 512.705 379.536 512.705C381.317 512.705 382.708 513.784 382.994 515.383L381.122 515.786C380.875 514.863 380.368 514.434 379.536 514.434C378.821 514.434 378.353 514.759 378.353 515.266C378.353 515.734 378.743 515.994 380.095 516.449C381.226 516.839 382.032 517.268 382.513 517.749C382.994 518.23 383.241 518.828 383.241 519.569C383.241 521.142 381.876 522.195 379.887 522.195C377.716 522.195 376.364 521.077 376.039 518.997ZM384.382 512.9H390.245V514.668H386.306V516.514H389.894V518.204H386.306V520.232H390.258V522H384.382V512.9ZM391.023 517.45C391.023 514.577 392.609 512.705 395.04 512.705C396.964 512.705 398.459 514.031 398.667 515.955L396.782 516.267C396.587 515.11 395.963 514.46 395.04 514.46C393.727 514.46 392.947 515.578 392.947 517.45C392.947 519.322 393.727 520.44 395.04 520.44C396.015 520.44 396.639 519.751 396.808 518.49L398.693 518.815C398.459 520.856 397.029 522.195 395.04 522.195C392.609 522.195 391.023 520.323 391.023 517.45ZM406.697 522H404.63L402.914 518.802H401.744V522H399.82V512.9H403.525C405.449 512.9 406.632 514.018 406.632 515.838C406.632 517.151 405.982 518.152 404.851 518.581V518.594L406.697 522ZM403.291 517.047C404.214 517.047 404.708 516.618 404.708 515.825C404.708 515.045 404.24 514.655 403.291 514.655H401.744V517.047H403.291ZM407.919 512.9H413.782V514.668H409.843V516.514H413.431V518.204H409.843V520.232H413.795V522H407.919V512.9ZM417.261 514.668H414.622V512.9H421.811V514.668H419.185V522H417.261V514.668ZM422.364 518.997L424.249 518.594C424.496 519.946 425.029 520.466 426.238 520.466C427.135 520.466 427.642 520.141 427.642 519.569C427.642 518.932 427.213 518.62 425.692 518.1C424.639 517.749 423.885 517.359 423.443 516.93C423.001 516.501 422.78 515.942 422.78 515.279C422.78 513.758 424.054 512.705 425.861 512.705C427.642 512.705 429.033 513.784 429.319 515.383L427.447 515.786C427.2 514.863 426.693 514.434 425.861 514.434C425.146 514.434 424.678 514.759 424.678 515.266C424.678 515.734 425.068 515.994 426.42 516.449C427.551 516.839 428.357 517.268 428.838 517.749C429.319 518.23 429.566 518.828 429.566 519.569C429.566 521.142 428.201 522.195 426.212 522.195C424.041 522.195 422.689 521.077 422.364 518.997Z" fill="black"/>
<path d="M65 75.007C65 70.585 68.576 67 72.99 67H192.01C196.422 67 200 70.588 200 75.007V106.993C200 111.415 196.424 115 192.01 115H72.99C68.579 115 65 111.412 65 106.993V75.007Z" fill="white" stroke="#979797" stroke-width="2" stroke-dasharray="3 3"/>
<path d="M91.7247 87.9H93.6877L94.9097 93.893H94.9357L96.5997 87.9H98.3677L100.032 93.893H100.058L101.28 87.9H103.243L101.319 97H99.2777L97.4967 90.76H97.4707L95.6897 97H93.6617L91.7247 87.9ZM104.273 87.9H110.136V89.668H106.197V91.514H109.785V93.204H106.197V95.232H110.149V97H104.273V87.9ZM111.56 87.9H115.512C117.085 87.9 118.216 88.927 118.216 90.344C118.216 91.085 117.865 91.696 117.293 92.047V92.073C118.073 92.437 118.554 93.217 118.554 94.166C118.554 96.077 117.423 97 115.096 97H111.56V87.9ZM115.239 91.527C115.928 91.527 116.305 91.189 116.305 90.565C116.305 89.954 115.928 89.616 115.239 89.616H113.484V91.527H115.239ZM115.447 95.284C116.266 95.284 116.643 94.92 116.643 94.153C116.643 93.438 116.227 93.048 115.46 93.048H113.484V95.284H115.447ZM119.837 87.9H121.761V91.462H124.712V87.9H126.636V97H124.712V93.217H121.761V97H119.837V87.9ZM127.925 92.45C127.925 89.59 129.511 87.705 131.942 87.705C134.36 87.705 135.972 89.59 135.972 92.45C135.972 95.31 134.36 97.195 131.942 97.195C129.511 97.195 127.925 95.31 127.925 92.45ZM134.048 92.45C134.048 90.578 133.242 89.46 131.942 89.46C130.642 89.46 129.849 90.578 129.849 92.45C129.849 94.322 130.642 95.44 131.942 95.44C133.255 95.44 134.048 94.322 134.048 92.45ZM136.723 92.45C136.723 89.59 138.309 87.705 140.74 87.705C143.158 87.705 144.77 89.59 144.77 92.45C144.77 95.31 143.158 97.195 140.74 97.195C138.309 97.195 136.723 95.31 136.723 92.45ZM142.846 92.45C142.846 90.578 142.04 89.46 140.74 89.46C139.44 89.46 138.647 90.578 138.647 92.45C138.647 94.322 139.44 95.44 140.74 95.44C142.053 95.44 142.846 94.322 142.846 92.45ZM146.041 87.9H147.965V91.618H147.991L151.046 87.9H153.295L149.954 91.93L153.555 97H151.267L148.771 93.36H148.745L147.965 94.309V97H146.041V87.9ZM153.719 93.997L155.604 93.594C155.851 94.946 156.384 95.466 157.593 95.466C158.49 95.466 158.997 95.141 158.997 94.569C158.997 93.932 158.568 93.62 157.047 93.1C155.994 92.749 155.24 92.359 154.798 91.93C154.356 91.501 154.135 90.942 154.135 90.279C154.135 88.758 155.409 87.705 157.216 87.705C158.997 87.705 160.388 88.784 160.674 90.383L158.802 90.786C158.555 89.863 158.048 89.434 157.216 89.434C156.501 89.434 156.033 89.759 156.033 90.266C156.033 90.734 156.423 90.994 157.775 91.449C158.906 91.839 159.712 92.268 160.193 92.749C160.674 93.23 160.921 93.828 160.921 94.569C160.921 96.142 159.556 97.195 157.567 97.195C155.396 97.195 154.044 96.077 153.719 93.997Z" fill="black"/>
<path d="M264 51.007C264 46.585 267.575 43 271.996 43H437.004C441.42 43 445 46.588 445 51.007V82.993C445 87.415 441.425 91 437.004 91H271.996C267.58 91 264 87.412 264 82.993V51.007Z" fill="white" stroke="#979797" stroke-width="2" stroke-dasharray="3 3"/>
<path d="M283.786 69.997L285.671 69.594C285.918 70.946 286.451 71.466 287.66 71.466C288.557 71.466 289.064 71.141 289.064 70.569C289.064 69.932 288.635 69.62 287.114 69.1C286.061 68.749 285.307 68.359 284.865 67.93C284.423 67.501 284.202 66.942 284.202 66.279C284.202 64.758 285.476 63.705 287.283 63.705C289.064 63.705 290.455 64.784 290.741 66.383L288.869 66.786C288.622 65.863 288.115 65.434 287.283 65.434C286.568 65.434 286.1 65.759 286.1 66.266C286.1 66.734 286.49 66.994 287.842 67.449C288.973 67.839 289.779 68.268 290.26 68.749C290.741 69.23 290.988 69.828 290.988 70.569C290.988 72.142 289.623 73.195 287.634 73.195C285.463 73.195 284.111 72.077 283.786 69.997ZM291.609 68.45C291.609 65.577 293.195 63.705 295.626 63.705C297.55 63.705 299.045 65.031 299.253 66.955L297.368 67.267C297.173 66.11 296.549 65.46 295.626 65.46C294.313 65.46 293.533 66.578 293.533 68.45C293.533 70.322 294.313 71.44 295.626 71.44C296.601 71.44 297.225 70.751 297.394 69.49L299.279 69.815C299.045 71.856 297.615 73.195 295.626 73.195C293.195 73.195 291.609 71.323 291.609 68.45ZM300.407 63.9H302.539L305.087 70.023H305.113L307.674 63.9H309.806V73H307.921V67.384H307.895L305.516 73H304.684L302.318 67.384H302.292V73H300.407V63.9ZM314.918 63.9H316.842V73H314.918V63.9ZM318.65 63.9H320.626L323.707 69.685H323.733V63.9H325.657V73H323.681L320.6 67.215H320.574V73H318.65V63.9ZM329.502 65.668H326.863V63.9H334.052V65.668H331.426V73H329.502V65.668ZM335.255 63.9H341.118V65.668H337.179V67.514H340.767V69.204H337.179V71.232H341.131V73H335.255V63.9ZM341.896 68.45C341.896 65.59 343.482 63.705 345.913 63.705C347.824 63.705 349.267 64.992 349.501 66.825L347.629 67.124C347.434 66.084 346.797 65.46 345.913 65.46C344.6 65.46 343.82 66.578 343.82 68.45C343.82 70.322 344.613 71.44 345.926 71.44C347.005 71.44 347.629 70.816 347.642 69.737H346.017V68.19H349.462V69.425C349.462 71.687 348.045 73.195 345.913 73.195C343.482 73.195 341.896 71.323 341.896 68.45ZM357.646 73H355.579L353.863 69.802H352.693V73H350.769V63.9H354.474C356.398 63.9 357.581 65.018 357.581 66.838C357.581 68.151 356.931 69.152 355.8 69.581V69.594L357.646 73ZM354.24 68.047C355.163 68.047 355.657 67.618 355.657 66.825C355.657 66.045 355.189 65.655 354.24 65.655H352.693V68.047H354.24ZM363.783 71.583H360.299L359.818 73H357.907L361.157 63.9H362.925L366.175 73H364.264L363.783 71.583ZM363.198 69.893L362.054 66.539H362.028L360.884 69.893H363.198ZM367.765 65.668H365.126V63.9H372.315V65.668H369.689V73H367.765V65.668ZM373.519 63.9H375.443V73H373.519V63.9ZM376.731 68.45C376.731 65.59 378.317 63.705 380.748 63.705C383.166 63.705 384.778 65.59 384.778 68.45C384.778 71.31 383.166 73.195 380.748 73.195C378.317 73.195 376.731 71.31 376.731 68.45ZM382.854 68.45C382.854 66.578 382.048 65.46 380.748 65.46C379.448 65.46 378.655 66.578 378.655 68.45C378.655 70.322 379.448 71.44 380.748 71.44C382.061 71.44 382.854 70.322 382.854 68.45ZM386.049 63.9H388.025L391.106 69.685H391.132V63.9H393.056V73H391.08L387.999 67.215H387.973V73H386.049V63.9ZM394.197 69.997L396.082 69.594C396.329 70.946 396.862 71.466 398.071 71.466C398.968 71.466 399.475 71.141 399.475 70.569C399.475 69.932 399.046 69.62 397.525 69.1C396.472 68.749 395.718 68.359 395.276 67.93C394.834 67.501 394.613 66.942 394.613 66.279C394.613 64.758 395.887 63.705 397.694 63.705C399.475 63.705 400.866 64.784 401.152 66.383L399.28 66.786C399.033 65.863 398.526 65.434 397.694 65.434C396.979 65.434 396.511 65.759 396.511 66.266C396.511 66.734 396.901 66.994 398.253 67.449C399.384 67.839 400.19 68.268 400.671 68.749C401.152 69.23 401.399 69.828 401.399 70.569C401.399 72.142 400.034 73.195 398.045 73.195C395.874 73.195 394.522 72.077 394.197 69.997Z" fill="black"/>
<path d="M39 193.007C39 188.585 42.575 185 46.996 185H212.004C216.42 185 220 188.588 220 193.007V224.993C220 229.415 216.425 233 212.004 233H46.996C42.58 233 39 229.412 39 224.993V193.007Z" fill="white" stroke="#979797" stroke-width="2" stroke-dasharray="3 3"/>
<path d="M55.461 210.45C55.461 207.577 57.047 205.705 59.478 205.705C61.402 205.705 62.897 207.031 63.105 208.955L61.22 209.267C61.025 208.11 60.401 207.46 59.478 207.46C58.165 207.46 57.385 208.578 57.385 210.45C57.385 212.322 58.165 213.44 59.478 213.44C60.453 213.44 61.077 212.751 61.246 211.49L63.131 211.815C62.897 213.856 61.467 215.195 59.478 215.195C57.047 215.195 55.461 213.323 55.461 210.45ZM64.2583 205.9H66.1823V209.462H69.1333V205.9H71.0573V215H69.1333V211.217H66.1823V215H64.2583V205.9ZM77.7798 213.583H74.2958L73.8148 215H71.9037L75.1538 205.9H76.9218L80.1718 215H78.2608L77.7798 213.583ZM77.1948 211.893L76.0508 208.539H76.0248L74.8808 211.893H77.1948ZM81.7625 207.668H79.1235V205.9H86.3125V207.668H83.6865V215H81.7625V207.668ZM90.8296 205.9H92.7536V215H90.8296V205.9ZM94.562 205.9H96.538L99.619 211.685H99.645V205.9H101.569V215H99.593L96.512 209.215H96.486V215H94.562V205.9ZM105.414 207.668H102.775V205.9H109.964V207.668H107.338V215H105.414V207.668ZM111.168 205.9H117.031V207.668H113.092V209.514H116.68V211.204H113.092V213.232H117.044V215H111.168V205.9ZM117.808 210.45C117.808 207.59 119.394 205.705 121.825 205.705C123.736 205.705 125.179 206.992 125.413 208.825L123.541 209.124C123.346 208.084 122.709 207.46 121.825 207.46C120.512 207.46 119.732 208.578 119.732 210.45C119.732 212.322 120.525 213.44 121.838 213.44C122.917 213.44 123.541 212.816 123.554 211.737H121.929V210.19H125.374V211.425C125.374 213.687 123.957 215.195 121.825 215.195C119.394 215.195 117.808 213.323 117.808 210.45ZM133.558 215H131.491L129.775 211.802H128.605V215H126.681V205.9H130.386C132.31 205.9 133.493 207.018 133.493 208.838C133.493 210.151 132.843 211.152 131.712 211.581V211.594L133.558 215ZM130.152 210.047C131.075 210.047 131.569 209.618 131.569 208.825C131.569 208.045 131.101 207.655 130.152 207.655H128.605V210.047H130.152ZM139.695 213.583H136.211L135.73 215H133.819L137.069 205.9H138.837L142.087 215H140.176L139.695 213.583ZM139.11 211.893L137.966 208.539H137.94L136.796 211.893H139.11ZM143.678 207.668H141.039V205.9H148.228V207.668H145.602V215H143.678V207.668ZM149.431 205.9H151.355V215H149.431V205.9ZM152.644 210.45C152.644 207.59 154.23 205.705 156.661 205.705C159.079 205.705 160.691 207.59 160.691 210.45C160.691 213.31 159.079 215.195 156.661 215.195C154.23 215.195 152.644 213.31 152.644 210.45ZM158.767 210.45C158.767 208.578 157.961 207.46 156.661 207.46C155.361 207.46 154.568 208.578 154.568 210.45C154.568 212.322 155.361 213.44 156.661 213.44C157.974 213.44 158.767 212.322 158.767 210.45ZM161.961 205.9H163.937L167.018 211.685H167.044V205.9H168.968V215H166.992L163.911 209.215H163.885V215H161.961V205.9ZM170.109 211.997L171.994 211.594C172.241 212.946 172.774 213.466 173.983 213.466C174.88 213.466 175.387 213.141 175.387 212.569C175.387 211.932 174.958 211.62 173.437 211.1C172.384 210.749 171.63 210.359 171.188 209.93C170.746 209.501 170.525 208.942 170.525 208.279C170.525 206.758 171.799 205.705 173.606 205.705C175.387 205.705 176.778 206.784 177.064 208.383L175.192 208.786C174.945 207.863 174.438 207.434 173.606 207.434C172.891 207.434 172.423 207.759 172.423 208.266C172.423 208.734 172.813 208.994 174.165 209.449C175.296 209.839 176.102 210.268 176.583 210.749C177.064 211.23 177.311 211.828 177.311 212.569C177.311 214.142 175.946 215.195 173.957 215.195C171.786 215.195 170.434 214.077 170.109 211.997Z" fill="black"/>
<path d="M494 193.007C494 188.585 497.575 185 501.997 185H680.003C684.42 185 688 188.588 688 193.007V224.993C688 229.415 684.425 233 680.003 233H501.997C497.58 233 494 229.412 494 224.993V193.007Z" fill="white" stroke="#979797" stroke-width="2" stroke-dasharray="3 3"/>
<path d="M521.758 215H519.691L517.975 211.802H516.805V215H514.881V205.9H518.586C520.51 205.9 521.693 207.018 521.693 208.838C521.693 210.151 521.043 211.152 519.912 211.581V211.594L521.758 215ZM518.352 210.047C519.275 210.047 519.769 209.618 519.769 208.825C519.769 208.045 519.301 207.655 518.352 207.655H516.805V210.047H518.352ZM522.981 205.9H528.844V207.668H524.905V209.514H528.493V211.204H524.905V213.232H528.857V215H522.981V205.9ZM529.618 211.997L531.503 211.594C531.75 212.946 532.283 213.466 533.492 213.466C534.389 213.466 534.896 213.141 534.896 212.569C534.896 211.932 534.467 211.62 532.946 211.1C531.893 210.749 531.139 210.359 530.697 209.93C530.255 209.501 530.034 208.942 530.034 208.279C530.034 206.758 531.308 205.705 533.115 205.705C534.896 205.705 536.287 206.784 536.573 208.383L534.701 208.786C534.454 207.863 533.947 207.434 533.115 207.434C532.4 207.434 531.932 207.759 531.932 208.266C531.932 208.734 532.322 208.994 533.674 209.449C534.805 209.839 535.611 210.268 536.092 210.749C536.573 211.23 536.82 211.828 536.82 212.569C536.82 214.142 535.455 215.195 533.466 215.195C531.295 215.195 529.943 214.077 529.618 211.997ZM539.635 207.668H536.996V205.9H544.185V207.668H541.559V215H539.635V207.668ZM555.566 214.623L554.812 213.986C554.201 214.766 553.174 215.195 551.809 215.195C549.677 215.195 548.442 214.207 548.442 212.504C548.442 211.516 549.027 210.619 550.067 209.956C549.404 209.345 549.105 208.76 549.105 208.045C549.105 206.68 550.223 205.705 551.822 205.705C553.395 205.705 554.461 206.589 554.63 208.032L552.797 208.266C552.719 207.694 552.394 207.408 551.822 207.408C551.289 207.408 550.951 207.668 550.951 208.097C550.951 208.396 551.107 208.591 551.575 209.007L553.746 210.827V209.475H555.462V212.257L556.684 213.284L555.566 214.623ZM553.434 212.816L551.302 210.996C550.678 211.347 550.301 211.828 550.301 212.309C550.301 213.037 550.873 213.479 551.822 213.479C552.602 213.479 553.135 213.258 553.434 212.816ZM560.306 210.45C560.306 207.59 561.892 205.705 564.323 205.705C566.234 205.705 567.677 206.992 567.911 208.825L566.039 209.124C565.844 208.084 565.207 207.46 564.323 207.46C563.01 207.46 562.23 208.578 562.23 210.45C562.23 212.322 563.023 213.44 564.336 213.44C565.415 213.44 566.039 212.816 566.052 211.737H564.427V210.19H567.872V211.425C567.872 213.687 566.455 215.195 564.323 215.195C561.892 215.195 560.306 213.323 560.306 210.45ZM576.056 215H573.989L572.273 211.802H571.103V215H569.179V205.9H572.884C574.808 205.9 575.991 207.018 575.991 208.838C575.991 210.151 575.341 211.152 574.21 211.581V211.594L576.056 215ZM572.65 210.047C573.573 210.047 574.067 209.618 574.067 208.825C574.067 208.045 573.599 207.655 572.65 207.655H571.103V210.047H572.65ZM582.193 213.583H578.709L578.228 215H576.317L579.567 205.9H581.335L584.585 215H582.674L582.193 213.583ZM581.608 211.893L580.464 208.539H580.438L579.294 211.893H581.608ZM585.417 205.9H589.148C591.085 205.9 592.307 207.031 592.307 208.903C592.307 210.788 591.111 211.893 589.122 211.893H587.341V215H585.417V205.9ZM589.096 210.125C589.876 210.125 590.383 209.657 590.383 208.89C590.383 208.071 589.954 207.655 589.109 207.655H587.341V210.125H589.096ZM593.402 205.9H595.326V209.462H598.277V205.9H600.201V215H598.277V211.217H595.326V215H593.402V205.9ZM608.691 215.195L607.911 214.415C607.248 214.935 606.442 215.195 605.506 215.195C603.075 215.195 601.489 213.31 601.489 210.45C601.489 207.59 603.075 205.705 605.506 205.705C607.924 205.705 609.536 207.59 609.536 210.45C609.536 211.607 609.289 212.595 608.782 213.414L609.64 214.272L608.691 215.195ZM606.598 213.102L604.895 211.399L605.883 210.502L607.378 211.997C607.534 211.568 607.612 211.048 607.612 210.45C607.612 208.578 606.806 207.46 605.506 207.46C604.206 207.46 603.413 208.578 603.413 210.45C603.413 212.322 604.206 213.44 605.506 213.44C605.935 213.44 606.299 213.323 606.598 213.102ZM610.909 205.9H612.833V213.232H616.681V215H610.909V205.9ZM626.119 213.583H622.635L622.154 215H620.243L623.493 205.9H625.261L628.511 215H626.6L626.119 213.583ZM625.534 211.893L624.39 208.539H624.364L623.22 211.893H625.534ZM629.342 205.9H633.073C635.01 205.9 636.232 207.031 636.232 208.903C636.232 210.788 635.036 211.893 633.047 211.893H631.266V215H629.342V205.9ZM633.021 210.125C633.801 210.125 634.308 209.657 634.308 208.89C634.308 208.071 633.879 207.655 633.034 207.655H631.266V210.125H633.021ZM637.328 205.9H639.252V215H637.328V205.9ZM640.41 212.777L642.061 212.335C642.282 213.271 642.75 213.674 643.634 213.674C644.297 213.674 644.674 213.466 644.674 213.115C644.674 212.764 644.388 212.556 644.011 212.413C643.829 212.335 643.556 212.231 643.179 212.114C641.749 211.711 640.839 211.347 640.774 209.995C640.774 208.825 641.892 207.915 643.374 207.915C644.076 207.915 644.7 208.097 645.233 208.474C645.766 208.851 646.117 209.332 646.286 209.943L644.648 210.424C644.427 209.761 643.959 209.423 643.374 209.423C642.841 209.423 642.503 209.657 642.503 209.969C642.503 210.281 642.841 210.411 643.738 210.671C644.817 210.983 645.493 211.217 646.013 211.841C646.273 212.153 646.403 212.556 646.403 213.05C646.403 213.687 646.156 214.207 645.649 214.61C645.142 215 644.479 215.195 643.634 215.195C641.866 215.195 640.709 214.337 640.41 212.777Z" fill="black"/>
<path d="M521 75.007C521 70.585 524.576 67 528.99 67H648.01C652.422 67 656 70.588 656 75.007V106.993C656 111.415 652.424 115 648.01 115H528.99C524.579 115 521 111.412 521 106.993V75.007Z" fill="white" stroke="#979797" stroke-width="2" stroke-dasharray="3 3"/>
<path d="M533.98 87.9H535.943L537.165 93.893H537.191L538.855 87.9H540.623L542.287 93.893H542.313L543.535 87.9H545.498L543.574 97H541.533L539.752 90.76H539.726L537.945 97H535.917L533.98 87.9ZM546.528 87.9H552.391V89.668H548.452V91.514H552.04V93.204H548.452V95.232H552.404V97H546.528V87.9ZM553.815 87.9H557.767C559.34 87.9 560.471 88.927 560.471 90.344C560.471 91.085 560.12 91.696 559.548 92.047V92.073C560.328 92.437 560.809 93.217 560.809 94.166C560.809 96.077 559.678 97 557.351 97H553.815V87.9ZM557.494 91.527C558.183 91.527 558.56 91.189 558.56 90.565C558.56 89.954 558.183 89.616 557.494 89.616H555.739V91.527H557.494ZM557.702 95.284C558.521 95.284 558.898 94.92 558.898 94.153C558.898 93.438 558.482 93.048 557.715 93.048H555.739V95.284H557.702ZM565.406 87.9H567.33V97H565.406V87.9ZM569.138 87.9H571.114L574.195 93.685H574.221V87.9H576.145V97H574.169L571.088 91.215H571.062V97H569.138V87.9ZM579.99 89.668H577.351V87.9H584.54V89.668H581.914V97H579.99V89.668ZM585.744 87.9H591.607V89.668H587.668V91.514H591.256V93.204H587.668V95.232H591.62V97H585.744V87.9ZM599.908 97H597.841L596.125 93.802H594.955V97H593.031V87.9H596.736C598.66 87.9 599.843 89.018 599.843 90.838C599.843 92.151 599.193 93.152 598.062 93.581V93.594L599.908 97ZM596.502 92.047C597.425 92.047 597.919 91.618 597.919 90.825C597.919 90.045 597.451 89.655 596.502 89.655H594.955V92.047H596.502ZM601.13 87.9H606.993V89.668H603.054V91.891H606.72V93.581H603.054V97H601.13V87.9ZM612.608 95.583H609.124L608.643 97H606.732L609.982 87.9H611.75L615 97H613.089L612.608 95.583ZM612.023 93.893L610.879 90.539H610.853L609.709 93.893H612.023ZM615.058 92.45C615.058 89.577 616.644 87.705 619.075 87.705C620.999 87.705 622.494 89.031 622.702 90.955L620.817 91.267C620.622 90.11 619.998 89.46 619.075 89.46C617.762 89.46 616.982 90.578 616.982 92.45C616.982 94.322 617.762 95.44 619.075 95.44C620.05 95.44 620.674 94.751 620.843 93.49L622.728 93.815C622.494 95.856 621.064 97.195 619.075 97.195C616.644 97.195 615.058 95.323 615.058 92.45ZM623.855 87.9H629.718V89.668H625.779V91.514H629.367V93.204H625.779V95.232H629.731V97H623.855V87.9Z" fill="black"/>
<path d="M507 498.007C507 493.585 510.585 490 514.998 490H666.002C670.419 490 674 493.588 674 498.007V529.993C674 534.415 670.415 538 666.002 538H514.998C510.581 538 507 534.412 507 529.993V498.007Z" fill="white" stroke="#979797" stroke-width="2" stroke-dasharray="3 3"/>
<path d="M521.379 510.9H523.303V520H521.379V510.9ZM525.112 510.9H527.088L530.169 516.685H530.195V510.9H532.119V520H530.143L527.062 514.215H527.036V520H525.112V510.9ZM535.964 512.668H533.325V510.9H540.514V512.668H537.888V520H535.964V512.668ZM541.717 510.9H547.58V512.668H543.641V514.514H547.229V516.204H543.641V518.232H547.593V520H541.717V510.9ZM555.881 520H553.814L552.098 516.802H550.928V520H549.004V510.9H552.709C554.633 510.9 555.816 512.018 555.816 513.838C555.816 515.151 555.166 516.152 554.035 516.581V516.594L555.881 520ZM552.475 515.047C553.398 515.047 553.892 514.618 553.892 513.825C553.892 513.045 553.424 512.655 552.475 512.655H550.928V515.047H552.475ZM557.104 510.9H559.08L562.161 516.685H562.187V510.9H564.111V520H562.135L559.054 514.215H559.028V520H557.104V510.9ZM570.816 518.583H567.332L566.851 520H564.94L568.19 510.9H569.958L573.208 520H571.297L570.816 518.583ZM570.231 516.893L569.087 513.539H569.061L567.917 516.893H570.231ZM574.04 510.9H575.964V518.232H579.812V520H574.04V510.9ZM583.685 516.997L585.57 516.594C585.817 517.946 586.35 518.466 587.559 518.466C588.456 518.466 588.963 518.141 588.963 517.569C588.963 516.932 588.534 516.62 587.013 516.1C585.96 515.749 585.206 515.359 584.764 514.93C584.322 514.501 584.101 513.942 584.101 513.279C584.101 511.758 585.375 510.705 587.182 510.705C588.963 510.705 590.354 511.784 590.64 513.383L588.768 513.786C588.521 512.863 588.014 512.434 587.182 512.434C586.467 512.434 585.999 512.759 585.999 513.266C585.999 513.734 586.389 513.994 587.741 514.449C588.872 514.839 589.678 515.268 590.159 515.749C590.64 516.23 590.887 516.828 590.887 517.569C590.887 519.142 589.522 520.195 587.533 520.195C585.362 520.195 584.01 519.077 583.685 516.997ZM593.651 516.295L590.596 510.9H592.663L594.587 514.618H594.613L596.563 510.9H598.617L595.575 516.295V520H593.651V516.295ZM598.476 516.997L600.361 516.594C600.608 517.946 601.141 518.466 602.35 518.466C603.247 518.466 603.754 518.141 603.754 517.569C603.754 516.932 603.325 516.62 601.804 516.1C600.751 515.749 599.997 515.359 599.555 514.93C599.113 514.501 598.892 513.942 598.892 513.279C598.892 511.758 600.166 510.705 601.973 510.705C603.754 510.705 605.145 511.784 605.431 513.383L603.559 513.786C603.312 512.863 602.805 512.434 601.973 512.434C601.258 512.434 600.79 512.759 600.79 513.266C600.79 513.734 601.18 513.994 602.532 514.449C603.663 514.839 604.469 515.268 604.95 515.749C605.431 516.23 605.678 516.828 605.678 517.569C605.678 519.142 604.313 520.195 602.324 520.195C600.153 520.195 598.801 519.077 598.476 516.997ZM608.492 512.668H605.853V510.9H613.042V512.668H610.416V520H608.492V512.668ZM614.246 510.9H620.109V512.668H616.17V514.514H619.758V516.204H616.17V518.232H620.122V520H614.246V510.9ZM621.533 510.9H623.665L626.213 517.023H626.239L628.8 510.9H630.932V520H629.047V514.384H629.021L626.642 520H625.81L623.444 514.384H623.418V520H621.533V510.9ZM632.08 516.997L633.965 516.594C634.212 517.946 634.745 518.466 635.954 518.466C636.851 518.466 637.358 518.141 637.358 517.569C637.358 516.932 636.929 516.62 635.408 516.1C634.355 515.749 633.601 515.359 633.159 514.93C632.717 514.501 632.496 513.942 632.496 513.279C632.496 511.758 633.77 510.705 635.577 510.705C637.358 510.705 638.749 511.784 639.035 513.383L637.163 513.786C636.916 512.863 636.409 512.434 635.577 512.434C634.862 512.434 634.394 512.759 634.394 513.266C634.394 513.734 634.784 513.994 636.136 514.449C637.267 514.839 638.073 515.268 638.554 515.749C639.035 516.23 639.282 516.828 639.282 517.569C639.282 519.142 637.917 520.195 635.928 520.195C633.757 520.195 632.405 519.077 632.08 516.997Z" fill="black"/>
<path d="M593 312H534C529.582 312 526 315.582 526 320V352C526 356.418 529.582 360 534 360H593C597.418 360 601 356.418 601 352V320C601 315.582 597.418 312 593 312Z" fill="white"/>
<path d="M592.5 312.5H534.5C530.082 312.5 526.5 316.082 526.5 320.5V351.5C526.5 355.918 530.082 359.5 534.5 359.5H592.5C596.918 359.5 600.5 355.918 600.5 351.5V320.5C600.5 316.082 596.918 312.5 592.5 312.5Z" stroke="#979797"/>
<path d="M545.967 340.583H542.483L542.002 342H540.091L543.341 332.9H545.109L548.359 342H546.448L545.967 340.583ZM545.382 338.893L544.238 335.539H544.212L543.068 338.893H545.382ZM548.417 337.45C548.417 334.59 550.003 332.705 552.434 332.705C554.345 332.705 555.788 333.992 556.022 335.825L554.15 336.124C553.955 335.084 553.318 334.46 552.434 334.46C551.121 334.46 550.341 335.578 550.341 337.45C550.341 339.322 551.134 340.44 552.447 340.44C553.526 340.44 554.15 339.816 554.163 338.737H552.538V337.19H555.983V338.425C555.983 340.687 554.566 342.195 552.434 342.195C550.003 342.195 548.417 340.323 548.417 337.45ZM557.291 332.9H563.154V334.668H559.215V336.514H562.803V338.204H559.215V340.232H563.167V342H557.291V332.9ZM564.578 332.9H566.554L569.635 338.685H569.661V332.9H571.585V342H569.609L566.528 336.215H566.502V342H564.578V332.9ZM575.43 334.668H572.791V332.9H579.98V334.668H577.354V342H575.43V334.668Z" fill="#2ACE69"/>
<path d="M403 394H317C312.582 394 309 397.582 309 402V451C309 455.418 312.582 459 317 459H403C407.418 459 411 455.418 411 451V402C411 397.582 407.418 394 403 394Z" fill="white"/>
<path d="M402.5 394.5H317.5C313.082 394.5 309.5 398.082 309.5 402.5V450.5C309.5 454.918 313.082 458.5 317.5 458.5H402.5C406.918 458.5 410.5 454.918 410.5 450.5V402.5C410.5 398.082 406.918 394.5 402.5 394.5Z" stroke="#979797"/>
<path d="M398 389H312C307.582 389 304 392.582 304 397V446C304 450.418 307.582 454 312 454H398C402.418 454 406 450.418 406 446V397C406 392.582 402.418 389 398 389Z" fill="white"/>
<path d="M397.5 389.5H312.5C308.082 389.5 304.5 393.082 304.5 397.5V445.5C304.5 449.918 308.082 453.5 312.5 453.5H397.5C401.918 453.5 405.5 449.918 405.5 445.5V397.5C405.5 393.082 401.918 389.5 397.5 389.5Z" stroke="#979797"/>
<path d="M392 383H306C301.582 383 298 386.582 298 391V440C298 444.418 301.582 448 306 448H392C396.418 448 400 444.418 400 440V391C400 386.582 396.418 383 392 383Z" fill="white"/>
<path d="M391.5 383.5H306.5C302.082 383.5 298.5 387.082 298.5 391.5V439.5C298.5 443.918 302.082 447.5 306.5 447.5H391.5C395.918 447.5 399.5 443.918 399.5 439.5V391.5C399.5 387.082 395.918 383.5 391.5 383.5Z" stroke="#979797"/>
<path d="M324.357 420.038H319.533L318.867 422H316.221L320.721 409.4H323.169L327.669 422H325.023L324.357 420.038ZM323.547 417.698L321.963 413.054H321.927L320.343 417.698H323.547ZM327.749 415.7C327.749 411.74 329.945 409.13 333.311 409.13C335.957 409.13 337.955 410.912 338.279 413.45L335.687 413.864C335.417 412.424 334.535 411.56 333.311 411.56C331.493 411.56 330.413 413.108 330.413 415.7C330.413 418.292 331.511 419.84 333.329 419.84C334.823 419.84 335.687 418.976 335.705 417.482H333.455V415.34H338.225V417.05C338.225 420.182 336.263 422.27 333.311 422.27C329.945 422.27 327.749 419.678 327.749 415.7ZM340.035 409.4H348.153V411.848H342.699V414.404H347.667V416.744H342.699V419.552H348.171V422H340.035V409.4ZM350.125 409.4H352.861L357.127 417.41H357.163V409.4H359.827V422H357.091L352.825 413.99H352.789V422H350.125V409.4ZM365.15 411.848H361.496V409.4H371.45V411.848H367.814V422H365.15V411.848Z" fill="#2ACE69"/>
<path d="M469.5 113.5H236.5C232.082 113.5 228.5 117.082 228.5 121.5V169.5C228.5 173.918 232.082 177.5 236.5 177.5H469.5C473.918 177.5 477.5 173.918 477.5 169.5V121.5C477.5 117.082 473.918 113.5 469.5 113.5Z" stroke="#979797"/>
<path d="M248.222 139.4H253.694C255.872 139.4 257.438 140.822 257.438 142.784C257.438 143.81 256.952 144.656 256.16 145.142V145.178C257.24 145.682 257.906 146.762 257.906 148.076C257.906 150.722 256.34 152 253.118 152H248.222V139.4ZM253.316 144.422C254.27 144.422 254.792 143.954 254.792 143.09C254.792 142.244 254.27 141.776 253.316 141.776H250.886V144.422H253.316ZM253.604 149.624C254.738 149.624 255.26 149.12 255.26 148.058C255.26 147.068 254.684 146.528 253.622 146.528H250.886V149.624H253.604ZM259.593 147.842V139.4H262.257V147.662C262.257 149.12 262.977 149.84 264.435 149.84C265.893 149.84 266.613 149.138 266.613 147.698V139.4H269.277V147.842C269.277 150.632 267.477 152.27 264.435 152.27C261.393 152.27 259.593 150.632 259.593 147.842ZM271.672 139.4H274.336V152H271.672V139.4ZM276.84 139.4H279.504V149.552H284.832V152H276.84V139.4ZM286.508 139.4H290.882C294.23 139.4 296.408 141.794 296.408 145.7C296.408 149.624 294.212 152 290.864 152H286.508V139.4ZM290.864 149.552C292.664 149.552 293.744 148.22 293.744 145.7C293.744 143.18 292.664 141.848 290.864 141.848H289.172V149.552H290.864ZM298.162 139.4H300.826V144.548H300.862L305.092 139.4H308.206L303.58 144.98L308.566 152H305.398L301.942 146.96H301.906L300.826 148.274V152H298.162V139.4ZM309.693 139.4H312.357V152H309.693V139.4ZM317.705 141.848H314.051V139.4H324.005V141.848H320.369V152H317.705V141.848ZM325.672 139.4H333.79V141.848H328.336V144.404H333.304V146.744H328.336V149.552H333.808V152H325.672V139.4ZM347.153 150.038H342.329L341.663 152H339.017L343.517 139.4H345.965L350.465 152H347.819L347.153 150.038ZM346.343 147.698L344.759 143.054H344.723L343.139 147.698H346.343ZM350.545 145.7C350.545 141.74 352.741 139.13 356.107 139.13C358.753 139.13 360.751 140.912 361.075 143.45L358.483 143.864C358.213 142.424 357.331 141.56 356.107 141.56C354.289 141.56 353.209 143.108 353.209 145.7C353.209 148.292 354.307 149.84 356.125 149.84C357.619 149.84 358.483 148.976 358.501 147.482H356.251V145.34H361.021V147.05C361.021 150.182 359.059 152.27 356.107 152.27C352.741 152.27 350.545 149.678 350.545 145.7ZM362.832 139.4H370.95V141.848H365.496V144.404H370.464V146.744H365.496V149.552H370.968V152H362.832V139.4ZM372.922 139.4H375.658L379.924 147.41H379.96V139.4H382.624V152H379.888L375.622 143.99H375.586V152H372.922V139.4ZM387.947 141.848H384.293V139.4H394.247V141.848H390.611V152H387.947V141.848ZM407.306 150.038H402.482L401.816 152H399.17L403.67 139.4H406.118L410.618 152H407.972L407.306 150.038ZM406.496 147.698L404.912 143.054H404.876L403.292 147.698H406.496ZM411.769 139.4H416.935C419.617 139.4 421.309 140.966 421.309 143.558C421.309 146.168 419.653 147.698 416.899 147.698H414.433V152H411.769V139.4ZM416.863 145.25C417.943 145.25 418.645 144.602 418.645 143.54C418.645 142.406 418.051 141.83 416.881 141.83H414.433V145.25H416.863ZM422.826 139.4H425.49V152H422.826V139.4Z" fill="#2ACE69"/>
<path d="M535 394H449C444.582 394 441 397.582 441 402V451C441 455.418 444.582 459 449 459H535C539.418 459 543 455.418 543 451V402C543 397.582 539.418 394 535 394Z" fill="white"/>
<path d="M534.5 394.5H449.5C445.082 394.5 441.5 398.082 441.5 402.5V450.5C441.5 454.918 445.082 458.5 449.5 458.5H534.5C538.918 458.5 542.5 454.918 542.5 450.5V402.5C542.5 398.082 538.918 394.5 534.5 394.5Z" stroke="#979797"/>
<path d="M530 389H444C439.582 389 436 392.582 436 397V446C436 450.418 439.582 454 444 454H530C534.418 454 538 450.418 538 446V397C538 392.582 534.418 389 530 389Z" fill="white"/>
<path d="M529.5 389.5H444.5C440.082 389.5 436.5 393.082 436.5 397.5V445.5C436.5 449.918 440.082 453.5 444.5 453.5H529.5C533.918 453.5 537.5 449.918 537.5 445.5V397.5C537.5 393.082 533.918 389.5 529.5 389.5Z" stroke="#979797"/>
<path d="M524 383H438C433.582 383 430 386.582 430 391V440C430 444.418 433.582 448 438 448H524C528.418 448 532 444.418 532 440V391C532 386.582 528.418 383 524 383Z" fill="white"/>
<path d="M523.5 383.5H438.5C434.082 383.5 430.5 387.082 430.5 391.5V439.5C430.5 443.918 434.082 447.5 438.5 447.5H523.5C527.918 447.5 531.5 443.918 531.5 439.5V391.5C531.5 387.082 527.918 383.5 523.5 383.5Z" stroke="#979797"/>
<path d="M456.357 420.038H451.533L450.867 422H448.221L452.721 409.4H455.169L459.669 422H457.023L456.357 420.038ZM455.547 417.698L453.963 413.054H453.927L452.343 417.698H455.547ZM459.749 415.7C459.749 411.74 461.945 409.13 465.311 409.13C467.957 409.13 469.955 410.912 470.279 413.45L467.687 413.864C467.417 412.424 466.535 411.56 465.311 411.56C463.493 411.56 462.413 413.108 462.413 415.7C462.413 418.292 463.511 419.84 465.329 419.84C466.823 419.84 467.687 418.976 467.705 417.482H465.455V415.34H470.225V417.05C470.225 420.182 468.263 422.27 465.311 422.27C461.945 422.27 459.749 419.678 459.749 415.7ZM472.035 409.4H480.153V411.848H474.699V414.404H479.667V416.744H474.699V419.552H480.171V422H472.035V409.4ZM482.125 409.4H484.861L489.127 417.41H489.163V409.4H491.827V422H489.091L484.825 413.99H484.789V422H482.125V409.4ZM497.15 411.848H493.496V409.4H503.45V411.848H499.814V422H497.15V411.848Z" fill="#2ACE69"/>
<path fill-rule="evenodd" clip-rule="evenodd" d="M353.5 185.5L519.5 304.5ZM519.5 304.5L512.47 295.77L508.975 300.646L519.5 304.5ZM353.5 185.5L469.5 368.5ZM469.5 368.5L466.252 357.772L461.184 360.984L469.5 368.5ZM353.5 185.5L345.5 366.5ZM345.5 366.5L348.974 355.843L342.98 355.578L345.5 366.5ZM353.5 185.5L222.5 369.5ZM222.5 369.5L231.208 362.442L226.32 358.962L222.5 369.5ZM353.5 185.5L180.5 303.5ZM180.5 303.5L191.113 299.893L187.732 294.936L180.5 303.5Z" fill="#B4B4B4"/>
<path d="M353.5 185.5L519.5 304.5M353.5 185.5L469.5 368.5M353.5 185.5L345.5 366.5M353.5 185.5L222.5 369.5M353.5 185.5L180.5 303.5M519.5 304.5L512.47 295.77L508.975 300.646L519.5 304.5ZM469.5 368.5L466.252 357.772L461.184 360.984L469.5 368.5ZM345.5 366.5L348.974 355.843L342.98 355.578L345.5 366.5ZM222.5 369.5L231.208 362.442L226.32 358.962L222.5 369.5ZM180.5 303.5L191.113 299.893L187.732 294.936L180.5 303.5Z" stroke="#B4B4B4" stroke-linecap="square"/>
</g>
</g>
<defs>
<clipPath id="clip0_906_2479">
<rect width="730" height="570" fill="white"/>
</clipPath>
<clipPath id="clip1_906_2479">
<rect width="730" height="570" fill="white"/>
</clipPath>
</defs>
</svg>