<svg width="48" height="48" viewBox="0 0 48 48" fill="none" xmlns="http://www.w3.org/2000/svg">
<rect width="48" height="48" rx="2" fill="#14CC80" fill-opacity="0.1"/>
<path d="M19.5 18.75C20.7426 18.75 21.75 17.7426 21.75 16.5C21.75 15.2574 20.7426 14.25 19.5 14.25C18.2574 14.25 17.25 15.2574 17.25 16.5C17.25 17.7426 18.2574 18.75 19.5 18.75Z" stroke="#14CC80" stroke-width="1.5" stroke-linecap="round" stroke-linejoin="round"/>
<path d="M19.5 33.75C20.7426 33.75 21.75 32.7426 21.75 31.5C21.75 30.2574 20.7426 29.25 19.5 29.25C18.2574 29.25 17.25 30.2574 17.25 31.5C17.25 32.7426 18.2574 33.75 19.5 33.75Z" stroke="#14CC80" stroke-width="1.5" stroke-linecap="round" stroke-linejoin="round"/>
<path d="M19.5 29.25V18.75" stroke="#14CC80" stroke-width="1.5" stroke-linecap="round" stroke-linejoin="round"/>
<path d="M28.5 21.75C29.7426 21.75 30.75 20.7426 30.75 19.5C30.75 18.2574 29.7426 17.25 28.5 17.25C27.2574 17.25 26.25 18.2574 26.25 19.5C26.25 20.7426 27.2574 21.75 28.5 21.75Z" stroke="#14CC80" stroke-width="1.5" stroke-linecap="round" stroke-linejoin="round"/>
<path d="M28.5 21.75C28.5 27.75 19.5 24 19.5 29.25" stroke="#14CC80" stroke-width="1.5" stroke-linecap="round" stroke-linejoin="round"/>
</svg>
