<svg xmlns="http://www.w3.org/2000/svg" width="48" height="48" fill="none" viewBox="0 0 48 48"><rect width="48" height="48" fill="#14CC80" fill-opacity=".1" rx="2"/><path stroke="#14CC80" stroke-linecap="round" stroke-linejoin="round" stroke-width="1.5" d="M16.26 22.147C15.9849 24.2526 15.821 26.3712 15.769 28.494C18.6477 29.6966 21.4041 31.1734 24 32.904C26.5961 31.1733 29.3528 29.6965 32.232 28.494C32.1799 26.3712 32.016 24.2526 31.741 22.147M31.741 22.147C32.616 21.853 33.503 21.581 34.399 21.333C31.1355 19.0453 27.6519 17.0889 24 15.493C20.3479 17.0893 16.8643 19.046 13.601 21.334C14.4942 21.5806 15.3806 21.8517 16.259 22.147C18.9276 23.0442 21.5169 24.162 24 25.489C26.4827 24.1621 29.0726 23.0442 31.741 22.147ZM18.75 27C18.9489 27 19.1396 26.921 19.2803 26.7804C19.4209 26.6397 19.5 26.449 19.5 26.25C19.5 26.0511 19.4209 25.8604 19.2803 25.7197C19.1396 25.5791 18.9489 25.5 18.75 25.5C18.551 25.5 18.3603 25.5791 18.2196 25.7197C18.079 25.8604 18 26.0511 18 26.25C18 26.449 18.079 26.6397 18.2196 26.7804C18.3603 26.921 18.551 27 18.75 27ZM18.75 27V23.325C20.4467 22.2704 22.1992 21.3083 24 20.443M16.993 31.993C17.5509 31.4364 17.9934 30.7751 18.2949 30.0469C18.5964 29.3187 18.7511 28.5382 18.75 27.75V26.25"/></svg>