<svg xmlns="http://www.w3.org/2000/svg" width="49" height="48" fill="none" viewBox="0 0 49 48"><rect width="48" height="48" x=".5" fill="#14CC80" fill-opacity=".1" rx="2"/><path stroke="#14CC80" stroke-linecap="round" stroke-linejoin="round" stroke-width="1.5" d="M28.25 21V17.25C28.25 16.6533 28.0129 16.081 27.591 15.659C27.169 15.2371 26.5967 15 26 15H20C19.4033 15 18.831 15.2371 18.409 15.659C17.9871 16.081 17.75 16.6533 17.75 17.25V30.75C17.75 31.3467 17.9871 31.919 18.409 32.341C18.831 32.7629 19.4033 33 20 33H26C26.5967 33 27.169 32.7629 27.591 32.341C28.0129 31.919 28.25 31.3467 28.25 30.75V27M24.5 21L21.5 24M21.5 24L24.5 27M21.5 24H34.25"/></svg>