<svg xmlns="http://www.w3.org/2000/svg" width="48" height="48" fill="none" viewBox="0 0 48 48"><rect width="48" height="48" fill="#EB130F" fill-opacity=".1" rx="2"/><path stroke="#F83F23" stroke-linecap="round" stroke-linejoin="round" stroke-width="1.5" d="M18 18.878V18C18 17.4033 18.2371 16.831 18.659 16.409C19.081 15.9871 19.6533 15.75 20.25 15.75H27.75C28.3467 15.75 28.919 15.9871 29.341 16.409C29.7629 16.831 30 17.4033 30 18V18.878M18 18.878C18.235 18.795 18.487 18.75 18.75 18.75H29.25C29.513 18.75 29.765 18.795 30 18.878M18 18.878C17.5612 19.0331 17.1813 19.3205 16.9127 19.7006C16.644 20.0806 16.4999 20.5346 16.5 21V21.878M30 18.878C30.4388 19.0331 30.8187 19.3205 31.0873 19.7006C31.356 20.0806 31.5001 20.5346 31.5 21V21.878M16.5 21.878C16.735 21.795 16.987 21.75 17.25 21.75H30.75C31.0055 21.7497 31.2591 21.793 31.5 21.878M16.5 21.878C15.626 22.187 15 23.02 15 24V30C15 30.5967 15.2371 31.169 15.659 31.591C16.081 32.0129 16.6533 32.25 17.25 32.25H30.75C31.3467 32.25 31.919 32.0129 32.341 31.591C32.7629 31.169 33 30.5967 33 30V24C33.0001 23.5346 32.856 23.0806 32.5873 22.7006C32.3187 22.3205 31.9388 22.0331 31.5 21.878"/></svg>